<?xml version="1.0" encoding="UTF-8" standalone="no"?><svg xmlns="http://www.w3.org/2000/svg" xmlns:xlink="http://www.w3.org/1999/xlink" contentScriptType="application/ecmascript" contentStyleType="text/css" height="478px" preserveAspectRatio="none" version="1.1" viewBox="0 0 1255 478" width="1255px" zoomAndPan="magnify"><defs><filter height="300%" id="fy99zhmng0wrp" width="300%" x="-1" y="-1"><feGaussianBlur result="blurOut" stdDeviation="2.0"/><feColorMatrix in="blurOut" result="blurOut2" type="matrix" values="0 0 0 0 0 0 0 0 0 0 0 0 0 0 0 0 0 0 .4 0"/><feOffset dx="4.0" dy="4.0" in="blurOut2" result="blurOut3"/><feBlend in="SourceGraphic" in2="blurOut3" mode="normal"/></filter></defs><g><polygon fill="none" points="571,2,571,2.2102,580.9091,1.5857,590.8182,2.1933,600.7273,2.3997,610.6364,1.2866,620.5455,1.9223,630.4545,1.5735,640.3636,1.6165,650.2727,1.9318,660.1818,1.3086,670.0909,2.5536,680,2,679.9196,1.8059,681.0354,2.3784,682.1764,3.0117,683.171,3.2916,684.2513,3.7784,685.3033,4.1967,685.2935,4.1926,685.7976,5.2801,686.2556,6.3485,686.8017,7.4534,687.2673,8.5249,687.5,9.5,687.7264,9.5,687.5849,12.6906,687.6545,15.8813,687.7341,19.0719,687.2596,22.2625,687.5,25.4531,687.709,25.5397,686.9693,26.476,686.7857,27.6425,686.0295,28.572,685.7215,29.687,685.3033,30.7564,685.3979,30.9848,684.2364,31.1808,683.1954,31.6675,682.1645,32.1787,681.1138,32.642,680,32.9531,680,32.9492,670.0909,33.2403,660.1818,32.3807,650.2727,33.2375,640.3636,33.5013,630.4545,33.3977,620.5455,33.5661,610.6364,32.47,600.7273,32.3009,590.8182,32.3317,580.9091,32.8942,571,32.9531,570.9749,32.8926,570.0263,32.7236,568.8564,32.0207,567.7743,31.5295,566.7865,31.2661,565.6967,30.7564,565.4913,30.6714,565.0975,29.6295,565.0179,28.7179,564.5128,27.63,564.1655,26.6075,563.5,25.4531,563.3927,25.4531,563.6064,22.2625,563.6968,19.0719,563.3425,15.8813,563.468,12.6906,563.5,9.5,563.5388,9.5161,564.1401,8.5225,564.3774,7.3781,564.9605,6.377,565.0868,5.1867,565.6967,4.1967,565.6103,3.9881,566.8216,3.9125,567.7266,3.0972,568.9436,3.0354,569.9657,2.503,571,2" style="stroke: #000000; stroke-width: 1.0;"/><text fill="#000000" font-family="sans-serif" font-size="18" lengthAdjust="spacingAndGlyphs" textLength="108" x="571.5" y="23.708">家中网络拓扑</text><!--MD5=[fda4ec244e27670a79215dd09aafa138]
entity ISPModem--><polygon fill="#FEFECE" filter="url(#fy99zhmng0wrp)" points="391,429.9531,391.0495,430.0027,392.9023,427.8555,395.0456,425.9987,397.0942,424.0473,398.8319,421.785,401,419.9531,401,419.8754,411,419.5266,421,419.5696,431,419.885,441,419.2618,451,420.5068,461,419.3228,471,419.7554,481,420.3851,491,419.9531,490.9714,419.9531,491.0227,427.2125,490.9894,434.4719,491.0595,441.7313,491.0797,448.9906,491,456.25,491.138,456.388,489.1582,458.4082,487.1601,460.4101,485.06,462.31,483.1093,464.3593,481,466.25,481,466.9522,471,465.5288,461,466.9285,451,465.9535,441,466.7838,431,465.755,421,466.1815,411,466.9916,401,466.2013,391,466.25,391.0351,466.25,391.1129,458.9906,391.1387,451.7313,390.9987,444.4719,391.0957,437.2125,391,429.9531" style="stroke: #000000; stroke-width: 1.5;"/><path d="M481,429.9531 L481.0661,430.0192 L482.6698,428.0229 L484.6607,426.4139 L486.5256,424.6787 L487.9758,422.5289 L490,420.9531 " fill="#FEFECE" style="stroke: #000000; stroke-width: 1.5;"/><path d="M391,429.9531 L391,430.2334 L401,429.4007 L411,430.2108 L421,430.486 L431,429.0019 L441,429.8495 L451,429.3845 L461,429.4418 L471,429.8622 L481,429.9531 " fill="#FEFECE" style="stroke: #000000; stroke-width: 1.5;"/><path d="M481,429.9531 L481.0934,429.9531 L480.8159,437.2125 L481.0859,444.4719 L481.1776,451.7313 L480.6829,458.9906 L481,466.25 " fill="#FEFECE" style="stroke: #000000; stroke-width: 1.5;"/><text fill="#000000" font-family="sans-serif" font-size="14" font-weight="bold" lengthAdjust="spacingAndGlyphs" textLength="60" x="406" y="452.9482">电信光猫</text><!--MD5=[aba84b779106803175e5c2c7f9cba07a]
entity TPLinkSwitch--><polygon fill="#FEFECE" filter="url(#fy99zhmng0wrp)" points="175.5,315.4531,175.5495,315.5027,177.4023,313.3555,179.5456,311.4987,181.5942,309.5473,183.3319,307.285,185.5,305.4531,185.5,305.3754,195.3125,305.0266,205.125,305.0696,214.9375,305.385,224.75,304.7618,234.5625,306.0068,244.375,304.8228,254.1875,305.2554,264,305.8851,273.8125,305.3673,283.625,305.5214,293.4375,305.4212,303.25,305.6317,313.0625,305.6923,322.875,306.0388,332.6875,306.1242,342.5,305.4531,342.7264,305.4531,342.5849,312.7125,342.6545,319.9719,342.7341,327.2313,342.2596,334.4906,342.5,341.75,342.6599,341.9099,340.4301,343.6801,338.6258,345.8758,336.3833,347.6333,334.4839,349.7339,332.5,351.75,332.5,352.4916,322.6875,351.7013,312.875,351.8553,303.0625,352.0886,293.25,352.1662,283.4375,351.7461,273.625,352.0372,263.8125,351.1776,254,352.0344,244.1875,352.2982,234.375,352.1945,224.5625,352.363,214.75,351.2669,204.9375,351.0978,195.125,351.1286,185.3125,351.6911,175.5,351.75,175.4345,351.75,175.7271,344.4906,175.4418,337.2313,175.3856,329.9719,175.5761,322.7125,175.5,315.4531" style="stroke: #000000; stroke-width: 1.5;"/><path d="M332.5,315.4531 L332.5661,315.5192 L334.1698,313.5229 L336.1607,311.9139 L338.0256,310.1787 L339.4758,308.0289 L341.5,306.4531 " fill="#FEFECE" style="stroke: #000000; stroke-width: 1.5;"/><path d="M175.5,315.4531 L175.5,315.7334 L185.3125,314.9007 L195.125,315.7108 L204.9375,315.986 L214.75,314.5019 L224.5625,315.3495 L234.375,314.8845 L244.1875,314.9418 L254,315.3622 L263.8125,314.5313 L273.625,316.1913 L283.4375,314.6128 L293.25,315.1894 L303.0625,316.0291 L312.875,315.3388 L322.6875,315.5441 L332.5,315.4531 " fill="#FEFECE" style="stroke: #000000; stroke-width: 1.5;"/><path d="M332.5,315.4531 L332.5934,315.4531 L332.3159,322.7125 L332.5859,329.9719 L332.6776,337.2313 L332.1829,344.4906 L332.5,351.75 " fill="#FEFECE" style="stroke: #000000; stroke-width: 1.5;"/><text fill="#000000" font-family="sans-serif" font-size="14" font-weight="bold" lengthAdjust="spacingAndGlyphs" textLength="127" x="190.5" y="338.4482">TPLink千兆交换机</text><!--MD5=[b1fb5dcc1c11b9a2c0d99ddf678ab688]
entity BananaPi--><polygon fill="#FEFECE" filter="url(#fy99zhmng0wrp)" points="6,167.9531,6.0495,168.0027,7.9023,165.8555,10.0456,163.9987,12.0942,162.0473,13.8319,159.785,16,157.9531,16,157.8754,25.6923,157.5266,35.3846,157.5696,45.0769,157.885,54.7692,157.2618,64.4615,158.5068,74.1538,157.3228,83.8462,157.7554,93.5385,158.3851,103.2308,157.8673,112.9231,158.0214,122.6154,157.9212,132.3077,158.1317,142,157.9531,142.2391,157.9531,142.5857,168.0521,142.6711,178.151,142.6793,188.25,142.2546,198.349,142.4636,208.4479,142,218.5469,142.1655,218.7124,139.83,220.3769,138.1599,222.7068,135.9301,224.477,134.1258,226.6727,132,228.5469,132,228.0519,122.3077,228.4784,112.6154,229.2885,102.9231,228.4981,93.2308,228.6522,83.5385,228.8855,73.8462,228.9631,64.1538,228.543,54.4615,228.8341,44.7692,227.9745,35.0769,228.8313,25.3846,229.0951,15.6923,228.9914,6,228.5469,6.613,228.5469,5.5169,218.4479,5.3478,208.349,5.3786,198.25,5.9411,188.151,5.8035,178.0521,6,167.9531" style="stroke: #000000; stroke-width: 1.5;"/><path d="M132,167.9531 L132.0661,168.0192 L133.6698,166.0229 L135.6607,164.4139 L137.5256,162.6787 L138.9758,160.5289 L141,158.9531 " fill="#FEFECE" style="stroke: #000000; stroke-width: 1.5;"/><path d="M6,167.9531 L6,168.2334 L15.6923,167.4007 L25.3846,168.2108 L35.0769,168.486 L44.7692,167.0019 L54.4615,167.8495 L64.1538,167.3845 L73.8462,167.4418 L83.5385,167.8622 L93.2308,167.0313 L102.9231,168.6913 L112.6154,167.1128 L122.3077,167.6894 L132,167.9531 " fill="#FEFECE" style="stroke: #000000; stroke-width: 1.5;"/><path d="M132,167.9531 L132.2802,167.9531 L131.4476,178.0521 L132.2577,188.151 L132.5329,198.25 L131.0488,208.349 L131.8964,218.4479 L132,228.5469 " fill="#FEFECE" style="stroke: #000000; stroke-width: 1.5;"/><text fill="#000000" font-family="sans-serif" font-size="14" font-weight="bold" lengthAdjust="spacingAndGlyphs" textLength="65" x="21" y="190.9482">香蕉派R1</text><path d="M6,194.25 L6,194.5302 L15.6923,193.6976 L25.3846,194.5077 L35.0769,194.7829 L44.7692,193.2988 L54.4615,194.1464 L64.1538,193.6813 L73.8462,193.7387 L83.5385,194.1591 L93.2308,193.3282 L102.9231,194.9882 L112.6154,193.4096 L122.3077,193.9863 L132,194.25 " fill="none" style="stroke: #000000; stroke-width: 1.0; stroke-dasharray: 1.0,2.0;"/><path d="M132,194.25 L132.0661,194.3161 L133.8698,192.1198 L136.0607,190.3107 L138.1256,188.3756 L139.7758,186.0258 L142,184.25 " fill="none" style="stroke: #000000; stroke-width: 1.0; stroke-dasharray: 1.0,2.0;"/><text fill="#000000" font-family="sans-serif" font-size="14" lengthAdjust="spacingAndGlyphs" textLength="84" x="27" y="211.2451">科学上网备用</text><!--MD5=[f0ad1c098305ab3629522329838cab5b]
entity HTPC--><polygon fill="#FEFECE" filter="url(#fy99zhmng0wrp)" points="177,159.9531,177.0495,160.0027,178.9023,157.8555,181.0456,155.9987,183.0942,154.0473,184.8319,151.785,187,149.9531,187,149.8754,197.2667,149.5266,207.5333,149.5696,217.8,149.885,228.0667,149.2618,238.3333,150.5068,248.6,149.3228,258.8667,149.7554,269.1333,150.3851,279.4,149.8673,289.6667,150.0214,299.9333,149.9212,310.2,150.1317,320.4667,150.1923,330.7333,150.5388,341,149.9531,341.6711,149.9531,341.6793,159.5645,341.2546,169.1758,341.4636,178.7871,341.7022,188.3984,340.2788,198.0098,341.6785,207.6211,340.7035,217.2324,341,226.8438,341.1258,226.9696,338.8833,228.7271,336.9839,230.8276,335.1748,233.0185,332.9885,234.8323,331,236.8438,331,236.9491,320.7333,237.1824,310.4667,237.26,300.2,236.8398,289.9333,237.131,279.6667,236.2713,269.4,237.1281,259.1333,237.3919,248.8667,237.2883,238.6,237.4568,228.3333,236.3607,218.0667,236.1916,207.8,236.2223,197.5333,236.7849,187.2667,236.6472,177,236.8438,177.6814,236.8438,176.8253,227.2324,176.6569,217.6211,177.2283,208.0098,176.3332,198.3984,176.4809,188.7871,177.649,179.1758,177.4357,169.5645,177,159.9531" style="stroke: #000000; stroke-width: 1.5;"/><path d="M331,159.9531 L331.0661,160.0192 L332.6698,158.0229 L334.6607,156.4139 L336.5256,154.6787 L337.9758,152.5289 L340,150.9531 " fill="#FEFECE" style="stroke: #000000; stroke-width: 1.5;"/><path d="M177,159.9531 L177,160.2334 L187.2667,159.4007 L197.5333,160.2108 L207.8,160.486 L218.0667,159.0019 L228.3333,159.8495 L238.6,159.3845 L248.8667,159.4418 L259.1333,159.8622 L269.4,159.0313 L279.6667,160.6913 L289.9333,159.1128 L300.2,159.6894 L310.4667,160.5291 L320.7333,159.8388 L331,159.9531 " fill="#FEFECE" style="stroke: #000000; stroke-width: 1.5;"/><path d="M331,159.9531 L331.2802,159.9531 L330.4476,169.5645 L331.2577,179.1758 L331.5329,188.7871 L330.0488,198.3984 L330.8964,208.0098 L330.4313,217.6211 L330.4887,227.2324 L331,236.8438 " fill="#FEFECE" style="stroke: #000000; stroke-width: 1.5;"/><text fill="#000000" font-family="sans-serif" font-size="14" font-weight="bold" lengthAdjust="spacingAndGlyphs" textLength="42" x="192" y="182.9482">HTPC</text><path d="M177,186.25 L177,186.5302 L187.2667,185.6976 L197.5333,186.5077 L207.8,186.7829 L218.0667,185.2988 L228.3333,186.1464 L238.6,185.6813 L248.8667,185.7387 L259.1333,186.1591 L269.4,185.3282 L279.6667,186.9882 L289.9333,185.4096 L300.2,185.9863 L310.4667,186.8259 L320.7333,186.1356 L331,186.25 " fill="none" style="stroke: #000000; stroke-width: 1.0; stroke-dasharray: 1.0,2.0;"/><path d="M331,186.25 L331.0661,186.3161 L332.8698,184.1198 L335.0607,182.3107 L337.1256,180.3756 L338.7758,178.0258 L341,176.25 " fill="none" style="stroke: #000000; stroke-width: 1.0; stroke-dasharray: 1.0,2.0;"/><text fill="#000000" font-family="sans-serif" font-size="14" lengthAdjust="spacingAndGlyphs" textLength="84" x="198" y="203.2451">科学上网主力</text><text fill="#000000" font-family="sans-serif" font-size="14" lengthAdjust="spacingAndGlyphs" textLength="112" x="198" y="219.542">很多其他服务程序</text><!--MD5=[8be9e00b8ae144cc3302ac29d6119746]
entity TPLinkR470GP--><polygon fill="#FEFECE" filter="url(#fy99zhmng0wrp)" points="542,306.9531,542.0495,307.0027,543.9023,304.8555,546.0456,302.9987,548.0942,301.0473,549.8319,298.785,552,296.9531,552,296.8754,562.1333,296.5266,572.2667,296.5696,582.4,296.885,592.5333,296.2618,602.6667,297.5068,612.8,296.3228,622.9333,296.7554,633.0667,297.3851,643.2,296.8673,653.3333,297.0214,663.4667,296.9212,673.6,297.1317,683.7333,297.1923,693.8667,297.5388,704,296.9531,704.6711,296.9531,704.6793,307.4719,704.2546,317.9906,704.4636,328.5094,704.7022,339.0281,704,349.5469,703.83,349.3769,702.1599,351.7068,699.9301,353.477,698.1258,355.6727,695.8833,357.4302,694,359.5469,694,359.4784,683.8667,360.2885,673.7333,359.4981,663.6,359.6522,653.4667,359.8855,643.3333,359.9631,633.2,359.543,623.0667,359.8341,612.9333,358.9745,602.8,359.8313,592.6667,360.0951,582.5333,359.9914,572.4,360.1599,562.2667,359.0638,552.1333,358.8947,542,359.5469,541.3786,359.5469,541.9411,349.0281,541.8035,338.5094,542.6814,327.9906,541.8253,317.4719,542,306.9531" style="stroke: #000000; stroke-width: 1.5;"/><path d="M694,306.9531 L694.0661,307.0192 L695.6698,305.0229 L697.6607,303.4139 L699.5256,301.6787 L700.9758,299.5289 L703,297.9531 " fill="#FEFECE" style="stroke: #000000; stroke-width: 1.5;"/><path d="M542,306.9531 L542,307.2334 L552.1333,306.4007 L562.2667,307.2108 L572.4,307.486 L582.5333,306.0019 L592.6667,306.8495 L602.8,306.3845 L612.9333,306.4418 L623.0667,306.8622 L633.2,306.0313 L643.3333,307.6913 L653.4667,306.1128 L663.6,306.6894 L673.7333,307.5291 L683.8667,306.8388 L694,306.9531 " fill="#FEFECE" style="stroke: #000000; stroke-width: 1.5;"/><path d="M694,306.9531 L694.2802,306.9531 L693.4476,317.4719 L694.2577,327.9906 L694.5329,338.5094 L693.0488,349.0281 L694,359.5469 " fill="#FEFECE" style="stroke: #000000; stroke-width: 1.5;"/><text fill="#000000" font-family="sans-serif" font-size="14" font-weight="bold" lengthAdjust="spacingAndGlyphs" textLength="119" x="557" y="329.9482">TPLink R470GP</text><text fill="#000000" font-family="sans-serif" font-size="14" lengthAdjust="spacingAndGlyphs" textLength="122" x="557" y="346.2451">POE AC路由一体机</text><!--MD5=[eff0d92fd1dc618a788bf5a822fbc8ed]
entity APBedRoom1--><polygon fill="#FEFECE" filter="url(#fy99zhmng0wrp)" points="376.5,159.9531,376.5495,160.0027,378.4023,157.8555,380.5456,155.9987,382.5942,154.0473,384.3319,151.785,386.5,149.9531,386.5,149.8754,396.5769,149.5266,406.6538,149.5696,416.7308,149.885,426.8077,149.2618,436.8846,150.5068,446.9615,149.3228,457.0385,149.7554,467.1154,150.3851,477.1923,149.8673,487.2692,150.0214,497.3462,149.9212,507.4231,150.1317,517.5,149.9531,517.7391,149.9531,518.0857,159.5645,518.1711,169.1758,518.1793,178.7871,517.7546,188.3984,517.9636,198.0098,518.2022,207.6211,516.7788,217.2324,517.5,226.8438,517.6599,227.0037,515.4301,228.7739,513.6258,230.9696,511.3833,232.7271,509.4839,234.8276,507.5,236.8438,507.5,237.5854,497.4231,236.795,487.3462,236.9491,477.2692,237.1824,467.1923,237.26,457.1154,236.8398,447.0385,237.131,436.9615,236.2713,426.8846,237.1281,416.8077,237.3919,406.7308,237.2883,396.6538,237.4568,386.5769,236.3607,376.5,236.8438,375.8478,236.8438,375.8786,227.2324,376.4411,217.6211,376.3035,208.0098,377.1814,198.3984,376.3253,188.7871,376.1569,179.1758,376.7283,169.5645,376.5,159.9531" style="stroke: #000000; stroke-width: 1.5;"/><path d="M507.5,159.9531 L507.5661,160.0192 L509.1698,158.0229 L511.1607,156.4139 L513.0256,154.6787 L514.4758,152.5289 L516.5,150.9531 " fill="#FEFECE" style="stroke: #000000; stroke-width: 1.5;"/><path d="M376.5,159.9531 L376.5,160.2334 L386.5769,159.4007 L396.6538,160.2108 L406.7308,160.486 L416.8077,159.0019 L426.8846,159.8495 L436.9615,159.3845 L447.0385,159.4418 L457.1154,159.8622 L467.1923,159.0313 L477.2692,160.6913 L487.3462,159.1128 L497.4231,159.6894 L507.5,159.9531 " fill="#FEFECE" style="stroke: #000000; stroke-width: 1.5;"/><path d="M507.5,159.9531 L507.7802,159.9531 L506.9476,169.5645 L507.7577,179.1758 L508.0329,188.7871 L506.5488,198.3984 L507.3964,208.0098 L506.9313,217.6211 L506.9887,227.2324 L507.5,236.8438 " fill="#FEFECE" style="stroke: #000000; stroke-width: 1.5;"/><text fill="#000000" font-family="sans-serif" font-size="14" font-weight="bold" lengthAdjust="spacingAndGlyphs" textLength="101" x="391.5" y="182.9482">主卧86面板AP</text><path d="M376.5,186.25 L376.5,186.5302 L386.5769,185.6976 L396.6538,186.5077 L406.7308,186.7829 L416.8077,185.2988 L426.8846,186.1464 L436.9615,185.6813 L447.0385,185.7387 L457.1154,186.1591 L467.1923,185.3282 L477.2692,186.9882 L487.3462,185.4096 L497.4231,185.9863 L507.5,186.25 " fill="none" style="stroke: #000000; stroke-width: 1.0; stroke-dasharray: 1.0,2.0;"/><path d="M507.5,186.25 L507.5661,186.3161 L509.3698,184.1198 L511.5607,182.3107 L513.6256,180.3756 L515.2758,178.0258 L517.5,176.25 " fill="none" style="stroke: #000000; stroke-width: 1.0; stroke-dasharray: 1.0,2.0;"/><text fill="#000000" font-family="sans-serif" font-size="14" lengthAdjust="spacingAndGlyphs" textLength="51" x="397.5" y="203.2451">5G WIFI</text><text fill="#000000" font-family="sans-serif" font-size="14" lengthAdjust="spacingAndGlyphs" textLength="56" x="397.5" y="219.542">以太网口</text><!--MD5=[96a324d0f656e978bf40d568aadbb355]
entity APBedRoom2--><polygon fill="#FEFECE" filter="url(#fy99zhmng0wrp)" points="552.5,159.9531,552.5495,160.0027,554.4023,157.8555,556.5456,155.9987,558.5942,154.0473,560.3319,151.785,562.5,149.9531,562.5,149.8754,572.5769,149.5266,582.6538,149.5696,592.7308,149.885,602.8077,149.2618,612.8846,150.5068,622.9615,149.3228,633.0385,149.7554,643.1154,150.3851,653.1923,149.8673,663.2692,150.0214,673.3462,149.9212,683.4231,150.1317,693.5,149.9531,693.7391,149.9531,694.0857,159.5645,694.1711,169.1758,694.1793,178.7871,693.7546,188.3984,693.9636,198.0098,694.2022,207.6211,692.7788,217.2324,693.5,226.8438,693.6599,227.0037,691.4301,228.7739,689.6258,230.9696,687.3833,232.7271,685.4839,234.8276,683.5,236.8438,683.5,237.5854,673.4231,236.795,663.3462,236.9491,653.2692,237.1824,643.1923,237.26,633.1154,236.8398,623.0385,237.131,612.9615,236.2713,602.8846,237.1281,592.8077,237.3919,582.7308,237.2883,572.6538,237.4568,562.5769,236.3607,552.5,236.8438,551.8478,236.8438,551.8786,227.2324,552.4411,217.6211,552.3035,208.0098,553.1814,198.3984,552.3253,188.7871,552.1569,179.1758,552.7283,169.5645,552.5,159.9531" style="stroke: #000000; stroke-width: 1.5;"/><path d="M683.5,159.9531 L683.5661,160.0192 L685.1698,158.0229 L687.1607,156.4139 L689.0256,154.6787 L690.4758,152.5289 L692.5,150.9531 " fill="#FEFECE" style="stroke: #000000; stroke-width: 1.5;"/><path d="M552.5,159.9531 L552.5,160.2334 L562.5769,159.4007 L572.6538,160.2108 L582.7308,160.486 L592.8077,159.0019 L602.8846,159.8495 L612.9615,159.3845 L623.0385,159.4418 L633.1154,159.8622 L643.1923,159.0313 L653.2692,160.6913 L663.3462,159.1128 L673.4231,159.6894 L683.5,159.9531 " fill="#FEFECE" style="stroke: #000000; stroke-width: 1.5;"/><path d="M683.5,159.9531 L683.7802,159.9531 L682.9476,169.5645 L683.7577,179.1758 L684.0329,188.7871 L682.5488,198.3984 L683.3964,208.0098 L682.9313,217.6211 L682.9887,227.2324 L683.5,236.8438 " fill="#FEFECE" style="stroke: #000000; stroke-width: 1.5;"/><text fill="#000000" font-family="sans-serif" font-size="14" font-weight="bold" lengthAdjust="spacingAndGlyphs" textLength="101" x="567.5" y="182.9482">次卧86面板AP</text><path d="M552.5,186.25 L552.5,186.5302 L562.5769,185.6976 L572.6538,186.5077 L582.7308,186.7829 L592.8077,185.2988 L602.8846,186.1464 L612.9615,185.6813 L623.0385,185.7387 L633.1154,186.1591 L643.1923,185.3282 L653.2692,186.9882 L663.3462,185.4096 L673.4231,185.9863 L683.5,186.25 " fill="none" style="stroke: #000000; stroke-width: 1.0; stroke-dasharray: 1.0,2.0;"/><path d="M683.5,186.25 L683.5661,186.3161 L685.3698,184.1198 L687.5607,182.3107 L689.6256,180.3756 L691.2758,178.0258 L693.5,176.25 " fill="none" style="stroke: #000000; stroke-width: 1.0; stroke-dasharray: 1.0,2.0;"/><text fill="#000000" font-family="sans-serif" font-size="14" lengthAdjust="spacingAndGlyphs" textLength="51" x="573.5" y="203.2451">5G WIFI</text><text fill="#000000" font-family="sans-serif" font-size="14" lengthAdjust="spacingAndGlyphs" textLength="56" x="573.5" y="219.542">以太网口</text><!--MD5=[4626844887b0a8ade4fa0637d701973e]
entity APDinnerRoom--><polygon fill="#FEFECE" filter="url(#fy99zhmng0wrp)" points="729,159.9531,729.0495,160.0027,730.9023,157.8555,733.0456,155.9987,735.0942,154.0473,736.8319,151.785,739,149.9531,739,149.8754,748.7333,149.5266,758.4667,149.5696,768.2,149.885,777.9333,149.2618,787.6667,150.5068,797.4,149.3228,807.1333,149.7554,816.8667,150.3851,826.6,149.8673,836.3333,150.0214,846.0667,149.9212,855.8,150.1317,865.5333,150.1923,875.2667,150.5388,885,149.9531,885.6711,149.9531,885.6793,159.5645,885.2546,169.1758,885.4636,178.7871,885.7022,188.3984,884.2788,198.0098,885.6785,207.6211,884.7035,217.2324,885,226.8438,885.1258,226.9696,882.8833,228.7271,880.9839,230.8276,879.1748,233.0185,876.9885,234.8323,875,236.8438,875,236.9491,865.2667,237.1824,855.5333,237.26,845.8,236.8398,836.0667,237.131,826.3333,236.2713,816.6,237.1281,806.8667,237.3919,797.1333,237.2883,787.4,237.4568,777.6667,236.3607,767.9333,236.1916,758.2,236.2223,748.4667,236.7849,738.7333,236.6472,729,236.8438,729.6814,236.8438,728.8253,227.2324,728.6569,217.6211,729.2283,208.0098,728.3332,198.3984,728.4809,188.7871,729.649,179.1758,729.4357,169.5645,729,159.9531" style="stroke: #000000; stroke-width: 1.5;"/><path d="M875,159.9531 L875.0661,160.0192 L876.6698,158.0229 L878.6607,156.4139 L880.5256,154.6787 L881.9758,152.5289 L884,150.9531 " fill="#FEFECE" style="stroke: #000000; stroke-width: 1.5;"/><path d="M729,159.9531 L729,160.2334 L738.7333,159.4007 L748.4667,160.2108 L758.2,160.486 L767.9333,159.0019 L777.6667,159.8495 L787.4,159.3845 L797.1333,159.4418 L806.8667,159.8622 L816.6,159.0313 L826.3333,160.6913 L836.0667,159.1128 L845.8,159.6894 L855.5333,160.5291 L865.2667,159.8388 L875,159.9531 " fill="#FEFECE" style="stroke: #000000; stroke-width: 1.5;"/><path d="M875,159.9531 L875.2802,159.9531 L874.4476,169.5645 L875.2577,179.1758 L875.5329,188.7871 L874.0488,198.3984 L874.8964,208.0098 L874.4313,217.6211 L874.4887,227.2324 L875,236.8438 " fill="#FEFECE" style="stroke: #000000; stroke-width: 1.5;"/><text fill="#000000" font-family="sans-serif" font-size="14" font-weight="bold" lengthAdjust="spacingAndGlyphs" textLength="101" x="744" y="182.9482">餐厅86面板AP</text><path d="M729,186.25 L729,186.5302 L738.7333,185.6976 L748.4667,186.5077 L758.2,186.7829 L767.9333,185.2988 L777.6667,186.1464 L787.4,185.6813 L797.1333,185.7387 L806.8667,186.1591 L816.6,185.3282 L826.3333,186.9882 L836.0667,185.4096 L845.8,185.9863 L855.5333,186.8259 L865.2667,186.1356 L875,186.25 " fill="none" style="stroke: #000000; stroke-width: 1.0; stroke-dasharray: 1.0,2.0;"/><path d="M875,186.25 L875.0661,186.3161 L876.8698,184.1198 L879.0607,182.3107 L881.1256,180.3756 L882.7758,178.0258 L885,176.25 " fill="none" style="stroke: #000000; stroke-width: 1.0; stroke-dasharray: 1.0,2.0;"/><text fill="#000000" font-family="sans-serif" font-size="14" lengthAdjust="spacingAndGlyphs" textLength="104" x="750" y="203.2451">2.4G &amp; 5G WIFI</text><text fill="#000000" font-family="sans-serif" font-size="14" lengthAdjust="spacingAndGlyphs" textLength="56" x="750" y="219.542">以太网口</text><!--MD5=[3b3c59b99b8dca18929e6f7b032cf9bf]
entity APLivingRoom--><polygon fill="#FEFECE" filter="url(#fy99zhmng0wrp)" points="920,159.9531,920.0495,160.0027,921.9023,157.8555,924.0456,155.9987,926.0942,154.0473,927.8319,151.785,930,149.9531,930,149.8754,939.7333,149.5266,949.4667,149.5696,959.2,149.885,968.9333,149.2618,978.6667,150.5068,988.4,149.3228,998.1333,149.7554,1007.8667,150.3851,1017.6,149.8673,1027.3333,150.0214,1037.0667,149.9212,1046.8,150.1317,1056.5333,150.1923,1066.2667,150.5388,1076,149.9531,1076.6711,149.9531,1076.6793,159.5645,1076.2546,169.1758,1076.4636,178.7871,1076.7022,188.3984,1075.2788,198.0098,1076.6785,207.6211,1075.7035,217.2324,1076,226.8438,1076.1258,226.9696,1073.8833,228.7271,1071.9839,230.8276,1070.1748,233.0185,1067.9885,234.8323,1066,236.8438,1066,236.9491,1056.2667,237.1824,1046.5333,237.26,1036.8,236.8398,1027.0667,237.131,1017.3333,236.2713,1007.6,237.1281,997.8667,237.3919,988.1333,237.2883,978.4,237.4568,968.6667,236.3607,958.9333,236.1916,949.2,236.2223,939.4667,236.7849,929.7333,236.6472,920,236.8438,920.6814,236.8438,919.8253,227.2324,919.6569,217.6211,920.2283,208.0098,919.3332,198.3984,919.4809,188.7871,920.649,179.1758,920.4357,169.5645,920,159.9531" style="stroke: #000000; stroke-width: 1.5;"/><path d="M1066,159.9531 L1066.0661,160.0192 L1067.6698,158.0229 L1069.6607,156.4139 L1071.5256,154.6787 L1072.9758,152.5289 L1075,150.9531 " fill="#FEFECE" style="stroke: #000000; stroke-width: 1.5;"/><path d="M920,159.9531 L920,160.2334 L929.7333,159.4007 L939.4667,160.2108 L949.2,160.486 L958.9333,159.0019 L968.6667,159.8495 L978.4,159.3845 L988.1333,159.4418 L997.8667,159.8622 L1007.6,159.0313 L1017.3333,160.6913 L1027.0667,159.1128 L1036.8,159.6894 L1046.5333,160.5291 L1056.2667,159.8388 L1066,159.9531 " fill="#FEFECE" style="stroke: #000000; stroke-width: 1.5;"/><path d="M1066,159.9531 L1066.2802,159.9531 L1065.4476,169.5645 L1066.2577,179.1758 L1066.5329,188.7871 L1065.0488,198.3984 L1065.8964,208.0098 L1065.4313,217.6211 L1065.4887,227.2324 L1066,236.8438 " fill="#FEFECE" style="stroke: #000000; stroke-width: 1.5;"/><text fill="#000000" font-family="sans-serif" font-size="14" font-weight="bold" lengthAdjust="spacingAndGlyphs" textLength="101" x="935" y="182.9482">客厅86面板AP</text><path d="M920,186.25 L920,186.5302 L929.7333,185.6976 L939.4667,186.5077 L949.2,186.7829 L958.9333,185.2988 L968.6667,186.1464 L978.4,185.6813 L988.1333,185.7387 L997.8667,186.1591 L1007.6,185.3282 L1017.3333,186.9882 L1027.0667,185.4096 L1036.8,185.9863 L1046.5333,186.8259 L1056.2667,186.1356 L1066,186.25 " fill="none" style="stroke: #000000; stroke-width: 1.0; stroke-dasharray: 1.0,2.0;"/><path d="M1066,186.25 L1066.0661,186.3161 L1067.8698,184.1198 L1070.0607,182.3107 L1072.1256,180.3756 L1073.7758,178.0258 L1076,176.25 " fill="none" style="stroke: #000000; stroke-width: 1.0; stroke-dasharray: 1.0,2.0;"/><text fill="#000000" font-family="sans-serif" font-size="14" lengthAdjust="spacingAndGlyphs" textLength="104" x="941" y="203.2451">2.4G &amp; 5G WIFI</text><text fill="#000000" font-family="sans-serif" font-size="14" lengthAdjust="spacingAndGlyphs" textLength="56" x="941" y="219.542">以太网口</text><!--MD5=[d723b61fb88ed8a35aba0785e1affe4b]
entity TLAC100--><polygon fill="#FEFECE" filter="url(#fy99zhmng0wrp)" points="297.5,53.9531,297.5495,54.0027,299.4023,51.8555,301.5456,49.9987,303.5942,48.0473,305.3319,45.785,307.5,43.9531,307.5,43.8754,317.2273,43.5266,326.9545,43.5696,336.6818,43.885,346.4091,43.2618,356.1364,44.5068,365.8636,43.3228,375.5909,43.7554,385.3182,44.3851,395.0455,43.8673,404.7727,44.0214,414.5,43.9531,414.4894,43.9531,414.5595,51.2125,414.5797,58.4719,414.6952,65.7313,414.7237,72.9906,414.5,80.25,414.6601,80.4101,412.56,82.31,410.6093,84.3593,408.6655,86.4155,406.33,88.08,404.5,90.25,404.5,90.9285,394.7727,89.9535,385.0455,90.7838,375.3182,89.755,365.5909,90.1815,355.8636,90.9916,346.1364,90.2013,336.4091,90.3553,326.6818,90.5886,316.9545,90.6662,307.2273,90.2461,297.5,90.25,297.5957,90.25,297.3092,82.9906,297.5948,75.7313,297.6827,68.4719,297.6482,61.2125,297.5,53.9531" style="stroke: #000000; stroke-width: 1.5;"/><path d="M404.5,53.9531 L404.5661,54.0192 L406.1698,52.0229 L408.1607,50.4139 L410.0256,48.6787 L411.4758,46.5289 L413.5,44.9531 " fill="#FEFECE" style="stroke: #000000; stroke-width: 1.5;"/><path d="M297.5,53.9531 L297.5,54.2334 L307.2273,53.4007 L316.9545,54.2108 L326.6818,54.486 L336.4091,53.0019 L346.1364,53.8495 L355.8636,53.3845 L365.5909,53.4418 L375.3182,53.8622 L385.0455,53.0313 L394.7727,54.6913 L404.5,53.9531 " fill="#FEFECE" style="stroke: #000000; stroke-width: 1.5;"/><path d="M404.5,53.9531 L404.5934,53.9531 L404.3159,61.2125 L404.5859,68.4719 L404.6776,75.7313 L404.1829,82.9906 L404.5,90.25 " fill="#FEFECE" style="stroke: #000000; stroke-width: 1.5;"/><text fill="#000000" font-family="sans-serif" font-size="14" font-weight="bold" lengthAdjust="spacingAndGlyphs" textLength="77" x="312.5" y="76.9482">TL-AC100</text><!--MD5=[6fb11f7399c8b1c5fbce742f8f26d242]
entity WinDesktop--><polygon fill="#FEFECE" filter="url(#fy99zhmng0wrp)" points="449.5,53.9531,449.5495,54.0027,451.4023,51.8555,453.5456,49.9987,455.5942,48.0473,457.3319,45.785,459.5,43.9531,459.5,43.8754,469.3,43.5266,479.1,43.5696,488.9,43.885,498.7,43.2618,508.5,44.5068,518.3,43.3228,528.1,43.7554,537.9,44.3851,547.7,43.8673,557.5,44.0214,567.3,43.9212,577.1,44.1317,586.9,44.1923,596.7,44.5388,606.5,43.9531,606.7237,43.9531,606.7264,51.2125,606.5849,58.4719,606.6545,65.7313,606.7341,72.9906,606.5,80.25,606.33,80.08,604.6599,82.4099,602.4301,84.1801,600.6258,86.3758,598.3833,88.1333,596.5,90.25,596.5,90.1815,586.7,90.9916,576.9,90.2013,567.1,90.3553,557.3,90.5886,547.5,90.6662,537.7,90.2461,527.9,90.5372,518.1,89.6776,508.3,90.5344,498.5,90.7982,488.7,90.6945,478.9,90.863,469.1,89.7669,459.3,89.5978,449.5,90.25,449.2929,90.25,449.4804,82.9906,449.4345,75.7313,449.7271,68.4719,449.4418,61.2125,449.5,53.9531" style="stroke: #000000; stroke-width: 1.5;"/><path d="M596.5,53.9531 L596.5661,54.0192 L598.1698,52.0229 L600.1607,50.4139 L602.0256,48.6787 L603.4758,46.5289 L605.5,44.9531 " fill="#FEFECE" style="stroke: #000000; stroke-width: 1.5;"/><path d="M449.5,53.9531 L449.5,54.2334 L459.3,53.4007 L469.1,54.2108 L478.9,54.486 L488.7,53.0019 L498.5,53.8495 L508.3,53.3845 L518.1,53.4418 L527.9,53.8622 L537.7,53.0313 L547.5,54.6913 L557.3,53.1128 L567.1,53.6894 L576.9,54.5291 L586.7,53.8388 L596.5,53.9531 " fill="#FEFECE" style="stroke: #000000; stroke-width: 1.5;"/><path d="M596.5,53.9531 L596.5934,53.9531 L596.3159,61.2125 L596.5859,68.4719 L596.6776,75.7313 L596.1829,82.9906 L596.5,90.25 " fill="#FEFECE" style="stroke: #000000; stroke-width: 1.5;"/><text fill="#000000" font-family="sans-serif" font-size="14" font-weight="bold" lengthAdjust="spacingAndGlyphs" textLength="117" x="464.5" y="76.9482">Windows台式机</text><!--MD5=[ad052860d469ba80555c12bc46bec7c1]
entity TLIPC40CFocus--><polygon fill="#FEFECE" filter="url(#fy99zhmng0wrp)" points="723.5,53.9531,723.5495,54.0027,725.4023,51.8555,727.5456,49.9987,729.5942,48.0473,731.3319,45.785,733.5,43.9531,733.5,43.8754,743.3125,43.5266,753.125,43.5696,762.9375,43.885,772.75,43.2618,782.5625,44.5068,792.375,43.3228,802.1875,43.7554,812,44.3851,821.8125,43.8673,831.625,44.0214,841.4375,43.9212,851.25,44.1317,861.0625,44.1923,870.875,44.5388,880.6875,44.6242,890.5,43.9531,890.7264,43.9531,890.5849,51.2125,890.6545,58.4719,890.7341,65.7313,890.2596,72.9906,890.5,80.25,890.6599,80.4099,888.4301,82.1801,886.6258,84.3758,884.3833,86.1333,882.4839,88.2339,880.5,90.25,880.5,90.9916,870.6875,90.2013,860.875,90.3553,851.0625,90.5886,841.25,90.6662,831.4375,90.2461,821.625,90.5372,811.8125,89.6776,802,90.5344,792.1875,90.7982,782.375,90.6945,772.5625,90.863,762.75,89.7669,752.9375,89.5978,743.125,89.6286,733.3125,90.1911,723.5,90.25,723.4345,90.25,723.7271,82.9906,723.4418,75.7313,723.3856,68.4719,723.5761,61.2125,723.5,53.9531" style="stroke: #000000; stroke-width: 1.5;"/><path d="M880.5,53.9531 L880.5661,54.0192 L882.1698,52.0229 L884.1607,50.4139 L886.0256,48.6787 L887.4758,46.5289 L889.5,44.9531 " fill="#FEFECE" style="stroke: #000000; stroke-width: 1.5;"/><path d="M723.5,53.9531 L723.5,54.2334 L733.3125,53.4007 L743.125,54.2108 L752.9375,54.486 L762.75,53.0019 L772.5625,53.8495 L782.375,53.3845 L792.1875,53.4418 L802,53.8622 L811.8125,53.0313 L821.625,54.6913 L831.4375,53.1128 L841.25,53.6894 L851.0625,54.5291 L860.875,53.8388 L870.6875,54.0441 L880.5,53.9531 " fill="#FEFECE" style="stroke: #000000; stroke-width: 1.5;"/><path d="M880.5,53.9531 L880.5934,53.9531 L880.3159,61.2125 L880.5859,68.4719 L880.6776,75.7313 L880.1829,82.9906 L880.5,90.25 " fill="#FEFECE" style="stroke: #000000; stroke-width: 1.5;"/><text fill="#000000" font-family="sans-serif" font-size="14" font-weight="bold" lengthAdjust="spacingAndGlyphs" textLength="127" x="738.5" y="76.9482">TPLink监控摄像头</text><!--MD5=[ac7ff2786bdc3a5882759f1fc25555d9]
entity Koxsni--><polygon fill="#FEFECE" filter="url(#fy99zhmng0wrp)" points="932.5,53.9531,932.5495,54.0027,934.4023,51.8555,936.5456,49.9987,938.5942,48.0473,940.3319,45.785,942.5,43.9531,942.5,43.8754,952.0455,43.5266,961.5909,43.5696,971.1364,43.885,980.6818,43.2618,990.2273,44.5068,999.7727,43.3228,1009.3182,43.7554,1018.8636,44.3851,1028.4091,43.8673,1037.9545,44.0214,1047.5,43.9531,1047.4894,43.9531,1047.5595,51.2125,1047.5797,58.4719,1047.6952,65.7313,1047.7237,72.9906,1047.5,80.25,1047.6601,80.4101,1045.56,82.31,1043.6093,84.3593,1041.6655,86.4155,1039.33,88.08,1037.5,90.25,1037.5,90.9285,1027.9545,89.9535,1018.4091,90.7838,1008.8636,89.755,999.3182,90.1815,989.7727,90.9916,980.2273,90.2013,970.6818,90.3553,961.1364,90.5886,951.5909,90.6662,942.0455,90.2461,932.5,90.25,932.5957,90.25,932.3092,82.9906,932.5948,75.7313,932.6827,68.4719,932.6482,61.2125,932.5,53.9531" style="stroke: #000000; stroke-width: 1.5;"/><path d="M1037.5,53.9531 L1037.5661,54.0192 L1039.1698,52.0229 L1041.1607,50.4139 L1043.0256,48.6787 L1044.4758,46.5289 L1046.5,44.9531 " fill="#FEFECE" style="stroke: #000000; stroke-width: 1.5;"/><path d="M932.5,53.9531 L932.5,54.2334 L942.0455,53.4007 L951.5909,54.2108 L961.1364,54.486 L970.6818,53.0019 L980.2273,53.8495 L989.7727,53.3845 L999.3182,53.4418 L1008.8636,53.8622 L1018.4091,53.0313 L1027.9545,54.6913 L1037.5,53.9531 " fill="#FEFECE" style="stroke: #000000; stroke-width: 1.5;"/><path d="M1037.5,53.9531 L1037.5934,53.9531 L1037.3159,61.2125 L1037.5859,68.4719 L1037.6776,75.7313 L1037.1829,82.9906 L1037.5,90.25 " fill="#FEFECE" style="stroke: #000000; stroke-width: 1.5;"/><text fill="#000000" font-family="sans-serif" font-size="14" font-weight="bold" lengthAdjust="spacingAndGlyphs" textLength="75" x="947.5" y="76.9482">无线投屏器</text><!--MD5=[f042970fa631b194e0ab6c1248938917]
entity N1--><polygon fill="#FEFECE" filter="url(#fy99zhmng0wrp)" points="1082.5,53.9531,1082.5495,54.0027,1084.4023,51.8555,1086.5456,49.9987,1088.5942,48.0473,1090.3319,45.785,1092.5,43.9531,1092.5,43.8754,1102.5714,43.5266,1112.6429,43.5696,1122.7143,43.885,1132.7857,43.2618,1142.8571,44.5068,1152.9286,43.3228,1163,43.7554,1173.0714,44.3851,1183.1429,43.8673,1193.2143,44.0214,1203.2857,43.9212,1213.3571,44.1317,1223.4286,44.1923,1233.5,43.9531,1233.6952,43.9531,1233.7237,51.2125,1233.7264,58.4719,1233.5849,65.7313,1233.6545,72.9906,1233.5,80.25,1233.6655,80.4155,1231.33,82.08,1229.6599,84.4099,1227.4301,86.1801,1225.6258,88.3758,1223.5,90.25,1223.5,89.755,1213.4286,90.1815,1203.3571,90.9916,1193.2857,90.2013,1183.2143,90.3553,1173.1429,90.5886,1163.0714,90.6662,1153,90.2461,1142.9286,90.5372,1132.8571,89.6776,1122.7857,90.5344,1112.7143,90.7982,1102.6429,90.6945,1092.5714,90.863,1082.5,90.25,1082.339,90.25,1082.2826,82.9906,1082.2929,75.7313,1082.4804,68.4719,1082.4345,61.2125,1082.5,53.9531" style="stroke: #000000; stroke-width: 1.5;"/><path d="M1223.5,53.9531 L1223.5661,54.0192 L1225.1698,52.0229 L1227.1607,50.4139 L1229.0256,48.6787 L1230.4758,46.5289 L1232.5,44.9531 " fill="#FEFECE" style="stroke: #000000; stroke-width: 1.5;"/><path d="M1082.5,53.9531 L1082.5,54.2334 L1092.5714,53.4007 L1102.6429,54.2108 L1112.7143,54.486 L1122.7857,53.0019 L1132.8571,53.8495 L1142.9286,53.3845 L1153,53.4418 L1163.0714,53.8622 L1173.1429,53.0313 L1183.2143,54.6913 L1193.2857,53.1128 L1203.3571,53.6894 L1213.4286,54.5291 L1223.5,53.9531 " fill="#FEFECE" style="stroke: #000000; stroke-width: 1.5;"/><path d="M1223.5,53.9531 L1223.5934,53.9531 L1223.3159,61.2125 L1223.5859,68.4719 L1223.6776,75.7313 L1223.1829,82.9906 L1223.5,90.25 " fill="#FEFECE" style="stroke: #000000; stroke-width: 1.5;"/><text fill="#000000" font-family="sans-serif" font-size="14" font-weight="bold" lengthAdjust="spacingAndGlyphs" textLength="111" x="1097.5" y="76.9482">斐迅N1电视盒子</text><!--MD5=[c18e92a1945e8ce58a28e57b59253457]
link TPLinkSwitch to ISPModem--><path d="M294.957,351.6791 L295.1043,351.9175 L303.4652,356.648 L312.6898,362.7759 L321.6332,368.4487 L329.6515,372.6251 L338.8959,378.7848 L347.45,383.828 L356.2788,389.3155 L365.2986,395.1119 L373.6603,399.8438 L383.3318,406.6946 L391.3005,410.7906 L400.541,416.9442 " fill="none" style="stroke: #A80036; stroke-width: 1.0;"/><polygon fill="#A80036" points="405.117,419.7729,405.1749,419.8124,403.8923,418.0682,402.949,416.5556,401.8953,414.9675,400.4782,413.1315,399.564,411.6388,399.5388,411.6328,399.6856,412.7072,399.9595,413.8116,400.3218,414.9369,400.3795,415.9902,400.8637,417.1443,400.9061,417.3239,399.7144,417.1997,398.6464,417.6,397.5935,418.0642,396.4528,418.1562,395.3582,418.444,395.3613,418.4665,397.3085,418.6992,399.2698,419.0345,401.2242,419.3203,403.1916,419.7006,405.117,419.7729" style="stroke: #A80036; stroke-width: 1.0;"/><!--MD5=[be4bfb91463dc0aba680f5136c11123f]
link TPLinkR470GP to ISPModem--><path d="M573.268,360.1941 L573.4153,360.4325 L564.5985,364.9035 L556.6455,370.772 L548.4112,376.1853 L539.2519,380.1023 L531.3185,386.0025 L522.695,390.7863 L514.3461,396.0143 L506.1882,401.5513 L497.3723,406.0238 L489.8661,412.6151 L481.099,417.1665 " fill="none" style="stroke: #A80036; stroke-width: 1.0;"/><polygon fill="#A80036" points="476.822,419.8106,476.8315,419.88,478.7551,419.408,480.7342,419.3428,482.6952,419.1452,484.5969,418.5117,486.5808,418.4815,486.5748,418.4563,485.447,418.0832,484.3492,417.8373,483.2722,417.6796,482.1234,417.2175,481.0752,417.1819,481.2548,417.2243,481.1307,416.0325,481.5309,414.9646,481.9951,413.9117,482.0871,412.7709,482.3748,411.6764,482.3936,411.6892,481.2555,413.2972,480.2028,414.9636,479.109,416.6019,478.0938,418.2938,476.822,419.8106" style="stroke: #A80036; stroke-width: 1.0;"/><!--MD5=[28a0577dfe67a12b5a9e74ba0ced46eb]
link BananaPi to TPLinkSwitch--><path d="M122.124,229.0501 L122.2876,229.2777 L129.6435,234.2393 L137.9583,240.5348 L145.9608,246.3959 L152.9365,250.8286 L161.2731,257.1545 L168.8436,262.4146 L176.719,268.0988 L184.8063,274.0779 L192.1632,279.0409 L200.9741,286.0264 L207.8946,290.3824 L216.0732,296.4883 L224.069,302.3401 " fill="none" style="stroke: #A80036; stroke-width: 1.0;"/><polygon fill="#A80036" points="228.228,305.3301,228.2885,305.3655,227.1142,303.5602,226.2944,301.9622,225.3592,300.2967,224.0444,298.4091,223.255,296.829,223.2295,296.8248,223.2973,297.9226,223.4941,299.0414,223.7805,300.1749,223.7581,301.2579,224.1681,302.4117,224.1979,302.5938,223.0177,302.3869,221.9244,302.7118,220.8418,303.1016,219.6974,303.1139,218.5855,303.3248,218.5901,303.347,220.5118,303.7154,222.4546,304.1852,224.3872,304.606,226.3392,305.1202,228.228,305.3301" style="stroke: #A80036; stroke-width: 1.0;"/><!--MD5=[7b5bf5219a35af0dce5a8f4bd822e715]
link HTPC to TPLinkSwitch--><path d="M259,237.2671 L259.2802,237.2671 L258.4476,247.6908 L259.2577,258.1145 L259.5329,268.5381 L258.0488,278.9618 L258.8964,289.3855 L259,299.8091 " fill="none" style="stroke: #A80036; stroke-width: 1.0;"/><polygon fill="#A80036" points="259,305.2181,259.064,305.2466,259.6738,303.362,260.6589,301.6443,261.5217,299.8722,261.9827,297.9215,263,296.2181,262.9817,296.1998,262.0995,296.9176,261.3096,297.7277,260.5839,298.6021,259.637,299.2552,259,300.2181,259.1305,300.3486,258.0514,299.2696,257.3534,298.5715,256.7018,297.9199,255.7798,296.9979,255,296.2181,255.0208,296.2274,255.7903,298.0138,256.6544,299.8423,257.4728,301.6505,258.3784,303.4974,259,305.2181" style="stroke: #A80036; stroke-width: 1.0;"/><!--MD5=[0811a723f4ff79e55c0a75d50f567b43]
link APBedRoom1 to TPLinkR470GP--><path d="M503.656,237.2671 L503.825,237.4907 L511.6327,243.1059 L520.4309,250.0318 L528.9066,256.531 L536.3216,261.6265 L545.1424,268.5822 L553.1718,274.4908 L561.5162,280.8161 L570.0794,287.4311 L578.444,293.7831 " fill="none" style="stroke: #A80036; stroke-width: 1.0;"/><polygon fill="#A80036" points="582.622,296.9401,582.6833,296.9741,581.5472,295.1499,580.7704,293.5247,579.8766,291.8346,578.598,289.9316,577.852,288.3234,577.8263,288.3199,577.8673,289.4244,578.0376,290.5469,578.2978,291.682,578.2481,292.7739,578.6325,293.9262,578.6579,294.109,577.4829,293.8742,576.3823,294.1731,575.2907,294.5371,574.1463,294.5223,573.0297,294.7067,573.0349,294.7288,574.9458,295.143,576.8801,295.658,578.8032,296.1244,580.7478,296.6836,582.622,296.9401" style="stroke: #A80036; stroke-width: 1.0;"/><!--MD5=[c62150f224b015055524e8bbb732d1cb]
link APBedRoom2 to TPLinkR470GP--><path d="M623,237.2671 L623.2802,237.2671 L622.4476,248.1825 L623.2577,259.0979 L623.5329,270.0133 L622.0488,280.9287 L623,291.8441 " fill="none" style="stroke: #A80036; stroke-width: 1.0;"/><polygon fill="#A80036" points="623,296.9401,623.064,296.9686,623.6738,295.084,624.6589,293.3663,625.5217,291.5942,625.9827,289.6435,627,287.9401,626.9817,287.9218,626.0995,288.6396,625.3096,289.4497,624.5839,290.3241,623.637,290.9772,623,291.9401,623.1305,292.0706,622.0514,290.9916,621.3534,290.2935,620.7018,289.6419,619.7798,288.7199,619,287.9401,619.0208,287.9494,619.7903,289.7358,620.6544,291.5643,621.4728,293.3725,622.3784,295.2194,623,296.9401" style="stroke: #A80036; stroke-width: 1.0;"/><!--MD5=[affb9fa1e3ff90f7b4f836ce92bb2071]
link APDinnerRoom to TPLinkR470GP--><path d="M748.022,237.0841 L748.1862,237.3112 L739.8373,242.3186 L732.4508,248.6574 L724.7509,254.5626 L716.0204,259.042 L708.6558,265.4111 L700.5223,270.7165 L692.6948,276.4451 L685.08,282.4681 L676.7321,287.4768 L669.411,293.9061 " fill="none" style="stroke: #A80036; stroke-width: 1.0;"/><polygon fill="#A80036" points="665.329,296.8571,665.3434,296.9257,667.2281,296.3162,669.1973,296.1085,671.139,295.7701,672.9901,295.0012,674.9666,294.8281,674.9625,294.8025,673.827,294.5078,672.7123,294.3421,671.612,294.266,670.462,293.881,669.3817,293.9287,669.5639,293.958,669.3541,292.7783,669.6764,291.6842,670.0635,290.6006,670.073,289.4562,670.2811,288.3438,670.3007,288.3552,669.2815,290.0411,668.3517,291.779,667.3787,293.4919,666.4882,295.2526,665.329,296.8571" style="stroke: #A80036; stroke-width: 1.0;"/><!--MD5=[957fae402cf1236f9dbd5d8db38d4606]
link APLivingRoom to TPLinkR470GP--><path d="M920,230.1511 L920.0347,230.2379 L916.5316,231.3406 L913.2319,232.9517 L909.866,234.3972 L906.2822,235.2984 L903,236.9531 L902.9879,236.9208 L898.0429,238.6115 L893.1591,240.4653 L888.3178,242.4323 L883.33,244.0089 L878.5475,246.1324 L878.6309,246.3639 L873.4425,247.6741 L868.4977,249.6603 L863.5827,251.7288 L858.4947,253.3176 L853.4976,255.1588 L853.5076,255.1874 L848.4293,256.9064 L843.3964,258.7557 L838.3416,260.5422 L833.3285,262.4486 L828.1793,263.9638 L828.2746,264.2464 L823.2242,265.9529 L818.1123,267.4771 L813.0904,269.2681 L808.0727,271.0716 L802.9214,272.4789 L802.8215,272.1743 L798.0416,274.3968 L792.9328,275.6163 L788.0741,277.5983 L782.9578,278.7952 L778.0526,280.6356 L778.0433,280.6066 L773.323,282.4954 L768.3857,283.7068 L763.5765,285.318 L758.7779,286.9627 L753.9019,288.3653 L754.0663,288.8954 L744.934,291.1413 L736.0826,294.293 L726.7767,295.9792 L718.1487,299.8513 L709.07,302.2701 " fill="none" style="stroke: #A80036; stroke-width: 1.0;"/><polygon fill="#A80036" points="704.066,303.7891,704.0746,303.8587,706.0037,303.8951,707.9834,304.339,709.9466,304.6503,711.8556,304.5251,713.8396,305.0041,713.8274,304.9812,712.7748,304.3454,711.7838,303.8247,710.8355,303.3841,709.7398,302.6676,708.8507,302.3376,709.0134,302.4246,709.1987,301.2408,709.8591,300.3109,710.5775,299.4121,710.9586,298.3329,711.5172,297.3486,711.532,297.3658,710.02,298.6287,708.5756,299.9698,707.0986,301.2732,705.6839,302.6487,704.066,303.7891" style="stroke: #A80036; stroke-width: 1.0;"/><!--MD5=[a362e643dbcf2518f79a030351765370]
link TLAC100 to APBedRoom1--><path d="M372.269,90.2111 L372.4952,90.3765 L377.5942,97.7807 L384.0193,106.1543 L390.0127,114.2123 L394.5856,121.2321 L401.0411,129.6278 L406.4368,137.249 L412.667,145.4801 " fill="none" style="stroke: #A80036; stroke-width: 1.0;"/><polygon fill="#A80036" points="415.782,149.7431,415.8505,149.7579,415.231,147.7886,415.0129,145.9061,414.6641,143.9953,413.8854,141.9916,413.7018,140.1165,413.6762,140.1125,413.3873,141.2125,413.2276,142.3327,413.1575,143.4667,412.7783,144.5527,412.8321,145.7061,412.8604,145.8884,411.6818,145.3245,410.5861,145.293,409.5004,145.3265,408.356,144.9821,407.2425,144.8364,407.2538,144.8561,408.9451,145.8085,410.6879,146.8507,412.4059,147.8495,414.1714,148.931,415.782,149.7431" style="stroke: #A80036; stroke-width: 1.0;"/><!--MD5=[554ae9a361fc0826864c48b391995eef]
link WinDesktop to APBedRoom1--><path d="M513.519,90.2111 L513.7539,90.364 L507.919,97.8054 L503.461,106.1428 L498.5547,114.1885 L492.1737,121.2747 L487.7471,129.6325 L482.2203,137.2744 L477.56,145.4801 " fill="none" style="stroke: #A80036; stroke-width: 1.0;"/><polygon fill="#A80036" points="474.787,149.7431,474.8251,149.8019,476.364,148.5548,478.1265,147.6523,479.8162,146.6375,481.2664,145.2538,483.0481,144.3808,483.0427,144.3555,481.9118,144.476,480.8079,144.7243,479.7228,145.0614,478.573,145.0924,477.5138,145.5521,477.6944,145.5904,477.074,144.4018,476.9808,143.3248,476.9519,142.2614,476.5488,141.1188,476.3425,140.0179,476.365,140.0215,476.0209,141.9613,475.7791,143.9174,475.4879,145.8656,475.2909,147.8289,474.787,149.7431" style="stroke: #A80036; stroke-width: 1.0;"/><!--MD5=[7551df143280703011a767c705d4c3db]
link TLIPC40CFocus to APDinnerRoom--><path d="M807,90.2111 L807.2802,90.2111 L806.4476,101.0735 L807.2577,111.9359 L807.5329,122.7983 L806.0488,133.6607 L807,144.5231 " fill="none" style="stroke: #A80036; stroke-width: 1.0;"/><polygon fill="#A80036" points="807,149.7431,807.064,149.7716,807.6738,147.887,808.6589,146.1693,809.5217,144.3972,809.9827,142.4465,811,140.7431,810.9817,140.7248,810.0995,141.4426,809.3096,142.2527,808.5839,143.1271,807.637,143.7802,807,144.7431,807.1305,144.8736,806.0514,143.7946,805.3534,143.0965,804.7018,142.4449,803.7798,141.5229,803,140.7431,803.0208,140.7524,803.7903,142.5388,804.6544,144.3673,805.4728,146.1755,806.3784,148.0224,807,149.7431" style="stroke: #A80036; stroke-width: 1.0;"/><!--MD5=[c4eabb6f229a354533283d8820b07889]
link Koxsni to APLivingRoom--><path d="M991.43,90.2111 L991.7097,90.2291 L991.5767,101.0381 L993.0832,111.9525 L994.0558,122.8325 L993.2728,133.5997 L994.92,144.5231 " fill="none" style="stroke: #A80036; stroke-width: 1.0;"/><polygon fill="#A80036" points="995.256,149.7431,995.3217,149.7674,995.8091,147.8476,996.6817,146.07,997.4289,144.2462,997.7635,142.2699,998.6692,140.5046,998.6497,140.4875,997.8155,141.2605,997.0793,142.1198,996.4114,143.0389,995.5084,143.7516,994.9346,144.7535,995.0564,144.8921,993.9461,143.8487,993.1915,143.2101,992.4803,142.6208,991.5166,141.7443,990.6857,141.0189,990.7059,141.0294,991.5904,142.7588,992.5666,144.5362,993.4985,146.2904,994.5149,148.0889,995.256,149.7431" style="stroke: #A80036; stroke-width: 1.0;"/><!--MD5=[f268ae7af7847f094205d67e94da30c4]
link N1 to APLivingRoom--><path d="M1129.4,90.2111 L1129.5721,90.4323 L1120.9974,96.0486 L1113.4316,102.9614 L1105.5372,109.4521 L1096.5626,114.5542 L1089.0197,121.4966 L1080.6708,127.403 L1072.6427,133.7217 L1064.8375,140.327 L1056.83,146.6721 " fill="none" style="stroke: #A80036; stroke-width: 1.0;"/><polygon fill="#A80036" points="1052.89,149.7431,1052.9069,149.8111,1054.7685,149.1347,1056.7291,148.8569,1058.6575,148.4493,1060.4799,147.6148,1062.449,147.3712,1062.4458,147.3455,1061.3087,147.0903,1060.1878,146.9646,1059.0781,146.9291,1057.9297,146.583,1056.8355,146.6718,1057.0187,146.6947,1056.7669,145.5232,1057.0499,144.4183,1057.398,143.3216,1057.3667,142.1775,1057.5349,141.0584,1057.555,141.0691,1056.5966,142.7903,1055.7294,144.5603,1054.8183,146.3068,1053.9911,148.0983,1052.89,149.7431" style="stroke: #A80036; stroke-width: 1.0;"/><!--MD5=[4d9e6a0ad819dec30e2bbdf2a818e54f]
--></g></svg>