<svg xmlns="http://www.w3.org/2000/svg" xmlns:xlink="http://www.w3.org/1999/xlink" width="1255" height="478" contentScriptType="application/ecmascript" contentStyleType="text/css" preserveAspectRatio="none" version="1.1" viewBox="0 0 1255 478" zoomAndPan="magnify"><defs><filter id="fy99zhmng0wrp" width="300%" height="300%" x="-1" y="-1"><feGaussianBlur result="blurOut" stdDeviation="2"/><feColorMatrix in="blurOut" result="blurOut2" type="matrix" values="0 0 0 0 0 0 0 0 0 0 0 0 0 0 0 0 0 0 .4 0"/><feOffset dx="4" dy="4" in="blurOut2" result="blurOut3"/><feBlend in="SourceGraphic" in2="blurOut3" mode="normal"/></filter></defs><g><polygon fill="none" stroke="#000" stroke-width="1" points="571 2 571 2.21 580.909 1.586 590.818 2.193 600.727 2.4 610.636 1.287 620.545 1.922 630.455 1.573 640.364 1.617 650.273 1.932 660.182 1.309 670.091 2.554 680 2 679.92 1.806 681.035 2.378 682.176 3.012 683.171 3.292 684.251 3.778 685.303 4.197 685.293 4.193 685.798 5.28 686.256 6.348 686.802 7.453 687.267 8.525 687.5 9.5 687.726 9.5 687.585 12.691 687.654 15.881 687.734 19.072 687.26 22.262 687.5 25.453 687.709 25.54 686.969 26.476 686.786 27.642 686.029 28.572 685.721 29.687 685.303 30.756 685.398 30.985 684.236 31.181 683.195 31.668 682.164 32.179 681.114 32.642 680 32.953 680 32.949 670.091 33.24 660.182 32.381 650.273 33.237 640.364 33.501 630.455 33.398 620.545 33.566 610.636 32.47 600.727 32.301 590.818 32.332 580.909 32.894 571 32.953 570.975 32.893 570.026 32.724 568.856 32.021 567.774 31.529 566.787 31.266 565.697 30.756 565.491 30.671 565.097 29.63 565.018 28.718 564.513 27.63 564.165 26.608 563.5 25.453 563.393 25.453 563.606 22.262 563.697 19.072 563.342 15.881 563.468 12.691 563.5 9.5 563.539 9.516 564.14 8.523 564.377 7.378 564.961 6.377 565.087 5.187 565.697 4.197 565.61 3.988 566.822 3.913 567.727 3.097 568.944 3.035 569.966 2.503 571 2"/><text x="571.5" y="23.708" fill="#000" font-family="sans-serif" font-size="18" lengthAdjust="spacingAndGlyphs" textLength="108">家中网络拓扑</text><polygon fill="#FEFECE" stroke="#000" stroke-width="1.5" points="391 429.953 391.05 430.003 392.902 427.856 395.046 425.999 397.094 424.047 398.832 421.785 401 419.953 401 419.875 411 419.527 421 419.57 431 419.885 441 419.262 451 420.507 461 419.323 471 419.755 481 420.385 491 419.953 490.971 419.953 491.023 427.212 490.989 434.472 491.06 441.731 491.08 448.991 491 456.25 491.138 456.388 489.158 458.408 487.16 460.41 485.06 462.31 483.109 464.359 481 466.25 481 466.952 471 465.529 461 466.928 451 465.954 441 466.784 431 465.755 421 466.182 411 466.992 401 466.201 391 466.25 391.035 466.25 391.113 458.991 391.139 451.731 390.999 444.472 391.096 437.212 391 429.953" filter="url(#fy99zhmng0wrp)"/><path fill="#FEFECE" stroke="#000" stroke-width="1.5" d="M481,429.9531 L481.0661,430.0192 L482.6698,428.0229 L484.6607,426.4139 L486.5256,424.6787 L487.9758,422.5289 L490,420.9531"/><path fill="#FEFECE" stroke="#000" stroke-width="1.5" d="M391,429.9531 L391,430.2334 L401,429.4007 L411,430.2108 L421,430.486 L431,429.0019 L441,429.8495 L451,429.3845 L461,429.4418 L471,429.8622 L481,429.9531"/><path fill="#FEFECE" stroke="#000" stroke-width="1.5" d="M481,429.9531 L481.0934,429.9531 L480.8159,437.2125 L481.0859,444.4719 L481.1776,451.7313 L480.6829,458.9906 L481,466.25"/><text x="406" y="452.948" fill="#000" font-family="sans-serif" font-size="14" font-weight="bold" lengthAdjust="spacingAndGlyphs" textLength="60">电信光猫</text><polygon fill="#FEFECE" stroke="#000" stroke-width="1.5" points="175.5 315.453 175.549 315.503 177.402 313.356 179.546 311.499 181.594 309.547 183.332 307.285 185.5 305.453 185.5 305.375 195.313 305.027 205.125 305.07 214.938 305.385 224.75 304.762 234.563 306.007 244.375 304.823 254.188 305.255 264 305.885 273.813 305.367 283.625 305.521 293.438 305.421 303.25 305.632 313.063 305.692 322.875 306.039 332.688 306.124 342.5 305.453 342.726 305.453 342.585 312.712 342.654 319.972 342.734 327.231 342.26 334.491 342.5 341.75 342.66 341.91 340.43 343.68 338.626 345.876 336.383 347.633 334.484 349.734 332.5 351.75 332.5 352.492 322.688 351.701 312.875 351.855 303.063 352.089 293.25 352.166 283.438 351.746 273.625 352.037 263.813 351.178 254 352.034 244.188 352.298 234.375 352.195 224.563 352.363 214.75 351.267 204.938 351.098 195.125 351.129 185.313 351.691 175.5 351.75 175.435 351.75 175.727 344.491 175.442 337.231 175.386 329.972 175.576 322.712 175.5 315.453" filter="url(#fy99zhmng0wrp)"/><path fill="#FEFECE" stroke="#000" stroke-width="1.5" d="M332.5,315.4531 L332.5661,315.5192 L334.1698,313.5229 L336.1607,311.9139 L338.0256,310.1787 L339.4758,308.0289 L341.5,306.4531"/><path fill="#FEFECE" stroke="#000" stroke-width="1.5" d="M175.5,315.4531 L175.5,315.7334 L185.3125,314.9007 L195.125,315.7108 L204.9375,315.986 L214.75,314.5019 L224.5625,315.3495 L234.375,314.8845 L244.1875,314.9418 L254,315.3622 L263.8125,314.5313 L273.625,316.1913 L283.4375,314.6128 L293.25,315.1894 L303.0625,316.0291 L312.875,315.3388 L322.6875,315.5441 L332.5,315.4531"/><path fill="#FEFECE" stroke="#000" stroke-width="1.5" d="M332.5,315.4531 L332.5934,315.4531 L332.3159,322.7125 L332.5859,329.9719 L332.6776,337.2313 L332.1829,344.4906 L332.5,351.75"/><text x="190.5" y="338.448" fill="#000" font-family="sans-serif" font-size="14" font-weight="bold" lengthAdjust="spacingAndGlyphs" textLength="127">TPLink千兆交换机</text><polygon fill="#FEFECE" stroke="#000" stroke-width="1.5" points="6 167.953 6.05 168.003 7.902 165.856 10.046 163.999 12.094 162.047 13.832 159.785 16 157.953 16 157.875 25.692 157.527 35.385 157.57 45.077 157.885 54.769 157.262 64.462 158.507 74.154 157.323 83.846 157.755 93.538 158.385 103.231 157.867 112.923 158.021 122.615 157.921 132.308 158.132 142 157.953 142.239 157.953 142.586 168.052 142.671 178.151 142.679 188.25 142.255 198.349 142.464 208.448 142 218.547 142.166 218.712 139.83 220.377 138.16 222.707 135.93 224.477 134.126 226.673 132 228.547 132 228.052 122.308 228.478 112.615 229.288 102.923 228.498 93.231 228.652 83.538 228.886 73.846 228.963 64.154 228.543 54.462 228.834 44.769 227.975 35.077 228.831 25.385 229.095 15.692 228.991 6 228.547 6.613 228.547 5.517 218.448 5.348 208.349 5.379 198.25 5.941 188.151 5.803 178.052 6 167.953" filter="url(#fy99zhmng0wrp)"/><path fill="#FEFECE" stroke="#000" stroke-width="1.5" d="M132,167.9531 L132.0661,168.0192 L133.6698,166.0229 L135.6607,164.4139 L137.5256,162.6787 L138.9758,160.5289 L141,158.9531"/><path fill="#FEFECE" stroke="#000" stroke-width="1.5" d="M6,167.9531 L6,168.2334 L15.6923,167.4007 L25.3846,168.2108 L35.0769,168.486 L44.7692,167.0019 L54.4615,167.8495 L64.1538,167.3845 L73.8462,167.4418 L83.5385,167.8622 L93.2308,167.0313 L102.9231,168.6913 L112.6154,167.1128 L122.3077,167.6894 L132,167.9531"/><path fill="#FEFECE" stroke="#000" stroke-width="1.5" d="M132,167.9531 L132.2802,167.9531 L131.4476,178.0521 L132.2577,188.151 L132.5329,198.25 L131.0488,208.349 L131.8964,218.4479 L132,228.5469"/><text x="21" y="190.948" fill="#000" font-family="sans-serif" font-size="14" font-weight="bold" lengthAdjust="spacingAndGlyphs" textLength="65">香蕉派R1</text><path fill="none" stroke="#000" stroke-dasharray="1 2" stroke-width="1" d="M6,194.25 L6,194.5302 L15.6923,193.6976 L25.3846,194.5077 L35.0769,194.7829 L44.7692,193.2988 L54.4615,194.1464 L64.1538,193.6813 L73.8462,193.7387 L83.5385,194.1591 L93.2308,193.3282 L102.9231,194.9882 L112.6154,193.4096 L122.3077,193.9863 L132,194.25"/><path fill="none" stroke="#000" stroke-dasharray="1 2" stroke-width="1" d="M132,194.25 L132.0661,194.3161 L133.8698,192.1198 L136.0607,190.3107 L138.1256,188.3756 L139.7758,186.0258 L142,184.25"/><text x="27" y="211.245" fill="#000" font-family="sans-serif" font-size="14" lengthAdjust="spacingAndGlyphs" textLength="84">科学上网备用</text><polygon fill="#FEFECE" stroke="#000" stroke-width="1.5" points="177 159.953 177.049 160.003 178.902 157.856 181.046 155.999 183.094 154.047 184.832 151.785 187 149.953 187 149.875 197.267 149.527 207.533 149.57 217.8 149.885 228.067 149.262 238.333 150.507 248.6 149.323 258.867 149.755 269.133 150.385 279.4 149.867 289.667 150.021 299.933 149.921 310.2 150.132 320.467 150.192 330.733 150.539 341 149.953 341.671 149.953 341.679 159.565 341.255 169.176 341.464 178.787 341.702 188.398 340.279 198.01 341.678 207.621 340.704 217.232 341 226.844 341.126 226.97 338.883 228.727 336.984 230.828 335.175 233.018 332.988 234.832 331 236.844 331 236.949 320.733 237.182 310.467 237.26 300.2 236.84 289.933 237.131 279.667 236.271 269.4 237.128 259.133 237.392 248.867 237.288 238.6 237.457 228.333 236.361 218.067 236.192 207.8 236.222 197.533 236.785 187.267 236.647 177 236.844 177.681 236.844 176.825 227.232 176.657 217.621 177.228 208.01 176.333 198.398 176.481 188.787 177.649 179.176 177.436 169.565 177 159.953" filter="url(#fy99zhmng0wrp)"/><path fill="#FEFECE" stroke="#000" stroke-width="1.5" d="M331,159.9531 L331.0661,160.0192 L332.6698,158.0229 L334.6607,156.4139 L336.5256,154.6787 L337.9758,152.5289 L340,150.9531"/><path fill="#FEFECE" stroke="#000" stroke-width="1.5" d="M177,159.9531 L177,160.2334 L187.2667,159.4007 L197.5333,160.2108 L207.8,160.486 L218.0667,159.0019 L228.3333,159.8495 L238.6,159.3845 L248.8667,159.4418 L259.1333,159.8622 L269.4,159.0313 L279.6667,160.6913 L289.9333,159.1128 L300.2,159.6894 L310.4667,160.5291 L320.7333,159.8388 L331,159.9531"/><path fill="#FEFECE" stroke="#000" stroke-width="1.5" d="M331,159.9531 L331.2802,159.9531 L330.4476,169.5645 L331.2577,179.1758 L331.5329,188.7871 L330.0488,198.3984 L330.8964,208.0098 L330.4313,217.6211 L330.4887,227.2324 L331,236.8438"/><text x="192" y="182.948" fill="#000" font-family="sans-serif" font-size="14" font-weight="bold" lengthAdjust="spacingAndGlyphs" textLength="42">HTPC</text><path fill="none" stroke="#000" stroke-dasharray="1 2" stroke-width="1" d="M177,186.25 L177,186.5302 L187.2667,185.6976 L197.5333,186.5077 L207.8,186.7829 L218.0667,185.2988 L228.3333,186.1464 L238.6,185.6813 L248.8667,185.7387 L259.1333,186.1591 L269.4,185.3282 L279.6667,186.9882 L289.9333,185.4096 L300.2,185.9863 L310.4667,186.8259 L320.7333,186.1356 L331,186.25"/><path fill="none" stroke="#000" stroke-dasharray="1 2" stroke-width="1" d="M331,186.25 L331.0661,186.3161 L332.8698,184.1198 L335.0607,182.3107 L337.1256,180.3756 L338.7758,178.0258 L341,176.25"/><text x="198" y="203.245" fill="#000" font-family="sans-serif" font-size="14" lengthAdjust="spacingAndGlyphs" textLength="84">科学上网主力</text><text x="198" y="219.542" fill="#000" font-family="sans-serif" font-size="14" lengthAdjust="spacingAndGlyphs" textLength="112">很多其他服务程序</text><polygon fill="#FEFECE" stroke="#000" stroke-width="1.5" points="542 306.953 542.049 307.003 543.902 304.856 546.046 302.999 548.094 301.047 549.832 298.785 552 296.953 552 296.875 562.133 296.527 572.267 296.57 582.4 296.885 592.533 296.262 602.667 297.507 612.8 296.323 622.933 296.755 633.067 297.385 643.2 296.867 653.333 297.021 663.467 296.921 673.6 297.132 683.733 297.192 693.867 297.539 704 296.953 704.671 296.953 704.679 307.472 704.255 317.991 704.464 328.509 704.702 339.028 704 349.547 703.83 349.377 702.16 351.707 699.93 353.477 698.126 355.673 695.883 357.43 694 359.547 694 359.478 683.867 360.288 673.733 359.498 663.6 359.652 653.467 359.885 643.333 359.963 633.2 359.543 623.067 359.834 612.933 358.974 602.8 359.831 592.667 360.095 582.533 359.991 572.4 360.16 562.267 359.064 552.133 358.895 542 359.547 541.379 359.547 541.941 349.028 541.803 338.509 542.681 327.991 541.825 317.472 542 306.953" filter="url(#fy99zhmng0wrp)"/><path fill="#FEFECE" stroke="#000" stroke-width="1.5" d="M694,306.9531 L694.0661,307.0192 L695.6698,305.0229 L697.6607,303.4139 L699.5256,301.6787 L700.9758,299.5289 L703,297.9531"/><path fill="#FEFECE" stroke="#000" stroke-width="1.5" d="M542,306.9531 L542,307.2334 L552.1333,306.4007 L562.2667,307.2108 L572.4,307.486 L582.5333,306.0019 L592.6667,306.8495 L602.8,306.3845 L612.9333,306.4418 L623.0667,306.8622 L633.2,306.0313 L643.3333,307.6913 L653.4667,306.1128 L663.6,306.6894 L673.7333,307.5291 L683.8667,306.8388 L694,306.9531"/><path fill="#FEFECE" stroke="#000" stroke-width="1.5" d="M694,306.9531 L694.2802,306.9531 L693.4476,317.4719 L694.2577,327.9906 L694.5329,338.5094 L693.0488,349.0281 L694,359.5469"/><text x="557" y="329.948" fill="#000" font-family="sans-serif" font-size="14" font-weight="bold" lengthAdjust="spacingAndGlyphs" textLength="119">TPLink R470GP</text><text x="557" y="346.245" fill="#000" font-family="sans-serif" font-size="14" lengthAdjust="spacingAndGlyphs" textLength="122">POE AC路由一体机</text><polygon fill="#FEFECE" stroke="#000" stroke-width="1.5" points="376.5 159.953 376.55 160.003 378.402 157.856 380.546 155.999 382.594 154.047 384.332 151.785 386.5 149.953 386.5 149.875 396.577 149.527 406.654 149.57 416.731 149.885 426.808 149.262 436.885 150.507 446.962 149.323 457.038 149.755 467.115 150.385 477.192 149.867 487.269 150.021 497.346 149.921 507.423 150.132 517.5 149.953 517.739 149.953 518.086 159.565 518.171 169.176 518.179 178.787 517.755 188.398 517.964 198.01 518.202 207.621 516.779 217.232 517.5 226.844 517.66 227.004 515.43 228.774 513.626 230.97 511.383 232.727 509.484 234.828 507.5 236.844 507.5 237.585 497.423 236.795 487.346 236.949 477.269 237.182 467.192 237.26 457.115 236.84 447.038 237.131 436.962 236.271 426.885 237.128 416.808 237.392 406.731 237.288 396.654 237.457 386.577 236.361 376.5 236.844 375.848 236.844 375.879 227.232 376.441 217.621 376.303 208.01 377.181 198.398 376.325 188.787 376.157 179.176 376.728 169.565 376.5 159.953" filter="url(#fy99zhmng0wrp)"/><path fill="#FEFECE" stroke="#000" stroke-width="1.5" d="M507.5,159.9531 L507.5661,160.0192 L509.1698,158.0229 L511.1607,156.4139 L513.0256,154.6787 L514.4758,152.5289 L516.5,150.9531"/><path fill="#FEFECE" stroke="#000" stroke-width="1.5" d="M376.5,159.9531 L376.5,160.2334 L386.5769,159.4007 L396.6538,160.2108 L406.7308,160.486 L416.8077,159.0019 L426.8846,159.8495 L436.9615,159.3845 L447.0385,159.4418 L457.1154,159.8622 L467.1923,159.0313 L477.2692,160.6913 L487.3462,159.1128 L497.4231,159.6894 L507.5,159.9531"/><path fill="#FEFECE" stroke="#000" stroke-width="1.5" d="M507.5,159.9531 L507.7802,159.9531 L506.9476,169.5645 L507.7577,179.1758 L508.0329,188.7871 L506.5488,198.3984 L507.3964,208.0098 L506.9313,217.6211 L506.9887,227.2324 L507.5,236.8438"/><text x="391.5" y="182.948" fill="#000" font-family="sans-serif" font-size="14" font-weight="bold" lengthAdjust="spacingAndGlyphs" textLength="101">主卧86面板AP</text><path fill="none" stroke="#000" stroke-dasharray="1 2" stroke-width="1" d="M376.5,186.25 L376.5,186.5302 L386.5769,185.6976 L396.6538,186.5077 L406.7308,186.7829 L416.8077,185.2988 L426.8846,186.1464 L436.9615,185.6813 L447.0385,185.7387 L457.1154,186.1591 L467.1923,185.3282 L477.2692,186.9882 L487.3462,185.4096 L497.4231,185.9863 L507.5,186.25"/><path fill="none" stroke="#000" stroke-dasharray="1 2" stroke-width="1" d="M507.5,186.25 L507.5661,186.3161 L509.3698,184.1198 L511.5607,182.3107 L513.6256,180.3756 L515.2758,178.0258 L517.5,176.25"/><text x="397.5" y="203.245" fill="#000" font-family="sans-serif" font-size="14" lengthAdjust="spacingAndGlyphs" textLength="51">5G WIFI</text><text x="397.5" y="219.542" fill="#000" font-family="sans-serif" font-size="14" lengthAdjust="spacingAndGlyphs" textLength="56">以太网口</text><polygon fill="#FEFECE" stroke="#000" stroke-width="1.5" points="552.5 159.953 552.549 160.003 554.402 157.856 556.546 155.999 558.594 154.047 560.332 151.785 562.5 149.953 562.5 149.875 572.577 149.527 582.654 149.57 592.731 149.885 602.808 149.262 612.885 150.507 622.962 149.323 633.038 149.755 643.115 150.385 653.192 149.867 663.269 150.021 673.346 149.921 683.423 150.132 693.5 149.953 693.739 149.953 694.086 159.565 694.171 169.176 694.179 178.787 693.755 188.398 693.964 198.01 694.202 207.621 692.779 217.232 693.5 226.844 693.66 227.004 691.43 228.774 689.626 230.97 687.383 232.727 685.484 234.828 683.5 236.844 683.5 237.585 673.423 236.795 663.346 236.949 653.269 237.182 643.192 237.26 633.115 236.84 623.038 237.131 612.962 236.271 602.885 237.128 592.808 237.392 582.731 237.288 572.654 237.457 562.577 236.361 552.5 236.844 551.848 236.844 551.879 227.232 552.441 217.621 552.303 208.01 553.181 198.398 552.325 188.787 552.157 179.176 552.728 169.565 552.5 159.953" filter="url(#fy99zhmng0wrp)"/><path fill="#FEFECE" stroke="#000" stroke-width="1.5" d="M683.5,159.9531 L683.5661,160.0192 L685.1698,158.0229 L687.1607,156.4139 L689.0256,154.6787 L690.4758,152.5289 L692.5,150.9531"/><path fill="#FEFECE" stroke="#000" stroke-width="1.5" d="M552.5,159.9531 L552.5,160.2334 L562.5769,159.4007 L572.6538,160.2108 L582.7308,160.486 L592.8077,159.0019 L602.8846,159.8495 L612.9615,159.3845 L623.0385,159.4418 L633.1154,159.8622 L643.1923,159.0313 L653.2692,160.6913 L663.3462,159.1128 L673.4231,159.6894 L683.5,159.9531"/><path fill="#FEFECE" stroke="#000" stroke-width="1.5" d="M683.5,159.9531 L683.7802,159.9531 L682.9476,169.5645 L683.7577,179.1758 L684.0329,188.7871 L682.5488,198.3984 L683.3964,208.0098 L682.9313,217.6211 L682.9887,227.2324 L683.5,236.8438"/><text x="567.5" y="182.948" fill="#000" font-family="sans-serif" font-size="14" font-weight="bold" lengthAdjust="spacingAndGlyphs" textLength="101">次卧86面板AP</text><path fill="none" stroke="#000" stroke-dasharray="1 2" stroke-width="1" d="M552.5,186.25 L552.5,186.5302 L562.5769,185.6976 L572.6538,186.5077 L582.7308,186.7829 L592.8077,185.2988 L602.8846,186.1464 L612.9615,185.6813 L623.0385,185.7387 L633.1154,186.1591 L643.1923,185.3282 L653.2692,186.9882 L663.3462,185.4096 L673.4231,185.9863 L683.5,186.25"/><path fill="none" stroke="#000" stroke-dasharray="1 2" stroke-width="1" d="M683.5,186.25 L683.5661,186.3161 L685.3698,184.1198 L687.5607,182.3107 L689.6256,180.3756 L691.2758,178.0258 L693.5,176.25"/><text x="573.5" y="203.245" fill="#000" font-family="sans-serif" font-size="14" lengthAdjust="spacingAndGlyphs" textLength="51">5G WIFI</text><text x="573.5" y="219.542" fill="#000" font-family="sans-serif" font-size="14" lengthAdjust="spacingAndGlyphs" textLength="56">以太网口</text><polygon fill="#FEFECE" stroke="#000" stroke-width="1.5" points="729 159.953 729.049 160.003 730.902 157.856 733.046 155.999 735.094 154.047 736.832 151.785 739 149.953 739 149.875 748.733 149.527 758.467 149.57 768.2 149.885 777.933 149.262 787.667 150.507 797.4 149.323 807.133 149.755 816.867 150.385 826.6 149.867 836.333 150.021 846.067 149.921 855.8 150.132 865.533 150.192 875.267 150.539 885 149.953 885.671 149.953 885.679 159.565 885.255 169.176 885.464 178.787 885.702 188.398 884.279 198.01 885.678 207.621 884.703 217.232 885 226.844 885.126 226.97 882.883 228.727 880.984 230.828 879.175 233.018 876.989 234.832 875 236.844 875 236.949 865.267 237.182 855.533 237.26 845.8 236.84 836.067 237.131 826.333 236.271 816.6 237.128 806.867 237.392 797.133 237.288 787.4 237.457 777.667 236.361 767.933 236.192 758.2 236.222 748.467 236.785 738.733 236.647 729 236.844 729.681 236.844 728.825 227.232 728.657 217.621 729.228 208.01 728.333 198.398 728.481 188.787 729.649 179.176 729.436 169.565 729 159.953" filter="url(#fy99zhmng0wrp)"/><path fill="#FEFECE" stroke="#000" stroke-width="1.5" d="M875,159.9531 L875.0661,160.0192 L876.6698,158.0229 L878.6607,156.4139 L880.5256,154.6787 L881.9758,152.5289 L884,150.9531"/><path fill="#FEFECE" stroke="#000" stroke-width="1.5" d="M729,159.9531 L729,160.2334 L738.7333,159.4007 L748.4667,160.2108 L758.2,160.486 L767.9333,159.0019 L777.6667,159.8495 L787.4,159.3845 L797.1333,159.4418 L806.8667,159.8622 L816.6,159.0313 L826.3333,160.6913 L836.0667,159.1128 L845.8,159.6894 L855.5333,160.5291 L865.2667,159.8388 L875,159.9531"/><path fill="#FEFECE" stroke="#000" stroke-width="1.5" d="M875,159.9531 L875.2802,159.9531 L874.4476,169.5645 L875.2577,179.1758 L875.5329,188.7871 L874.0488,198.3984 L874.8964,208.0098 L874.4313,217.6211 L874.4887,227.2324 L875,236.8438"/><text x="744" y="182.948" fill="#000" font-family="sans-serif" font-size="14" font-weight="bold" lengthAdjust="spacingAndGlyphs" textLength="101">餐厅86面板AP</text><path fill="none" stroke="#000" stroke-dasharray="1 2" stroke-width="1" d="M729,186.25 L729,186.5302 L738.7333,185.6976 L748.4667,186.5077 L758.2,186.7829 L767.9333,185.2988 L777.6667,186.1464 L787.4,185.6813 L797.1333,185.7387 L806.8667,186.1591 L816.6,185.3282 L826.3333,186.9882 L836.0667,185.4096 L845.8,185.9863 L855.5333,186.8259 L865.2667,186.1356 L875,186.25"/><path fill="none" stroke="#000" stroke-dasharray="1 2" stroke-width="1" d="M875,186.25 L875.0661,186.3161 L876.8698,184.1198 L879.0607,182.3107 L881.1256,180.3756 L882.7758,178.0258 L885,176.25"/><text x="750" y="203.245" fill="#000" font-family="sans-serif" font-size="14" lengthAdjust="spacingAndGlyphs" textLength="104">2.4G &amp; 5G WIFI</text><text x="750" y="219.542" fill="#000" font-family="sans-serif" font-size="14" lengthAdjust="spacingAndGlyphs" textLength="56">以太网口</text><polygon fill="#FEFECE" stroke="#000" stroke-width="1.5" points="920 159.953 920.049 160.003 921.902 157.856 924.046 155.999 926.094 154.047 927.832 151.785 930 149.953 930 149.875 939.733 149.527 949.467 149.57 959.2 149.885 968.933 149.262 978.667 150.507 988.4 149.323 998.133 149.755 1007.867 150.385 1017.6 149.867 1027.333 150.021 1037.067 149.921 1046.8 150.132 1056.533 150.192 1066.267 150.539 1076 149.953 1076.671 149.953 1076.679 159.565 1076.255 169.176 1076.464 178.787 1076.702 188.398 1075.279 198.01 1076.678 207.621 1075.704 217.232 1076 226.844 1076.126 226.97 1073.883 228.727 1071.984 230.828 1070.175 233.018 1067.988 234.832 1066 236.844 1066 236.949 1056.267 237.182 1046.533 237.26 1036.8 236.84 1027.067 237.131 1017.333 236.271 1007.6 237.128 997.867 237.392 988.133 237.288 978.4 237.457 968.667 236.361 958.933 236.192 949.2 236.222 939.467 236.785 929.733 236.647 920 236.844 920.681 236.844 919.825 227.232 919.657 217.621 920.228 208.01 919.333 198.398 919.481 188.787 920.649 179.176 920.436 169.565 920 159.953" filter="url(#fy99zhmng0wrp)"/><path fill="#FEFECE" stroke="#000" stroke-width="1.5" d="M1066,159.9531 L1066.0661,160.0192 L1067.6698,158.0229 L1069.6607,156.4139 L1071.5256,154.6787 L1072.9758,152.5289 L1075,150.9531"/><path fill="#FEFECE" stroke="#000" stroke-width="1.5" d="M920,159.9531 L920,160.2334 L929.7333,159.4007 L939.4667,160.2108 L949.2,160.486 L958.9333,159.0019 L968.6667,159.8495 L978.4,159.3845 L988.1333,159.4418 L997.8667,159.8622 L1007.6,159.0313 L1017.3333,160.6913 L1027.0667,159.1128 L1036.8,159.6894 L1046.5333,160.5291 L1056.2667,159.8388 L1066,159.9531"/><path fill="#FEFECE" stroke="#000" stroke-width="1.5" d="M1066,159.9531 L1066.2802,159.9531 L1065.4476,169.5645 L1066.2577,179.1758 L1066.5329,188.7871 L1065.0488,198.3984 L1065.8964,208.0098 L1065.4313,217.6211 L1065.4887,227.2324 L1066,236.8438"/><text x="935" y="182.948" fill="#000" font-family="sans-serif" font-size="14" font-weight="bold" lengthAdjust="spacingAndGlyphs" textLength="101">客厅86面板AP</text><path fill="none" stroke="#000" stroke-dasharray="1 2" stroke-width="1" d="M920,186.25 L920,186.5302 L929.7333,185.6976 L939.4667,186.5077 L949.2,186.7829 L958.9333,185.2988 L968.6667,186.1464 L978.4,185.6813 L988.1333,185.7387 L997.8667,186.1591 L1007.6,185.3282 L1017.3333,186.9882 L1027.0667,185.4096 L1036.8,185.9863 L1046.5333,186.8259 L1056.2667,186.1356 L1066,186.25"/><path fill="none" stroke="#000" stroke-dasharray="1 2" stroke-width="1" d="M1066,186.25 L1066.0661,186.3161 L1067.8698,184.1198 L1070.0607,182.3107 L1072.1256,180.3756 L1073.7758,178.0258 L1076,176.25"/><text x="941" y="203.245" fill="#000" font-family="sans-serif" font-size="14" lengthAdjust="spacingAndGlyphs" textLength="104">2.4G &amp; 5G WIFI</text><text x="941" y="219.542" fill="#000" font-family="sans-serif" font-size="14" lengthAdjust="spacingAndGlyphs" textLength="56">以太网口</text><polygon fill="#FEFECE" stroke="#000" stroke-width="1.5" points="297.5 53.953 297.55 54.003 299.402 51.855 301.546 49.999 303.594 48.047 305.332 45.785 307.5 43.953 307.5 43.875 317.227 43.527 326.954 43.57 336.682 43.885 346.409 43.262 356.136 44.507 365.864 43.323 375.591 43.755 385.318 44.385 395.046 43.867 404.773 44.021 414.5 43.953 414.489 43.953 414.56 51.212 414.58 58.472 414.695 65.731 414.724 72.991 414.5 80.25 414.66 80.41 412.56 82.31 410.609 84.359 408.666 86.415 406.33 88.08 404.5 90.25 404.5 90.928 394.773 89.954 385.046 90.784 375.318 89.755 365.591 90.181 355.864 90.992 346.136 90.201 336.409 90.355 326.682 90.589 316.954 90.666 307.227 90.246 297.5 90.25 297.596 90.25 297.309 82.991 297.595 75.731 297.683 68.472 297.648 61.212 297.5 53.953" filter="url(#fy99zhmng0wrp)"/><path fill="#FEFECE" stroke="#000" stroke-width="1.5" d="M404.5,53.9531 L404.5661,54.0192 L406.1698,52.0229 L408.1607,50.4139 L410.0256,48.6787 L411.4758,46.5289 L413.5,44.9531"/><path fill="#FEFECE" stroke="#000" stroke-width="1.5" d="M297.5,53.9531 L297.5,54.2334 L307.2273,53.4007 L316.9545,54.2108 L326.6818,54.486 L336.4091,53.0019 L346.1364,53.8495 L355.8636,53.3845 L365.5909,53.4418 L375.3182,53.8622 L385.0455,53.0313 L394.7727,54.6913 L404.5,53.9531"/><path fill="#FEFECE" stroke="#000" stroke-width="1.5" d="M404.5,53.9531 L404.5934,53.9531 L404.3159,61.2125 L404.5859,68.4719 L404.6776,75.7313 L404.1829,82.9906 L404.5,90.25"/><text x="312.5" y="76.948" fill="#000" font-family="sans-serif" font-size="14" font-weight="bold" lengthAdjust="spacingAndGlyphs" textLength="77">TL-AC100</text><polygon fill="#FEFECE" stroke="#000" stroke-width="1.5" points="449.5 53.953 449.55 54.003 451.402 51.855 453.546 49.999 455.594 48.047 457.332 45.785 459.5 43.953 459.5 43.875 469.3 43.527 479.1 43.57 488.9 43.885 498.7 43.262 508.5 44.507 518.3 43.323 528.1 43.755 537.9 44.385 547.7 43.867 557.5 44.021 567.3 43.921 577.1 44.132 586.9 44.192 596.7 44.539 606.5 43.953 606.724 43.953 606.726 51.212 606.585 58.472 606.654 65.731 606.734 72.991 606.5 80.25 606.33 80.08 604.66 82.41 602.43 84.18 600.626 86.376 598.383 88.133 596.5 90.25 596.5 90.181 586.7 90.992 576.9 90.201 567.1 90.355 557.3 90.589 547.5 90.666 537.7 90.246 527.9 90.537 518.1 89.678 508.3 90.534 498.5 90.798 488.7 90.695 478.9 90.863 469.1 89.767 459.3 89.598 449.5 90.25 449.293 90.25 449.48 82.991 449.435 75.731 449.727 68.472 449.442 61.212 449.5 53.953" filter="url(#fy99zhmng0wrp)"/><path fill="#FEFECE" stroke="#000" stroke-width="1.5" d="M596.5,53.9531 L596.5661,54.0192 L598.1698,52.0229 L600.1607,50.4139 L602.0256,48.6787 L603.4758,46.5289 L605.5,44.9531"/><path fill="#FEFECE" stroke="#000" stroke-width="1.5" d="M449.5,53.9531 L449.5,54.2334 L459.3,53.4007 L469.1,54.2108 L478.9,54.486 L488.7,53.0019 L498.5,53.8495 L508.3,53.3845 L518.1,53.4418 L527.9,53.8622 L537.7,53.0313 L547.5,54.6913 L557.3,53.1128 L567.1,53.6894 L576.9,54.5291 L586.7,53.8388 L596.5,53.9531"/><path fill="#FEFECE" stroke="#000" stroke-width="1.5" d="M596.5,53.9531 L596.5934,53.9531 L596.3159,61.2125 L596.5859,68.4719 L596.6776,75.7313 L596.1829,82.9906 L596.5,90.25"/><text x="464.5" y="76.948" fill="#000" font-family="sans-serif" font-size="14" font-weight="bold" lengthAdjust="spacingAndGlyphs" textLength="117">Windows台式机</text><polygon fill="#FEFECE" stroke="#000" stroke-width="1.5" points="723.5 53.953 723.549 54.003 725.402 51.855 727.546 49.999 729.594 48.047 731.332 45.785 733.5 43.953 733.5 43.875 743.313 43.527 753.125 43.57 762.938 43.885 772.75 43.262 782.563 44.507 792.375 43.323 802.188 43.755 812 44.385 821.813 43.867 831.625 44.021 841.438 43.921 851.25 44.132 861.063 44.192 870.875 44.539 880.688 44.624 890.5 43.953 890.726 43.953 890.585 51.212 890.654 58.472 890.734 65.731 890.26 72.991 890.5 80.25 890.66 80.41 888.43 82.18 886.626 84.376 884.383 86.133 882.484 88.234 880.5 90.25 880.5 90.992 870.688 90.201 860.875 90.355 851.063 90.589 841.25 90.666 831.438 90.246 821.625 90.537 811.813 89.678 802 90.534 792.188 90.798 782.375 90.695 772.563 90.863 762.75 89.767 752.938 89.598 743.125 89.629 733.313 90.191 723.5 90.25 723.434 90.25 723.727 82.991 723.442 75.731 723.386 68.472 723.576 61.212 723.5 53.953" filter="url(#fy99zhmng0wrp)"/><path fill="#FEFECE" stroke="#000" stroke-width="1.5" d="M880.5,53.9531 L880.5661,54.0192 L882.1698,52.0229 L884.1607,50.4139 L886.0256,48.6787 L887.4758,46.5289 L889.5,44.9531"/><path fill="#FEFECE" stroke="#000" stroke-width="1.5" d="M723.5,53.9531 L723.5,54.2334 L733.3125,53.4007 L743.125,54.2108 L752.9375,54.486 L762.75,53.0019 L772.5625,53.8495 L782.375,53.3845 L792.1875,53.4418 L802,53.8622 L811.8125,53.0313 L821.625,54.6913 L831.4375,53.1128 L841.25,53.6894 L851.0625,54.5291 L860.875,53.8388 L870.6875,54.0441 L880.5,53.9531"/><path fill="#FEFECE" stroke="#000" stroke-width="1.5" d="M880.5,53.9531 L880.5934,53.9531 L880.3159,61.2125 L880.5859,68.4719 L880.6776,75.7313 L880.1829,82.9906 L880.5,90.25"/><text x="738.5" y="76.948" fill="#000" font-family="sans-serif" font-size="14" font-weight="bold" lengthAdjust="spacingAndGlyphs" textLength="127">TPLink监控摄像头</text><polygon fill="#FEFECE" stroke="#000" stroke-width="1.5" points="932.5 53.953 932.549 54.003 934.402 51.855 936.546 49.999 938.594 48.047 940.332 45.785 942.5 43.953 942.5 43.875 952.045 43.527 961.591 43.57 971.136 43.885 980.682 43.262 990.227 44.507 999.773 43.323 1009.318 43.755 1018.864 44.385 1028.409 43.867 1037.955 44.021 1047.5 43.953 1047.489 43.953 1047.56 51.212 1047.58 58.472 1047.695 65.731 1047.724 72.991 1047.5 80.25 1047.66 80.41 1045.56 82.31 1043.609 84.359 1041.666 86.415 1039.33 88.08 1037.5 90.25 1037.5 90.928 1027.955 89.954 1018.409 90.784 1008.864 89.755 999.318 90.181 989.773 90.992 980.227 90.201 970.682 90.355 961.136 90.589 951.591 90.666 942.045 90.246 932.5 90.25 932.596 90.25 932.309 82.991 932.595 75.731 932.683 68.472 932.648 61.212 932.5 53.953" filter="url(#fy99zhmng0wrp)"/><path fill="#FEFECE" stroke="#000" stroke-width="1.5" d="M1037.5,53.9531 L1037.5661,54.0192 L1039.1698,52.0229 L1041.1607,50.4139 L1043.0256,48.6787 L1044.4758,46.5289 L1046.5,44.9531"/><path fill="#FEFECE" stroke="#000" stroke-width="1.5" d="M932.5,53.9531 L932.5,54.2334 L942.0455,53.4007 L951.5909,54.2108 L961.1364,54.486 L970.6818,53.0019 L980.2273,53.8495 L989.7727,53.3845 L999.3182,53.4418 L1008.8636,53.8622 L1018.4091,53.0313 L1027.9545,54.6913 L1037.5,53.9531"/><path fill="#FEFECE" stroke="#000" stroke-width="1.5" d="M1037.5,53.9531 L1037.5934,53.9531 L1037.3159,61.2125 L1037.5859,68.4719 L1037.6776,75.7313 L1037.1829,82.9906 L1037.5,90.25"/><text x="947.5" y="76.948" fill="#000" font-family="sans-serif" font-size="14" font-weight="bold" lengthAdjust="spacingAndGlyphs" textLength="75">无线投屏器</text><polygon fill="#FEFECE" stroke="#000" stroke-width="1.5" points="1082.5 53.953 1082.55 54.003 1084.402 51.855 1086.546 49.999 1088.594 48.047 1090.332 45.785 1092.5 43.953 1092.5 43.875 1102.571 43.527 1112.643 43.57 1122.714 43.885 1132.786 43.262 1142.857 44.507 1152.929 43.323 1163 43.755 1173.071 44.385 1183.143 43.867 1193.214 44.021 1203.286 43.921 1213.357 44.132 1223.429 44.192 1233.5 43.953 1233.695 43.953 1233.724 51.212 1233.726 58.472 1233.585 65.731 1233.655 72.991 1233.5 80.25 1233.666 80.415 1231.33 82.08 1229.66 84.41 1227.43 86.18 1225.626 88.376 1223.5 90.25 1223.5 89.755 1213.429 90.181 1203.357 90.992 1193.286 90.201 1183.214 90.355 1173.143 90.589 1163.071 90.666 1153 90.246 1142.929 90.537 1132.857 89.678 1122.786 90.534 1112.714 90.798 1102.643 90.695 1092.571 90.863 1082.5 90.25 1082.339 90.25 1082.283 82.991 1082.293 75.731 1082.48 68.472 1082.435 61.212 1082.5 53.953" filter="url(#fy99zhmng0wrp)"/><path fill="#FEFECE" stroke="#000" stroke-width="1.5" d="M1223.5,53.9531 L1223.5661,54.0192 L1225.1698,52.0229 L1227.1607,50.4139 L1229.0256,48.6787 L1230.4758,46.5289 L1232.5,44.9531"/><path fill="#FEFECE" stroke="#000" stroke-width="1.5" d="M1082.5,53.9531 L1082.5,54.2334 L1092.5714,53.4007 L1102.6429,54.2108 L1112.7143,54.486 L1122.7857,53.0019 L1132.8571,53.8495 L1142.9286,53.3845 L1153,53.4418 L1163.0714,53.8622 L1173.1429,53.0313 L1183.2143,54.6913 L1193.2857,53.1128 L1203.3571,53.6894 L1213.4286,54.5291 L1223.5,53.9531"/><path fill="#FEFECE" stroke="#000" stroke-width="1.5" d="M1223.5,53.9531 L1223.5934,53.9531 L1223.3159,61.2125 L1223.5859,68.4719 L1223.6776,75.7313 L1223.1829,82.9906 L1223.5,90.25"/><text x="1097.5" y="76.948" fill="#000" font-family="sans-serif" font-size="14" font-weight="bold" lengthAdjust="spacingAndGlyphs" textLength="111">斐迅N1电视盒子</text><path fill="none" stroke="#A80036" stroke-width="1" d="M294.957,351.6791 L295.1043,351.9175 L303.4652,356.648 L312.6898,362.7759 L321.6332,368.4487 L329.6515,372.6251 L338.8959,378.7848 L347.45,383.828 L356.2788,389.3155 L365.2986,395.1119 L373.6603,399.8438 L383.3318,406.6946 L391.3005,410.7906 L400.541,416.9442"/><polygon fill="#A80036" stroke="#A80036" stroke-width="1" points="405.117 419.773 405.175 419.812 403.892 418.068 402.949 416.556 401.895 414.967 400.478 413.132 399.564 411.639 399.539 411.633 399.686 412.707 399.959 413.812 400.322 414.937 400.38 415.99 400.864 417.144 400.906 417.324 399.714 417.2 398.646 417.6 397.594 418.064 396.453 418.156 395.358 418.444 395.361 418.466 397.308 418.699 399.27 419.034 401.224 419.32 403.192 419.701 405.117 419.773"/><path fill="none" stroke="#A80036" stroke-width="1" d="M573.268,360.1941 L573.4153,360.4325 L564.5985,364.9035 L556.6455,370.772 L548.4112,376.1853 L539.2519,380.1023 L531.3185,386.0025 L522.695,390.7863 L514.3461,396.0143 L506.1882,401.5513 L497.3723,406.0238 L489.8661,412.6151 L481.099,417.1665"/><polygon fill="#A80036" stroke="#A80036" stroke-width="1" points="476.822 419.811 476.832 419.88 478.755 419.408 480.734 419.343 482.695 419.145 484.597 418.512 486.581 418.481 486.575 418.456 485.447 418.083 484.349 417.837 483.272 417.68 482.123 417.217 481.075 417.182 481.255 417.224 481.131 416.033 481.531 414.965 481.995 413.912 482.087 412.771 482.375 411.676 482.394 411.689 481.255 413.297 480.203 414.964 479.109 416.602 478.094 418.294 476.822 419.811"/><path fill="none" stroke="#A80036" stroke-width="1" d="M122.124,229.0501 L122.2876,229.2777 L129.6435,234.2393 L137.9583,240.5348 L145.9608,246.3959 L152.9365,250.8286 L161.2731,257.1545 L168.8436,262.4146 L176.719,268.0988 L184.8063,274.0779 L192.1632,279.0409 L200.9741,286.0264 L207.8946,290.3824 L216.0732,296.4883 L224.069,302.3401"/><polygon fill="#A80036" stroke="#A80036" stroke-width="1" points="228.228 305.33 228.288 305.365 227.114 303.56 226.294 301.962 225.359 300.297 224.044 298.409 223.255 296.829 223.23 296.825 223.297 297.923 223.494 299.041 223.78 300.175 223.758 301.258 224.168 302.412 224.198 302.594 223.018 302.387 221.924 302.712 220.842 303.102 219.697 303.114 218.585 303.325 218.59 303.347 220.512 303.715 222.455 304.185 224.387 304.606 226.339 305.12 228.228 305.33"/><path fill="none" stroke="#A80036" stroke-width="1" d="M259,237.2671 L259.2802,237.2671 L258.4476,247.6908 L259.2577,258.1145 L259.5329,268.5381 L258.0488,278.9618 L258.8964,289.3855 L259,299.8091"/><polygon fill="#A80036" stroke="#A80036" stroke-width="1" points="259 305.218 259.064 305.247 259.674 303.362 260.659 301.644 261.522 299.872 261.983 297.921 263 296.218 262.982 296.2 262.099 296.918 261.31 297.728 260.584 298.602 259.637 299.255 259 300.218 259.13 300.349 258.051 299.27 257.353 298.572 256.702 297.92 255.78 296.998 255 296.218 255.021 296.227 255.79 298.014 256.654 299.842 257.473 301.651 258.378 303.497 259 305.218"/><path fill="none" stroke="#A80036" stroke-width="1" d="M503.656,237.2671 L503.825,237.4907 L511.6327,243.1059 L520.4309,250.0318 L528.9066,256.531 L536.3216,261.6265 L545.1424,268.5822 L553.1718,274.4908 L561.5162,280.8161 L570.0794,287.4311 L578.444,293.7831"/><polygon fill="#A80036" stroke="#A80036" stroke-width="1" points="582.622 296.94 582.683 296.974 581.547 295.15 580.77 293.525 579.877 291.835 578.598 289.932 577.852 288.323 577.826 288.32 577.867 289.424 578.038 290.547 578.298 291.682 578.248 292.774 578.633 293.926 578.658 294.109 577.483 293.874 576.382 294.173 575.291 294.537 574.146 294.522 573.03 294.707 573.035 294.729 574.946 295.143 576.88 295.658 578.803 296.124 580.748 296.684 582.622 296.94"/><path fill="none" stroke="#A80036" stroke-width="1" d="M623,237.2671 L623.2802,237.2671 L622.4476,248.1825 L623.2577,259.0979 L623.5329,270.0133 L622.0488,280.9287 L623,291.8441"/><polygon fill="#A80036" stroke="#A80036" stroke-width="1" points="623 296.94 623.064 296.969 623.674 295.084 624.659 293.366 625.522 291.594 625.983 289.644 627 287.94 626.982 287.922 626.1 288.64 625.31 289.45 624.584 290.324 623.637 290.977 623 291.94 623.13 292.071 622.051 290.992 621.353 290.293 620.702 289.642 619.78 288.72 619 287.94 619.021 287.949 619.79 289.736 620.654 291.564 621.473 293.373 622.378 295.219 623 296.94"/><path fill="none" stroke="#A80036" stroke-width="1" d="M748.022,237.0841 L748.1862,237.3112 L739.8373,242.3186 L732.4508,248.6574 L724.7509,254.5626 L716.0204,259.042 L708.6558,265.4111 L700.5223,270.7165 L692.6948,276.4451 L685.08,282.4681 L676.7321,287.4768 L669.411,293.9061"/><polygon fill="#A80036" stroke="#A80036" stroke-width="1" points="665.329 296.857 665.343 296.926 667.228 296.316 669.197 296.108 671.139 295.77 672.99 295.001 674.967 294.828 674.962 294.803 673.827 294.508 672.712 294.342 671.612 294.266 670.462 293.881 669.382 293.929 669.564 293.958 669.354 292.778 669.676 291.684 670.063 290.601 670.073 289.456 670.281 288.344 670.301 288.355 669.282 290.041 668.352 291.779 667.379 293.492 666.488 295.253 665.329 296.857"/><path fill="none" stroke="#A80036" stroke-width="1" d="M920,230.1511 L920.0347,230.2379 L916.5316,231.3406 L913.2319,232.9517 L909.866,234.3972 L906.2822,235.2984 L903,236.9531 L902.9879,236.9208 L898.0429,238.6115 L893.1591,240.4653 L888.3178,242.4323 L883.33,244.0089 L878.5475,246.1324 L878.6309,246.3639 L873.4425,247.6741 L868.4977,249.6603 L863.5827,251.7288 L858.4947,253.3176 L853.4976,255.1588 L853.5076,255.1874 L848.4293,256.9064 L843.3964,258.7557 L838.3416,260.5422 L833.3285,262.4486 L828.1793,263.9638 L828.2746,264.2464 L823.2242,265.9529 L818.1123,267.4771 L813.0904,269.2681 L808.0727,271.0716 L802.9214,272.4789 L802.8215,272.1743 L798.0416,274.3968 L792.9328,275.6163 L788.0741,277.5983 L782.9578,278.7952 L778.0526,280.6356 L778.0433,280.6066 L773.323,282.4954 L768.3857,283.7068 L763.5765,285.318 L758.7779,286.9627 L753.9019,288.3653 L754.0663,288.8954 L744.934,291.1413 L736.0826,294.293 L726.7767,295.9792 L718.1487,299.8513 L709.07,302.2701"/><polygon fill="#A80036" stroke="#A80036" stroke-width="1" points="704.066 303.789 704.075 303.859 706.004 303.895 707.983 304.339 709.947 304.65 711.856 304.525 713.84 305.004 713.827 304.981 712.775 304.345 711.784 303.825 710.836 303.384 709.74 302.668 708.851 302.338 709.013 302.425 709.199 301.241 709.859 300.311 710.577 299.412 710.959 298.333 711.517 297.349 711.532 297.366 710.02 298.629 708.576 299.97 707.099 301.273 705.684 302.649 704.066 303.789"/><path fill="none" stroke="#A80036" stroke-width="1" d="M372.269,90.2111 L372.4952,90.3765 L377.5942,97.7807 L384.0193,106.1543 L390.0127,114.2123 L394.5856,121.2321 L401.0411,129.6278 L406.4368,137.249 L412.667,145.4801"/><polygon fill="#A80036" stroke="#A80036" stroke-width="1" points="415.782 149.743 415.851 149.758 415.231 147.789 415.013 145.906 414.664 143.995 413.885 141.992 413.702 140.117 413.676 140.113 413.387 141.213 413.228 142.333 413.158 143.467 412.778 144.553 412.832 145.706 412.86 145.888 411.682 145.325 410.586 145.293 409.5 145.327 408.356 144.982 407.243 144.836 407.254 144.856 408.945 145.809 410.688 146.851 412.406 147.85 414.171 148.931 415.782 149.743"/><path fill="none" stroke="#A80036" stroke-width="1" d="M513.519,90.2111 L513.7539,90.364 L507.919,97.8054 L503.461,106.1428 L498.5547,114.1885 L492.1737,121.2747 L487.7471,129.6325 L482.2203,137.2744 L477.56,145.4801"/><polygon fill="#A80036" stroke="#A80036" stroke-width="1" points="474.787 149.743 474.825 149.802 476.364 148.555 478.127 147.652 479.816 146.637 481.266 145.254 483.048 144.381 483.043 144.356 481.912 144.476 480.808 144.724 479.723 145.061 478.573 145.092 477.514 145.552 477.694 145.59 477.074 144.402 476.981 143.325 476.952 142.261 476.549 141.119 476.342 140.018 476.365 140.022 476.021 141.961 475.779 143.917 475.488 145.866 475.291 147.829 474.787 149.743"/><path fill="none" stroke="#A80036" stroke-width="1" d="M807,90.2111 L807.2802,90.2111 L806.4476,101.0735 L807.2577,111.9359 L807.5329,122.7983 L806.0488,133.6607 L807,144.5231"/><polygon fill="#A80036" stroke="#A80036" stroke-width="1" points="807 149.743 807.064 149.772 807.674 147.887 808.659 146.169 809.522 144.397 809.983 142.446 811 140.743 810.982 140.725 810.1 141.443 809.31 142.253 808.584 143.127 807.637 143.78 807 144.743 807.13 144.874 806.051 143.795 805.353 143.096 804.702 142.445 803.78 141.523 803 140.743 803.021 140.752 803.79 142.539 804.654 144.367 805.473 146.175 806.378 148.022 807 149.743"/><path fill="none" stroke="#A80036" stroke-width="1" d="M991.43,90.2111 L991.7097,90.2291 L991.5767,101.0381 L993.0832,111.9525 L994.0558,122.8325 L993.2728,133.5997 L994.92,144.5231"/><polygon fill="#A80036" stroke="#A80036" stroke-width="1" points="995.256 149.743 995.322 149.767 995.809 147.848 996.682 146.07 997.429 144.246 997.764 142.27 998.669 140.505 998.65 140.488 997.816 141.261 997.079 142.12 996.411 143.039 995.508 143.752 994.935 144.754 995.056 144.892 993.946 143.849 993.192 143.21 992.48 142.621 991.517 141.744 990.686 141.019 990.706 141.029 991.59 142.759 992.567 144.536 993.499 146.29 994.515 148.089 995.256 149.743"/><path fill="none" stroke="#A80036" stroke-width="1" d="M1129.4,90.2111 L1129.5721,90.4323 L1120.9974,96.0486 L1113.4316,102.9614 L1105.5372,109.4521 L1096.5626,114.5542 L1089.0197,121.4966 L1080.6708,127.403 L1072.6427,133.7217 L1064.8375,140.327 L1056.83,146.6721"/><polygon fill="#A80036" stroke="#A80036" stroke-width="1" points="1052.89 149.743 1052.907 149.811 1054.768 149.135 1056.729 148.857 1058.658 148.449 1060.48 147.615 1062.449 147.371 1062.446 147.345 1061.309 147.09 1060.188 146.965 1059.078 146.929 1057.93 146.583 1056.835 146.672 1057.019 146.695 1056.767 145.523 1057.05 144.418 1057.398 143.322 1057.367 142.178 1057.535 141.058 1057.555 141.069 1056.597 142.79 1055.729 144.56 1054.818 146.307 1053.991 148.098 1052.89 149.743"/></g></svg>