<?xml version="1.0" encoding="UTF-8" standalone="no"?><svg xmlns="http://www.w3.org/2000/svg" xmlns:xlink="http://www.w3.org/1999/xlink" contentScriptType="application/ecmascript" contentStyleType="text/css" height="756px" preserveAspectRatio="none" version="1.1" viewBox="0 0 822 756" width="822px" zoomAndPan="magnify"><defs><filter height="300%" id="f19mfs3vwyktu8" width="300%" x="-1" y="-1"><feGaussianBlur result="blurOut" stdDeviation="2.0"/><feColorMatrix in="blurOut" result="blurOut2" type="matrix" values="0 0 0 0 0 0 0 0 0 0 0 0 0 0 0 0 0 0 .4 0"/><feOffset dx="4.0" dy="4.0" in="blurOut2" result="blurOut3"/><feBlend in="SourceGraphic" in2="blurOut3" mode="normal"/></filter></defs><g><rect fill="none" height="30.9531" rx="2.5" ry="2.5" style="stroke: #000000; stroke-width: 1.0;" width="124" x="354.5" y="2"/><text fill="#000000" font-family="sans-serif" font-size="18" lengthAdjust="spacingAndGlyphs" textLength="108" x="362.5" y="23.708">家中网络拓扑</text><!--MD5=[1d37dbca69c09fd285290ecf28987280]
cluster 弱电箱--><polygon fill="#FFFFFF" filter="url(#f19mfs3vwyktu8)" points="443.5,289.4531,453.5,279.4531,800,279.4531,800,389.4531,790,399.4531,443.5,399.4531,443.5,289.4531" style="stroke: #000000; stroke-width: 1.5;"/><line style="stroke: #000000; stroke-width: 1.5;" x1="790" x2="799" y1="289.4531" y2="280.4531"/><line style="stroke: #000000; stroke-width: 1.5;" x1="443.5" x2="790" y1="289.4531" y2="289.4531"/><line style="stroke: #000000; stroke-width: 1.5;" x1="790" x2="790" y1="289.4531" y2="399.4531"/><text fill="#000000" font-family="sans-serif" font-size="14" font-weight="bold" lengthAdjust="spacingAndGlyphs" textLength="45" x="595.25" y="305.4482">弱电箱</text><!--MD5=[fda4ec244e27670a79215dd09aafa138]
entity ISPModem--><polygon fill="#FEFECE" filter="url(#f19mfs3vwyktu8)" points="684,343.4531,694,333.4531,784,333.4531,784,369.75,774,379.75,684,379.75,684,343.4531" style="stroke: #000000; stroke-width: 1.5;"/><line style="stroke: #000000; stroke-width: 1.5;" x1="774" x2="783" y1="343.4531" y2="334.4531"/><line style="stroke: #000000; stroke-width: 1.5;" x1="684" x2="774" y1="343.4531" y2="343.4531"/><line style="stroke: #000000; stroke-width: 1.5;" x1="774" x2="774" y1="343.4531" y2="379.75"/><text fill="#000000" font-family="sans-serif" font-size="14" font-weight="bold" lengthAdjust="spacingAndGlyphs" textLength="60" x="699" y="366.4482">电信光猫</text><!--MD5=[8be9e00b8ae144cc3302ac29d6119746]
entity TPLinkR470GP--><polygon fill="#FEFECE" filter="url(#f19mfs3vwyktu8)" points="459.5,329.9531,469.5,319.9531,621.5,319.9531,621.5,372.5469,611.5,382.5469,459.5,382.5469,459.5,329.9531" style="stroke: #000000; stroke-width: 1.5;"/><line style="stroke: #000000; stroke-width: 1.5;" x1="611.5" x2="620.5" y1="329.9531" y2="320.9531"/><line style="stroke: #000000; stroke-width: 1.5;" x1="459.5" x2="611.5" y1="329.9531" y2="329.9531"/><line style="stroke: #000000; stroke-width: 1.5;" x1="611.5" x2="611.5" y1="329.9531" y2="382.5469"/><text fill="#000000" font-family="sans-serif" font-size="14" font-weight="bold" lengthAdjust="spacingAndGlyphs" textLength="119" x="474.5" y="352.9482">TPLink R470GP</text><text fill="#000000" font-family="sans-serif" font-size="14" lengthAdjust="spacingAndGlyphs" textLength="122" x="474.5" y="369.2451">POE AC路由一体机</text><!--MD5=[aba84b779106803175e5c2c7f9cba07a]
entity TPLinkSwitch--><polygon fill="#FEFECE" filter="url(#f19mfs3vwyktu8)" points="457,574.4531,467,564.4531,624,564.4531,624,600.75,614,610.75,457,610.75,457,574.4531" style="stroke: #000000; stroke-width: 1.5;"/><line style="stroke: #000000; stroke-width: 1.5;" x1="614" x2="623" y1="574.4531" y2="565.4531"/><line style="stroke: #000000; stroke-width: 1.5;" x1="457" x2="614" y1="574.4531" y2="574.4531"/><line style="stroke: #000000; stroke-width: 1.5;" x1="614" x2="614" y1="574.4531" y2="610.75"/><text fill="#000000" font-family="sans-serif" font-size="14" font-weight="bold" lengthAdjust="spacingAndGlyphs" textLength="127" x="472" y="597.4482">TPLink千兆交换机</text><!--MD5=[b1fb5dcc1c11b9a2c0d99ddf678ab688]
entity BananaPi--><polygon fill="#FEFECE" filter="url(#f19mfs3vwyktu8)" points="247,561.9531,257,551.9531,383,551.9531,383,612.5469,373,622.5469,247,622.5469,247,561.9531" style="stroke: #000000; stroke-width: 1.5;"/><line style="stroke: #000000; stroke-width: 1.5;" x1="373" x2="382" y1="561.9531" y2="552.9531"/><line style="stroke: #000000; stroke-width: 1.5;" x1="247" x2="373" y1="561.9531" y2="561.9531"/><line style="stroke: #000000; stroke-width: 1.5;" x1="373" x2="373" y1="561.9531" y2="622.5469"/><text fill="#000000" font-family="sans-serif" font-size="14" font-weight="bold" lengthAdjust="spacingAndGlyphs" textLength="65" x="262" y="584.9482">香蕉派R1</text><line style="stroke: #000000; stroke-width: 1.0; stroke-dasharray: 1.0,2.0;" x1="247" x2="373" y1="588.25" y2="588.25"/><line style="stroke: #000000; stroke-width: 1.0; stroke-dasharray: 1.0,2.0;" x1="373" x2="383" y1="588.25" y2="578.25"/><text fill="#000000" font-family="sans-serif" font-size="14" lengthAdjust="spacingAndGlyphs" textLength="84" x="268" y="605.2451">科学上网备用</text><!--MD5=[f0ad1c098305ab3629522329838cab5b]
entity HTPC--><polygon fill="#FEFECE" filter="url(#f19mfs3vwyktu8)" points="233,667.9531,243,657.9531,397,657.9531,397,734.8438,387,744.8438,233,744.8438,233,667.9531" style="stroke: #000000; stroke-width: 1.5;"/><line style="stroke: #000000; stroke-width: 1.5;" x1="387" x2="396" y1="667.9531" y2="658.9531"/><line style="stroke: #000000; stroke-width: 1.5;" x1="233" x2="387" y1="667.9531" y2="667.9531"/><line style="stroke: #000000; stroke-width: 1.5;" x1="387" x2="387" y1="667.9531" y2="744.8438"/><text fill="#000000" font-family="sans-serif" font-size="14" font-weight="bold" lengthAdjust="spacingAndGlyphs" textLength="42" x="248" y="690.9482">HTPC</text><line style="stroke: #000000; stroke-width: 1.0; stroke-dasharray: 1.0,2.0;" x1="233" x2="387" y1="694.25" y2="694.25"/><line style="stroke: #000000; stroke-width: 1.0; stroke-dasharray: 1.0,2.0;" x1="387" x2="397" y1="694.25" y2="684.25"/><text fill="#000000" font-family="sans-serif" font-size="14" lengthAdjust="spacingAndGlyphs" textLength="84" x="254" y="711.2451">科学上网主力</text><text fill="#000000" font-family="sans-serif" font-size="14" lengthAdjust="spacingAndGlyphs" textLength="112" x="254" y="727.542">很多其他服务程序</text><!--MD5=[eff0d92fd1dc618a788bf5a822fbc8ed]
entity APBedRoom1--><polygon fill="#FEFECE" filter="url(#f19mfs3vwyktu8)" points="244.5,73.9531,254.5,63.9531,385.5,63.9531,385.5,140.8438,375.5,150.8438,244.5,150.8438,244.5,73.9531" style="stroke: #000000; stroke-width: 1.5;"/><line style="stroke: #000000; stroke-width: 1.5;" x1="375.5" x2="384.5" y1="73.9531" y2="64.9531"/><line style="stroke: #000000; stroke-width: 1.5;" x1="244.5" x2="375.5" y1="73.9531" y2="73.9531"/><line style="stroke: #000000; stroke-width: 1.5;" x1="375.5" x2="375.5" y1="73.9531" y2="150.8438"/><text fill="#000000" font-family="sans-serif" font-size="14" font-weight="bold" lengthAdjust="spacingAndGlyphs" textLength="101" x="259.5" y="96.9482">主卧86面板AP</text><line style="stroke: #000000; stroke-width: 1.0; stroke-dasharray: 1.0,2.0;" x1="244.5" x2="375.5" y1="100.25" y2="100.25"/><line style="stroke: #000000; stroke-width: 1.0; stroke-dasharray: 1.0,2.0;" x1="375.5" x2="385.5" y1="100.25" y2="90.25"/><text fill="#000000" font-family="sans-serif" font-size="14" lengthAdjust="spacingAndGlyphs" textLength="51" x="265.5" y="117.2451">5G WIFI</text><text fill="#000000" font-family="sans-serif" font-size="14" lengthAdjust="spacingAndGlyphs" textLength="56" x="265.5" y="133.542">以太网口</text><!--MD5=[96a324d0f656e978bf40d568aadbb355]
entity APBedRoom2--><polygon fill="#FEFECE" filter="url(#f19mfs3vwyktu8)" points="244.5,195.9531,254.5,185.9531,385.5,185.9531,385.5,262.8438,375.5,272.8438,244.5,272.8438,244.5,195.9531" style="stroke: #000000; stroke-width: 1.5;"/><line style="stroke: #000000; stroke-width: 1.5;" x1="375.5" x2="384.5" y1="195.9531" y2="186.9531"/><line style="stroke: #000000; stroke-width: 1.5;" x1="244.5" x2="375.5" y1="195.9531" y2="195.9531"/><line style="stroke: #000000; stroke-width: 1.5;" x1="375.5" x2="375.5" y1="195.9531" y2="272.8438"/><text fill="#000000" font-family="sans-serif" font-size="14" font-weight="bold" lengthAdjust="spacingAndGlyphs" textLength="101" x="259.5" y="218.9482">次卧86面板AP</text><line style="stroke: #000000; stroke-width: 1.0; stroke-dasharray: 1.0,2.0;" x1="244.5" x2="375.5" y1="222.25" y2="222.25"/><line style="stroke: #000000; stroke-width: 1.0; stroke-dasharray: 1.0,2.0;" x1="375.5" x2="385.5" y1="222.25" y2="212.25"/><text fill="#000000" font-family="sans-serif" font-size="14" lengthAdjust="spacingAndGlyphs" textLength="51" x="265.5" y="239.2451">5G WIFI</text><text fill="#000000" font-family="sans-serif" font-size="14" lengthAdjust="spacingAndGlyphs" textLength="56" x="265.5" y="255.542">以太网口</text><!--MD5=[4626844887b0a8ade4fa0637d701973e]
entity APDinnerRoom--><polygon fill="#FEFECE" filter="url(#f19mfs3vwyktu8)" points="237,317.9531,247,307.9531,393,307.9531,393,384.8438,383,394.8438,237,394.8438,237,317.9531" style="stroke: #000000; stroke-width: 1.5;"/><line style="stroke: #000000; stroke-width: 1.5;" x1="383" x2="392" y1="317.9531" y2="308.9531"/><line style="stroke: #000000; stroke-width: 1.5;" x1="237" x2="383" y1="317.9531" y2="317.9531"/><line style="stroke: #000000; stroke-width: 1.5;" x1="383" x2="383" y1="317.9531" y2="394.8438"/><text fill="#000000" font-family="sans-serif" font-size="14" font-weight="bold" lengthAdjust="spacingAndGlyphs" textLength="101" x="252" y="340.9482">餐厅86面板AP</text><line style="stroke: #000000; stroke-width: 1.0; stroke-dasharray: 1.0,2.0;" x1="237" x2="383" y1="344.25" y2="344.25"/><line style="stroke: #000000; stroke-width: 1.0; stroke-dasharray: 1.0,2.0;" x1="383" x2="393" y1="344.25" y2="334.25"/><text fill="#000000" font-family="sans-serif" font-size="14" lengthAdjust="spacingAndGlyphs" textLength="104" x="258" y="361.2451">2.4G &amp; 5G WIFI</text><text fill="#000000" font-family="sans-serif" font-size="14" lengthAdjust="spacingAndGlyphs" textLength="56" x="258" y="377.542">以太网口</text><!--MD5=[3b3c59b99b8dca18929e6f7b032cf9bf]
entity APLivingRoom--><polygon fill="#FEFECE" filter="url(#f19mfs3vwyktu8)" points="237,439.9531,247,429.9531,393,429.9531,393,506.8438,383,516.8438,237,516.8438,237,439.9531" style="stroke: #000000; stroke-width: 1.5;"/><line style="stroke: #000000; stroke-width: 1.5;" x1="383" x2="392" y1="439.9531" y2="430.9531"/><line style="stroke: #000000; stroke-width: 1.5;" x1="237" x2="383" y1="439.9531" y2="439.9531"/><line style="stroke: #000000; stroke-width: 1.5;" x1="383" x2="383" y1="439.9531" y2="516.8438"/><text fill="#000000" font-family="sans-serif" font-size="14" font-weight="bold" lengthAdjust="spacingAndGlyphs" textLength="101" x="252" y="462.9482">客厅86面板AP</text><line style="stroke: #000000; stroke-width: 1.0; stroke-dasharray: 1.0,2.0;" x1="237" x2="383" y1="466.25" y2="466.25"/><line style="stroke: #000000; stroke-width: 1.0; stroke-dasharray: 1.0,2.0;" x1="383" x2="393" y1="466.25" y2="456.25"/><text fill="#000000" font-family="sans-serif" font-size="14" lengthAdjust="spacingAndGlyphs" textLength="104" x="258" y="483.2451">2.4G &amp; 5G WIFI</text><text fill="#000000" font-family="sans-serif" font-size="14" lengthAdjust="spacingAndGlyphs" textLength="56" x="258" y="499.542">以太网口</text><!--MD5=[d723b61fb88ed8a35aba0785e1affe4b]
entity TLAC100--><polygon fill="#FEFECE" filter="url(#f19mfs3vwyktu8)" points="31,54.4531,41,44.4531,148,44.4531,148,80.75,138,90.75,31,90.75,31,54.4531" style="stroke: #000000; stroke-width: 1.5;"/><line style="stroke: #000000; stroke-width: 1.5;" x1="138" x2="147" y1="54.4531" y2="45.4531"/><line style="stroke: #000000; stroke-width: 1.5;" x1="31" x2="138" y1="54.4531" y2="54.4531"/><line style="stroke: #000000; stroke-width: 1.5;" x1="138" x2="138" y1="54.4531" y2="90.75"/><text fill="#000000" font-family="sans-serif" font-size="14" font-weight="bold" lengthAdjust="spacingAndGlyphs" textLength="77" x="46" y="77.4482">TL-AC100</text><!--MD5=[6fb11f7399c8b1c5fbce742f8f26d242]
entity WinDesktop--><polygon fill="#FEFECE" filter="url(#f19mfs3vwyktu8)" points="11,135.4531,21,125.4531,168,125.4531,168,161.75,158,171.75,11,171.75,11,135.4531" style="stroke: #000000; stroke-width: 1.5;"/><line style="stroke: #000000; stroke-width: 1.5;" x1="158" x2="167" y1="135.4531" y2="126.4531"/><line style="stroke: #000000; stroke-width: 1.5;" x1="11" x2="158" y1="135.4531" y2="135.4531"/><line style="stroke: #000000; stroke-width: 1.5;" x1="158" x2="158" y1="135.4531" y2="171.75"/><text fill="#000000" font-family="sans-serif" font-size="14" font-weight="bold" lengthAdjust="spacingAndGlyphs" textLength="117" x="26" y="158.4482">Windows台式机</text><!--MD5=[ad052860d469ba80555c12bc46bec7c1]
entity TLIPC40CFocus--><polygon fill="#FEFECE" filter="url(#f19mfs3vwyktu8)" points="6,338.4531,16,328.4531,173,328.4531,173,364.75,163,374.75,6,374.75,6,338.4531" style="stroke: #000000; stroke-width: 1.5;"/><line style="stroke: #000000; stroke-width: 1.5;" x1="163" x2="172" y1="338.4531" y2="329.4531"/><line style="stroke: #000000; stroke-width: 1.5;" x1="6" x2="163" y1="338.4531" y2="338.4531"/><line style="stroke: #000000; stroke-width: 1.5;" x1="163" x2="163" y1="338.4531" y2="374.75"/><text fill="#000000" font-family="sans-serif" font-size="14" font-weight="bold" lengthAdjust="spacingAndGlyphs" textLength="127" x="21" y="361.4482">TPLink监控摄像头</text><!--MD5=[ac7ff2786bdc3a5882759f1fc25555d9]
entity Koxsni--><polygon fill="#FEFECE" filter="url(#f19mfs3vwyktu8)" points="32,439.4531,42,429.4531,147,429.4531,147,465.75,137,475.75,32,475.75,32,439.4531" style="stroke: #000000; stroke-width: 1.5;"/><line style="stroke: #000000; stroke-width: 1.5;" x1="137" x2="146" y1="439.4531" y2="430.4531"/><line style="stroke: #000000; stroke-width: 1.5;" x1="32" x2="137" y1="439.4531" y2="439.4531"/><line style="stroke: #000000; stroke-width: 1.5;" x1="137" x2="137" y1="439.4531" y2="475.75"/><text fill="#000000" font-family="sans-serif" font-size="14" font-weight="bold" lengthAdjust="spacingAndGlyphs" textLength="75" x="47" y="462.4482">无线投屏器</text><!--MD5=[f042970fa631b194e0ab6c1248938917]
entity N1--><polygon fill="#FEFECE" filter="url(#f19mfs3vwyktu8)" points="14,520.4531,24,510.4531,165,510.4531,165,546.75,155,556.75,14,556.75,14,520.4531" style="stroke: #000000; stroke-width: 1.5;"/><line style="stroke: #000000; stroke-width: 1.5;" x1="155" x2="164" y1="520.4531" y2="511.4531"/><line style="stroke: #000000; stroke-width: 1.5;" x1="14" x2="155" y1="520.4531" y2="520.4531"/><line style="stroke: #000000; stroke-width: 1.5;" x1="155" x2="155" y1="520.4531" y2="556.75"/><text fill="#000000" font-family="sans-serif" font-size="14" font-weight="bold" lengthAdjust="spacingAndGlyphs" textLength="111" x="29" y="543.4482">斐迅N1电视盒子</text><!--MD5=[c18e92a1945e8ce58a28e57b59253457]
link TPLinkSwitch to ISPModem--><path d="M560.916,564.0321 C596.637,520.9431 672.579,429.3371 710.491,383.6051 " fill="none" id="TPLinkSwitch-&gt;ISPModem" style="stroke: #A80036; stroke-width: 1.0;"/><polygon fill="#A80036" points="713.817,379.5921,704.9948,383.9702,710.6269,383.4422,711.1549,389.0744,713.817,379.5921" style="stroke: #A80036; stroke-width: 1.0;"/><!--MD5=[be4bfb91463dc0aba680f5136c11123f]
link TPLinkR470GP to ISPModem--><path d="M621.604,353.5441 C640.738,354.0441 660.728,354.5661 678.407,355.0281 " fill="none" id="TPLinkR470GP-&gt;ISPModem" style="stroke: #A80036; stroke-width: 1.0;"/><polygon fill="#A80036" points="683.816,355.1691,674.9242,350.9339,678.8177,355.0377,674.714,358.9312,683.816,355.1691" style="stroke: #A80036; stroke-width: 1.0;"/><!--MD5=[28a0577dfe67a12b5a9e74ba0ced46eb]
link BananaPi to TPLinkSwitch--><path d="M383.057,587.4531 C404.575,587.4531 428.738,587.4531 451.52,587.4531 " fill="none" id="BananaPi-&gt;TPLinkSwitch" style="stroke: #A80036; stroke-width: 1.0;"/><polygon fill="#A80036" points="456.664,587.4531,447.664,583.4531,451.664,587.4531,447.664,591.4531,456.664,587.4531" style="stroke: #A80036; stroke-width: 1.0;"/><!--MD5=[7b5bf5219a35af0dce5a8f4bd822e715]
link HTPC to TPLinkSwitch--><path d="M397.005,660.1353 C427.945,644.3531 462.295,626.8331 489.517,612.9481 " fill="none" id="HTPC-&gt;TPLinkSwitch" style="stroke: #A80036; stroke-width: 1.0;"/><polygon fill="#A80036" points="494.167,610.5761,484.3322,611.1013,489.7127,612.8476,487.9664,618.2281,494.167,610.5761" style="stroke: #A80036; stroke-width: 1.0;"/><!--MD5=[0811a723f4ff79e55c0a75d50f567b43]
link APBedRoom1 to TPLinkR470GP--><path d="M377.596,151.0861 C384.365,156.6781 390.977,162.5261 397,168.4531 C443.887,214.5901 488.961,276.3621 515.443,315.0291 " fill="none" id="APBedRoom1-&gt;TPLinkR470GP" style="stroke: #A80036; stroke-width: 1.0;"/><polygon fill="#A80036" points="518.579,319.6271,516.8135,309.9378,515.7621,315.4961,510.2038,314.4448,518.579,319.6271" style="stroke: #A80036; stroke-width: 1.0;"/><!--MD5=[c62150f224b015055524e8bbb732d1cb]
link APBedRoom2 to TPLinkR470GP--><path d="M385.797,267.5531 C414.976,283.4801 448.618,301.8441 476.975,317.3231 " fill="none" id="APBedRoom2-&gt;TPLinkR470GP" style="stroke: #A80036; stroke-width: 1.0;"/><polygon fill="#A80036" points="481.48,319.7821,475.497,311.9588,477.0913,317.3864,471.6638,318.9807,481.48,319.7821" style="stroke: #A80036; stroke-width: 1.0;"/><!--MD5=[affb9fa1e3ff90f7b4f836ce92bb2071]
link APDinnerRoom to TPLinkR470GP--><path d="M393.229,351.4531 C412.887,351.4531 434.125,351.4531 454.161,351.4531 " fill="none" id="APDinnerRoom-&gt;TPLinkR470GP" style="stroke: #A80036; stroke-width: 1.0;"/><polygon fill="#A80036" points="459.228,351.4531,450.228,347.4531,454.228,351.4531,450.228,355.4531,459.228,351.4531" style="stroke: #A80036; stroke-width: 1.0;"/><!--MD5=[957fae402cf1236f9dbd5d8db38d4606]
link APLivingRoom to TPLinkR470GP--><path d="M393.229,431.2971 C420.662,416.3221 451.173,399.6671 477.201,385.4601 " fill="none" id="APLivingRoom-&gt;TPLinkR470GP" style="stroke: #A80036; stroke-width: 1.0;"/><polygon fill="#A80036" points="481.672,383.0191,471.8558,383.8206,477.2833,385.4149,475.689,390.8424,481.672,383.0191" style="stroke: #A80036; stroke-width: 1.0;"/><!--MD5=[a362e643dbcf2518f79a030351765370]
link TLAC100 to APBedRoom1--><path d="M148.057,77.7541 C175.811,82.7211 209.45,88.7421 239.165,94.0601 " fill="none" id="TLAC100-&gt;APBedRoom1" style="stroke: #A80036; stroke-width: 1.0;"/><polygon fill="#A80036" points="244.281,94.9751,236.1271,89.4511,239.3593,94.0937,234.7168,97.3258,244.281,94.9751" style="stroke: #A80036; stroke-width: 1.0;"/><!--MD5=[554ae9a361fc0826864c48b391995eef]
link WinDesktop to APBedRoom1--><path d="M168.042,134.2281 C191.133,129.9921 216.381,125.3611 239.287,121.1591 " fill="none" id="WinDesktop-&gt;APBedRoom1" style="stroke: #A80036; stroke-width: 1.0;"/><polygon fill="#A80036" points="244.443,120.2131,234.8686,117.9043,239.5252,121.1161,236.3134,125.7727,244.443,120.2131" style="stroke: #A80036; stroke-width: 1.0;"/><!--MD5=[7551df143280703011a767c705d4c3db]
link TLIPC40CFocus to APDinnerRoom--><path d="M173.088,351.4531 C192.184,351.4531 212.5,351.4531 231.588,351.4531 " fill="none" id="TLIPC40CFocus-&gt;APDinnerRoom" style="stroke: #A80036; stroke-width: 1.0;"/><polygon fill="#A80036" points="236.937,351.4531,227.937,347.4531,231.937,351.4531,227.937,355.4531,236.937,351.4531" style="stroke: #A80036; stroke-width: 1.0;"/><!--MD5=[c4eabb6f229a354533283d8820b07889]
link Koxsni to APLivingRoom--><path d="M147.187,457.7791 C172.754,460.1821 203.448,463.0661 231.497,465.7011 " fill="none" id="Koxsni-&gt;APLivingRoom" style="stroke: #A80036; stroke-width: 1.0;"/><polygon fill="#A80036" points="236.701,466.1901,228.1154,461.3644,231.723,465.7216,227.3658,469.3292,236.701,466.1901" style="stroke: #A80036; stroke-width: 1.0;"/><!--MD5=[f268ae7af7847f094205d67e94da30c4]
link N1 to APLivingRoom--><path d="M165.233,513.3901 C186.587,507.6581 209.974,501.3791 231.751,495.5331 " fill="none" id="N1-&gt;APLivingRoom" style="stroke: #A80036; stroke-width: 1.0;"/><polygon fill="#A80036" points="236.663,494.2151,226.9334,492.6871,231.8342,495.5123,229.0089,500.4131,236.663,494.2151" style="stroke: #A80036; stroke-width: 1.0;"/><!--MD5=[534e54292a976a7a946fb9e8c51d3ae1]
--></g></svg>