<svg xmlns="http://www.w3.org/2000/svg" xmlns:xlink="http://www.w3.org/1999/xlink" width="822" height="756" contentScriptType="application/ecmascript" contentStyleType="text/css" preserveAspectRatio="none" version="1.1" viewBox="0 0 822 756" zoomAndPan="magnify"><defs><filter id="f19mfs3vwyktu8" width="300%" height="300%" x="-1" y="-1"><feGaussianBlur result="blurOut" stdDeviation="2"/><feColorMatrix in="blurOut" result="blurOut2" type="matrix" values="0 0 0 0 0 0 0 0 0 0 0 0 0 0 0 0 0 0 .4 0"/><feOffset dx="4" dy="4" in="blurOut2" result="blurOut3"/><feBlend in="SourceGraphic" in2="blurOut3" mode="normal"/></filter></defs><g><rect style="stroke:#000;stroke-width:1" width="124" height="30.953" x="354.5" y="2" fill="none" rx="2.5" ry="2.5"/><text x="362.5" y="23.708" fill="#000" font-family="sans-serif" font-size="18" lengthAdjust="spacingAndGlyphs" textLength="108">家中网络拓扑</text><polygon fill="#FFF" points="443.5 289.453 453.5 279.453 800 279.453 800 389.453 790 399.453 443.5 399.453 443.5 289.453" filter="url(#f19mfs3vwyktu8)" style="stroke:#000;stroke-width:1.5"/><line style="stroke:#000;stroke-width:1.5" x1="790" x2="799" y1="289.453" y2="280.453"/><line style="stroke:#000;stroke-width:1.5" x1="443.5" x2="790" y1="289.453" y2="289.453"/><line style="stroke:#000;stroke-width:1.5" x1="790" x2="790" y1="289.453" y2="399.453"/><text x="595.25" y="305.448" fill="#000" font-family="sans-serif" font-size="14" font-weight="bold" lengthAdjust="spacingAndGlyphs" textLength="45">弱电箱</text><polygon fill="#FEFECE" points="684 343.453 694 333.453 784 333.453 784 369.75 774 379.75 684 379.75 684 343.453" filter="url(#f19mfs3vwyktu8)" style="stroke:#000;stroke-width:1.5"/><line style="stroke:#000;stroke-width:1.5" x1="774" x2="783" y1="343.453" y2="334.453"/><line style="stroke:#000;stroke-width:1.5" x1="684" x2="774" y1="343.453" y2="343.453"/><line style="stroke:#000;stroke-width:1.5" x1="774" x2="774" y1="343.453" y2="379.75"/><text x="699" y="366.448" fill="#000" font-family="sans-serif" font-size="14" font-weight="bold" lengthAdjust="spacingAndGlyphs" textLength="60">电信光猫</text><polygon fill="#FEFECE" points="459.5 329.953 469.5 319.953 621.5 319.953 621.5 372.547 611.5 382.547 459.5 382.547 459.5 329.953" filter="url(#f19mfs3vwyktu8)" style="stroke:#000;stroke-width:1.5"/><line style="stroke:#000;stroke-width:1.5" x1="611.5" x2="620.5" y1="329.953" y2="320.953"/><line style="stroke:#000;stroke-width:1.5" x1="459.5" x2="611.5" y1="329.953" y2="329.953"/><line style="stroke:#000;stroke-width:1.5" x1="611.5" x2="611.5" y1="329.953" y2="382.547"/><text x="474.5" y="352.948" fill="#000" font-family="sans-serif" font-size="14" font-weight="bold" lengthAdjust="spacingAndGlyphs" textLength="119">TPLink R470GP</text><text x="474.5" y="369.245" fill="#000" font-family="sans-serif" font-size="14" lengthAdjust="spacingAndGlyphs" textLength="122">POE AC路由一体机</text><polygon fill="#FEFECE" points="457 574.453 467 564.453 624 564.453 624 600.75 614 610.75 457 610.75 457 574.453" filter="url(#f19mfs3vwyktu8)" style="stroke:#000;stroke-width:1.5"/><line style="stroke:#000;stroke-width:1.5" x1="614" x2="623" y1="574.453" y2="565.453"/><line style="stroke:#000;stroke-width:1.5" x1="457" x2="614" y1="574.453" y2="574.453"/><line style="stroke:#000;stroke-width:1.5" x1="614" x2="614" y1="574.453" y2="610.75"/><text x="472" y="597.448" fill="#000" font-family="sans-serif" font-size="14" font-weight="bold" lengthAdjust="spacingAndGlyphs" textLength="127">TPLink千兆交换机</text><polygon fill="#FEFECE" points="247 561.953 257 551.953 383 551.953 383 612.547 373 622.547 247 622.547 247 561.953" filter="url(#f19mfs3vwyktu8)" style="stroke:#000;stroke-width:1.5"/><line style="stroke:#000;stroke-width:1.5" x1="373" x2="382" y1="561.953" y2="552.953"/><line style="stroke:#000;stroke-width:1.5" x1="247" x2="373" y1="561.953" y2="561.953"/><line style="stroke:#000;stroke-width:1.5" x1="373" x2="373" y1="561.953" y2="622.547"/><text x="262" y="584.948" fill="#000" font-family="sans-serif" font-size="14" font-weight="bold" lengthAdjust="spacingAndGlyphs" textLength="65">香蕉派R1</text><line style="stroke:#000;stroke-width:1;stroke-dasharray:1,2" x1="247" x2="373" y1="588.25" y2="588.25"/><line style="stroke:#000;stroke-width:1;stroke-dasharray:1,2" x1="373" x2="383" y1="588.25" y2="578.25"/><text x="268" y="605.245" fill="#000" font-family="sans-serif" font-size="14" lengthAdjust="spacingAndGlyphs" textLength="84">科学上网备用</text><polygon fill="#FEFECE" points="233 667.953 243 657.953 397 657.953 397 734.844 387 744.844 233 744.844 233 667.953" filter="url(#f19mfs3vwyktu8)" style="stroke:#000;stroke-width:1.5"/><line style="stroke:#000;stroke-width:1.5" x1="387" x2="396" y1="667.953" y2="658.953"/><line style="stroke:#000;stroke-width:1.5" x1="233" x2="387" y1="667.953" y2="667.953"/><line style="stroke:#000;stroke-width:1.5" x1="387" x2="387" y1="667.953" y2="744.844"/><text x="248" y="690.948" fill="#000" font-family="sans-serif" font-size="14" font-weight="bold" lengthAdjust="spacingAndGlyphs" textLength="42">HTPC</text><line style="stroke:#000;stroke-width:1;stroke-dasharray:1,2" x1="233" x2="387" y1="694.25" y2="694.25"/><line style="stroke:#000;stroke-width:1;stroke-dasharray:1,2" x1="387" x2="397" y1="694.25" y2="684.25"/><text x="254" y="711.245" fill="#000" font-family="sans-serif" font-size="14" lengthAdjust="spacingAndGlyphs" textLength="84">科学上网主力</text><text x="254" y="727.542" fill="#000" font-family="sans-serif" font-size="14" lengthAdjust="spacingAndGlyphs" textLength="112">很多其他服务程序</text><polygon fill="#FEFECE" points="244.5 73.953 254.5 63.953 385.5 63.953 385.5 140.844 375.5 150.844 244.5 150.844 244.5 73.953" filter="url(#f19mfs3vwyktu8)" style="stroke:#000;stroke-width:1.5"/><line style="stroke:#000;stroke-width:1.5" x1="375.5" x2="384.5" y1="73.953" y2="64.953"/><line style="stroke:#000;stroke-width:1.5" x1="244.5" x2="375.5" y1="73.953" y2="73.953"/><line style="stroke:#000;stroke-width:1.5" x1="375.5" x2="375.5" y1="73.953" y2="150.844"/><text x="259.5" y="96.948" fill="#000" font-family="sans-serif" font-size="14" font-weight="bold" lengthAdjust="spacingAndGlyphs" textLength="101">主卧86面板AP</text><line style="stroke:#000;stroke-width:1;stroke-dasharray:1,2" x1="244.5" x2="375.5" y1="100.25" y2="100.25"/><line style="stroke:#000;stroke-width:1;stroke-dasharray:1,2" x1="375.5" x2="385.5" y1="100.25" y2="90.25"/><text x="265.5" y="117.245" fill="#000" font-family="sans-serif" font-size="14" lengthAdjust="spacingAndGlyphs" textLength="51">5G WIFI</text><text x="265.5" y="133.542" fill="#000" font-family="sans-serif" font-size="14" lengthAdjust="spacingAndGlyphs" textLength="56">以太网口</text><polygon fill="#FEFECE" points="244.5 195.953 254.5 185.953 385.5 185.953 385.5 262.844 375.5 272.844 244.5 272.844 244.5 195.953" filter="url(#f19mfs3vwyktu8)" style="stroke:#000;stroke-width:1.5"/><line style="stroke:#000;stroke-width:1.5" x1="375.5" x2="384.5" y1="195.953" y2="186.953"/><line style="stroke:#000;stroke-width:1.5" x1="244.5" x2="375.5" y1="195.953" y2="195.953"/><line style="stroke:#000;stroke-width:1.5" x1="375.5" x2="375.5" y1="195.953" y2="272.844"/><text x="259.5" y="218.948" fill="#000" font-family="sans-serif" font-size="14" font-weight="bold" lengthAdjust="spacingAndGlyphs" textLength="101">次卧86面板AP</text><line style="stroke:#000;stroke-width:1;stroke-dasharray:1,2" x1="244.5" x2="375.5" y1="222.25" y2="222.25"/><line style="stroke:#000;stroke-width:1;stroke-dasharray:1,2" x1="375.5" x2="385.5" y1="222.25" y2="212.25"/><text x="265.5" y="239.245" fill="#000" font-family="sans-serif" font-size="14" lengthAdjust="spacingAndGlyphs" textLength="51">5G WIFI</text><text x="265.5" y="255.542" fill="#000" font-family="sans-serif" font-size="14" lengthAdjust="spacingAndGlyphs" textLength="56">以太网口</text><polygon fill="#FEFECE" points="237 317.953 247 307.953 393 307.953 393 384.844 383 394.844 237 394.844 237 317.953" filter="url(#f19mfs3vwyktu8)" style="stroke:#000;stroke-width:1.5"/><line style="stroke:#000;stroke-width:1.5" x1="383" x2="392" y1="317.953" y2="308.953"/><line style="stroke:#000;stroke-width:1.5" x1="237" x2="383" y1="317.953" y2="317.953"/><line style="stroke:#000;stroke-width:1.5" x1="383" x2="383" y1="317.953" y2="394.844"/><text x="252" y="340.948" fill="#000" font-family="sans-serif" font-size="14" font-weight="bold" lengthAdjust="spacingAndGlyphs" textLength="101">餐厅86面板AP</text><line style="stroke:#000;stroke-width:1;stroke-dasharray:1,2" x1="237" x2="383" y1="344.25" y2="344.25"/><line style="stroke:#000;stroke-width:1;stroke-dasharray:1,2" x1="383" x2="393" y1="344.25" y2="334.25"/><text x="258" y="361.245" fill="#000" font-family="sans-serif" font-size="14" lengthAdjust="spacingAndGlyphs" textLength="104">2.4G &amp; 5G WIFI</text><text x="258" y="377.542" fill="#000" font-family="sans-serif" font-size="14" lengthAdjust="spacingAndGlyphs" textLength="56">以太网口</text><polygon fill="#FEFECE" points="237 439.953 247 429.953 393 429.953 393 506.844 383 516.844 237 516.844 237 439.953" filter="url(#f19mfs3vwyktu8)" style="stroke:#000;stroke-width:1.5"/><line style="stroke:#000;stroke-width:1.5" x1="383" x2="392" y1="439.953" y2="430.953"/><line style="stroke:#000;stroke-width:1.5" x1="237" x2="383" y1="439.953" y2="439.953"/><line style="stroke:#000;stroke-width:1.5" x1="383" x2="383" y1="439.953" y2="516.844"/><text x="252" y="462.948" fill="#000" font-family="sans-serif" font-size="14" font-weight="bold" lengthAdjust="spacingAndGlyphs" textLength="101">客厅86面板AP</text><line style="stroke:#000;stroke-width:1;stroke-dasharray:1,2" x1="237" x2="383" y1="466.25" y2="466.25"/><line style="stroke:#000;stroke-width:1;stroke-dasharray:1,2" x1="383" x2="393" y1="466.25" y2="456.25"/><text x="258" y="483.245" fill="#000" font-family="sans-serif" font-size="14" lengthAdjust="spacingAndGlyphs" textLength="104">2.4G &amp; 5G WIFI</text><text x="258" y="499.542" fill="#000" font-family="sans-serif" font-size="14" lengthAdjust="spacingAndGlyphs" textLength="56">以太网口</text><polygon fill="#FEFECE" points="31 54.453 41 44.453 148 44.453 148 80.75 138 90.75 31 90.75 31 54.453" filter="url(#f19mfs3vwyktu8)" style="stroke:#000;stroke-width:1.5"/><line style="stroke:#000;stroke-width:1.5" x1="138" x2="147" y1="54.453" y2="45.453"/><line style="stroke:#000;stroke-width:1.5" x1="31" x2="138" y1="54.453" y2="54.453"/><line style="stroke:#000;stroke-width:1.5" x1="138" x2="138" y1="54.453" y2="90.75"/><text x="46" y="77.448" fill="#000" font-family="sans-serif" font-size="14" font-weight="bold" lengthAdjust="spacingAndGlyphs" textLength="77">TL-AC100</text><polygon fill="#FEFECE" points="11 135.453 21 125.453 168 125.453 168 161.75 158 171.75 11 171.75 11 135.453" filter="url(#f19mfs3vwyktu8)" style="stroke:#000;stroke-width:1.5"/><line style="stroke:#000;stroke-width:1.5" x1="158" x2="167" y1="135.453" y2="126.453"/><line style="stroke:#000;stroke-width:1.5" x1="11" x2="158" y1="135.453" y2="135.453"/><line style="stroke:#000;stroke-width:1.5" x1="158" x2="158" y1="135.453" y2="171.75"/><text x="26" y="158.448" fill="#000" font-family="sans-serif" font-size="14" font-weight="bold" lengthAdjust="spacingAndGlyphs" textLength="117">Windows台式机</text><polygon fill="#FEFECE" points="6 338.453 16 328.453 173 328.453 173 364.75 163 374.75 6 374.75 6 338.453" filter="url(#f19mfs3vwyktu8)" style="stroke:#000;stroke-width:1.5"/><line style="stroke:#000;stroke-width:1.5" x1="163" x2="172" y1="338.453" y2="329.453"/><line style="stroke:#000;stroke-width:1.5" x1="6" x2="163" y1="338.453" y2="338.453"/><line style="stroke:#000;stroke-width:1.5" x1="163" x2="163" y1="338.453" y2="374.75"/><text x="21" y="361.448" fill="#000" font-family="sans-serif" font-size="14" font-weight="bold" lengthAdjust="spacingAndGlyphs" textLength="127">TPLink监控摄像头</text><polygon fill="#FEFECE" points="32 439.453 42 429.453 147 429.453 147 465.75 137 475.75 32 475.75 32 439.453" filter="url(#f19mfs3vwyktu8)" style="stroke:#000;stroke-width:1.5"/><line style="stroke:#000;stroke-width:1.5" x1="137" x2="146" y1="439.453" y2="430.453"/><line style="stroke:#000;stroke-width:1.5" x1="32" x2="137" y1="439.453" y2="439.453"/><line style="stroke:#000;stroke-width:1.5" x1="137" x2="137" y1="439.453" y2="475.75"/><text x="47" y="462.448" fill="#000" font-family="sans-serif" font-size="14" font-weight="bold" lengthAdjust="spacingAndGlyphs" textLength="75">无线投屏器</text><polygon fill="#FEFECE" points="14 520.453 24 510.453 165 510.453 165 546.75 155 556.75 14 556.75 14 520.453" filter="url(#f19mfs3vwyktu8)" style="stroke:#000;stroke-width:1.5"/><line style="stroke:#000;stroke-width:1.5" x1="155" x2="164" y1="520.453" y2="511.453"/><line style="stroke:#000;stroke-width:1.5" x1="14" x2="155" y1="520.453" y2="520.453"/><line style="stroke:#000;stroke-width:1.5" x1="155" x2="155" y1="520.453" y2="556.75"/><text x="29" y="543.448" fill="#000" font-family="sans-serif" font-size="14" font-weight="bold" lengthAdjust="spacingAndGlyphs" textLength="111">斐迅N1电视盒子</text><path id="TPLinkSwitch-&gt;ISPModem" fill="none" d="M560.916,564.0321 C596.637,520.9431 672.579,429.3371 710.491,383.6051" style="stroke:#a80036;stroke-width:1"/><polygon fill="#A80036" points="713.817 379.592 704.995 383.97 710.627 383.442 711.155 389.074 713.817 379.592" style="stroke:#a80036;stroke-width:1"/><path id="TPLinkR470GP-&gt;ISPModem" fill="none" d="M621.604,353.5441 C640.738,354.0441 660.728,354.5661 678.407,355.0281" style="stroke:#a80036;stroke-width:1"/><polygon fill="#A80036" points="683.816 355.169 674.924 350.934 678.818 355.038 674.714 358.931 683.816 355.169" style="stroke:#a80036;stroke-width:1"/><path id="BananaPi-&gt;TPLinkSwitch" fill="none" d="M383.057,587.4531 C404.575,587.4531 428.738,587.4531 451.52,587.4531" style="stroke:#a80036;stroke-width:1"/><polygon fill="#A80036" points="456.664 587.453 447.664 583.453 451.664 587.453 447.664 591.453 456.664 587.453" style="stroke:#a80036;stroke-width:1"/><path id="HTPC-&gt;TPLinkSwitch" fill="none" d="M397.005,660.1353 C427.945,644.3531 462.295,626.8331 489.517,612.9481" style="stroke:#a80036;stroke-width:1"/><polygon fill="#A80036" points="494.167 610.576 484.332 611.101 489.713 612.848 487.966 618.228 494.167 610.576" style="stroke:#a80036;stroke-width:1"/><path id="APBedRoom1-&gt;TPLinkR470GP" fill="none" d="M377.596,151.0861 C384.365,156.6781 390.977,162.5261 397,168.4531 C443.887,214.5901 488.961,276.3621 515.443,315.0291" style="stroke:#a80036;stroke-width:1"/><polygon fill="#A80036" points="518.579 319.627 516.813 309.938 515.762 315.496 510.204 314.445 518.579 319.627" style="stroke:#a80036;stroke-width:1"/><path id="APBedRoom2-&gt;TPLinkR470GP" fill="none" d="M385.797,267.5531 C414.976,283.4801 448.618,301.8441 476.975,317.3231" style="stroke:#a80036;stroke-width:1"/><polygon fill="#A80036" points="481.48 319.782 475.497 311.959 477.091 317.386 471.664 318.981 481.48 319.782" style="stroke:#a80036;stroke-width:1"/><path id="APDinnerRoom-&gt;TPLinkR470GP" fill="none" d="M393.229,351.4531 C412.887,351.4531 434.125,351.4531 454.161,351.4531" style="stroke:#a80036;stroke-width:1"/><polygon fill="#A80036" points="459.228 351.453 450.228 347.453 454.228 351.453 450.228 355.453 459.228 351.453" style="stroke:#a80036;stroke-width:1"/><path id="APLivingRoom-&gt;TPLinkR470GP" fill="none" d="M393.229,431.2971 C420.662,416.3221 451.173,399.6671 477.201,385.4601" style="stroke:#a80036;stroke-width:1"/><polygon fill="#A80036" points="481.672 383.019 471.856 383.821 477.283 385.415 475.689 390.842 481.672 383.019" style="stroke:#a80036;stroke-width:1"/><path id="TLAC100-&gt;APBedRoom1" fill="none" d="M148.057,77.7541 C175.811,82.7211 209.45,88.7421 239.165,94.0601" style="stroke:#a80036;stroke-width:1"/><polygon fill="#A80036" points="244.281 94.975 236.127 89.451 239.359 94.094 234.717 97.326 244.281 94.975" style="stroke:#a80036;stroke-width:1"/><path id="WinDesktop-&gt;APBedRoom1" fill="none" d="M168.042,134.2281 C191.133,129.9921 216.381,125.3611 239.287,121.1591" style="stroke:#a80036;stroke-width:1"/><polygon fill="#A80036" points="244.443 120.213 234.869 117.904 239.525 121.116 236.313 125.773 244.443 120.213" style="stroke:#a80036;stroke-width:1"/><path id="TLIPC40CFocus-&gt;APDinnerRoom" fill="none" d="M173.088,351.4531 C192.184,351.4531 212.5,351.4531 231.588,351.4531" style="stroke:#a80036;stroke-width:1"/><polygon fill="#A80036" points="236.937 351.453 227.937 347.453 231.937 351.453 227.937 355.453 236.937 351.453" style="stroke:#a80036;stroke-width:1"/><path id="Koxsni-&gt;APLivingRoom" fill="none" d="M147.187,457.7791 C172.754,460.1821 203.448,463.0661 231.497,465.7011" style="stroke:#a80036;stroke-width:1"/><polygon fill="#A80036" points="236.701 466.19 228.115 461.364 231.723 465.722 227.366 469.329 236.701 466.19" style="stroke:#a80036;stroke-width:1"/><path id="N1-&gt;APLivingRoom" fill="none" d="M165.233,513.3901 C186.587,507.6581 209.974,501.3791 231.751,495.5331" style="stroke:#a80036;stroke-width:1"/><polygon fill="#A80036" points="236.663 494.215 226.933 492.687 231.834 495.512 229.009 500.413 236.663 494.215" style="stroke:#a80036;stroke-width:1"/></g></svg>