<?xml version="1.0" encoding="UTF-8" standalone="no"?><svg xmlns="http://www.w3.org/2000/svg" xmlns:xlink="http://www.w3.org/1999/xlink" contentScriptType="application/ecmascript" contentStyleType="text/css" height="211px" preserveAspectRatio="none" style="width:484px;height:211px;" version="1.1" viewBox="0 0 484 211" width="484px" zoomAndPan="magnify"><defs><filter height="300%" id="f14jbnzrhurxi9" width="300%" x="-1" y="-1"><feGaussianBlur result="blurOut" stdDeviation="2.0"/><feColorMatrix in="blurOut" result="blurOut2" type="matrix" values="0 0 0 0 0 0 0 0 0 0 0 0 0 0 0 0 0 0 .4 0"/><feOffset dx="4.0" dy="4.0" in="blurOut2" result="blurOut3"/><feBlend in="SourceGraphic" in2="blurOut3" mode="normal"/></filter></defs><g><rect fill="#FEFECE" filter="url(#f14jbnzrhurxi9)" height="77" rx="12.5" ry="12.5" style="stroke: #A80036; stroke-width: 1.5;" width="129" x="14.5" y="10"/><svg x="24.5" y="20"><!--Generated by the Batik Graphics2D SVG Generator--><defs id="genericDefs"
  /><g
  ><g transform="scale(20,20) translate(0.2,0.3808)" style="font-size:1; text-rendering:geometricPrecision; color-rendering:optimizeQuality; image-rendering:optimizeQuality; font-family:&apos;jlm_cmex10&apos;; color-interpolation:linearRGB;"
    ><path style="stroke:none;" d="M0.1094 2.1719 Q0.125 2.2031 0.1719 2.2031 Q0.2031 2.2031 0.2344 2.1484 Q0.2656 2.0938 0.2891 2.0234 Q0.3125 1.9531 0.3203 1.8984 Q0.3281 1.8438 0.3438 1.7656 Q0.3594 1.7031 0.375 1.625 Q0.3906 1.5469 0.3984 1.4609 Q0.4062 1.375 0.4219 1.2891 Q0.4375 1.2031 0.4688 1.1094 Q0.4844 0.9844 0.5 0.9297 Q0.5156 0.875 0.5391 0.7734 Q0.5625 0.6719 0.5703 0.6328 Q0.5781 0.5938 0.6094 0.4531 L0.625 0.4062 Q0.6406 0.3125 0.6562 0.2656 Q0.6719 0.2188 0.6953 0.1562 Q0.7188 0.0938 0.7578 0.0469 Q0.7969 0 0.8281 0 Q0.8594 0 0.8828 0.0156 Q0.9062 0.0312 0.9219 0.0547 Q0.9375 0.0781 0.9375 0.1094 Q0.9375 0.125 0.9297 0.1406 Q0.9219 0.1562 0.8906 0.1562 Q0.875 0.1562 0.8594 0.1406 Q0.8438 0.125 0.8438 0.1094 Q0.8438 0.0781 0.8594 0.0625 Q0.875 0.0469 0.8906 0.0469 Q0.875 0.0312 0.8281 0.0312 Q0.8125 0.0312 0.7891 0.0859 Q0.7656 0.1406 0.75 0.2109 Q0.7344 0.2812 0.7266 0.3281 Q0.7188 0.375 0.7031 0.4531 Q0.6875 0.5312 0.6719 0.5938 Q0.6562 0.6562 0.6406 0.75 Q0.625 0.8438 0.6094 0.9297 Q0.5938 1.0156 0.5781 1.1094 Q0.5625 1.1719 0.5391 1.2969 Q0.5156 1.4219 0.5078 1.4531 Q0.5 1.4844 0.4688 1.625 Q0.4375 1.7656 0.4375 1.7656 L0.4219 1.8125 Q0.3906 1.9219 0.3672 2 Q0.3438 2.0781 0.2891 2.1484 Q0.2344 2.2188 0.1719 2.2188 Q0.125 2.2188 0.0938 2.1875 Q0.0625 2.1562 0.0625 2.125 Q0.0625 2.0938 0.0703 2.0781 Q0.0781 2.0625 0.1094 2.0625 Q0.125 2.0625 0.1328 2.0703 Q0.1406 2.0781 0.1484 2.0938 Q0.1562 2.1094 0.1562 2.125 Q0.1562 2.1406 0.1406 2.1562 Q0.125 2.1719 0.1094 2.1719 Z"
    /></g
    ><g transform="matrix(20,0,0,20,0,0) translate(1.2,0.6511) scale(0.7,0.7)" style="font-size:1; text-rendering:geometricPrecision; color-rendering:optimizeQuality; image-rendering:optimizeQuality; font-family:&apos;jlm_cmr10&apos;; color-interpolation:linearRGB;"
    ><path style="stroke:none;" d="M0.2969 -0.6406 L0.2969 -0.0781 Q0.2969 -0.0469 0.3125 -0.0469 Q0.3281 -0.0312 0.3906 -0.0312 L0.4219 -0.0312 L0.4219 0 Q0.3906 0 0.25 0 Q0.125 0 0.0938 0 L0.0938 -0.0312 L0.125 -0.0312 Q0.2031 -0.0312 0.2188 -0.0469 L0.2188 -0.0469 Q0.2188 -0.0625 0.2188 -0.0781 L0.2188 -0.5938 Q0.1719 -0.5781 0.0938 -0.5781 L0.0938 -0.6094 Q0.2031 -0.6094 0.2656 -0.6719 Q0.2969 -0.6719 0.2969 -0.6562 L0.2969 -0.6562 L0.2969 -0.6562 Q0.2969 -0.6562 0.2969 -0.6406 Z"
    /></g
    ><g transform="matrix(20,0,0,20,0,0) translate(0.7556,2.6381) scale(0.7,0.7)" style="font-size:1; text-rendering:geometricPrecision; color-rendering:optimizeQuality; image-rendering:optimizeQuality; font-family:&apos;jlm_cmr10&apos;; color-interpolation:linearRGB;"
    ><path style="stroke:none;" d="M0.4531 -0.3125 Q0.4531 -0.1719 0.4219 -0.0938 Q0.3594 0.0156 0.25 0.0156 Q0.1562 0.0156 0.1094 -0.0469 Q0.0938 -0.0625 0.0781 -0.0781 Q0.0312 -0.1562 0.0312 -0.3125 Q0.0312 -0.4688 0.0781 -0.5469 Q0.125 -0.6562 0.2344 -0.6719 L0.25 -0.6719 Q0.3438 -0.6719 0.3906 -0.5938 L0.3906 -0.5938 Q0.4062 -0.5781 0.4219 -0.5469 Q0.4531 -0.4688 0.4531 -0.3125 ZM0.25 0 L0.25 0 Q0.3125 0 0.3438 -0.0625 Q0.3594 -0.0938 0.3594 -0.125 Q0.375 -0.1875 0.375 -0.3281 Q0.375 -0.4688 0.3594 -0.5312 Q0.3438 -0.625 0.2812 -0.6406 Q0.2656 -0.6406 0.25 -0.6406 Q0.1719 -0.6406 0.1406 -0.5781 Q0.1406 -0.5469 0.125 -0.5156 Q0.125 -0.4688 0.125 -0.3281 Q0.125 -0.1875 0.1406 -0.125 Q0.1562 -0.0312 0.2188 0 Q0.2344 0 0.25 0 Z"
    /></g
    ><g transform="matrix(20,0,0,20,0,0) translate(1.9639,1.742)" style="font-size:1; text-rendering:geometricPrecision; color-rendering:optimizeQuality; image-rendering:optimizeQuality; font-family:&apos;jlm_cmmi10&apos;; color-interpolation:linearRGB;"
    ><path style="stroke:none;" d="M0.3594 -0.4062 L0.3594 -0.4062 L0.3125 -0.0781 Q0.2969 -0.0156 0.2656 0.0625 Q0.2656 0.0938 0.25 0.1094 Q0.2188 0.1875 0.1562 0.2031 Q0.1562 0.2031 0.1406 0.2031 Q0.0938 0.2031 0.0625 0.1719 Q0.0469 0.1562 0.0469 0.1406 Q0.0469 0.0938 0.0938 0.0781 Q0.0938 0.0781 0.1094 0.0781 Q0.1406 0.0781 0.1406 0.0938 Q0.1406 0.1094 0.1406 0.1094 Q0.1406 0.1406 0.1094 0.1562 Q0.1094 0.1562 0.0938 0.1719 Q0.1094 0.1875 0.1406 0.1875 Q0.1875 0.1875 0.2031 0.0781 Q0.2188 0.0625 0.2188 0.0312 L0.2188 0 L0.2969 -0.4062 L0.2344 -0.4062 Q0.2031 -0.4062 0.2031 -0.4062 L0.2031 -0.4062 L0.2031 -0.4062 Q0.2031 -0.4219 0.2188 -0.4375 L0.2188 -0.4375 L0.2344 -0.4375 L0.3125 -0.4375 Q0.3281 -0.5625 0.3438 -0.5938 Q0.375 -0.6875 0.4375 -0.7031 Q0.4531 -0.7031 0.4688 -0.7031 Q0.5156 -0.7031 0.5469 -0.6719 L0.5469 -0.6719 Q0.5469 -0.6562 0.5469 -0.6406 Q0.5469 -0.5938 0.5156 -0.5781 Q0.5156 -0.5781 0.5 -0.5781 Q0.4688 -0.5781 0.4688 -0.5938 Q0.4531 -0.6094 0.4531 -0.6094 Q0.4531 -0.6406 0.4844 -0.6562 Q0.5 -0.6562 0.5156 -0.6719 Q0.5 -0.6875 0.4688 -0.6875 Q0.4375 -0.6875 0.4219 -0.6562 Q0.4062 -0.6406 0.3906 -0.5469 L0.375 -0.4375 L0.4531 -0.4375 Q0.4844 -0.4375 0.4844 -0.4219 Q0.4844 -0.4062 0.4688 -0.4062 L0.4688 -0.4062 L0.4531 -0.4062 L0.3594 -0.4062 Z"
    /></g
    ><g transform="matrix(20,0,0,20,0,0) translate(2.6201,1.742)" style="font-size:1; text-rendering:geometricPrecision; color-rendering:optimizeQuality; image-rendering:optimizeQuality; font-family:&apos;jlm_cmr10&apos;; color-interpolation:linearRGB;"
    ><path style="stroke:none;" d="M0.3281 0.2344 L0.3281 0.2344 Q0.3281 0.25 0.3281 0.25 Q0.3125 0.25 0.2656 0.2031 Q0.2031 0.1406 0.1719 0.0625 Q0.0938 -0.0781 0.0938 -0.25 Q0.0938 -0.4219 0.1562 -0.5625 Q0.2188 -0.6719 0.2969 -0.7344 Q0.3125 -0.75 0.3281 -0.75 Q0.3281 -0.75 0.3281 -0.7344 Q0.3281 -0.7344 0.3125 -0.7188 Q0.1562 -0.5625 0.1562 -0.25 Q0.1562 0.0625 0.3125 0.2188 Q0.3281 0.2344 0.3281 0.2344 Z"
    /></g
    ><g transform="matrix(20,0,0,20,0,0) translate(3.009,1.742)" style="font-size:1; text-rendering:geometricPrecision; color-rendering:optimizeQuality; image-rendering:optimizeQuality; font-family:&apos;jlm_cmmi10&apos;; color-interpolation:linearRGB;"
    ><path style="stroke:none;" d="M0.3281 -0.2969 L0.2969 -0.1719 Q0.2812 -0.0938 0.2812 -0.0781 Q0.2812 -0.0312 0.3125 -0.0156 Q0.3281 -0.0156 0.3438 -0.0156 Q0.3906 -0.0156 0.4219 -0.0625 Q0.4531 -0.0938 0.4688 -0.1406 Q0.4688 -0.1562 0.4844 -0.1562 Q0.5 -0.1562 0.5 -0.1406 Q0.5 -0.125 0.4688 -0.0781 Q0.4062 0.0156 0.3438 0.0156 Q0.2656 0.0156 0.2344 -0.0469 Q0.2344 -0.0625 0.2344 -0.0625 Q0.2031 -0.0156 0.1562 0 Q0.1406 0.0156 0.125 0.0156 Q0.0625 0.0156 0.0312 -0.0312 Q0.0312 -0.0312 0.0312 -0.0625 Q0.0312 -0.0938 0.0625 -0.1094 Q0.0781 -0.1094 0.0781 -0.1094 Q0.1094 -0.1094 0.125 -0.0938 Q0.125 -0.0781 0.125 -0.0781 Q0.125 -0.0469 0.0938 -0.0312 Q0.0781 -0.0312 0.0781 -0.0312 Q0.0938 -0.0156 0.125 -0.0156 Q0.1719 -0.0156 0.2031 -0.0781 Q0.2188 -0.0938 0.2188 -0.1094 Q0.2656 -0.3125 0.2656 -0.3594 Q0.2656 -0.4219 0.2188 -0.4219 Q0.1719 -0.4219 0.125 -0.3594 L0.125 -0.3594 Q0.125 -0.3594 0.125 -0.3594 Q0.1094 -0.3438 0.0938 -0.3125 Q0.0938 -0.3125 0.0938 -0.2969 L0.0781 -0.2812 Q0.0781 -0.2812 0.0781 -0.2812 Q0.0625 -0.2812 0.0625 -0.2812 Q0.0625 -0.3125 0.0938 -0.3594 Q0.1406 -0.4375 0.2188 -0.4375 Q0.2969 -0.4375 0.3281 -0.3594 Q0.3594 -0.4219 0.4062 -0.4375 Q0.4219 -0.4375 0.4375 -0.4375 Q0.5 -0.4375 0.5156 -0.4062 Q0.5312 -0.3906 0.5312 -0.375 Q0.5312 -0.3281 0.4844 -0.3281 Q0.4844 -0.3125 0.4688 -0.3125 Q0.4375 -0.3125 0.4375 -0.3438 Q0.4375 -0.3438 0.4375 -0.3594 Q0.4375 -0.3906 0.4688 -0.4062 Q0.4688 -0.4062 0.4844 -0.4062 Q0.4688 -0.4219 0.4375 -0.4219 Q0.3594 -0.4219 0.3438 -0.3125 Q0.3281 -0.3125 0.3281 -0.2969 Z"
    /></g
    ><g transform="matrix(20,0,0,20,0,0) translate(3.5806,1.742)" style="font-size:1; text-rendering:geometricPrecision; color-rendering:optimizeQuality; image-rendering:optimizeQuality; font-family:&apos;jlm_cmr10&apos;; color-interpolation:linearRGB;"
    ><path style="stroke:none;" d="M0.2812 -0.25 L0.2812 -0.25 Q0.2812 -0.0781 0.2188 0.0625 Q0.1719 0.1719 0.0938 0.2344 Q0.0781 0.25 0.0625 0.25 Q0.0625 0.25 0.0625 0.2344 Q0.0625 0.2344 0.0625 0.2188 Q0.2344 0.0625 0.2344 -0.25 Q0.2344 -0.5625 0.0781 -0.7188 L0.0781 -0.7188 Q0.0625 -0.7344 0.0625 -0.7344 Q0.0625 -0.75 0.0625 -0.75 Q0.0781 -0.75 0.125 -0.7031 Q0.1875 -0.6406 0.2188 -0.5625 Q0.2812 -0.4219 0.2812 -0.25 Z"
    /></g
    ><g transform="matrix(20,0,0,20,0,0) translate(4.1361,1.742)" style="font-size:1; text-rendering:geometricPrecision; color-rendering:optimizeQuality; image-rendering:optimizeQuality; font-family:&apos;jlm_cmmi10&apos;; color-interpolation:linearRGB;"
    ><path style="stroke:none;" d="M0.5156 -0.6875 L0.375 -0.1094 Q0.3594 -0.0781 0.3594 -0.0625 Q0.3594 -0.0156 0.3906 -0.0156 Q0.4375 -0.0156 0.4531 -0.0938 Q0.4688 -0.1094 0.4688 -0.1406 Q0.4844 -0.1562 0.4844 -0.1562 Q0.5 -0.1562 0.5 -0.1406 Q0.5 -0.125 0.4844 -0.0781 Q0.4688 -0.0625 0.4688 -0.0469 Q0.4375 0.0156 0.3906 0.0156 Q0.3438 0.0156 0.3125 -0.0312 Q0.3125 -0.0469 0.2969 -0.0625 Q0.2344 0.0156 0.1719 0.0156 Q0.0938 0.0156 0.0625 -0.0625 Q0.0469 -0.0938 0.0469 -0.1562 Q0.0469 -0.25 0.1094 -0.3438 Q0.1875 -0.4375 0.2656 -0.4375 Q0.2812 -0.4375 0.2812 -0.4375 Q0.3438 -0.4375 0.375 -0.375 L0.4375 -0.6094 L0.4375 -0.6406 Q0.4375 -0.6406 0.4219 -0.6562 Q0.4062 -0.6562 0.3906 -0.6562 Q0.3594 -0.6562 0.3594 -0.6562 Q0.3594 -0.6875 0.375 -0.6875 Q0.4688 -0.6875 0.5 -0.6875 Q0.5156 -0.6875 0.5156 -0.6875 ZM0.3125 -0.125 L0.3125 -0.125 L0.3594 -0.3125 Q0.3594 -0.3281 0.3594 -0.3281 Q0.3594 -0.3594 0.3438 -0.3906 Q0.3281 -0.4219 0.2812 -0.4219 Q0.2344 -0.4219 0.1875 -0.3594 Q0.1719 -0.3438 0.1719 -0.3281 Q0.1406 -0.2656 0.1094 -0.1562 Q0.1094 -0.125 0.1094 -0.1094 Q0.1094 -0.0312 0.1562 -0.0156 Q0.1562 -0.0156 0.1719 -0.0156 Q0.2344 -0.0156 0.2812 -0.0781 Q0.2969 -0.0938 0.3125 -0.1094 L0.3125 -0.1094 Q0.3125 -0.125 0.3125 -0.125 Z"
    /></g
    ><g transform="matrix(20,0,0,20,0,0) translate(4.6566,1.742)" style="font-size:1; text-rendering:geometricPrecision; color-rendering:optimizeQuality; image-rendering:optimizeQuality; font-family:&apos;jlm_cmmi10&apos;; color-interpolation:linearRGB;"
    ><path style="stroke:none;" d="M0.3281 -0.2969 L0.2969 -0.1719 Q0.2812 -0.0938 0.2812 -0.0781 Q0.2812 -0.0312 0.3125 -0.0156 Q0.3281 -0.0156 0.3438 -0.0156 Q0.3906 -0.0156 0.4219 -0.0625 Q0.4531 -0.0938 0.4688 -0.1406 Q0.4688 -0.1562 0.4844 -0.1562 Q0.5 -0.1562 0.5 -0.1406 Q0.5 -0.125 0.4688 -0.0781 Q0.4062 0.0156 0.3438 0.0156 Q0.2656 0.0156 0.2344 -0.0469 Q0.2344 -0.0625 0.2344 -0.0625 Q0.2031 -0.0156 0.1562 0 Q0.1406 0.0156 0.125 0.0156 Q0.0625 0.0156 0.0312 -0.0312 Q0.0312 -0.0312 0.0312 -0.0625 Q0.0312 -0.0938 0.0625 -0.1094 Q0.0781 -0.1094 0.0781 -0.1094 Q0.1094 -0.1094 0.125 -0.0938 Q0.125 -0.0781 0.125 -0.0781 Q0.125 -0.0469 0.0938 -0.0312 Q0.0781 -0.0312 0.0781 -0.0312 Q0.0938 -0.0156 0.125 -0.0156 Q0.1719 -0.0156 0.2031 -0.0781 Q0.2188 -0.0938 0.2188 -0.1094 Q0.2656 -0.3125 0.2656 -0.3594 Q0.2656 -0.4219 0.2188 -0.4219 Q0.1719 -0.4219 0.125 -0.3594 L0.125 -0.3594 Q0.125 -0.3594 0.125 -0.3594 Q0.1094 -0.3438 0.0938 -0.3125 Q0.0938 -0.3125 0.0938 -0.2969 L0.0781 -0.2812 Q0.0781 -0.2812 0.0781 -0.2812 Q0.0625 -0.2812 0.0625 -0.2812 Q0.0625 -0.3125 0.0938 -0.3594 Q0.1406 -0.4375 0.2188 -0.4375 Q0.2969 -0.4375 0.3281 -0.3594 Q0.3594 -0.4219 0.4062 -0.4375 Q0.4219 -0.4375 0.4375 -0.4375 Q0.5 -0.4375 0.5156 -0.4062 Q0.5312 -0.3906 0.5312 -0.375 Q0.5312 -0.3281 0.4844 -0.3281 Q0.4844 -0.3125 0.4688 -0.3125 Q0.4375 -0.3125 0.4375 -0.3438 Q0.4375 -0.3438 0.4375 -0.3594 Q0.4375 -0.3906 0.4688 -0.4062 Q0.4688 -0.4062 0.4844 -0.4062 Q0.4688 -0.4219 0.4375 -0.4219 Q0.3594 -0.4219 0.3438 -0.3125 Q0.3281 -0.3125 0.3281 -0.2969 Z"
    /></g
  ></g
></svg
>
<path d="M168,93.5659 L168,142.6323 L148,146.6323 L168,150.6323 L168,199.6987 A0,0 0 0 0 168,199.6987 L472,199.6987 A0,0 0 0 0 472,199.6987 L472,103.5659 L462,93.5659 L168,93.5659 A0,0 0 0 0 168,93.5659 " fill="#FBFB77" filter="url(#f14jbnzrhurxi9)" style="stroke: #A80036; stroke-width: 1.0;"/><path d="M462,93.5659 L462,103.5659 L472,103.5659 L462,93.5659 " fill="#FBFB77" style="stroke: #A80036; stroke-width: 1.0;"/><text fill="#000000" font-family="sans-serif" font-size="13" lengthAdjust="spacingAndGlyphs" textLength="49" x="174" y="110.6328">Try also</text><svg x="174" y="113.6987"><!--Generated by the Batik Graphics2D SVG Generator--><defs id="genericDefs"
  /><g
  ><g transform="scale(20,20) translate(0.6058,0.95)" style="font-size:1; text-rendering:geometricPrecision; color-rendering:optimizeQuality; image-rendering:optimizeQuality; font-family:&apos;jlm_cmmi10&apos;; color-interpolation:linearRGB;"
    ><path style="stroke:none;" d="M0.5156 -0.6875 L0.375 -0.1094 Q0.3594 -0.0781 0.3594 -0.0625 Q0.3594 -0.0156 0.3906 -0.0156 Q0.4375 -0.0156 0.4531 -0.0938 Q0.4688 -0.1094 0.4688 -0.1406 Q0.4844 -0.1562 0.4844 -0.1562 Q0.5 -0.1562 0.5 -0.1406 Q0.5 -0.125 0.4844 -0.0781 Q0.4688 -0.0625 0.4688 -0.0469 Q0.4375 0.0156 0.3906 0.0156 Q0.3438 0.0156 0.3125 -0.0312 Q0.3125 -0.0469 0.2969 -0.0625 Q0.2344 0.0156 0.1719 0.0156 Q0.0938 0.0156 0.0625 -0.0625 Q0.0469 -0.0938 0.0469 -0.1562 Q0.0469 -0.25 0.1094 -0.3438 Q0.1875 -0.4375 0.2656 -0.4375 Q0.2812 -0.4375 0.2812 -0.4375 Q0.3438 -0.4375 0.375 -0.375 L0.4375 -0.6094 L0.4375 -0.6406 Q0.4375 -0.6406 0.4219 -0.6562 Q0.4062 -0.6562 0.3906 -0.6562 Q0.3594 -0.6562 0.3594 -0.6562 Q0.3594 -0.6875 0.375 -0.6875 Q0.4688 -0.6875 0.5 -0.6875 Q0.5156 -0.6875 0.5156 -0.6875 ZM0.3125 -0.125 L0.3125 -0.125 L0.3594 -0.3125 Q0.3594 -0.3281 0.3594 -0.3281 Q0.3594 -0.3594 0.3438 -0.3906 Q0.3281 -0.4219 0.2812 -0.4219 Q0.2344 -0.4219 0.1875 -0.3594 Q0.1719 -0.3438 0.1719 -0.3281 Q0.1406 -0.2656 0.1094 -0.1562 Q0.1094 -0.125 0.1094 -0.1094 Q0.1094 -0.0312 0.1562 -0.0156 Q0.1562 -0.0156 0.1719 -0.0156 Q0.2344 -0.0156 0.2812 -0.0781 Q0.2969 -0.0938 0.3125 -0.1094 L0.3125 -0.1094 Q0.3125 -0.125 0.3125 -0.125 Z"
    /></g
    ><g transform="matrix(20,0,0,20,0,0)" style="font-size:1; text-rendering:geometricPrecision; color-rendering:optimizeQuality; image-rendering:optimizeQuality; font-family:&apos;jlm_cmmi10&apos;; color-interpolation:linearRGB;"
    ><rect x="0.32" width="1.092" height="0.04" y="1.3565" style="stroke:none;"
      /><path d="M0.5156 -0.6875 L0.375 -0.1094 Q0.3594 -0.0781 0.3594 -0.0625 Q0.3594 -0.0156 0.3906 -0.0156 Q0.4375 -0.0156 0.4531 -0.0938 Q0.4688 -0.1094 0.4688 -0.1406 Q0.4844 -0.1562 0.4844 -0.1562 Q0.5 -0.1562 0.5 -0.1406 Q0.5 -0.125 0.4844 -0.0781 Q0.4688 -0.0625 0.4688 -0.0469 Q0.4375 0.0156 0.3906 0.0156 Q0.3438 0.0156 0.3125 -0.0312 Q0.3125 -0.0469 0.2969 -0.0625 Q0.2344 0.0156 0.1719 0.0156 Q0.0938 0.0156 0.0625 -0.0625 Q0.0469 -0.0938 0.0469 -0.1562 Q0.0469 -0.25 0.1094 -0.3438 Q0.1875 -0.4375 0.2656 -0.4375 Q0.2812 -0.4375 0.2812 -0.4375 Q0.3438 -0.4375 0.375 -0.375 L0.4375 -0.6094 L0.4375 -0.6406 Q0.4375 -0.6406 0.4219 -0.6562 Q0.4062 -0.6562 0.3906 -0.6562 Q0.3594 -0.6562 0.3594 -0.6562 Q0.3594 -0.6875 0.375 -0.6875 Q0.4688 -0.6875 0.5 -0.6875 Q0.5156 -0.6875 0.5156 -0.6875 ZM0.3125 -0.125 L0.3125 -0.125 L0.3594 -0.3125 Q0.3594 -0.3281 0.3594 -0.3281 Q0.3594 -0.3594 0.3438 -0.3906 Q0.3281 -0.4219 0.2812 -0.4219 Q0.2344 -0.4219 0.1875 -0.3594 Q0.1719 -0.3438 0.1719 -0.3281 Q0.1406 -0.2656 0.1094 -0.1562 Q0.1094 -0.125 0.1094 -0.1094 Q0.1094 -0.0312 0.1562 -0.0156 Q0.1562 -0.0156 0.1719 -0.0156 Q0.2344 -0.0156 0.2812 -0.0781 Q0.2969 -0.0938 0.3125 -0.1094 L0.3125 -0.1094 Q0.3125 -0.125 0.3125 -0.125 Z" style="stroke:none;" transform="translate(0.32,2.3125)"
    /></g
    ><g transform="matrix(20,0,0,20,0,0) translate(0.8405,2.3125)" style="font-size:1; text-rendering:geometricPrecision; color-rendering:optimizeQuality; image-rendering:optimizeQuality; font-family:&apos;jlm_cmmi10&apos;; color-interpolation:linearRGB;"
    ><path style="stroke:none;" d="M0.3281 -0.2969 L0.2969 -0.1719 Q0.2812 -0.0938 0.2812 -0.0781 Q0.2812 -0.0312 0.3125 -0.0156 Q0.3281 -0.0156 0.3438 -0.0156 Q0.3906 -0.0156 0.4219 -0.0625 Q0.4531 -0.0938 0.4688 -0.1406 Q0.4688 -0.1562 0.4844 -0.1562 Q0.5 -0.1562 0.5 -0.1406 Q0.5 -0.125 0.4688 -0.0781 Q0.4062 0.0156 0.3438 0.0156 Q0.2656 0.0156 0.2344 -0.0469 Q0.2344 -0.0625 0.2344 -0.0625 Q0.2031 -0.0156 0.1562 0 Q0.1406 0.0156 0.125 0.0156 Q0.0625 0.0156 0.0312 -0.0312 Q0.0312 -0.0312 0.0312 -0.0625 Q0.0312 -0.0938 0.0625 -0.1094 Q0.0781 -0.1094 0.0781 -0.1094 Q0.1094 -0.1094 0.125 -0.0938 Q0.125 -0.0781 0.125 -0.0781 Q0.125 -0.0469 0.0938 -0.0312 Q0.0781 -0.0312 0.0781 -0.0312 Q0.0938 -0.0156 0.125 -0.0156 Q0.1719 -0.0156 0.2031 -0.0781 Q0.2188 -0.0938 0.2188 -0.1094 Q0.2656 -0.3125 0.2656 -0.3594 Q0.2656 -0.4219 0.2188 -0.4219 Q0.1719 -0.4219 0.125 -0.3594 L0.125 -0.3594 Q0.125 -0.3594 0.125 -0.3594 Q0.1094 -0.3438 0.0938 -0.3125 Q0.0938 -0.3125 0.0938 -0.2969 L0.0781 -0.2812 Q0.0781 -0.2812 0.0781 -0.2812 Q0.0625 -0.2812 0.0625 -0.2812 Q0.0625 -0.3125 0.0938 -0.3594 Q0.1406 -0.4375 0.2188 -0.4375 Q0.2969 -0.4375 0.3281 -0.3594 Q0.3594 -0.4219 0.4062 -0.4375 Q0.4219 -0.4375 0.4375 -0.4375 Q0.5 -0.4375 0.5156 -0.4062 Q0.5312 -0.3906 0.5312 -0.375 Q0.5312 -0.3281 0.4844 -0.3281 Q0.4844 -0.3125 0.4688 -0.3125 Q0.4375 -0.3125 0.4375 -0.3438 Q0.4375 -0.3438 0.4375 -0.3594 Q0.4375 -0.3906 0.4688 -0.4062 Q0.4688 -0.4062 0.4844 -0.4062 Q0.4688 -0.4219 0.4375 -0.4219 Q0.3594 -0.4219 0.3438 -0.3125 Q0.3281 -0.3125 0.3281 -0.2969 Z"
    /></g
    ><g transform="matrix(20,0,0,20,0,0) translate(1.6987,1.6265)" style="font-size:1; text-rendering:geometricPrecision; color-rendering:optimizeQuality; image-rendering:optimizeQuality; font-family:&apos;jlm_cmmi10&apos;; color-interpolation:linearRGB;"
    ><path style="stroke:none;" d="M0.3594 -0.4062 L0.3594 -0.4062 L0.3125 -0.0781 Q0.2969 -0.0156 0.2656 0.0625 Q0.2656 0.0938 0.25 0.1094 Q0.2188 0.1875 0.1562 0.2031 Q0.1562 0.2031 0.1406 0.2031 Q0.0938 0.2031 0.0625 0.1719 Q0.0469 0.1562 0.0469 0.1406 Q0.0469 0.0938 0.0938 0.0781 Q0.0938 0.0781 0.1094 0.0781 Q0.1406 0.0781 0.1406 0.0938 Q0.1406 0.1094 0.1406 0.1094 Q0.1406 0.1406 0.1094 0.1562 Q0.1094 0.1562 0.0938 0.1719 Q0.1094 0.1875 0.1406 0.1875 Q0.1875 0.1875 0.2031 0.0781 Q0.2188 0.0625 0.2188 0.0312 L0.2188 0 L0.2969 -0.4062 L0.2344 -0.4062 Q0.2031 -0.4062 0.2031 -0.4062 L0.2031 -0.4062 L0.2031 -0.4062 Q0.2031 -0.4219 0.2188 -0.4375 L0.2188 -0.4375 L0.2344 -0.4375 L0.3125 -0.4375 Q0.3281 -0.5625 0.3438 -0.5938 Q0.375 -0.6875 0.4375 -0.7031 Q0.4531 -0.7031 0.4688 -0.7031 Q0.5156 -0.7031 0.5469 -0.6719 L0.5469 -0.6719 Q0.5469 -0.6562 0.5469 -0.6406 Q0.5469 -0.5938 0.5156 -0.5781 Q0.5156 -0.5781 0.5 -0.5781 Q0.4688 -0.5781 0.4688 -0.5938 Q0.4531 -0.6094 0.4531 -0.6094 Q0.4531 -0.6406 0.4844 -0.6562 Q0.5 -0.6562 0.5156 -0.6719 Q0.5 -0.6875 0.4688 -0.6875 Q0.4375 -0.6875 0.4219 -0.6562 Q0.4062 -0.6406 0.3906 -0.5469 L0.375 -0.4375 L0.4531 -0.4375 Q0.4844 -0.4375 0.4844 -0.4219 Q0.4844 -0.4062 0.4688 -0.4062 L0.4688 -0.4062 L0.4531 -0.4062 L0.3594 -0.4062 Z"
    /></g
    ><g transform="matrix(20,0,0,20,0,0) translate(2.3549,1.6265)" style="font-size:1; text-rendering:geometricPrecision; color-rendering:optimizeQuality; image-rendering:optimizeQuality; font-family:&apos;jlm_cmr10&apos;; color-interpolation:linearRGB;"
    ><path style="stroke:none;" d="M0.3281 0.2344 L0.3281 0.2344 Q0.3281 0.25 0.3281 0.25 Q0.3125 0.25 0.2656 0.2031 Q0.2031 0.1406 0.1719 0.0625 Q0.0938 -0.0781 0.0938 -0.25 Q0.0938 -0.4219 0.1562 -0.5625 Q0.2188 -0.6719 0.2969 -0.7344 Q0.3125 -0.75 0.3281 -0.75 Q0.3281 -0.75 0.3281 -0.7344 Q0.3281 -0.7344 0.3125 -0.7188 Q0.1562 -0.5625 0.1562 -0.25 Q0.1562 0.0625 0.3125 0.2188 Q0.3281 0.2344 0.3281 0.2344 Z"
    /></g
    ><g transform="matrix(20,0,0,20,0,0) translate(2.7438,1.6265)" style="font-size:1; text-rendering:geometricPrecision; color-rendering:optimizeQuality; image-rendering:optimizeQuality; font-family:&apos;jlm_cmmi10&apos;; color-interpolation:linearRGB;"
    ><path style="stroke:none;" d="M0.3281 -0.2969 L0.2969 -0.1719 Q0.2812 -0.0938 0.2812 -0.0781 Q0.2812 -0.0312 0.3125 -0.0156 Q0.3281 -0.0156 0.3438 -0.0156 Q0.3906 -0.0156 0.4219 -0.0625 Q0.4531 -0.0938 0.4688 -0.1406 Q0.4688 -0.1562 0.4844 -0.1562 Q0.5 -0.1562 0.5 -0.1406 Q0.5 -0.125 0.4688 -0.0781 Q0.4062 0.0156 0.3438 0.0156 Q0.2656 0.0156 0.2344 -0.0469 Q0.2344 -0.0625 0.2344 -0.0625 Q0.2031 -0.0156 0.1562 0 Q0.1406 0.0156 0.125 0.0156 Q0.0625 0.0156 0.0312 -0.0312 Q0.0312 -0.0312 0.0312 -0.0625 Q0.0312 -0.0938 0.0625 -0.1094 Q0.0781 -0.1094 0.0781 -0.1094 Q0.1094 -0.1094 0.125 -0.0938 Q0.125 -0.0781 0.125 -0.0781 Q0.125 -0.0469 0.0938 -0.0312 Q0.0781 -0.0312 0.0781 -0.0312 Q0.0938 -0.0156 0.125 -0.0156 Q0.1719 -0.0156 0.2031 -0.0781 Q0.2188 -0.0938 0.2188 -0.1094 Q0.2656 -0.3125 0.2656 -0.3594 Q0.2656 -0.4219 0.2188 -0.4219 Q0.1719 -0.4219 0.125 -0.3594 L0.125 -0.3594 Q0.125 -0.3594 0.125 -0.3594 Q0.1094 -0.3438 0.0938 -0.3125 Q0.0938 -0.3125 0.0938 -0.2969 L0.0781 -0.2812 Q0.0781 -0.2812 0.0781 -0.2812 Q0.0625 -0.2812 0.0625 -0.2812 Q0.0625 -0.3125 0.0938 -0.3594 Q0.1406 -0.4375 0.2188 -0.4375 Q0.2969 -0.4375 0.3281 -0.3594 Q0.3594 -0.4219 0.4062 -0.4375 Q0.4219 -0.4375 0.4375 -0.4375 Q0.5 -0.4375 0.5156 -0.4062 Q0.5312 -0.3906 0.5312 -0.375 Q0.5312 -0.3281 0.4844 -0.3281 Q0.4844 -0.3125 0.4688 -0.3125 Q0.4375 -0.3125 0.4375 -0.3438 Q0.4375 -0.3438 0.4375 -0.3594 Q0.4375 -0.3906 0.4688 -0.4062 Q0.4688 -0.4062 0.4844 -0.4062 Q0.4688 -0.4219 0.4375 -0.4219 Q0.3594 -0.4219 0.3438 -0.3125 Q0.3281 -0.3125 0.3281 -0.2969 Z"
    /></g
    ><g transform="matrix(20,0,0,20,0,0) translate(3.3154,1.6265)" style="font-size:1; text-rendering:geometricPrecision; color-rendering:optimizeQuality; image-rendering:optimizeQuality; font-family:&apos;jlm_cmr10&apos;; color-interpolation:linearRGB;"
    ><path style="stroke:none;" d="M0.2812 -0.25 L0.2812 -0.25 Q0.2812 -0.0781 0.2188 0.0625 Q0.1719 0.1719 0.0938 0.2344 Q0.0781 0.25 0.0625 0.25 Q0.0625 0.25 0.0625 0.2344 Q0.0625 0.2344 0.0625 0.2188 Q0.2344 0.0625 0.2344 -0.25 Q0.2344 -0.5625 0.0781 -0.7188 L0.0781 -0.7188 Q0.0625 -0.7344 0.0625 -0.7344 Q0.0625 -0.75 0.0625 -0.75 Q0.0781 -0.75 0.125 -0.7031 Q0.1875 -0.6406 0.2188 -0.5625 Q0.2812 -0.4219 0.2812 -0.25 Z"
    /></g
    ><g transform="matrix(20,0,0,20,0,0) translate(3.982,1.6265)" style="font-size:1; text-rendering:geometricPrecision; color-rendering:optimizeQuality; image-rendering:optimizeQuality; font-family:&apos;jlm_cmr10&apos;; color-interpolation:linearRGB;"
    ><path style="stroke:none;" d="M0.6875 -0.3281 L0.0938 -0.3281 Q0.0625 -0.3281 0.0625 -0.3438 Q0.0625 -0.3594 0.0938 -0.3594 L0.6875 -0.3594 Q0.7188 -0.3594 0.7188 -0.3438 Q0.7188 -0.3281 0.6875 -0.3281 ZM0.6875 -0.1406 L0.0938 -0.1406 Q0.0625 -0.1406 0.0625 -0.1562 Q0.0625 -0.1719 0.0938 -0.1719 L0.6875 -0.1719 Q0.7188 -0.1719 0.7188 -0.1562 Q0.7188 -0.1406 0.6875 -0.1406 Z"
    /></g
    ><g transform="matrix(20,0,0,20,0,0) translate(5.0698,1.6265)" style="font-size:1; text-rendering:geometricPrecision; color-rendering:optimizeQuality; image-rendering:optimizeQuality; font-family:&apos;jlm_cmr10&apos;; color-interpolation:linearRGB;"
    ><path style="stroke:none;" d="M0.1719 -0.6875 L0.1719 -0.0781 Q0.1719 -0.0469 0.1875 -0.0312 Q0.2031 -0.0312 0.25 -0.0312 L0.25 0 L0.1406 0 Q0.125 0 0.0312 0 L0.0312 -0.0312 Q0.0938 -0.0312 0.1094 -0.0469 L0.1094 -0.0469 Q0.1094 -0.0469 0.1094 -0.0781 L0.1094 -0.5938 Q0.1094 -0.6406 0.0938 -0.6406 L0.0938 -0.6406 Q0.0781 -0.6562 0.0625 -0.6562 L0.0312 -0.6562 L0.0312 -0.6875 L0.1719 -0.6875 Z"
    /></g
    ><g transform="matrix(20,0,0,20,0,0) translate(5.3476,1.6265)" style="font-size:1; text-rendering:geometricPrecision; color-rendering:optimizeQuality; image-rendering:optimizeQuality; font-family:&apos;jlm_cmr10&apos;; color-interpolation:linearRGB;"
    ><path style="stroke:none;" d="M0.1719 -0.4375 L0.1719 -0.4375 L0.1719 -0.0781 Q0.1719 -0.0469 0.1875 -0.0312 L0.1875 -0.0312 Q0.2031 -0.0312 0.25 -0.0312 L0.25 0 Q0.1406 0 0.1406 0 Q0.125 0 0.0312 0 L0.0312 -0.0312 Q0.0938 -0.0312 0.1094 -0.0469 L0.1094 -0.0469 Q0.1094 -0.0469 0.1094 -0.0781 L0.1094 -0.3438 Q0.1094 -0.3906 0.0938 -0.3906 L0.0938 -0.3906 L0.0938 -0.3906 L0.0938 -0.3906 L0.0938 -0.3906 Q0.0781 -0.4062 0.0312 -0.4062 L0.0312 -0.4375 L0.1719 -0.4375 ZM0.1875 -0.6094 Q0.1875 -0.5781 0.1406 -0.5625 Q0.1406 -0.5625 0.125 -0.5625 Q0.0938 -0.5625 0.0781 -0.5938 L0.0781 -0.5938 Q0.0781 -0.6094 0.0781 -0.6094 Q0.0781 -0.6406 0.1094 -0.6562 Q0.1094 -0.6719 0.125 -0.6719 Q0.1562 -0.6719 0.1719 -0.6406 Q0.1875 -0.625 0.1875 -0.6094 Z"
    /></g
    ><g transform="matrix(20,0,0,20,0,0) translate(5.6254,1.6265)" style="font-size:1; text-rendering:geometricPrecision; color-rendering:optimizeQuality; image-rendering:optimizeQuality; font-family:&apos;jlm_cmr10&apos;; color-interpolation:linearRGB;"
    ><path style="stroke:none;" d="M0.1094 -0.3438 Q0.1094 -0.3906 0.0938 -0.3906 Q0.0781 -0.4062 0.0469 -0.4062 L0.0312 -0.4062 L0.0312 -0.4375 L0.1719 -0.4375 L0.1719 -0.3438 Q0.2188 -0.4375 0.3281 -0.4375 Q0.4375 -0.4375 0.4531 -0.3438 Q0.4844 -0.4062 0.5469 -0.4375 Q0.5781 -0.4375 0.5938 -0.4375 Q0.6719 -0.4375 0.7031 -0.4062 Q0.7344 -0.375 0.7344 -0.3125 Q0.7344 -0.2969 0.7344 -0.25 L0.7344 -0.0625 Q0.7344 -0.0312 0.7656 -0.0312 Q0.7812 -0.0312 0.8125 -0.0312 L0.8125 0 Q0.7188 0 0.7031 0 Q0.6875 0 0.5938 0 L0.5938 -0.0312 Q0.6406 -0.0312 0.6562 -0.0469 L0.6562 -0.0469 Q0.6719 -0.0469 0.6719 -0.0781 L0.6719 -0.3125 Q0.6719 -0.4062 0.6094 -0.4219 Q0.5938 -0.4219 0.5938 -0.4219 Q0.5312 -0.4219 0.4844 -0.3594 Q0.4531 -0.3281 0.4531 -0.2656 L0.4531 -0.0781 Q0.4531 -0.0469 0.4688 -0.0312 Q0.4844 -0.0312 0.5312 -0.0312 L0.5312 0 Q0.4375 0 0.4219 0 Q0.4219 0 0.3125 0 L0.3125 -0.0312 Q0.375 -0.0312 0.375 -0.0469 L0.375 -0.0469 Q0.3906 -0.0469 0.3906 -0.0781 L0.3906 -0.3125 Q0.3906 -0.4062 0.3281 -0.4219 Q0.3281 -0.4219 0.3125 -0.4219 Q0.25 -0.4219 0.2188 -0.3594 Q0.1719 -0.3281 0.1719 -0.2656 L0.1719 -0.0781 Q0.1719 -0.0469 0.1875 -0.0312 Q0.2031 -0.0312 0.25 -0.0312 L0.25 0 Q0.1562 0 0.1406 0 Q0.1406 0 0.0312 0 L0.0312 -0.0312 Q0.0938 -0.0312 0.0938 -0.0469 L0.1094 -0.0469 Q0.1094 -0.0469 0.1094 -0.0781 L0.1094 -0.3438 Z"
    /></g
    ><g transform="matrix(20,0,0,20,0,0) translate(5.0376,2.2793) scale(0.7,0.7)" style="font-size:1; text-rendering:geometricPrecision; color-rendering:optimizeQuality; image-rendering:optimizeQuality; font-family:&apos;jlm_cmmi10&apos;; color-interpolation:linearRGB;"
    ><path style="stroke:none;" d="M0.2812 -0.6875 L0.2031 -0.3594 Q0.2656 -0.4375 0.3594 -0.4375 Q0.4531 -0.4375 0.4688 -0.375 L0.4688 -0.375 Q0.4688 -0.3594 0.4688 -0.3281 Q0.4688 -0.2812 0.4062 -0.1094 Q0.3906 -0.0781 0.3906 -0.0469 Q0.3906 -0.0156 0.4219 -0.0156 Q0.4844 -0.0156 0.5156 -0.125 L0.5156 -0.1406 Q0.5312 -0.1562 0.5312 -0.1562 L0.5312 -0.1562 L0.5312 -0.1562 Q0.5469 -0.1562 0.5469 -0.1406 Q0.5469 -0.125 0.5312 -0.0781 Q0.4844 0.0156 0.4219 0.0156 Q0.3594 0.0156 0.3438 -0.0312 Q0.3281 -0.0469 0.3281 -0.0781 Q0.3281 -0.0938 0.3438 -0.125 Q0.4062 -0.2812 0.4062 -0.3438 Q0.4062 -0.4219 0.3594 -0.4219 Q0.3125 -0.4219 0.2656 -0.3906 Q0.2188 -0.3594 0.1875 -0.2969 L0.1875 -0.2969 Q0.1875 -0.2656 0.1719 -0.25 Q0.1719 -0.2188 0.1562 -0.1875 L0.1406 -0.0938 L0.125 -0.0156 Q0.1094 0 0.0938 0.0156 Q0.0938 0.0156 0.0781 0.0156 Q0.0625 0.0156 0.0625 -0.0156 Q0.0625 -0.0156 0.0625 -0.0156 Q0.0625 -0.0312 0.0625 -0.0312 L0.2031 -0.6094 L0.2031 -0.6406 Q0.2031 -0.6406 0.1875 -0.6562 L0.1875 -0.6562 Q0.1875 -0.6562 0.1562 -0.6562 Q0.1406 -0.6562 0.1406 -0.6562 Q0.1406 -0.6875 0.1562 -0.6875 L0.2812 -0.6875 Q0.2812 -0.6875 0.2812 -0.6875 Z"
    /></g
    ><g transform="matrix(20,0,0,20,0,0) translate(5.4409,2.2793) scale(0.7,0.7)" style="font-size:1; text-rendering:geometricPrecision; color-rendering:optimizeQuality; image-rendering:optimizeQuality; font-family:&apos;jlm_cmsy10&apos;; color-interpolation:linearRGB;"
    ><path style="stroke:none;" d="M0.8594 -0.2344 L0.0938 -0.2344 Q0.0625 -0.2344 0.0625 -0.25 Q0.0625 -0.2656 0.0938 -0.2656 L0.8594 -0.2656 Q0.7969 -0.3125 0.75 -0.4062 L0.75 -0.4062 Q0.75 -0.4062 0.75 -0.4219 Q0.75 -0.4219 0.7656 -0.4219 Q0.7812 -0.4219 0.7812 -0.4062 Q0.8281 -0.3125 0.9219 -0.2656 L0.9219 -0.2656 L0.9219 -0.2656 L0.9219 -0.2656 Q0.9219 -0.2656 0.9375 -0.2656 Q0.9375 -0.2656 0.9375 -0.25 Q0.9375 -0.25 0.9375 -0.2344 Q0.9375 -0.2344 0.9219 -0.2344 Q0.8281 -0.1875 0.7812 -0.0938 L0.7812 -0.0938 Q0.7812 -0.0781 0.7812 -0.0781 Q0.7812 -0.0781 0.7656 -0.0781 Q0.75 -0.0781 0.75 -0.0781 Q0.75 -0.0938 0.7812 -0.1406 Q0.8125 -0.2031 0.8594 -0.2344 Z"
    /></g
    ><g transform="matrix(20,0,0,20,0,0) translate(6.1409,2.2793) scale(0.7,0.7)" style="font-size:1; text-rendering:geometricPrecision; color-rendering:optimizeQuality; image-rendering:optimizeQuality; font-family:&apos;jlm_cmr10&apos;; color-interpolation:linearRGB;"
    ><path style="stroke:none;" d="M0.4531 -0.3125 Q0.4531 -0.1719 0.4219 -0.0938 Q0.3594 0.0156 0.25 0.0156 Q0.1562 0.0156 0.1094 -0.0469 Q0.0938 -0.0625 0.0781 -0.0781 Q0.0312 -0.1562 0.0312 -0.3125 Q0.0312 -0.4688 0.0781 -0.5469 Q0.125 -0.6562 0.2344 -0.6719 L0.25 -0.6719 Q0.3438 -0.6719 0.3906 -0.5938 L0.3906 -0.5938 Q0.4062 -0.5781 0.4219 -0.5469 Q0.4531 -0.4688 0.4531 -0.3125 ZM0.25 0 L0.25 0 Q0.3125 0 0.3438 -0.0625 Q0.3594 -0.0938 0.3594 -0.125 Q0.375 -0.1875 0.375 -0.3281 Q0.375 -0.4688 0.3594 -0.5312 Q0.3438 -0.625 0.2812 -0.6406 Q0.2656 -0.6406 0.25 -0.6406 Q0.1719 -0.6406 0.1406 -0.5781 Q0.1406 -0.5469 0.125 -0.5156 Q0.125 -0.4688 0.125 -0.3281 Q0.125 -0.1875 0.1406 -0.125 Q0.1562 -0.0312 0.2188 0 Q0.2344 0 0.25 0 Z"
    /></g
    ><g transform="matrix(20,0,0,20,0,0) translate(6.7776,0.95)" style="font-size:1; text-rendering:geometricPrecision; color-rendering:optimizeQuality; image-rendering:optimizeQuality; font-family:&apos;jlm_cmmi10&apos;; color-interpolation:linearRGB;"
    ><path style="stroke:none;" d="M0.3594 -0.4062 L0.3594 -0.4062 L0.3125 -0.0781 Q0.2969 -0.0156 0.2656 0.0625 Q0.2656 0.0938 0.25 0.1094 Q0.2188 0.1875 0.1562 0.2031 Q0.1562 0.2031 0.1406 0.2031 Q0.0938 0.2031 0.0625 0.1719 Q0.0469 0.1562 0.0469 0.1406 Q0.0469 0.0938 0.0938 0.0781 Q0.0938 0.0781 0.1094 0.0781 Q0.1406 0.0781 0.1406 0.0938 Q0.1406 0.1094 0.1406 0.1094 Q0.1406 0.1406 0.1094 0.1562 Q0.1094 0.1562 0.0938 0.1719 Q0.1094 0.1875 0.1406 0.1875 Q0.1875 0.1875 0.2031 0.0781 Q0.2188 0.0625 0.2188 0.0312 L0.2188 0 L0.2969 -0.4062 L0.2344 -0.4062 Q0.2031 -0.4062 0.2031 -0.4062 L0.2031 -0.4062 L0.2031 -0.4062 Q0.2031 -0.4219 0.2188 -0.4375 L0.2188 -0.4375 L0.2344 -0.4375 L0.3125 -0.4375 Q0.3281 -0.5625 0.3438 -0.5938 Q0.375 -0.6875 0.4375 -0.7031 Q0.4531 -0.7031 0.4688 -0.7031 Q0.5156 -0.7031 0.5469 -0.6719 L0.5469 -0.6719 Q0.5469 -0.6562 0.5469 -0.6406 Q0.5469 -0.5938 0.5156 -0.5781 Q0.5156 -0.5781 0.5 -0.5781 Q0.4688 -0.5781 0.4688 -0.5938 Q0.4531 -0.6094 0.4531 -0.6094 Q0.4531 -0.6406 0.4844 -0.6562 Q0.5 -0.6562 0.5156 -0.6719 Q0.5 -0.6875 0.4688 -0.6875 Q0.4375 -0.6875 0.4219 -0.6562 Q0.4062 -0.6406 0.3906 -0.5469 L0.375 -0.4375 L0.4531 -0.4375 Q0.4844 -0.4375 0.4844 -0.4219 Q0.4844 -0.4062 0.4688 -0.4062 L0.4688 -0.4062 L0.4531 -0.4062 L0.3594 -0.4062 Z"
    /></g
    ><g transform="matrix(20,0,0,20,0,0) translate(7.4338,0.95)" style="font-size:1; text-rendering:geometricPrecision; color-rendering:optimizeQuality; image-rendering:optimizeQuality; font-family:&apos;jlm_cmr10&apos;; color-interpolation:linearRGB;"
    ><path style="stroke:none;" d="M0.3281 0.2344 L0.3281 0.2344 Q0.3281 0.25 0.3281 0.25 Q0.3125 0.25 0.2656 0.2031 Q0.2031 0.1406 0.1719 0.0625 Q0.0938 -0.0781 0.0938 -0.25 Q0.0938 -0.4219 0.1562 -0.5625 Q0.2188 -0.6719 0.2969 -0.7344 Q0.3125 -0.75 0.3281 -0.75 Q0.3281 -0.75 0.3281 -0.7344 Q0.3281 -0.7344 0.3125 -0.7188 Q0.1562 -0.5625 0.1562 -0.25 Q0.1562 0.0625 0.3125 0.2188 Q0.3281 0.2344 0.3281 0.2344 Z"
    /></g
    ><g transform="matrix(20,0,0,20,0,0) translate(7.8227,0.95)" style="font-size:1; text-rendering:geometricPrecision; color-rendering:optimizeQuality; image-rendering:optimizeQuality; font-family:&apos;jlm_cmmi10&apos;; color-interpolation:linearRGB;"
    ><path style="stroke:none;" d="M0.3281 -0.2969 L0.2969 -0.1719 Q0.2812 -0.0938 0.2812 -0.0781 Q0.2812 -0.0312 0.3125 -0.0156 Q0.3281 -0.0156 0.3438 -0.0156 Q0.3906 -0.0156 0.4219 -0.0625 Q0.4531 -0.0938 0.4688 -0.1406 Q0.4688 -0.1562 0.4844 -0.1562 Q0.5 -0.1562 0.5 -0.1406 Q0.5 -0.125 0.4688 -0.0781 Q0.4062 0.0156 0.3438 0.0156 Q0.2656 0.0156 0.2344 -0.0469 Q0.2344 -0.0625 0.2344 -0.0625 Q0.2031 -0.0156 0.1562 0 Q0.1406 0.0156 0.125 0.0156 Q0.0625 0.0156 0.0312 -0.0312 Q0.0312 -0.0312 0.0312 -0.0625 Q0.0312 -0.0938 0.0625 -0.1094 Q0.0781 -0.1094 0.0781 -0.1094 Q0.1094 -0.1094 0.125 -0.0938 Q0.125 -0.0781 0.125 -0.0781 Q0.125 -0.0469 0.0938 -0.0312 Q0.0781 -0.0312 0.0781 -0.0312 Q0.0938 -0.0156 0.125 -0.0156 Q0.1719 -0.0156 0.2031 -0.0781 Q0.2188 -0.0938 0.2188 -0.1094 Q0.2656 -0.3125 0.2656 -0.3594 Q0.2656 -0.4219 0.2188 -0.4219 Q0.1719 -0.4219 0.125 -0.3594 L0.125 -0.3594 Q0.125 -0.3594 0.125 -0.3594 Q0.1094 -0.3438 0.0938 -0.3125 Q0.0938 -0.3125 0.0938 -0.2969 L0.0781 -0.2812 Q0.0781 -0.2812 0.0781 -0.2812 Q0.0625 -0.2812 0.0625 -0.2812 Q0.0625 -0.3125 0.0938 -0.3594 Q0.1406 -0.4375 0.2188 -0.4375 Q0.2969 -0.4375 0.3281 -0.3594 Q0.3594 -0.4219 0.4062 -0.4375 Q0.4219 -0.4375 0.4375 -0.4375 Q0.5 -0.4375 0.5156 -0.4062 Q0.5312 -0.3906 0.5312 -0.375 Q0.5312 -0.3281 0.4844 -0.3281 Q0.4844 -0.3125 0.4688 -0.3125 Q0.4375 -0.3125 0.4375 -0.3438 Q0.4375 -0.3438 0.4375 -0.3594 Q0.4375 -0.3906 0.4688 -0.4062 Q0.4688 -0.4062 0.4844 -0.4062 Q0.4688 -0.4219 0.4375 -0.4219 Q0.3594 -0.4219 0.3438 -0.3125 Q0.3281 -0.3125 0.3281 -0.2969 Z"
    /></g
    ><g transform="matrix(20,0,0,20,0,0) translate(8.6165,0.95)" style="font-size:1; text-rendering:geometricPrecision; color-rendering:optimizeQuality; image-rendering:optimizeQuality; font-family:&apos;jlm_cmr10&apos;; color-interpolation:linearRGB;"
    ><path style="stroke:none;" d="M0.4062 -0.2344 L0.4062 0.0469 Q0.4062 0.0781 0.3906 0.0781 Q0.375 0.0781 0.375 0.0469 L0.375 -0.2344 L0.0938 -0.2344 Q0.0625 -0.2344 0.0625 -0.25 Q0.0625 -0.2656 0.0938 -0.2656 L0.375 -0.2656 L0.375 -0.5469 Q0.375 -0.5781 0.3906 -0.5781 Q0.4062 -0.5781 0.4062 -0.5469 L0.4062 -0.2656 L0.6875 -0.2656 Q0.7188 -0.2656 0.7188 -0.25 Q0.7188 -0.2344 0.6875 -0.2344 L0.4062 -0.2344 Z"
    /></g
    ><g transform="matrix(20,0,0,20,0,0) translate(9.6165,0.95)" style="font-size:1; text-rendering:geometricPrecision; color-rendering:optimizeQuality; image-rendering:optimizeQuality; font-family:&apos;jlm_cmmi10&apos;; color-interpolation:linearRGB;"
    ><path style="stroke:none;" d="M0.2812 -0.6875 L0.2031 -0.3594 Q0.2656 -0.4375 0.3594 -0.4375 Q0.4531 -0.4375 0.4688 -0.375 L0.4688 -0.375 Q0.4688 -0.3594 0.4688 -0.3281 Q0.4688 -0.2812 0.4062 -0.1094 Q0.3906 -0.0781 0.3906 -0.0469 Q0.3906 -0.0156 0.4219 -0.0156 Q0.4844 -0.0156 0.5156 -0.125 L0.5156 -0.1406 Q0.5312 -0.1562 0.5312 -0.1562 L0.5312 -0.1562 L0.5312 -0.1562 Q0.5469 -0.1562 0.5469 -0.1406 Q0.5469 -0.125 0.5312 -0.0781 Q0.4844 0.0156 0.4219 0.0156 Q0.3594 0.0156 0.3438 -0.0312 Q0.3281 -0.0469 0.3281 -0.0781 Q0.3281 -0.0938 0.3438 -0.125 Q0.4062 -0.2812 0.4062 -0.3438 Q0.4062 -0.4219 0.3594 -0.4219 Q0.3125 -0.4219 0.2656 -0.3906 Q0.2188 -0.3594 0.1875 -0.2969 L0.1875 -0.2969 Q0.1875 -0.2656 0.1719 -0.25 Q0.1719 -0.2188 0.1562 -0.1875 L0.1406 -0.0938 L0.125 -0.0156 Q0.1094 0 0.0938 0.0156 Q0.0938 0.0156 0.0781 0.0156 Q0.0625 0.0156 0.0625 -0.0156 Q0.0625 -0.0156 0.0625 -0.0156 Q0.0625 -0.0312 0.0625 -0.0312 L0.2031 -0.6094 L0.2031 -0.6406 Q0.2031 -0.6406 0.1875 -0.6562 L0.1875 -0.6562 Q0.1875 -0.6562 0.1562 -0.6562 Q0.1406 -0.6562 0.1406 -0.6562 Q0.1406 -0.6875 0.1562 -0.6875 L0.2812 -0.6875 Q0.2812 -0.6875 0.2812 -0.6875 Z"
    /></g
    ><g transform="matrix(20,0,0,20,0,0) translate(10.1926,0.95)" style="font-size:1; text-rendering:geometricPrecision; color-rendering:optimizeQuality; image-rendering:optimizeQuality; font-family:&apos;jlm_cmr10&apos;; color-interpolation:linearRGB;"
    ><path style="stroke:none;" d="M0.2812 -0.25 L0.2812 -0.25 Q0.2812 -0.0781 0.2188 0.0625 Q0.1719 0.1719 0.0938 0.2344 Q0.0781 0.25 0.0625 0.25 Q0.0625 0.25 0.0625 0.2344 Q0.0625 0.2344 0.0625 0.2188 Q0.2344 0.0625 0.2344 -0.25 Q0.2344 -0.5625 0.0781 -0.7188 L0.0781 -0.7188 Q0.0625 -0.7344 0.0625 -0.7344 Q0.0625 -0.75 0.0625 -0.75 Q0.0781 -0.75 0.125 -0.7031 Q0.1875 -0.6406 0.2188 -0.5625 Q0.2812 -0.4219 0.2812 -0.25 Z"
    /></g
    ><g transform="matrix(20,0,0,20,0,0) translate(10.8037,0.95)" style="font-size:1; text-rendering:geometricPrecision; color-rendering:optimizeQuality; image-rendering:optimizeQuality; font-family:&apos;jlm_cmsy10&apos;; color-interpolation:linearRGB;"
    ><path style="stroke:none;" d="M0.6562 -0.2344 L0.1094 -0.2344 Q0.0781 -0.2344 0.0781 -0.25 Q0.0781 -0.2656 0.1094 -0.2656 L0.6562 -0.2656 Q0.6875 -0.2656 0.6875 -0.25 Q0.6875 -0.2344 0.6562 -0.2344 Z"
    /></g
    ><g transform="matrix(20,0,0,20,0,0) translate(11.8037,0.95)" style="font-size:1; text-rendering:geometricPrecision; color-rendering:optimizeQuality; image-rendering:optimizeQuality; font-family:&apos;jlm_cmmi10&apos;; color-interpolation:linearRGB;"
    ><path style="stroke:none;" d="M0.3594 -0.4062 L0.3594 -0.4062 L0.3125 -0.0781 Q0.2969 -0.0156 0.2656 0.0625 Q0.2656 0.0938 0.25 0.1094 Q0.2188 0.1875 0.1562 0.2031 Q0.1562 0.2031 0.1406 0.2031 Q0.0938 0.2031 0.0625 0.1719 Q0.0469 0.1562 0.0469 0.1406 Q0.0469 0.0938 0.0938 0.0781 Q0.0938 0.0781 0.1094 0.0781 Q0.1406 0.0781 0.1406 0.0938 Q0.1406 0.1094 0.1406 0.1094 Q0.1406 0.1406 0.1094 0.1562 Q0.1094 0.1562 0.0938 0.1719 Q0.1094 0.1875 0.1406 0.1875 Q0.1875 0.1875 0.2031 0.0781 Q0.2188 0.0625 0.2188 0.0312 L0.2188 0 L0.2969 -0.4062 L0.2344 -0.4062 Q0.2031 -0.4062 0.2031 -0.4062 L0.2031 -0.4062 L0.2031 -0.4062 Q0.2031 -0.4219 0.2188 -0.4375 L0.2188 -0.4375 L0.2344 -0.4375 L0.3125 -0.4375 Q0.3281 -0.5625 0.3438 -0.5938 Q0.375 -0.6875 0.4375 -0.7031 Q0.4531 -0.7031 0.4688 -0.7031 Q0.5156 -0.7031 0.5469 -0.6719 L0.5469 -0.6719 Q0.5469 -0.6562 0.5469 -0.6406 Q0.5469 -0.5938 0.5156 -0.5781 Q0.5156 -0.5781 0.5 -0.5781 Q0.4688 -0.5781 0.4688 -0.5938 Q0.4531 -0.6094 0.4531 -0.6094 Q0.4531 -0.6406 0.4844 -0.6562 Q0.5 -0.6562 0.5156 -0.6719 Q0.5 -0.6875 0.4688 -0.6875 Q0.4375 -0.6875 0.4219 -0.6562 Q0.4062 -0.6406 0.3906 -0.5469 L0.375 -0.4375 L0.4531 -0.4375 Q0.4844 -0.4375 0.4844 -0.4219 Q0.4844 -0.4062 0.4688 -0.4062 L0.4688 -0.4062 L0.4531 -0.4062 L0.3594 -0.4062 Z"
    /></g
    ><g transform="matrix(20,0,0,20,0,0) translate(12.46,0.95)" style="font-size:1; text-rendering:geometricPrecision; color-rendering:optimizeQuality; image-rendering:optimizeQuality; font-family:&apos;jlm_cmr10&apos;; color-interpolation:linearRGB;"
    ><path style="stroke:none;" d="M0.3281 0.2344 L0.3281 0.2344 Q0.3281 0.25 0.3281 0.25 Q0.3125 0.25 0.2656 0.2031 Q0.2031 0.1406 0.1719 0.0625 Q0.0938 -0.0781 0.0938 -0.25 Q0.0938 -0.4219 0.1562 -0.5625 Q0.2188 -0.6719 0.2969 -0.7344 Q0.3125 -0.75 0.3281 -0.75 Q0.3281 -0.75 0.3281 -0.7344 Q0.3281 -0.7344 0.3125 -0.7188 Q0.1562 -0.5625 0.1562 -0.25 Q0.1562 0.0625 0.3125 0.2188 Q0.3281 0.2344 0.3281 0.2344 Z"
    /></g
    ><g transform="matrix(20,0,0,20,0,0) translate(12.8489,0.95)" style="font-size:1; text-rendering:geometricPrecision; color-rendering:optimizeQuality; image-rendering:optimizeQuality; font-family:&apos;jlm_cmmi10&apos;; color-interpolation:linearRGB;"
    ><path style="stroke:none;" d="M0.3281 -0.2969 L0.2969 -0.1719 Q0.2812 -0.0938 0.2812 -0.0781 Q0.2812 -0.0312 0.3125 -0.0156 Q0.3281 -0.0156 0.3438 -0.0156 Q0.3906 -0.0156 0.4219 -0.0625 Q0.4531 -0.0938 0.4688 -0.1406 Q0.4688 -0.1562 0.4844 -0.1562 Q0.5 -0.1562 0.5 -0.1406 Q0.5 -0.125 0.4688 -0.0781 Q0.4062 0.0156 0.3438 0.0156 Q0.2656 0.0156 0.2344 -0.0469 Q0.2344 -0.0625 0.2344 -0.0625 Q0.2031 -0.0156 0.1562 0 Q0.1406 0.0156 0.125 0.0156 Q0.0625 0.0156 0.0312 -0.0312 Q0.0312 -0.0312 0.0312 -0.0625 Q0.0312 -0.0938 0.0625 -0.1094 Q0.0781 -0.1094 0.0781 -0.1094 Q0.1094 -0.1094 0.125 -0.0938 Q0.125 -0.0781 0.125 -0.0781 Q0.125 -0.0469 0.0938 -0.0312 Q0.0781 -0.0312 0.0781 -0.0312 Q0.0938 -0.0156 0.125 -0.0156 Q0.1719 -0.0156 0.2031 -0.0781 Q0.2188 -0.0938 0.2188 -0.1094 Q0.2656 -0.3125 0.2656 -0.3594 Q0.2656 -0.4219 0.2188 -0.4219 Q0.1719 -0.4219 0.125 -0.3594 L0.125 -0.3594 Q0.125 -0.3594 0.125 -0.3594 Q0.1094 -0.3438 0.0938 -0.3125 Q0.0938 -0.3125 0.0938 -0.2969 L0.0781 -0.2812 Q0.0781 -0.2812 0.0781 -0.2812 Q0.0625 -0.2812 0.0625 -0.2812 Q0.0625 -0.3125 0.0938 -0.3594 Q0.1406 -0.4375 0.2188 -0.4375 Q0.2969 -0.4375 0.3281 -0.3594 Q0.3594 -0.4219 0.4062 -0.4375 Q0.4219 -0.4375 0.4375 -0.4375 Q0.5 -0.4375 0.5156 -0.4062 Q0.5312 -0.3906 0.5312 -0.375 Q0.5312 -0.3281 0.4844 -0.3281 Q0.4844 -0.3125 0.4688 -0.3125 Q0.4375 -0.3125 0.4375 -0.3438 Q0.4375 -0.3438 0.4375 -0.3594 Q0.4375 -0.3906 0.4688 -0.4062 Q0.4688 -0.4062 0.4844 -0.4062 Q0.4688 -0.4219 0.4375 -0.4219 Q0.3594 -0.4219 0.3438 -0.3125 Q0.3281 -0.3125 0.3281 -0.2969 Z"
    /></g
    ><g transform="matrix(20,0,0,20,0,0) translate(13.4204,0.95)" style="font-size:1; text-rendering:geometricPrecision; color-rendering:optimizeQuality; image-rendering:optimizeQuality; font-family:&apos;jlm_cmr10&apos;; color-interpolation:linearRGB;"
    ><path style="stroke:none;" d="M0.2812 -0.25 L0.2812 -0.25 Q0.2812 -0.0781 0.2188 0.0625 Q0.1719 0.1719 0.0938 0.2344 Q0.0781 0.25 0.0625 0.25 Q0.0625 0.25 0.0625 0.2344 Q0.0625 0.2344 0.0625 0.2188 Q0.2344 0.0625 0.2344 -0.25 Q0.2344 -0.5625 0.0781 -0.7188 L0.0781 -0.7188 Q0.0625 -0.7344 0.0625 -0.7344 Q0.0625 -0.75 0.0625 -0.75 Q0.0781 -0.75 0.125 -0.7031 Q0.1875 -0.6406 0.2188 -0.5625 Q0.2812 -0.4219 0.2812 -0.25 Z"
    /></g
    ><g transform="matrix(20,0,0,20,0,0)" style="font-size:1; text-rendering:geometricPrecision; color-rendering:optimizeQuality; image-rendering:optimizeQuality; font-family:&apos;jlm_cmr10&apos;; color-interpolation:linearRGB;"
    ><rect x="6.7776" width="7.0317" height="0.04" y="1.3565" style="stroke:none;"
      /><path d="M0.2812 -0.6875 L0.2031 -0.3594 Q0.2656 -0.4375 0.3594 -0.4375 Q0.4531 -0.4375 0.4688 -0.375 L0.4688 -0.375 Q0.4688 -0.3594 0.4688 -0.3281 Q0.4688 -0.2812 0.4062 -0.1094 Q0.3906 -0.0781 0.3906 -0.0469 Q0.3906 -0.0156 0.4219 -0.0156 Q0.4844 -0.0156 0.5156 -0.125 L0.5156 -0.1406 Q0.5312 -0.1562 0.5312 -0.1562 L0.5312 -0.1562 L0.5312 -0.1562 Q0.5469 -0.1562 0.5469 -0.1406 Q0.5469 -0.125 0.5312 -0.0781 Q0.4844 0.0156 0.4219 0.0156 Q0.3594 0.0156 0.3438 -0.0312 Q0.3281 -0.0469 0.3281 -0.0781 Q0.3281 -0.0938 0.3438 -0.125 Q0.4062 -0.2812 0.4062 -0.3438 Q0.4062 -0.4219 0.3594 -0.4219 Q0.3125 -0.4219 0.2656 -0.3906 Q0.2188 -0.3594 0.1875 -0.2969 L0.1875 -0.2969 Q0.1875 -0.2656 0.1719 -0.25 Q0.1719 -0.2188 0.1562 -0.1875 L0.1406 -0.0938 L0.125 -0.0156 Q0.1094 0 0.0938 0.0156 Q0.0938 0.0156 0.0781 0.0156 Q0.0625 0.0156 0.0625 -0.0156 Q0.0625 -0.0156 0.0625 -0.0156 Q0.0625 -0.0312 0.0625 -0.0312 L0.2031 -0.6094 L0.2031 -0.6406 Q0.2031 -0.6406 0.1875 -0.6562 L0.1875 -0.6562 Q0.1875 -0.6562 0.1562 -0.6562 Q0.1406 -0.6562 0.1406 -0.6562 Q0.1406 -0.6875 0.1562 -0.6875 L0.2812 -0.6875 Q0.2812 -0.6875 0.2812 -0.6875 Z" style="stroke:none;" transform="translate(10.0054,2.3125)"
    /></g
  ></g
></svg
>
<svg x="174" y="166.6987"><!--Generated by the Batik Graphics2D SVG Generator--><defs id="genericDefs"
  /><g
  ><g transform="scale(20,20) translate(0.2,0.95)" style="font-size:1; text-rendering:geometricPrecision; color-rendering:optimizeQuality; image-rendering:optimizeQuality; font-family:&apos;jlm_cmmi10&apos;; color-interpolation:linearRGB;"
    ><path style="stroke:none;" d="M0.2969 -0.3125 L0.2969 -0.3125 L0.2344 -0.0625 L0.2344 -0.0469 Q0.2344 -0.0312 0.2812 -0.0312 L0.2812 -0.0312 L0.2812 -0.0312 L0.2969 -0.0312 Q0.3281 -0.0312 0.3281 -0.0156 Q0.3281 0 0.3125 0 L0.25 0 L0.25 0 L0.1875 0 L0.1875 0 L0.0625 0 L0.0625 0 Q0.0469 0 0.0469 -0.0156 Q0.0469 -0.0312 0.0625 -0.0312 L0.0625 -0.0312 Q0.1406 -0.0312 0.1406 -0.0469 Q0.1562 -0.0469 0.1562 -0.0781 Q0.1562 -0.0781 0.1562 -0.0781 L0.2969 -0.6094 Q0.2969 -0.625 0.2969 -0.6406 Q0.2969 -0.6406 0.2812 -0.6562 L0.2812 -0.6562 L0.2812 -0.6562 Q0.2812 -0.6562 0.2812 -0.6562 Q0.25 -0.6562 0.2344 -0.6562 Q0.2031 -0.6562 0.2031 -0.6562 Q0.2031 -0.6562 0.2031 -0.6562 Q0.2031 -0.6875 0.2188 -0.6875 L0.2188 -0.6875 L0.2344 -0.6875 L0.5625 -0.6875 Q0.6719 -0.6875 0.7344 -0.6094 Q0.75 -0.5781 0.75 -0.5312 Q0.75 -0.4531 0.6719 -0.3906 Q0.5781 -0.3125 0.4688 -0.3125 L0.2969 -0.3125 ZM0.375 -0.6094 L0.3125 -0.3438 L0.4531 -0.3438 Q0.5469 -0.3438 0.6094 -0.3906 Q0.6406 -0.4375 0.6562 -0.5156 L0.6562 -0.5156 Q0.6562 -0.5469 0.6562 -0.5625 Q0.6562 -0.6562 0.5312 -0.6562 L0.4219 -0.6562 Q0.3906 -0.6562 0.3906 -0.6406 L0.3906 -0.6406 L0.3906 -0.6406 L0.3906 -0.6406 L0.3906 -0.6406 Q0.375 -0.6406 0.375 -0.6094 Z"
    /></g
    ><g transform="matrix(20,0,0,20,0,0) translate(0.842,0.95)" style="font-size:1; text-rendering:geometricPrecision; color-rendering:optimizeQuality; image-rendering:optimizeQuality; font-family:&apos;jlm_cmr10&apos;; color-interpolation:linearRGB;"
    ><path style="stroke:none;" d="M0.3281 0.2344 L0.3281 0.2344 Q0.3281 0.25 0.3281 0.25 Q0.3125 0.25 0.2656 0.2031 Q0.2031 0.1406 0.1719 0.0625 Q0.0938 -0.0781 0.0938 -0.25 Q0.0938 -0.4219 0.1562 -0.5625 Q0.2188 -0.6719 0.2969 -0.7344 Q0.3125 -0.75 0.3281 -0.75 Q0.3281 -0.75 0.3281 -0.7344 Q0.3281 -0.7344 0.3125 -0.7188 Q0.1562 -0.5625 0.1562 -0.25 Q0.1562 0.0625 0.3125 0.2188 Q0.3281 0.2344 0.3281 0.2344 Z"
    /></g
    ><g transform="matrix(20,0,0,20,0,0) translate(1.2309,0.95)" style="font-size:1; text-rendering:geometricPrecision; color-rendering:optimizeQuality; image-rendering:optimizeQuality; font-family:&apos;jlm_cmmi10&apos;; color-interpolation:linearRGB;"
    ><path style="stroke:none;" d="M0.4844 -0.375 L0.3906 0 Q0.3594 0.0938 0.2812 0.1562 Q0.2188 0.2031 0.1562 0.2031 Q0.0938 0.2031 0.0625 0.1562 Q0.0469 0.1406 0.0469 0.125 Q0.0469 0.0625 0.0938 0.0625 Q0.0938 0.0469 0.1094 0.0469 Q0.1406 0.0469 0.1406 0.0781 Q0.1406 0.0781 0.1406 0.0938 Q0.1406 0.1094 0.125 0.125 Q0.1094 0.1406 0.0781 0.1406 Q0.0938 0.1875 0.1562 0.1875 Q0.2188 0.1875 0.2656 0.125 Q0.3125 0.0625 0.3281 -0.0156 Q0.3281 -0.0312 0.3281 -0.0312 Q0.2812 0.0156 0.2344 0.0156 Q0.1562 0.0156 0.125 -0.0469 Q0.1094 -0.0781 0.1094 -0.1094 Q0.1094 -0.1562 0.1562 -0.3125 Q0.1562 -0.3125 0.1719 -0.3125 Q0.1875 -0.3594 0.1875 -0.3906 Q0.1875 -0.4219 0.1562 -0.4219 Q0.1094 -0.4219 0.0625 -0.3281 L0.0625 -0.3281 Q0.0625 -0.3125 0.0625 -0.2969 Q0.0469 -0.2812 0.0469 -0.2812 Q0.0312 -0.2812 0.0312 -0.2812 Q0.0312 -0.3125 0.0469 -0.3438 Q0.0938 -0.4375 0.1562 -0.4375 Q0.2188 -0.4375 0.2344 -0.3906 Q0.25 -0.375 0.25 -0.3594 Q0.25 -0.3438 0.2188 -0.2812 Q0.1719 -0.1562 0.1719 -0.0938 Q0.1719 -0.0156 0.2344 -0.0156 Q0.2969 -0.0156 0.3281 -0.0781 Q0.3438 -0.0938 0.3438 -0.0938 L0.3906 -0.2812 Q0.4062 -0.3125 0.4062 -0.3594 Q0.4219 -0.4062 0.4219 -0.4062 Q0.4375 -0.4375 0.4688 -0.4375 Q0.4844 -0.4219 0.4844 -0.4062 Q0.4844 -0.3906 0.4844 -0.375 Z"
    /></g
    ><g transform="matrix(20,0,0,20,0,0) translate(1.7212,0.95)" style="font-size:1; text-rendering:geometricPrecision; color-rendering:optimizeQuality; image-rendering:optimizeQuality; font-family:&apos;jlm_cmsy10&apos;; color-interpolation:linearRGB;"
    ><path style="stroke:none;" d="M0.1562 -0.7188 L0.1562 0.2188 Q0.1562 0.25 0.1406 0.25 Q0.125 0.25 0.125 0.2188 L0.125 -0.7188 Q0.125 -0.75 0.1406 -0.75 Q0.1562 -0.75 0.1562 -0.7188 Z"
    /></g
    ><g transform="matrix(20,0,0,20,0,0) translate(1.999,0.95)" style="font-size:1; text-rendering:geometricPrecision; color-rendering:optimizeQuality; image-rendering:optimizeQuality; font-family:&apos;jlm_cmbx10&apos;; color-interpolation:linearRGB;"
    ><path style="stroke:none;" d="M0.3438 -0.25 L0.5156 -0.0469 L0.5781 -0.0469 L0.5781 0 Q0.4844 0 0.4688 0 Q0.4375 0 0.3594 0 L0.3594 -0.0469 L0.3906 -0.0469 L0.2812 -0.1719 L0.1875 -0.0625 Q0.1875 -0.0625 0.1875 -0.0625 Q0.1875 -0.0469 0.2188 -0.0469 L0.2188 0 Q0.1562 0 0.1094 0 Q0.0781 0 0.0156 0 L0.0156 -0.0469 Q0.0469 -0.0469 0.0625 -0.0469 Q0.0781 -0.0469 0.0938 -0.0547 Q0.1094 -0.0625 0.125 -0.0625 L0.25 -0.2188 L0.0938 -0.3906 L0.0312 -0.3906 L0.0312 -0.4375 Q0.125 -0.4375 0.1406 -0.4375 Q0.1875 -0.4375 0.2656 -0.4375 L0.2656 -0.3906 L0.2188 -0.3906 L0.3125 -0.2812 L0.4062 -0.375 L0.4062 -0.3906 Q0.3906 -0.3906 0.375 -0.3906 L0.375 -0.4375 Q0.4531 -0.4375 0.4688 -0.4375 Q0.5156 -0.4375 0.5625 -0.4375 L0.5625 -0.3906 Q0.5312 -0.3906 0.5078 -0.3906 Q0.4844 -0.3906 0.4766 -0.3906 Q0.4688 -0.3906 0.4688 -0.375 L0.3438 -0.25 Z"
    /></g
    ><g transform="matrix(20,0,0,20,0,0) translate(2.6059,0.95)" style="font-size:1; text-rendering:geometricPrecision; color-rendering:optimizeQuality; image-rendering:optimizeQuality; font-family:&apos;jlm_cmr10&apos;; color-interpolation:linearRGB;"
    ><path style="stroke:none;" d="M0.2812 -0.25 L0.2812 -0.25 Q0.2812 -0.0781 0.2188 0.0625 Q0.1719 0.1719 0.0938 0.2344 Q0.0781 0.25 0.0625 0.25 Q0.0625 0.25 0.0625 0.2344 Q0.0625 0.2344 0.0625 0.2188 Q0.2344 0.0625 0.2344 -0.25 Q0.2344 -0.5625 0.0781 -0.7188 L0.0781 -0.7188 Q0.0625 -0.7344 0.0625 -0.7344 Q0.0625 -0.75 0.0625 -0.75 Q0.0781 -0.75 0.125 -0.7031 Q0.1875 -0.6406 0.2188 -0.5625 Q0.2812 -0.4219 0.2812 -0.25 Z"
    /></g
    ><g transform="matrix(20,0,0,20,0,0) translate(3.3281,0.95)" style="font-size:1; text-rendering:geometricPrecision; color-rendering:optimizeQuality; image-rendering:optimizeQuality; font-family:&apos;jlm_cmr10&apos;; color-interpolation:linearRGB;"
    ><path style="stroke:none;" d="M0.4688 -0.2188 L0.4688 -0.2188 Q0.4688 -0.1094 0.3906 -0.0469 Q0.3281 0.0156 0.25 0.0156 Q0.1562 0.0156 0.0938 -0.0625 Q0.0312 -0.125 0.0312 -0.2188 Q0.0312 -0.3125 0.0938 -0.3906 Q0.1562 -0.4531 0.25 -0.4531 Q0.3438 -0.4531 0.4062 -0.375 Q0.4688 -0.2969 0.4688 -0.2188 ZM0.25 -0.0156 L0.25 -0.0156 Q0.3125 -0.0156 0.3594 -0.0625 L0.3594 -0.0938 Q0.3906 -0.125 0.3906 -0.2188 Q0.3906 -0.3125 0.3594 -0.3594 Q0.3125 -0.4219 0.25 -0.4219 Q0.1875 -0.4219 0.1406 -0.375 Q0.1406 -0.375 0.1406 -0.3594 Q0.1094 -0.3125 0.1094 -0.2188 Q0.1094 -0.125 0.1406 -0.0781 Q0.1719 -0.0156 0.25 -0.0156 Z"
    /></g
    ><g transform="matrix(20,0,0,20,0,0) translate(3.8281,0.95)" style="font-size:1; text-rendering:geometricPrecision; color-rendering:optimizeQuality; image-rendering:optimizeQuality; font-family:&apos;jlm_cmr10&apos;; color-interpolation:linearRGB;"
    ><path style="stroke:none;" d="M0.1719 -0.0781 Q0.1719 -0.0469 0.1875 -0.0469 L0.1875 -0.0469 L0.1875 -0.0312 Q0.2031 -0.0312 0.25 -0.0312 L0.2656 -0.0312 L0.2656 0 Q0.2344 0 0.1406 0 Q0.1406 0 0.0312 0 L0.0312 -0.0312 Q0.0938 -0.0312 0.0938 -0.0469 L0.0938 -0.0469 Q0.1094 -0.0469 0.1094 -0.0781 L0.1094 -0.3438 Q0.1094 -0.3906 0.0938 -0.3906 Q0.0781 -0.4062 0.0469 -0.4062 L0.0312 -0.4062 L0.0312 -0.4375 L0.1719 -0.4375 L0.1719 -0.3281 Q0.1875 -0.4219 0.25 -0.4375 Q0.2656 -0.4375 0.2969 -0.4375 Q0.3438 -0.4375 0.3594 -0.4062 Q0.3594 -0.3906 0.3594 -0.375 Q0.3594 -0.3438 0.3281 -0.3438 Q0.3281 -0.3438 0.3281 -0.3438 Q0.2969 -0.3438 0.2812 -0.3594 Q0.2812 -0.375 0.2812 -0.375 Q0.2812 -0.4062 0.2969 -0.4219 Q0.2969 -0.4219 0.2969 -0.4219 Q0.2188 -0.4219 0.1875 -0.3438 Q0.1719 -0.2969 0.1719 -0.2344 L0.1719 -0.0781 Z"
    /></g
    ><g transform="matrix(20,0,0,20,0,0) translate(4.5531,0.95)" style="font-size:1; text-rendering:geometricPrecision; color-rendering:optimizeQuality; image-rendering:optimizeQuality; font-family:&apos;jlm_cmmi10&apos;; color-interpolation:linearRGB;"
    ><path style="stroke:none;" d="M0.3594 -0.4062 L0.3594 -0.4062 L0.3125 -0.0781 Q0.2969 -0.0156 0.2656 0.0625 Q0.2656 0.0938 0.25 0.1094 Q0.2188 0.1875 0.1562 0.2031 Q0.1562 0.2031 0.1406 0.2031 Q0.0938 0.2031 0.0625 0.1719 Q0.0469 0.1562 0.0469 0.1406 Q0.0469 0.0938 0.0938 0.0781 Q0.0938 0.0781 0.1094 0.0781 Q0.1406 0.0781 0.1406 0.0938 Q0.1406 0.1094 0.1406 0.1094 Q0.1406 0.1406 0.1094 0.1562 Q0.1094 0.1562 0.0938 0.1719 Q0.1094 0.1875 0.1406 0.1875 Q0.1875 0.1875 0.2031 0.0781 Q0.2188 0.0625 0.2188 0.0312 L0.2188 0 L0.2969 -0.4062 L0.2344 -0.4062 Q0.2031 -0.4062 0.2031 -0.4062 L0.2031 -0.4062 L0.2031 -0.4062 Q0.2031 -0.4219 0.2188 -0.4375 L0.2188 -0.4375 L0.2344 -0.4375 L0.3125 -0.4375 Q0.3281 -0.5625 0.3438 -0.5938 Q0.375 -0.6875 0.4375 -0.7031 Q0.4531 -0.7031 0.4688 -0.7031 Q0.5156 -0.7031 0.5469 -0.6719 L0.5469 -0.6719 Q0.5469 -0.6562 0.5469 -0.6406 Q0.5469 -0.5938 0.5156 -0.5781 Q0.5156 -0.5781 0.5 -0.5781 Q0.4688 -0.5781 0.4688 -0.5938 Q0.4531 -0.6094 0.4531 -0.6094 Q0.4531 -0.6406 0.4844 -0.6562 Q0.5 -0.6562 0.5156 -0.6719 Q0.5 -0.6875 0.4688 -0.6875 Q0.4375 -0.6875 0.4219 -0.6562 Q0.4062 -0.6406 0.3906 -0.5469 L0.375 -0.4375 L0.4531 -0.4375 Q0.4844 -0.4375 0.4844 -0.4219 Q0.4844 -0.4062 0.4688 -0.4062 L0.4688 -0.4062 L0.4531 -0.4062 L0.3594 -0.4062 Z"
    /></g
    ><g transform="matrix(20,0,0,20,0,0) translate(5.0427,0.95)" style="font-size:1; text-rendering:geometricPrecision; color-rendering:optimizeQuality; image-rendering:optimizeQuality; font-family:&apos;jlm_cmr10&apos;; color-interpolation:linearRGB;"
    ><path style="stroke:none;" d="M0.3281 0.2344 L0.3281 0.2344 Q0.3281 0.25 0.3281 0.25 Q0.3125 0.25 0.2656 0.2031 Q0.2031 0.1406 0.1719 0.0625 Q0.0938 -0.0781 0.0938 -0.25 Q0.0938 -0.4219 0.1562 -0.5625 Q0.2188 -0.6719 0.2969 -0.7344 Q0.3125 -0.75 0.3281 -0.75 Q0.3281 -0.75 0.3281 -0.7344 Q0.3281 -0.7344 0.3125 -0.7188 Q0.1562 -0.5625 0.1562 -0.25 Q0.1562 0.0625 0.3125 0.2188 Q0.3281 0.2344 0.3281 0.2344 Z"
    /></g
    ><g transform="matrix(20,0,0,20,0,0) translate(5.4316,0.95)" style="font-size:1; text-rendering:geometricPrecision; color-rendering:optimizeQuality; image-rendering:optimizeQuality; font-family:&apos;jlm_cmbx10&apos;; color-interpolation:linearRGB;"
    ><path style="stroke:none;" d="M0.3438 -0.25 L0.5156 -0.0469 L0.5781 -0.0469 L0.5781 0 Q0.4844 0 0.4688 0 Q0.4375 0 0.3594 0 L0.3594 -0.0469 L0.3906 -0.0469 L0.2812 -0.1719 L0.1875 -0.0625 Q0.1875 -0.0625 0.1875 -0.0625 Q0.1875 -0.0469 0.2188 -0.0469 L0.2188 0 Q0.1562 0 0.1094 0 Q0.0781 0 0.0156 0 L0.0156 -0.0469 Q0.0469 -0.0469 0.0625 -0.0469 Q0.0781 -0.0469 0.0938 -0.0547 Q0.1094 -0.0625 0.125 -0.0625 L0.25 -0.2188 L0.0938 -0.3906 L0.0312 -0.3906 L0.0312 -0.4375 Q0.125 -0.4375 0.1406 -0.4375 Q0.1875 -0.4375 0.2656 -0.4375 L0.2656 -0.3906 L0.2188 -0.3906 L0.3125 -0.2812 L0.4062 -0.375 L0.4062 -0.3906 Q0.3906 -0.3906 0.375 -0.3906 L0.375 -0.4375 Q0.4531 -0.4375 0.4688 -0.4375 Q0.5156 -0.4375 0.5625 -0.4375 L0.5625 -0.3906 Q0.5312 -0.3906 0.5078 -0.3906 Q0.4844 -0.3906 0.4766 -0.3906 Q0.4688 -0.3906 0.4688 -0.375 L0.3438 -0.25 Z"
    /></g
    ><g transform="matrix(20,0,0,20,0,0) translate(6.0386,0.95)" style="font-size:1; text-rendering:geometricPrecision; color-rendering:optimizeQuality; image-rendering:optimizeQuality; font-family:&apos;jlm_cmr10&apos;; color-interpolation:linearRGB;"
    ><path style="stroke:none;" d="M0.2812 -0.25 L0.2812 -0.25 Q0.2812 -0.0781 0.2188 0.0625 Q0.1719 0.1719 0.0938 0.2344 Q0.0781 0.25 0.0625 0.25 Q0.0625 0.25 0.0625 0.2344 Q0.0625 0.2344 0.0625 0.2188 Q0.2344 0.0625 0.2344 -0.25 Q0.2344 -0.5625 0.0781 -0.7188 L0.0781 -0.7188 Q0.0625 -0.7344 0.0625 -0.7344 Q0.0625 -0.75 0.0625 -0.75 Q0.0781 -0.75 0.125 -0.7031 Q0.1875 -0.6406 0.2188 -0.5625 Q0.2812 -0.4219 0.2812 -0.25 Z"
    /></g
    ><g transform="matrix(20,0,0,20,0,0) translate(6.6497,0.95)" style="font-size:1; text-rendering:geometricPrecision; color-rendering:optimizeQuality; image-rendering:optimizeQuality; font-family:&apos;jlm_cmr10&apos;; color-interpolation:linearRGB;"
    ><path style="stroke:none;" d="M0.4062 -0.2344 L0.4062 0.0469 Q0.4062 0.0781 0.3906 0.0781 Q0.375 0.0781 0.375 0.0469 L0.375 -0.2344 L0.0938 -0.2344 Q0.0625 -0.2344 0.0625 -0.25 Q0.0625 -0.2656 0.0938 -0.2656 L0.375 -0.2656 L0.375 -0.5469 Q0.375 -0.5781 0.3906 -0.5781 Q0.4062 -0.5781 0.4062 -0.5469 L0.4062 -0.2656 L0.6875 -0.2656 Q0.7188 -0.2656 0.7188 -0.25 Q0.7188 -0.2344 0.6875 -0.2344 L0.4062 -0.2344 Z"
    /></g
    ><g transform="matrix(20,0,0,20,0,0) translate(7.6497,0.95)" style="font-size:1; text-rendering:geometricPrecision; color-rendering:optimizeQuality; image-rendering:optimizeQuality; font-family:&apos;jlm_cmmi10&apos;; color-interpolation:linearRGB;"
    ><path style="stroke:none;" d="M0.2969 -0.2188 L0.2969 -0.2188 L0.1406 -0.2188 Q0.125 -0.1875 0.125 -0.1406 Q0.125 -0.0469 0.1875 -0.0156 Q0.2031 -0.0156 0.2344 -0.0156 Q0.2812 -0.0156 0.3281 -0.0469 Q0.3438 -0.0469 0.3438 -0.0469 Q0.3594 -0.0469 0.3594 -0.0469 Q0.3594 -0.0312 0.3125 -0.0156 Q0.2656 0.0156 0.2344 0.0156 Q0.125 0.0156 0.0781 -0.0625 Q0.0469 -0.1094 0.0469 -0.1719 Q0.0469 -0.2969 0.1406 -0.375 Q0.2188 -0.4375 0.3125 -0.4375 L0.3438 -0.4375 Q0.375 -0.4375 0.375 -0.4219 Q0.375 -0.4062 0.3438 -0.4062 L0.3125 -0.4062 Q0.2031 -0.4062 0.1562 -0.2812 Q0.1406 -0.2656 0.1406 -0.25 L0.2969 -0.25 Q0.3281 -0.25 0.3281 -0.25 Q0.3281 -0.2188 0.2969 -0.2188 Z"
    /></g
  ></g
></svg
>
<rect fill="#FEFECE" filter="url(#f14jbnzrhurxi9)" height="51" rx="12.5" ry="12.5" style="stroke: #A80036; stroke-width: 1.5;" width="138" x="10" y="121.1323"/><svg x="20" y="131.1323"><!--Generated by the Batik Graphics2D SVG Generator--><defs id="genericDefs"
  /><g
  ><g transform="scale(20,20) translate(0.2,1.064)" style="font-size:1; text-rendering:geometricPrecision; color-rendering:optimizeQuality; image-rendering:optimizeQuality; font-family:&apos;jlm_cmmi10&apos;; color-interpolation:linearRGB;"
    ><path style="stroke:none;" d="M0.3281 -0.2969 L0.2969 -0.1719 Q0.2812 -0.0938 0.2812 -0.0781 Q0.2812 -0.0312 0.3125 -0.0156 Q0.3281 -0.0156 0.3438 -0.0156 Q0.3906 -0.0156 0.4219 -0.0625 Q0.4531 -0.0938 0.4688 -0.1406 Q0.4688 -0.1562 0.4844 -0.1562 Q0.5 -0.1562 0.5 -0.1406 Q0.5 -0.125 0.4688 -0.0781 Q0.4062 0.0156 0.3438 0.0156 Q0.2656 0.0156 0.2344 -0.0469 Q0.2344 -0.0625 0.2344 -0.0625 Q0.2031 -0.0156 0.1562 0 Q0.1406 0.0156 0.125 0.0156 Q0.0625 0.0156 0.0312 -0.0312 Q0.0312 -0.0312 0.0312 -0.0625 Q0.0312 -0.0938 0.0625 -0.1094 Q0.0781 -0.1094 0.0781 -0.1094 Q0.1094 -0.1094 0.125 -0.0938 Q0.125 -0.0781 0.125 -0.0781 Q0.125 -0.0469 0.0938 -0.0312 Q0.0781 -0.0312 0.0781 -0.0312 Q0.0938 -0.0156 0.125 -0.0156 Q0.1719 -0.0156 0.2031 -0.0781 Q0.2188 -0.0938 0.2188 -0.1094 Q0.2656 -0.3125 0.2656 -0.3594 Q0.2656 -0.4219 0.2188 -0.4219 Q0.1719 -0.4219 0.125 -0.3594 L0.125 -0.3594 Q0.125 -0.3594 0.125 -0.3594 Q0.1094 -0.3438 0.0938 -0.3125 Q0.0938 -0.3125 0.0938 -0.2969 L0.0781 -0.2812 Q0.0781 -0.2812 0.0781 -0.2812 Q0.0625 -0.2812 0.0625 -0.2812 Q0.0625 -0.3125 0.0938 -0.3594 Q0.1406 -0.4375 0.2188 -0.4375 Q0.2969 -0.4375 0.3281 -0.3594 Q0.3594 -0.4219 0.4062 -0.4375 Q0.4219 -0.4375 0.4375 -0.4375 Q0.5 -0.4375 0.5156 -0.4062 Q0.5312 -0.3906 0.5312 -0.375 Q0.5312 -0.3281 0.4844 -0.3281 Q0.4844 -0.3125 0.4688 -0.3125 Q0.4375 -0.3125 0.4375 -0.3438 Q0.4375 -0.3438 0.4375 -0.3594 Q0.4375 -0.3906 0.4688 -0.4062 Q0.4688 -0.4062 0.4844 -0.4062 Q0.4688 -0.4219 0.4375 -0.4219 Q0.3594 -0.4219 0.3438 -0.3125 Q0.3281 -0.3125 0.3281 -0.2969 Z"
    /></g
    ><g transform="matrix(20,0,0,20,0,0) translate(0.7715,0.6511) scale(0.7,0.7)" style="font-size:1; text-rendering:geometricPrecision; color-rendering:optimizeQuality; image-rendering:optimizeQuality; font-family:&apos;jlm_cmr10&apos;; color-interpolation:linearRGB;"
    ><path style="stroke:none;" d="M0.4531 -0.1719 L0.4531 -0.1719 L0.4219 0 L0.0469 0 Q0.0469 -0.0312 0.0625 -0.0312 L0.0625 -0.0312 L0.25 -0.25 Q0.3594 -0.375 0.3594 -0.4688 Q0.3594 -0.5625 0.2969 -0.6094 L0.2969 -0.6094 L0.2969 -0.6094 Q0.2656 -0.6406 0.2188 -0.6406 Q0.1562 -0.6406 0.1094 -0.5781 Q0.0938 -0.5625 0.0938 -0.5312 Q0.0938 -0.5312 0.1094 -0.5312 Q0.1406 -0.5312 0.1562 -0.5 L0.1562 -0.5 Q0.1562 -0.4844 0.1562 -0.4844 Q0.1562 -0.4375 0.1094 -0.4375 Q0.1094 -0.4219 0.1094 -0.4219 Q0.0625 -0.4219 0.0469 -0.4531 Q0.0469 -0.4688 0.0469 -0.4844 Q0.0469 -0.5625 0.1094 -0.6094 Q0.1562 -0.6719 0.2344 -0.6719 Q0.3438 -0.6719 0.4062 -0.5938 Q0.4375 -0.5469 0.4531 -0.4844 Q0.4531 -0.4844 0.4531 -0.4688 Q0.4531 -0.4062 0.3906 -0.3281 Q0.3594 -0.2969 0.2969 -0.25 L0.25 -0.1875 L0.2344 -0.1875 L0.125 -0.0781 L0.3125 -0.0781 Q0.3906 -0.0781 0.4062 -0.0781 Q0.4062 -0.0938 0.4219 -0.1719 L0.4531 -0.1719 Z"
    /></g
    ><g transform="matrix(20,0,0,20,0,0) translate(1.3688,1.064)" style="font-size:1; text-rendering:geometricPrecision; color-rendering:optimizeQuality; image-rendering:optimizeQuality; font-family:&apos;jlm_cmr10&apos;; color-interpolation:linearRGB;"
    ><path style="stroke:none;" d="M0.4062 -0.2344 L0.4062 0.0469 Q0.4062 0.0781 0.3906 0.0781 Q0.375 0.0781 0.375 0.0469 L0.375 -0.2344 L0.0938 -0.2344 Q0.0625 -0.2344 0.0625 -0.25 Q0.0625 -0.2656 0.0938 -0.2656 L0.375 -0.2656 L0.375 -0.5469 Q0.375 -0.5781 0.3906 -0.5781 Q0.4062 -0.5781 0.4062 -0.5469 L0.4062 -0.2656 L0.6875 -0.2656 Q0.7188 -0.2656 0.7188 -0.25 Q0.7188 -0.2344 0.6875 -0.2344 L0.4062 -0.2344 Z"
    /></g
    ><g transform="matrix(20,0,0,20,0,0) translate(2.3688,1.064)" style="font-size:1; text-rendering:geometricPrecision; color-rendering:optimizeQuality; image-rendering:optimizeQuality; font-family:&apos;jlm_cmmi10&apos;; color-interpolation:linearRGB;"
    ><path style="stroke:none;" d="M0.4844 -0.375 L0.3906 0 Q0.3594 0.0938 0.2812 0.1562 Q0.2188 0.2031 0.1562 0.2031 Q0.0938 0.2031 0.0625 0.1562 Q0.0469 0.1406 0.0469 0.125 Q0.0469 0.0625 0.0938 0.0625 Q0.0938 0.0469 0.1094 0.0469 Q0.1406 0.0469 0.1406 0.0781 Q0.1406 0.0781 0.1406 0.0938 Q0.1406 0.1094 0.125 0.125 Q0.1094 0.1406 0.0781 0.1406 Q0.0938 0.1875 0.1562 0.1875 Q0.2188 0.1875 0.2656 0.125 Q0.3125 0.0625 0.3281 -0.0156 Q0.3281 -0.0312 0.3281 -0.0312 Q0.2812 0.0156 0.2344 0.0156 Q0.1562 0.0156 0.125 -0.0469 Q0.1094 -0.0781 0.1094 -0.1094 Q0.1094 -0.1562 0.1562 -0.3125 Q0.1562 -0.3125 0.1719 -0.3125 Q0.1875 -0.3594 0.1875 -0.3906 Q0.1875 -0.4219 0.1562 -0.4219 Q0.1094 -0.4219 0.0625 -0.3281 L0.0625 -0.3281 Q0.0625 -0.3125 0.0625 -0.2969 Q0.0469 -0.2812 0.0469 -0.2812 Q0.0312 -0.2812 0.0312 -0.2812 Q0.0312 -0.3125 0.0469 -0.3438 Q0.0938 -0.4375 0.1562 -0.4375 Q0.2188 -0.4375 0.2344 -0.3906 Q0.25 -0.375 0.25 -0.3594 Q0.25 -0.3438 0.2188 -0.2812 Q0.1719 -0.1562 0.1719 -0.0938 Q0.1719 -0.0156 0.2344 -0.0156 Q0.2969 -0.0156 0.3281 -0.0781 Q0.3438 -0.0938 0.3438 -0.0938 L0.3906 -0.2812 Q0.4062 -0.3125 0.4062 -0.3594 Q0.4219 -0.4062 0.4219 -0.4062 Q0.4375 -0.4375 0.4688 -0.4375 Q0.4844 -0.4219 0.4844 -0.4062 Q0.4844 -0.3906 0.4844 -0.375 Z"
    /></g
    ><g transform="matrix(20,0,0,20,0,0) translate(2.859,1.214) scale(0.7,0.7)" style="font-size:1; text-rendering:geometricPrecision; color-rendering:optimizeQuality; image-rendering:optimizeQuality; font-family:&apos;jlm_cmr10&apos;; color-interpolation:linearRGB;"
    ><path style="stroke:none;" d="M0.2969 -0.6406 L0.2969 -0.0781 Q0.2969 -0.0469 0.3125 -0.0469 Q0.3281 -0.0312 0.3906 -0.0312 L0.4219 -0.0312 L0.4219 0 Q0.3906 0 0.25 0 Q0.125 0 0.0938 0 L0.0938 -0.0312 L0.125 -0.0312 Q0.2031 -0.0312 0.2188 -0.0469 L0.2188 -0.0469 Q0.2188 -0.0625 0.2188 -0.0781 L0.2188 -0.5938 Q0.1719 -0.5781 0.0938 -0.5781 L0.0938 -0.6094 Q0.2031 -0.6094 0.2656 -0.6719 Q0.2969 -0.6719 0.2969 -0.6562 L0.2969 -0.6562 L0.2969 -0.6562 Q0.2969 -0.6562 0.2969 -0.6406 Z"
    /></g
    ><g transform="matrix(20,0,0,20,0,0) translate(3.4313,1.064)" style="font-size:1; text-rendering:geometricPrecision; color-rendering:optimizeQuality; image-rendering:optimizeQuality; font-family:&apos;jlm_cmr10&apos;; color-interpolation:linearRGB;"
    ><path style="stroke:none;" d="M0.4062 -0.2344 L0.4062 0.0469 Q0.4062 0.0781 0.3906 0.0781 Q0.375 0.0781 0.375 0.0469 L0.375 -0.2344 L0.0938 -0.2344 Q0.0625 -0.2344 0.0625 -0.25 Q0.0625 -0.2656 0.0938 -0.2656 L0.375 -0.2656 L0.375 -0.5469 Q0.375 -0.5781 0.3906 -0.5781 Q0.4062 -0.5781 0.4062 -0.5469 L0.4062 -0.2656 L0.6875 -0.2656 Q0.7188 -0.2656 0.7188 -0.25 Q0.7188 -0.2344 0.6875 -0.2344 L0.4062 -0.2344 Z"
    /></g
    ><g transform="matrix(20,0,0,20,0,0) translate(4.4313,1.064)" style="font-size:1; text-rendering:geometricPrecision; color-rendering:optimizeQuality; image-rendering:optimizeQuality; font-family:&apos;jlm_cmmi10&apos;; color-interpolation:linearRGB;"
    ><path style="stroke:none;" d="M0.1406 -0.0781 L0.1406 -0.0781 Q0.1406 -0.0938 0.1562 -0.0938 Q0.1875 -0.0938 0.2344 -0.0625 Q0.2656 -0.0625 0.2812 -0.0625 Q0.3438 -0.0625 0.375 -0.0938 Q0.4062 -0.1094 0.4062 -0.1406 Q0.4219 -0.1562 0.4219 -0.1562 Q0.4375 -0.1562 0.4375 -0.1406 Q0.4375 -0.1094 0.4062 -0.0625 Q0.3438 0.0156 0.2812 0.0156 Q0.25 0.0156 0.2188 -0.0312 Q0.1875 -0.0625 0.1719 -0.0625 Q0.1562 -0.0625 0.1562 -0.0625 Q0.1094 -0.0625 0.0781 0 Q0.0625 0.0156 0.0625 0.0156 Q0.0469 0.0156 0.0469 0 Q0.0469 -0.0156 0.0938 -0.0625 Q0.1094 -0.0938 0.1406 -0.125 L0.2344 -0.2188 Q0.3281 -0.2969 0.375 -0.3438 Q0.3438 -0.3438 0.2969 -0.3594 Q0.25 -0.375 0.2344 -0.375 Q0.1719 -0.375 0.1562 -0.3438 Q0.1562 -0.3281 0.1562 -0.3281 Q0.1406 -0.3125 0.1406 -0.3125 Q0.125 -0.3125 0.125 -0.3281 Q0.125 -0.3438 0.1562 -0.3906 Q0.1875 -0.4375 0.25 -0.4375 Q0.2812 -0.4375 0.3125 -0.4062 L0.3125 -0.4062 Q0.3125 -0.4062 0.3125 -0.4062 Q0.3438 -0.375 0.3594 -0.375 Q0.3594 -0.3594 0.3594 -0.3594 Q0.4062 -0.3594 0.4375 -0.4219 L0.4375 -0.4375 Q0.4531 -0.4375 0.4531 -0.4375 Q0.4688 -0.4375 0.4688 -0.4375 Q0.4688 -0.4219 0.4219 -0.375 Q0.3906 -0.3281 0.3438 -0.2812 Q0.3438 -0.2812 0.25 -0.2031 L0.25 -0.2031 Q0.1875 -0.1406 0.1406 -0.0781 Z"
    /></g
    ><g transform="matrix(20,0,0,20,0,0) translate(4.9403,0.6511) scale(0.7,0.7)" style="font-size:1; text-rendering:geometricPrecision; color-rendering:optimizeQuality; image-rendering:optimizeQuality; font-family:&apos;jlm_cmr10&apos;; color-interpolation:linearRGB;"
    ><path style="stroke:none;" d="M0.2969 -0.3594 L0.2969 -0.3594 Q0.3906 -0.3281 0.4375 -0.25 Q0.4531 -0.2188 0.4531 -0.1719 Q0.4531 -0.0938 0.3906 -0.0312 Q0.3281 0.0156 0.25 0.0156 Q0.1406 0.0156 0.0781 -0.0312 Q0.0469 -0.0781 0.0469 -0.1406 Q0.0469 -0.1875 0.0781 -0.1875 Q0.0938 -0.1875 0.0938 -0.1875 Q0.1406 -0.1875 0.1562 -0.1562 Q0.1562 -0.1406 0.1562 -0.1406 Q0.1562 -0.0938 0.125 -0.0781 Q0.1094 -0.0781 0.0938 -0.0781 Q0.125 -0.0156 0.2188 -0.0156 Q0.2344 0 0.2344 0 Q0.3125 0 0.3281 -0.0625 Q0.3594 -0.1094 0.3594 -0.1719 Q0.3594 -0.2969 0.2812 -0.3281 Q0.25 -0.3438 0.2344 -0.3438 L0.1875 -0.3438 Q0.1719 -0.3438 0.1719 -0.3438 Q0.1719 -0.3594 0.1875 -0.3594 Q0.2031 -0.3594 0.2188 -0.3594 Q0.2656 -0.3594 0.2969 -0.4062 L0.2969 -0.4062 L0.2969 -0.4062 L0.2969 -0.4062 L0.2969 -0.4062 L0.3125 -0.4219 Q0.3438 -0.4688 0.3438 -0.5312 Q0.3438 -0.625 0.2656 -0.6406 Q0.25 -0.6406 0.2344 -0.6406 Q0.1719 -0.6406 0.125 -0.5938 Q0.1094 -0.5938 0.1094 -0.5781 Q0.1719 -0.5781 0.1719 -0.5312 Q0.1719 -0.5 0.1406 -0.4844 Q0.125 -0.4844 0.125 -0.4844 Q0.0781 -0.4844 0.0781 -0.5156 L0.0781 -0.5156 L0.0781 -0.5156 Q0.0625 -0.5156 0.0625 -0.5312 Q0.0625 -0.5938 0.1406 -0.6406 Q0.1875 -0.6719 0.25 -0.6719 Q0.3438 -0.6719 0.3906 -0.6094 L0.3906 -0.6094 Q0.4375 -0.5781 0.4375 -0.5312 Q0.4375 -0.4375 0.3594 -0.3906 Q0.3281 -0.3594 0.2969 -0.3594 Z"
    /></g
    ><g transform="matrix(20,0,0,20,0,0) translate(5.2903,0.6511) scale(0.7,0.7)" style="font-size:1; text-rendering:geometricPrecision; color-rendering:optimizeQuality; image-rendering:optimizeQuality; font-family:&apos;jlm_cmr10&apos;; color-interpolation:linearRGB;"
    ><path style="stroke:none;" d="M0.0312 -0.1719 L0.0312 -0.2031 L0.3281 -0.6719 Q0.3438 -0.6719 0.3594 -0.6719 Q0.375 -0.6719 0.375 -0.6719 L0.375 -0.6562 L0.375 -0.2031 L0.4688 -0.2031 L0.4688 -0.1719 L0.375 -0.1719 L0.375 -0.0781 Q0.375 -0.0469 0.3906 -0.0469 Q0.3906 -0.0312 0.4531 -0.0312 L0.4688 -0.0312 L0.4688 0 Q0.4219 0 0.3281 0 Q0.2344 0 0.2031 0 L0.2031 -0.0312 L0.2188 -0.0312 Q0.2812 -0.0312 0.2969 -0.0469 Q0.2969 -0.0625 0.2969 -0.0781 L0.2969 -0.1719 L0.0312 -0.1719 ZM0.2969 -0.2031 L0.2969 -0.5625 L0.0625 -0.2031 L0.2969 -0.2031 Z"
    /></g
    ><g transform="matrix(20,0,0,20,0,0) translate(4.8963,1.3112) scale(0.7,0.7)" style="font-size:1; text-rendering:geometricPrecision; color-rendering:optimizeQuality; image-rendering:optimizeQuality; font-family:&apos;jlm_cmr10&apos;; color-interpolation:linearRGB;"
    ><path style="stroke:none;" d="M0.2969 -0.6406 L0.2969 -0.0781 Q0.2969 -0.0469 0.3125 -0.0469 Q0.3281 -0.0312 0.3906 -0.0312 L0.4219 -0.0312 L0.4219 0 Q0.3906 0 0.25 0 Q0.125 0 0.0938 0 L0.0938 -0.0312 L0.125 -0.0312 Q0.2031 -0.0312 0.2188 -0.0469 L0.2188 -0.0469 Q0.2188 -0.0625 0.2188 -0.0781 L0.2188 -0.5938 Q0.1719 -0.5781 0.0938 -0.5781 L0.0938 -0.6094 Q0.2031 -0.6094 0.2656 -0.6719 Q0.2969 -0.6719 0.2969 -0.6562 L0.2969 -0.6562 L0.2969 -0.6562 Q0.2969 -0.6562 0.2969 -0.6406 Z"
    /></g
    ><g transform="matrix(20,0,0,20,0,0) translate(5.2463,1.3112) scale(0.7,0.7)" style="font-size:1; text-rendering:geometricPrecision; color-rendering:optimizeQuality; image-rendering:optimizeQuality; font-family:&apos;jlm_cmr10&apos;; color-interpolation:linearRGB;"
    ><path style="stroke:none;" d="M0.4531 -0.1719 L0.4531 -0.1719 L0.4219 0 L0.0469 0 Q0.0469 -0.0312 0.0625 -0.0312 L0.0625 -0.0312 L0.25 -0.25 Q0.3594 -0.375 0.3594 -0.4688 Q0.3594 -0.5625 0.2969 -0.6094 L0.2969 -0.6094 L0.2969 -0.6094 Q0.2656 -0.6406 0.2188 -0.6406 Q0.1562 -0.6406 0.1094 -0.5781 Q0.0938 -0.5625 0.0938 -0.5312 Q0.0938 -0.5312 0.1094 -0.5312 Q0.1406 -0.5312 0.1562 -0.5 L0.1562 -0.5 Q0.1562 -0.4844 0.1562 -0.4844 Q0.1562 -0.4375 0.1094 -0.4375 Q0.1094 -0.4219 0.1094 -0.4219 Q0.0625 -0.4219 0.0469 -0.4531 Q0.0469 -0.4688 0.0469 -0.4844 Q0.0469 -0.5625 0.1094 -0.6094 Q0.1562 -0.6719 0.2344 -0.6719 Q0.3438 -0.6719 0.4062 -0.5938 Q0.4375 -0.5469 0.4531 -0.4844 Q0.4531 -0.4844 0.4531 -0.4688 Q0.4531 -0.4062 0.3906 -0.3281 Q0.3594 -0.2969 0.2969 -0.25 L0.25 -0.1875 L0.2344 -0.1875 L0.125 -0.0781 L0.3125 -0.0781 Q0.3906 -0.0781 0.4062 -0.0781 Q0.4062 -0.0938 0.4219 -0.1719 L0.4531 -0.1719 Z"
    /></g
  ></g
></svg
>
<line style="stroke: #A80036; stroke-width: 1.5;" x1="79" x2="79" y1="87" y2="121.1323"/><polygon fill="#A80036" points="75,111.1323,79,121.1323,83,111.1323,79,115.1323" style="stroke: #A80036; stroke-width: 1.0;"/><!--
@startuml
:<math>int_0^1f(x)dx</math>;
:<math>x^2+y_1+z_12^34</math>;
note right
Try also
<math>d/dxf(x)=lim_(h->0)(f(x+h)-f(x))/h</math>
<latex>P(y|\mathbf{x}) \mbox{ or } f(\mathbf{x})+\epsilon</latex>
end note
@enduml

PlantUML version 1.2018.02(Fri Mar 09 17:20:44 UTC 2018)
(GPL source distribution)
Java Runtime: Java(TM) SE Runtime Environment
JVM: Java HotSpot(TM) 64-Bit Server VM
Java Version: 1.7.0_25-b15
Operating System: Linux
Default Encoding: UTF-8
Language: en
Country: US
--></g></svg>