<svg xmlns="http://www.w3.org/2000/svg" xmlns:xlink="http://www.w3.org/1999/xlink" width="336" height="208" contentScriptType="application/ecmascript" contentStyleType="text/css" preserveAspectRatio="none" version="1.1" viewBox="0 0 336 208" zoomAndPan="magnify" style="width:336px;height:208px"><defs><filter id="f1q98k1zvc67aq" width="300%" height="300%" x="-1" y="-1"><feGaussianBlur result="blurOut" stdDeviation="2"/><feColorMatrix in="blurOut" result="blurOut2" type="matrix" values="0 0 0 0 0 0 0 0 0 0 0 0 0 0 0 0 0 0 .4 0"/><feOffset dx="4" dy="4" in="blurOut2" result="blurOut3"/><feBlend in="SourceGraphic" in2="blurOut3" mode="normal"/></filter></defs><g><line x1="31" x2="31" y1="38.297" y2="168.297" stroke="#A80036" stroke-dasharray="5 5" stroke-width="1"/><line x1="304" x2="304" y1="38.297" y2="168.297" stroke="#A80036" stroke-dasharray="5 5" stroke-width="1"/><rect width="42" height="30.297" x="8" y="3" fill="#FEFECE" stroke="#A80036" stroke-width="1.5" filter="url(#f1q98k1zvc67aq)"/><text x="15" y="22.995" fill="#000" font-family="sans-serif" font-size="14" lengthAdjust="spacingAndGlyphs" textLength="28">Bob</text><rect width="42" height="30.297" x="8" y="167.297" fill="#FEFECE" stroke="#A80036" stroke-width="1.5" filter="url(#f1q98k1zvc67aq)"/><text x="15" y="187.292" fill="#000" font-family="sans-serif" font-size="14" lengthAdjust="spacingAndGlyphs" textLength="28">Bob</text><rect width="46" height="30.297" x="279" y="3" fill="#FEFECE" stroke="#A80036" stroke-width="1.5" filter="url(#f1q98k1zvc67aq)"/><text x="286" y="22.995" fill="#000" font-family="sans-serif" font-size="14" lengthAdjust="spacingAndGlyphs" textLength="32">Alice</text><rect width="46" height="30.297" x="279" y="167.297" fill="#FEFECE" stroke="#A80036" stroke-width="1.5" filter="url(#f1q98k1zvc67aq)"/><text x="286" y="187.292" fill="#000" font-family="sans-serif" font-size="14" lengthAdjust="spacingAndGlyphs" textLength="32">Alice</text><polygon fill="#A80036" stroke="#A80036" stroke-width="1" points="292 78.297 302 82.297 292 86.297 296 82.297"/><line x1="31" x2="298" y1="82.297" y2="82.297" stroke="#A80036" stroke-width="1"/><text x="38" y="77.231" fill="#000" font-family="sans-serif" font-size="13" lengthAdjust="spacingAndGlyphs" textLength="93">Can you solve:</text><svg x="135" y="52.297"><g><g color-interpolation="linearRGB" color-rendering="optimizeQuality" font-family="jlm_cmmi10" font-size="1" image-rendering="optimizeQuality" text-rendering="geometricPrecision"><path stroke="none" d="M0.375 -0.375 Q0.375 -0.4062 0.4062 -0.4219 Q0.4062 -0.4219 0.4219 -0.4219 Q0.4375 -0.4219 0.4375 -0.3906 Q0.4375 -0.3906 0.4375 -0.3594 L0.4062 -0.2188 Q0.3906 -0.1562 0.375 -0.125 Q0.3594 -0.0781 0.3594 -0.0625 Q0.3594 -0.0156 0.3906 -0.0156 Q0.4375 -0.0156 0.4531 -0.0938 Q0.4688 -0.1094 0.4688 -0.1406 Q0.4844 -0.1562 0.4844 -0.1562 Q0.5 -0.1562 0.5 -0.1406 Q0.5 -0.125 0.4844 -0.0781 Q0.4688 -0.0625 0.4688 -0.0469 Q0.4375 0.0156 0.3906 0.0156 Q0.3438 0.0156 0.3125 -0.0312 Q0.3125 -0.0469 0.2969 -0.0625 Q0.2344 0.0156 0.1719 0.0156 Q0.0938 0.0156 0.0625 -0.0625 Q0.0469 -0.0938 0.0469 -0.1562 Q0.0469 -0.25 0.1094 -0.3438 Q0.1875 -0.4375 0.2656 -0.4375 Q0.2812 -0.4375 0.2812 -0.4375 Q0.3438 -0.4375 0.375 -0.375 ZM0.3125 -0.125 L0.3125 -0.125 L0.3594 -0.3125 Q0.3594 -0.3281 0.3594 -0.3281 Q0.3594 -0.3594 0.3438 -0.3906 Q0.3281 -0.4219 0.2812 -0.4219 Q0.2344 -0.4219 0.1875 -0.3594 Q0.1719 -0.3438 0.1719 -0.3281 Q0.1406 -0.2656 0.1094 -0.1562 Q0.1094 -0.125 0.1094 -0.1094 Q0.1094 -0.0312 0.1562 -0.0156 Q0.1562 -0.0156 0.1719 -0.0156 Q0.2344 -0.0156 0.2812 -0.0781 Q0.2969 -0.0938 0.3125 -0.1094 L0.3125 -0.1094 Q0.3125 -0.125 0.3125 -0.125 Z" transform="scale(20,20) translate(0.2,1.064)"/></g><g color-interpolation="linearRGB" color-rendering="optimizeQuality" font-family="jlm_cmmi10" font-size="1" image-rendering="optimizeQuality" text-rendering="geometricPrecision"><path stroke="none" d="M0.3281 -0.2969 L0.2969 -0.1719 Q0.2812 -0.0938 0.2812 -0.0781 Q0.2812 -0.0312 0.3125 -0.0156 Q0.3281 -0.0156 0.3438 -0.0156 Q0.3906 -0.0156 0.4219 -0.0625 Q0.4531 -0.0938 0.4688 -0.1406 Q0.4688 -0.1562 0.4844 -0.1562 Q0.5 -0.1562 0.5 -0.1406 Q0.5 -0.125 0.4688 -0.0781 Q0.4062 0.0156 0.3438 0.0156 Q0.2656 0.0156 0.2344 -0.0469 Q0.2344 -0.0625 0.2344 -0.0625 Q0.2031 -0.0156 0.1562 0 Q0.1406 0.0156 0.125 0.0156 Q0.0625 0.0156 0.0312 -0.0312 Q0.0312 -0.0312 0.0312 -0.0625 Q0.0312 -0.0938 0.0625 -0.1094 Q0.0781 -0.1094 0.0781 -0.1094 Q0.1094 -0.1094 0.125 -0.0938 Q0.125 -0.0781 0.125 -0.0781 Q0.125 -0.0469 0.0938 -0.0312 Q0.0781 -0.0312 0.0781 -0.0312 Q0.0938 -0.0156 0.125 -0.0156 Q0.1719 -0.0156 0.2031 -0.0781 Q0.2188 -0.0938 0.2188 -0.1094 Q0.2656 -0.3125 0.2656 -0.3594 Q0.2656 -0.4219 0.2188 -0.4219 Q0.1719 -0.4219 0.125 -0.3594 L0.125 -0.3594 Q0.125 -0.3594 0.125 -0.3594 Q0.1094 -0.3438 0.0938 -0.3125 Q0.0938 -0.3125 0.0938 -0.2969 L0.0781 -0.2812 Q0.0781 -0.2812 0.0781 -0.2812 Q0.0625 -0.2812 0.0625 -0.2812 Q0.0625 -0.3125 0.0938 -0.3594 Q0.1406 -0.4375 0.2188 -0.4375 Q0.2969 -0.4375 0.3281 -0.3594 Q0.3594 -0.4219 0.4062 -0.4375 Q0.4219 -0.4375 0.4375 -0.4375 Q0.5 -0.4375 0.5156 -0.4062 Q0.5312 -0.3906 0.5312 -0.375 Q0.5312 -0.3281 0.4844 -0.3281 Q0.4844 -0.3125 0.4688 -0.3125 Q0.4375 -0.3125 0.4375 -0.3438 Q0.4375 -0.3438 0.4375 -0.3594 Q0.4375 -0.3906 0.4688 -0.4062 Q0.4688 -0.4062 0.4844 -0.4062 Q0.4688 -0.4219 0.4375 -0.4219 Q0.3594 -0.4219 0.3438 -0.3125 Q0.3281 -0.3125 0.3281 -0.2969 Z" transform="matrix(20,0,0,20,0,0) translate(0.7286,1.064)"/></g><g color-interpolation="linearRGB" color-rendering="optimizeQuality" font-family="jlm_cmr10" font-size="1" image-rendering="optimizeQuality" text-rendering="geometricPrecision"><path stroke="none" d="M0.4531 -0.1719 L0.4531 -0.1719 L0.4219 0 L0.0469 0 Q0.0469 -0.0312 0.0625 -0.0312 L0.0625 -0.0312 L0.25 -0.25 Q0.3594 -0.375 0.3594 -0.4688 Q0.3594 -0.5625 0.2969 -0.6094 L0.2969 -0.6094 L0.2969 -0.6094 Q0.2656 -0.6406 0.2188 -0.6406 Q0.1562 -0.6406 0.1094 -0.5781 Q0.0938 -0.5625 0.0938 -0.5312 Q0.0938 -0.5312 0.1094 -0.5312 Q0.1406 -0.5312 0.1562 -0.5 L0.1562 -0.5 Q0.1562 -0.4844 0.1562 -0.4844 Q0.1562 -0.4375 0.1094 -0.4375 Q0.1094 -0.4219 0.1094 -0.4219 Q0.0625 -0.4219 0.0469 -0.4531 Q0.0469 -0.4688 0.0469 -0.4844 Q0.0469 -0.5625 0.1094 -0.6094 Q0.1562 -0.6719 0.2344 -0.6719 Q0.3438 -0.6719 0.4062 -0.5938 Q0.4375 -0.5469 0.4531 -0.4844 Q0.4531 -0.4844 0.4531 -0.4688 Q0.4531 -0.4062 0.3906 -0.3281 Q0.3594 -0.2969 0.2969 -0.25 L0.25 -0.1875 L0.2344 -0.1875 L0.125 -0.0781 L0.3125 -0.0781 Q0.3906 -0.0781 0.4062 -0.0781 Q0.4062 -0.0938 0.4219 -0.1719 L0.4531 -0.1719 Z" transform="matrix(20,0,0,20,0,0) translate(1.3001,0.6511) scale(0.7,0.7)"/></g><g color-interpolation="linearRGB" color-rendering="optimizeQuality" font-family="jlm_cmr10" font-size="1" image-rendering="optimizeQuality" text-rendering="geometricPrecision"><path stroke="none" d="M0.4062 -0.2344 L0.4062 0.0469 Q0.4062 0.0781 0.3906 0.0781 Q0.375 0.0781 0.375 0.0469 L0.375 -0.2344 L0.0938 -0.2344 Q0.0625 -0.2344 0.0625 -0.25 Q0.0625 -0.2656 0.0938 -0.2656 L0.375 -0.2656 L0.375 -0.5469 Q0.375 -0.5781 0.3906 -0.5781 Q0.4062 -0.5781 0.4062 -0.5469 L0.4062 -0.2656 L0.6875 -0.2656 Q0.7188 -0.2656 0.7188 -0.25 Q0.7188 -0.2344 0.6875 -0.2344 L0.4062 -0.2344 Z" transform="matrix(20,0,0,20,0,0) translate(1.8973,1.064)"/></g><g color-interpolation="linearRGB" color-rendering="optimizeQuality" font-family="jlm_cmmi10" font-size="1" image-rendering="optimizeQuality" text-rendering="geometricPrecision"><path stroke="none" d="M0.2344 -0.6875 L0.1719 -0.375 Q0.2188 -0.4375 0.2812 -0.4375 Q0.3594 -0.4375 0.3906 -0.375 Q0.4219 -0.3281 0.4219 -0.2812 Q0.4219 -0.1719 0.3438 -0.0781 Q0.2656 0 0.1875 0.0156 Q0.1875 0.0156 0.1719 0.0156 Q0.1094 0.0156 0.0625 -0.0625 Q0.0469 -0.0938 0.0469 -0.1406 Q0.0469 -0.1875 0.0625 -0.25 L0.1406 -0.5781 Q0.1562 -0.625 0.1562 -0.6406 Q0.1562 -0.6406 0.1406 -0.6562 L0.1406 -0.6562 Q0.1406 -0.6562 0.1094 -0.6562 Q0.0938 -0.6562 0.0781 -0.6562 Q0.0781 -0.6875 0.1094 -0.6875 L0.2188 -0.6875 Q0.2344 -0.6875 0.2344 -0.6875 ZM0.1406 -0.3125 L0.125 -0.2188 Q0.1094 -0.1562 0.1094 -0.1094 Q0.1094 -0.0312 0.1562 -0.0156 Q0.1719 -0.0156 0.1719 -0.0156 Q0.2344 -0.0156 0.2656 -0.0781 Q0.2812 -0.0938 0.2969 -0.1094 Q0.3125 -0.1719 0.3438 -0.2656 Q0.3438 -0.2969 0.3438 -0.3281 Q0.3438 -0.4062 0.2969 -0.4219 L0.2969 -0.4219 Q0.2812 -0.4219 0.2812 -0.4219 Q0.2188 -0.4219 0.1562 -0.3438 Q0.1562 -0.3281 0.1406 -0.3125 Z" transform="matrix(20,0,0,20,0,0) translate(2.8973,1.064)"/></g><g color-interpolation="linearRGB" color-rendering="optimizeQuality" font-family="jlm_cmmi10" font-size="1" image-rendering="optimizeQuality" text-rendering="geometricPrecision"><path stroke="none" d="M0.3281 -0.2969 L0.2969 -0.1719 Q0.2812 -0.0938 0.2812 -0.0781 Q0.2812 -0.0312 0.3125 -0.0156 Q0.3281 -0.0156 0.3438 -0.0156 Q0.3906 -0.0156 0.4219 -0.0625 Q0.4531 -0.0938 0.4688 -0.1406 Q0.4688 -0.1562 0.4844 -0.1562 Q0.5 -0.1562 0.5 -0.1406 Q0.5 -0.125 0.4688 -0.0781 Q0.4062 0.0156 0.3438 0.0156 Q0.2656 0.0156 0.2344 -0.0469 Q0.2344 -0.0625 0.2344 -0.0625 Q0.2031 -0.0156 0.1562 0 Q0.1406 0.0156 0.125 0.0156 Q0.0625 0.0156 0.0312 -0.0312 Q0.0312 -0.0312 0.0312 -0.0625 Q0.0312 -0.0938 0.0625 -0.1094 Q0.0781 -0.1094 0.0781 -0.1094 Q0.1094 -0.1094 0.125 -0.0938 Q0.125 -0.0781 0.125 -0.0781 Q0.125 -0.0469 0.0938 -0.0312 Q0.0781 -0.0312 0.0781 -0.0312 Q0.0938 -0.0156 0.125 -0.0156 Q0.1719 -0.0156 0.2031 -0.0781 Q0.2188 -0.0938 0.2188 -0.1094 Q0.2656 -0.3125 0.2656 -0.3594 Q0.2656 -0.4219 0.2188 -0.4219 Q0.1719 -0.4219 0.125 -0.3594 L0.125 -0.3594 Q0.125 -0.3594 0.125 -0.3594 Q0.1094 -0.3438 0.0938 -0.3125 Q0.0938 -0.3125 0.0938 -0.2969 L0.0781 -0.2812 Q0.0781 -0.2812 0.0781 -0.2812 Q0.0625 -0.2812 0.0625 -0.2812 Q0.0625 -0.3125 0.0938 -0.3594 Q0.1406 -0.4375 0.2188 -0.4375 Q0.2969 -0.4375 0.3281 -0.3594 Q0.3594 -0.4219 0.4062 -0.4375 Q0.4219 -0.4375 0.4375 -0.4375 Q0.5 -0.4375 0.5156 -0.4062 Q0.5312 -0.3906 0.5312 -0.375 Q0.5312 -0.3281 0.4844 -0.3281 Q0.4844 -0.3125 0.4688 -0.3125 Q0.4375 -0.3125 0.4375 -0.3438 Q0.4375 -0.3438 0.4375 -0.3594 Q0.4375 -0.3906 0.4688 -0.4062 Q0.4688 -0.4062 0.4844 -0.4062 Q0.4688 -0.4219 0.4375 -0.4219 Q0.3594 -0.4219 0.3438 -0.3125 Q0.3281 -0.3125 0.3281 -0.2969 Z" transform="matrix(20,0,0,20,0,0) translate(3.3265,1.064)"/></g><g color-interpolation="linearRGB" color-rendering="optimizeQuality" font-family="jlm_cmr10" font-size="1" image-rendering="optimizeQuality" text-rendering="geometricPrecision"><path stroke="none" d="M0.4062 -0.2344 L0.4062 0.0469 Q0.4062 0.0781 0.3906 0.0781 Q0.375 0.0781 0.375 0.0469 L0.375 -0.2344 L0.0938 -0.2344 Q0.0625 -0.2344 0.0625 -0.25 Q0.0625 -0.2656 0.0938 -0.2656 L0.375 -0.2656 L0.375 -0.5469 Q0.375 -0.5781 0.3906 -0.5781 Q0.4062 -0.5781 0.4062 -0.5469 L0.4062 -0.2656 L0.6875 -0.2656 Q0.7188 -0.2656 0.7188 -0.25 Q0.7188 -0.2344 0.6875 -0.2344 L0.4062 -0.2344 Z" transform="matrix(20,0,0,20,0,0) translate(4.1203,1.064)"/></g><g color-interpolation="linearRGB" color-rendering="optimizeQuality" font-family="jlm_cmmi10" font-size="1" image-rendering="optimizeQuality" text-rendering="geometricPrecision"><path stroke="none" d="M0.3906 -0.375 L0.3906 -0.375 Q0.375 -0.4219 0.3125 -0.4219 Q0.25 -0.4219 0.1875 -0.3594 Q0.1719 -0.3438 0.1719 -0.3125 Q0.125 -0.25 0.1094 -0.1406 Q0.1094 -0.125 0.1094 -0.125 Q0.1094 -0.0312 0.1719 -0.0156 Q0.1875 -0.0156 0.2031 -0.0156 Q0.2969 -0.0156 0.3594 -0.0781 Q0.3906 -0.0938 0.4062 -0.1094 Q0.4062 -0.125 0.4219 -0.125 Q0.4219 -0.125 0.4375 -0.1094 Q0.4375 -0.0938 0.3906 -0.0625 Q0.3125 0.0156 0.2031 0.0156 Q0.1094 0.0156 0.0625 -0.0625 Q0.0469 -0.1094 0.0469 -0.1562 Q0.0469 -0.2656 0.125 -0.3438 Q0.2031 -0.4375 0.2969 -0.4375 Q0.2969 -0.4375 0.3125 -0.4375 Q0.3906 -0.4375 0.4219 -0.3906 Q0.4219 -0.375 0.4219 -0.3594 Q0.4219 -0.3125 0.3906 -0.2969 Q0.375 -0.2969 0.375 -0.2969 Q0.3438 -0.2969 0.3281 -0.3125 Q0.3281 -0.3281 0.3281 -0.3281 Q0.3281 -0.3438 0.3594 -0.3594 Q0.3594 -0.375 0.3906 -0.375 Z" transform="matrix(20,0,0,20,0,0) translate(5.1203,1.064)"/></g><g color-interpolation="linearRGB" color-rendering="optimizeQuality" font-family="jlm_cmr10" font-size="1" image-rendering="optimizeQuality" text-rendering="geometricPrecision"><path stroke="none" d="M0.6875 -0.3281 L0.0938 -0.3281 Q0.0625 -0.3281 0.0625 -0.3438 Q0.0625 -0.3594 0.0938 -0.3594 L0.6875 -0.3594 Q0.7188 -0.3594 0.7188 -0.3438 Q0.7188 -0.3281 0.6875 -0.3281 ZM0.6875 -0.1406 L0.0938 -0.1406 Q0.0625 -0.1406 0.0625 -0.1562 Q0.0625 -0.1719 0.0938 -0.1719 L0.6875 -0.1719 Q0.7188 -0.1719 0.7188 -0.1562 Q0.7188 -0.1406 0.6875 -0.1406 Z" transform="matrix(20,0,0,20,0,0) translate(5.8308,1.064)"/></g><g color-interpolation="linearRGB" color-rendering="optimizeQuality" font-family="jlm_cmr10" font-size="1" image-rendering="optimizeQuality" text-rendering="geometricPrecision"><path stroke="none" d="M0.4531 -0.3125 Q0.4531 -0.1719 0.4219 -0.0938 Q0.3594 0.0156 0.25 0.0156 Q0.1562 0.0156 0.1094 -0.0469 Q0.0938 -0.0625 0.0781 -0.0781 Q0.0312 -0.1562 0.0312 -0.3125 Q0.0312 -0.4688 0.0781 -0.5469 Q0.125 -0.6562 0.2344 -0.6719 L0.25 -0.6719 Q0.3438 -0.6719 0.3906 -0.5938 L0.3906 -0.5938 Q0.4062 -0.5781 0.4219 -0.5469 Q0.4531 -0.4688 0.4531 -0.3125 ZM0.25 0 L0.25 0 Q0.3125 0 0.3438 -0.0625 Q0.3594 -0.0938 0.3594 -0.125 Q0.375 -0.1875 0.375 -0.3281 Q0.375 -0.4688 0.3594 -0.5312 Q0.3438 -0.625 0.2812 -0.6406 Q0.2656 -0.6406 0.25 -0.6406 Q0.1719 -0.6406 0.1406 -0.5781 Q0.1406 -0.5469 0.125 -0.5156 Q0.125 -0.4688 0.125 -0.3281 Q0.125 -0.1875 0.1406 -0.125 Q0.1562 -0.0312 0.2188 0 Q0.2344 0 0.25 0 Z" transform="matrix(20,0,0,20,0,0) translate(6.8864,1.064)"/></g></g></svg><polygon fill="#A80036" stroke="#A80036" stroke-width="1" points="42 146.297 32 150.297 42 154.297 38 150.297"/><line x1="36" x2="303" y1="150.297" y2="150.297" stroke="#A80036" stroke-dasharray="2 2" stroke-width="1"/><svg x="48" y="94.297"><g><g color-interpolation="linearRGB" color-rendering="optimizeQuality" font-family="jlm_cmmi10" font-size="1" image-rendering="optimizeQuality" text-rendering="geometricPrecision"><path stroke="none" d="M0.3281 -0.2969 L0.2969 -0.1719 Q0.2812 -0.0938 0.2812 -0.0781 Q0.2812 -0.0312 0.3125 -0.0156 Q0.3281 -0.0156 0.3438 -0.0156 Q0.3906 -0.0156 0.4219 -0.0625 Q0.4531 -0.0938 0.4688 -0.1406 Q0.4688 -0.1562 0.4844 -0.1562 Q0.5 -0.1562 0.5 -0.1406 Q0.5 -0.125 0.4688 -0.0781 Q0.4062 0.0156 0.3438 0.0156 Q0.2656 0.0156 0.2344 -0.0469 Q0.2344 -0.0625 0.2344 -0.0625 Q0.2031 -0.0156 0.1562 0 Q0.1406 0.0156 0.125 0.0156 Q0.0625 0.0156 0.0312 -0.0312 Q0.0312 -0.0312 0.0312 -0.0625 Q0.0312 -0.0938 0.0625 -0.1094 Q0.0781 -0.1094 0.0781 -0.1094 Q0.1094 -0.1094 0.125 -0.0938 Q0.125 -0.0781 0.125 -0.0781 Q0.125 -0.0469 0.0938 -0.0312 Q0.0781 -0.0312 0.0781 -0.0312 Q0.0938 -0.0156 0.125 -0.0156 Q0.1719 -0.0156 0.2031 -0.0781 Q0.2188 -0.0938 0.2188 -0.1094 Q0.2656 -0.3125 0.2656 -0.3594 Q0.2656 -0.4219 0.2188 -0.4219 Q0.1719 -0.4219 0.125 -0.3594 L0.125 -0.3594 Q0.125 -0.3594 0.125 -0.3594 Q0.1094 -0.3438 0.0938 -0.3125 Q0.0938 -0.3125 0.0938 -0.2969 L0.0781 -0.2812 Q0.0781 -0.2812 0.0781 -0.2812 Q0.0625 -0.2812 0.0625 -0.2812 Q0.0625 -0.3125 0.0938 -0.3594 Q0.1406 -0.4375 0.2188 -0.4375 Q0.2969 -0.4375 0.3281 -0.3594 Q0.3594 -0.4219 0.4062 -0.4375 Q0.4219 -0.4375 0.4375 -0.4375 Q0.5 -0.4375 0.5156 -0.4062 Q0.5312 -0.3906 0.5312 -0.375 Q0.5312 -0.3281 0.4844 -0.3281 Q0.4844 -0.3125 0.4688 -0.3125 Q0.4375 -0.3125 0.4375 -0.3438 Q0.4375 -0.3438 0.4375 -0.3594 Q0.4375 -0.3906 0.4688 -0.4062 Q0.4688 -0.4062 0.4844 -0.4062 Q0.4688 -0.4219 0.4375 -0.4219 Q0.3594 -0.4219 0.3438 -0.3125 Q0.3281 -0.3125 0.3281 -0.2969 Z" transform="scale(20,20) translate(0.2,1.7898)"/></g><g color-interpolation="linearRGB" color-rendering="optimizeQuality" font-family="jlm_cmr10" font-size="1" image-rendering="optimizeQuality" text-rendering="geometricPrecision"><path stroke="none" d="M0.6875 -0.3281 L0.0938 -0.3281 Q0.0625 -0.3281 0.0625 -0.3438 Q0.0625 -0.3594 0.0938 -0.3594 L0.6875 -0.3594 Q0.7188 -0.3594 0.7188 -0.3438 Q0.7188 -0.3281 0.6875 -0.3281 ZM0.6875 -0.1406 L0.0938 -0.1406 Q0.0625 -0.1406 0.0625 -0.1562 Q0.0625 -0.1719 0.0938 -0.1719 L0.6875 -0.1719 Q0.7188 -0.1719 0.7188 -0.1562 Q0.7188 -0.1406 0.6875 -0.1406 Z" transform="matrix(20,0,0,20,0,0) translate(1.0493,1.7898)"/></g><g color-interpolation="linearRGB" color-rendering="optimizeQuality" font-family="jlm_cmsy10" font-size="1" image-rendering="optimizeQuality" text-rendering="geometricPrecision"><path stroke="none" d="M0.6562 -0.2344 L0.1094 -0.2344 Q0.0781 -0.2344 0.0781 -0.25 Q0.0781 -0.2656 0.1094 -0.2656 L0.6562 -0.2656 Q0.6875 -0.2656 0.6875 -0.25 Q0.6875 -0.2344 0.6562 -0.2344 Z" transform="matrix(20,0,0,20,0,0) translate(2.2249,1.1133)"/></g><g color-interpolation="linearRGB" color-rendering="optimizeQuality" font-family="jlm_cmmi10" font-size="1" image-rendering="optimizeQuality" text-rendering="geometricPrecision"><path stroke="none" d="M0.2344 -0.6875 L0.1719 -0.375 Q0.2188 -0.4375 0.2812 -0.4375 Q0.3594 -0.4375 0.3906 -0.375 Q0.4219 -0.3281 0.4219 -0.2812 Q0.4219 -0.1719 0.3438 -0.0781 Q0.2656 0 0.1875 0.0156 Q0.1875 0.0156 0.1719 0.0156 Q0.1094 0.0156 0.0625 -0.0625 Q0.0469 -0.0938 0.0469 -0.1406 Q0.0469 -0.1875 0.0625 -0.25 L0.1406 -0.5781 Q0.1562 -0.625 0.1562 -0.6406 Q0.1562 -0.6406 0.1406 -0.6562 L0.1406 -0.6562 Q0.1406 -0.6562 0.1094 -0.6562 Q0.0938 -0.6562 0.0781 -0.6562 Q0.0781 -0.6875 0.1094 -0.6875 L0.2188 -0.6875 Q0.2344 -0.6875 0.2344 -0.6875 ZM0.1406 -0.3125 L0.125 -0.2188 Q0.1094 -0.1562 0.1094 -0.1094 Q0.1094 -0.0312 0.1562 -0.0156 Q0.1719 -0.0156 0.1719 -0.0156 Q0.2344 -0.0156 0.2656 -0.0781 Q0.2812 -0.0938 0.2969 -0.1094 Q0.3125 -0.1719 0.3438 -0.2656 Q0.3438 -0.2969 0.3438 -0.3281 Q0.3438 -0.4062 0.2969 -0.4219 L0.2969 -0.4219 Q0.2812 -0.4219 0.2812 -0.4219 Q0.2188 -0.4219 0.1562 -0.3438 Q0.1562 -0.3281 0.1406 -0.3125 Z" transform="matrix(20,0,0,20,0,0) translate(3.0026,1.1133)"/></g><g color-interpolation="linearRGB" color-rendering="optimizeQuality" font-family="jlm_cmsy10" font-size="1" image-rendering="optimizeQuality" text-rendering="geometricPrecision"><path stroke="none" d="M0.4062 -0.3125 L0.4062 -0.0469 L0.6875 -0.0469 Q0.7188 -0.0469 0.7188 -0.0156 Q0.7188 0 0.6875 0 L0.0938 0 Q0.0625 0 0.0625 -0.0156 Q0.0625 -0.0469 0.0938 -0.0469 L0.375 -0.0469 L0.375 -0.3125 L0.0938 -0.3125 Q0.0625 -0.3125 0.0625 -0.3281 Q0.0625 -0.3594 0.0938 -0.3594 L0.375 -0.3594 L0.375 -0.6406 Q0.375 -0.6562 0.3906 -0.6719 Q0.4062 -0.6719 0.4062 -0.625 L0.4062 -0.3594 L0.6875 -0.3594 Q0.7188 -0.3594 0.7188 -0.3281 Q0.7188 -0.3125 0.6875 -0.3125 L0.4062 -0.3125 Z" transform="matrix(20,0,0,20,0,0) translate(3.654,1.1133)"/></g><g color-interpolation="linearRGB" color-rendering="optimizeQuality" font-family="jlm_cmsy10" font-size="1" image-rendering="optimizeQuality" text-rendering="geometricPrecision"><path stroke="none" d="M0.3906 0.8594 L0.8125 -0.0156 Q0.8281 -0.0312 0.8281 -0.0469 Q0.8438 -0.0469 0.8594 -0.0156 Q0.8594 -0.0156 0.8438 0 L0.3906 0.9375 Q0.3906 0.9531 0.375 0.9531 Q0.375 0.9531 0.3594 0.9531 Q0.3594 0.9531 0.3438 0.9531 L0.3438 0.9375 L0.1562 0.5156 L0.0938 0.5469 Q0.0938 0.5625 0.0781 0.5625 Q0.0781 0.5625 0.0781 0.5469 Q0.0781 0.5469 0.0781 0.5312 L0.1875 0.4531 Q0.1875 0.4531 0.2031 0.4531 Q0.2031 0.4531 0.2188 0.4688 L0.3906 0.8594 Z" transform="matrix(20,0,0,20,0,0) translate(4.654,0.28)"/></g><g color-interpolation="linearRGB" color-rendering="optimizeQuality" font-family="jlm_cmsy10" font-size="1" image-rendering="optimizeQuality" text-rendering="geometricPrecision" transform="matrix(20,0,0,20,0,0)"><rect width="3.543" height=".04" x="5.487" y=".24" stroke="none"/><path stroke="none" d="M0.2344 -0.6875 L0.1719 -0.375 Q0.2188 -0.4375 0.2812 -0.4375 Q0.3594 -0.4375 0.3906 -0.375 Q0.4219 -0.3281 0.4219 -0.2812 Q0.4219 -0.1719 0.3438 -0.0781 Q0.2656 0 0.1875 0.0156 Q0.1875 0.0156 0.1719 0.0156 Q0.1094 0.0156 0.0625 -0.0625 Q0.0469 -0.0938 0.0469 -0.1406 Q0.0469 -0.1875 0.0625 -0.25 L0.1406 -0.5781 Q0.1562 -0.625 0.1562 -0.6406 Q0.1562 -0.6406 0.1406 -0.6562 L0.1406 -0.6562 Q0.1406 -0.6562 0.1094 -0.6562 Q0.0938 -0.6562 0.0781 -0.6562 Q0.0781 -0.6875 0.1094 -0.6875 L0.2188 -0.6875 Q0.2344 -0.6875 0.2344 -0.6875 ZM0.1406 -0.3125 L0.125 -0.2188 Q0.1094 -0.1562 0.1094 -0.1094 Q0.1094 -0.0312 0.1562 -0.0156 Q0.1719 -0.0156 0.1719 -0.0156 Q0.2344 -0.0156 0.2656 -0.0781 Q0.2812 -0.0938 0.2969 -0.1094 Q0.3125 -0.1719 0.3438 -0.2656 Q0.3438 -0.2969 0.3438 -0.3281 Q0.3438 -0.4062 0.2969 -0.4219 L0.2969 -0.4219 Q0.2812 -0.4219 0.2812 -0.4219 Q0.2188 -0.4219 0.1562 -0.3438 Q0.1562 -0.3281 0.1406 -0.3125 Z" transform="translate(5.4874,1.1133)"/></g><g color-interpolation="linearRGB" color-rendering="optimizeQuality" font-family="jlm_cmr10" font-size="1" image-rendering="optimizeQuality" text-rendering="geometricPrecision"><path stroke="none" d="M0.4531 -0.1719 L0.4531 -0.1719 L0.4219 0 L0.0469 0 Q0.0469 -0.0312 0.0625 -0.0312 L0.0625 -0.0312 L0.25 -0.25 Q0.3594 -0.375 0.3594 -0.4688 Q0.3594 -0.5625 0.2969 -0.6094 L0.2969 -0.6094 L0.2969 -0.6094 Q0.2656 -0.6406 0.2188 -0.6406 Q0.1562 -0.6406 0.1094 -0.5781 Q0.0938 -0.5625 0.0938 -0.5312 Q0.0938 -0.5312 0.1094 -0.5312 Q0.1406 -0.5312 0.1562 -0.5 L0.1562 -0.5 Q0.1562 -0.4844 0.1562 -0.4844 Q0.1562 -0.4375 0.1094 -0.4375 Q0.1094 -0.4219 0.1094 -0.4219 Q0.0625 -0.4219 0.0469 -0.4531 Q0.0469 -0.4688 0.0469 -0.4844 Q0.0469 -0.5625 0.1094 -0.6094 Q0.1562 -0.6719 0.2344 -0.6719 Q0.3438 -0.6719 0.4062 -0.5938 Q0.4375 -0.5469 0.4531 -0.4844 Q0.4531 -0.4844 0.4531 -0.4688 Q0.4531 -0.4062 0.3906 -0.3281 Q0.3594 -0.2969 0.2969 -0.25 L0.25 -0.1875 L0.2344 -0.1875 L0.125 -0.0781 L0.3125 -0.0781 Q0.3906 -0.0781 0.4062 -0.0781 Q0.4062 -0.0938 0.4219 -0.1719 L0.4531 -0.1719 Z" transform="matrix(20,0,0,20,0,0) translate(5.9165,0.8244) scale(0.7,0.7)"/></g><g color-interpolation="linearRGB" color-rendering="optimizeQuality" font-family="jlm_cmsy10" font-size="1" image-rendering="optimizeQuality" text-rendering="geometricPrecision"><path stroke="none" d="M0.6562 -0.2344 L0.1094 -0.2344 Q0.0781 -0.2344 0.0781 -0.25 Q0.0781 -0.2656 0.1094 -0.2656 L0.6562 -0.2656 Q0.6875 -0.2656 0.6875 -0.25 Q0.6875 -0.2344 0.6562 -0.2344 Z" transform="matrix(20,0,0,20,0,0) translate(6.5138,1.1133)"/></g><g color-interpolation="linearRGB" color-rendering="optimizeQuality" font-family="jlm_cmr10" font-size="1" image-rendering="optimizeQuality" text-rendering="geometricPrecision"><path stroke="none" d="M0.0312 -0.1719 L0.0312 -0.2031 L0.3281 -0.6719 Q0.3438 -0.6719 0.3594 -0.6719 Q0.375 -0.6719 0.375 -0.6719 L0.375 -0.6562 L0.375 -0.2031 L0.4688 -0.2031 L0.4688 -0.1719 L0.375 -0.1719 L0.375 -0.0781 Q0.375 -0.0469 0.3906 -0.0469 Q0.3906 -0.0312 0.4531 -0.0312 L0.4688 -0.0312 L0.4688 0 Q0.4219 0 0.3281 0 Q0.2344 0 0.2031 0 L0.2031 -0.0312 L0.2188 -0.0312 Q0.2812 -0.0312 0.2969 -0.0469 Q0.2969 -0.0625 0.2969 -0.0781 L0.2969 -0.1719 L0.0312 -0.1719 ZM0.2969 -0.2031 L0.2969 -0.5625 L0.0625 -0.2031 L0.2969 -0.2031 Z" transform="matrix(20,0,0,20,0,0) translate(7.5138,1.1133)"/></g><g color-interpolation="linearRGB" color-rendering="optimizeQuality" font-family="jlm_cmmi10" font-size="1" image-rendering="optimizeQuality" text-rendering="geometricPrecision"><path stroke="none" d="M0.375 -0.375 Q0.375 -0.4062 0.4062 -0.4219 Q0.4062 -0.4219 0.4219 -0.4219 Q0.4375 -0.4219 0.4375 -0.3906 Q0.4375 -0.3906 0.4375 -0.3594 L0.4062 -0.2188 Q0.3906 -0.1562 0.375 -0.125 Q0.3594 -0.0781 0.3594 -0.0625 Q0.3594 -0.0156 0.3906 -0.0156 Q0.4375 -0.0156 0.4531 -0.0938 Q0.4688 -0.1094 0.4688 -0.1406 Q0.4844 -0.1562 0.4844 -0.1562 Q0.5 -0.1562 0.5 -0.1406 Q0.5 -0.125 0.4844 -0.0781 Q0.4688 -0.0625 0.4688 -0.0469 Q0.4375 0.0156 0.3906 0.0156 Q0.3438 0.0156 0.3125 -0.0312 Q0.3125 -0.0469 0.2969 -0.0625 Q0.2344 0.0156 0.1719 0.0156 Q0.0938 0.0156 0.0625 -0.0625 Q0.0469 -0.0938 0.0469 -0.1562 Q0.0469 -0.25 0.1094 -0.3438 Q0.1875 -0.4375 0.2656 -0.4375 Q0.2812 -0.4375 0.2812 -0.4375 Q0.3438 -0.4375 0.375 -0.375 ZM0.3125 -0.125 L0.3125 -0.125 L0.3594 -0.3125 Q0.3594 -0.3281 0.3594 -0.3281 Q0.3594 -0.3594 0.3438 -0.3906 Q0.3281 -0.4219 0.2812 -0.4219 Q0.2344 -0.4219 0.1875 -0.3594 Q0.1719 -0.3438 0.1719 -0.3281 Q0.1406 -0.2656 0.1094 -0.1562 Q0.1094 -0.125 0.1094 -0.1094 Q0.1094 -0.0312 0.1562 -0.0156 Q0.1562 -0.0156 0.1719 -0.0156 Q0.2344 -0.0156 0.2812 -0.0781 Q0.2969 -0.0938 0.3125 -0.1094 L0.3125 -0.1094 Q0.3125 -0.125 0.3125 -0.125 Z" transform="matrix(20,0,0,20,0,0) translate(8.0138,1.1133)"/></g><g color-interpolation="linearRGB" color-rendering="optimizeQuality" font-family="jlm_cmmi10" font-size="1" image-rendering="optimizeQuality" text-rendering="geometricPrecision"><path stroke="none" d="M0.3906 -0.375 L0.3906 -0.375 Q0.375 -0.4219 0.3125 -0.4219 Q0.25 -0.4219 0.1875 -0.3594 Q0.1719 -0.3438 0.1719 -0.3125 Q0.125 -0.25 0.1094 -0.1406 Q0.1094 -0.125 0.1094 -0.125 Q0.1094 -0.0312 0.1719 -0.0156 Q0.1875 -0.0156 0.2031 -0.0156 Q0.2969 -0.0156 0.3594 -0.0781 Q0.3906 -0.0938 0.4062 -0.1094 Q0.4062 -0.125 0.4219 -0.125 Q0.4219 -0.125 0.4375 -0.1094 Q0.4375 -0.0938 0.3906 -0.0625 Q0.3125 0.0156 0.2031 0.0156 Q0.1094 0.0156 0.0625 -0.0625 Q0.0469 -0.1094 0.0469 -0.1562 Q0.0469 -0.2656 0.125 -0.3438 Q0.2031 -0.4375 0.2969 -0.4375 Q0.2969 -0.4375 0.3125 -0.4375 Q0.3906 -0.4375 0.4219 -0.3906 Q0.4219 -0.375 0.4219 -0.3594 Q0.4219 -0.3125 0.3906 -0.2969 Q0.375 -0.2969 0.375 -0.2969 Q0.3438 -0.2969 0.3281 -0.3125 Q0.3281 -0.3281 0.3281 -0.3281 Q0.3281 -0.3438 0.3594 -0.3594 Q0.3594 -0.375 0.3906 -0.375 Z" transform="matrix(20,0,0,20,0,0) translate(8.5424,1.1133)"/></g><g color-interpolation="linearRGB" color-rendering="optimizeQuality" font-family="jlm_cmmi10" font-size="1" image-rendering="optimizeQuality" text-rendering="geometricPrecision" transform="matrix(20,0,0,20,0,0)"><rect width="6.806" height=".04" x="2.225" y="1.52" stroke="none"/><path stroke="none" d="M0.4531 -0.1719 L0.4531 -0.1719 L0.4219 0 L0.0469 0 Q0.0469 -0.0312 0.0625 -0.0312 L0.0625 -0.0312 L0.25 -0.25 Q0.3594 -0.375 0.3594 -0.4688 Q0.3594 -0.5625 0.2969 -0.6094 L0.2969 -0.6094 L0.2969 -0.6094 Q0.2656 -0.6406 0.2188 -0.6406 Q0.1562 -0.6406 0.1094 -0.5781 Q0.0938 -0.5625 0.0938 -0.5312 Q0.0938 -0.5312 0.1094 -0.5312 Q0.1406 -0.5312 0.1562 -0.5 L0.1562 -0.5 Q0.1562 -0.4844 0.1562 -0.4844 Q0.1562 -0.4375 0.1094 -0.4375 Q0.1094 -0.4219 0.1094 -0.4219 Q0.0625 -0.4219 0.0469 -0.4531 Q0.0469 -0.4688 0.0469 -0.4844 Q0.0469 -0.5625 0.1094 -0.6094 Q0.1562 -0.6719 0.2344 -0.6719 Q0.3438 -0.6719 0.4062 -0.5938 Q0.4375 -0.5469 0.4531 -0.4844 Q0.4531 -0.4844 0.4531 -0.4688 Q0.4531 -0.4062 0.3906 -0.3281 Q0.3594 -0.2969 0.2969 -0.25 L0.25 -0.1875 L0.2344 -0.1875 L0.125 -0.0781 L0.3125 -0.0781 Q0.3906 -0.0781 0.4062 -0.0781 Q0.4062 -0.0938 0.4219 -0.1719 L0.4531 -0.1719 Z" transform="translate(5.1135,2.4758)"/></g><g color-interpolation="linearRGB" color-rendering="optimizeQuality" font-family="jlm_cmmi10" font-size="1" image-rendering="optimizeQuality" text-rendering="geometricPrecision"><path stroke="none" d="M0.375 -0.375 Q0.375 -0.4062 0.4062 -0.4219 Q0.4062 -0.4219 0.4219 -0.4219 Q0.4375 -0.4219 0.4375 -0.3906 Q0.4375 -0.3906 0.4375 -0.3594 L0.4062 -0.2188 Q0.3906 -0.1562 0.375 -0.125 Q0.3594 -0.0781 0.3594 -0.0625 Q0.3594 -0.0156 0.3906 -0.0156 Q0.4375 -0.0156 0.4531 -0.0938 Q0.4688 -0.1094 0.4688 -0.1406 Q0.4844 -0.1562 0.4844 -0.1562 Q0.5 -0.1562 0.5 -0.1406 Q0.5 -0.125 0.4844 -0.0781 Q0.4688 -0.0625 0.4688 -0.0469 Q0.4375 0.0156 0.3906 0.0156 Q0.3438 0.0156 0.3125 -0.0312 Q0.3125 -0.0469 0.2969 -0.0625 Q0.2344 0.0156 0.1719 0.0156 Q0.0938 0.0156 0.0625 -0.0625 Q0.0469 -0.0938 0.0469 -0.1562 Q0.0469 -0.25 0.1094 -0.3438 Q0.1875 -0.4375 0.2656 -0.4375 Q0.2812 -0.4375 0.2812 -0.4375 Q0.3438 -0.4375 0.375 -0.375 ZM0.3125 -0.125 L0.3125 -0.125 L0.3594 -0.3125 Q0.3594 -0.3281 0.3594 -0.3281 Q0.3594 -0.3594 0.3438 -0.3906 Q0.3281 -0.4219 0.2812 -0.4219 Q0.2344 -0.4219 0.1875 -0.3594 Q0.1719 -0.3438 0.1719 -0.3281 Q0.1406 -0.2656 0.1094 -0.1562 Q0.1094 -0.125 0.1094 -0.1094 Q0.1094 -0.0312 0.1562 -0.0156 Q0.1562 -0.0156 0.1719 -0.0156 Q0.2344 -0.0156 0.2812 -0.0781 Q0.2969 -0.0938 0.3125 -0.1094 L0.3125 -0.1094 Q0.3125 -0.125 0.3125 -0.125 Z" transform="matrix(20,0,0,20,0,0) translate(5.6135,2.4758)"/></g></g></svg></g></svg>