<?xml version="1.0" encoding="UTF-8" standalone="no"?><svg xmlns="http://www.w3.org/2000/svg" xmlns:xlink="http://www.w3.org/1999/xlink" contentScriptType="application/ecmascript" contentStyleType="text/css" height="391px" preserveAspectRatio="none" style="width:613px;height:391px;" version="1.1" viewBox="0 0 613 391" width="613px" zoomAndPan="magnify"><defs><filter height="300%" id="f16y5oygurkm24" width="300%" x="-1" y="-1"><feGaussianBlur result="blurOut" stdDeviation="2.0"/><feColorMatrix in="blurOut" result="blurOut2" type="matrix" values="0 0 0 0 0 0 0 0 0 0 0 0 0 0 0 0 0 0 .4 0"/><feOffset dx="4.0" dy="4.0" in="blurOut2" result="blurOut3"/><feBlend in="SourceGraphic" in2="blurOut3" mode="normal"/></filter></defs><g><!--entity applications--><polygon fill="#FEFECE" filter="url(#f16y5oygurkm24)" points="237.5,18,237.5338,18.0338,239.46,15.96,241.4653,13.9653,243.3387,11.8387,245.4032,9.9032,247.5,8,247.5,7.3585,257.0455,8.7444,266.5909,8.3228,276.1364,7.8165,285.6818,7.3304,295.2273,8.3334,304.7727,8.3904,314.3182,7.9277,323.8636,8.271,333.4091,8.6598,342.9545,8.5812,352.5,8,352.2669,8,352.5405,15.5219,352.477,23.0438,352.6972,30.5656,352.7137,38.0875,352.5,45.6094,352.5576,45.667,350.3949,47.5043,348.6365,49.7459,346.509,51.6184,344.3242,53.4336,342.5,55.6094,342.5,55.3939,332.9545,56.0695,323.4091,55.6251,313.8636,55.7897,304.3182,55.7594,294.7727,54.8772,285.2273,54.9429,275.6818,55.4673,266.1364,55.8539,256.5909,55.4126,247.0455,56.1336,237.5,55.6094,237.4755,55.6094,237.7074,48.0875,237.4144,40.5656,237.438,33.0438,237.6207,25.5219,237.5,18" style="stroke: #000000; stroke-width: 1.5;"/><path d="M342.5,18 L342.2979,17.7979 L344.3515,16.2515 L346.3237,14.6237 L347.932,12.632 L349.8186,10.9186 L351.5,9 " fill="#FEFECE" style="stroke: #000000; stroke-width: 1.5;"/><path d="M237.5,18 L237.5,18.0515 L247.0455,17.5048 L256.5909,17.3796 L266.1364,18.5737 L275.6818,18.2782 L285.2273,17.8959 L294.7727,17.2155 L304.3182,18.6334 L313.8636,17.4491 L323.4091,17.6643 L332.9545,18.7966 L342.5,18 " fill="#FEFECE" style="stroke: #000000; stroke-width: 1.5;"/><path d="M342.5,18 L342.7037,18 L342.255,25.5219 L342.2982,33.0438 L342.7375,40.5656 L342.6237,48.0875 L342.5,55.6094 " fill="#FEFECE" style="stroke: #000000; stroke-width: 1.5;"/><text fill="#000000" font-family="sans-serif" font-size="14" lengthAdjust="spacingAndGlyphs" textLength="75" x="252.5" y="42.5332">applications</text><!--entity ssrlibev--><polygon fill="#FEFECE" filter="url(#f16y5oygurkm24)" points="249,126,249.1378,126.1378,250.9682,123.9682,253.0712,122.0712,254.9529,119.9529,256.9612,117.9612,259,116,259,116.6026,269.25,115.7667,279.5,116.5448,289.75,115.6105,300,116.5097,310.25,115.48,320.5,115.6423,330.75,116.3949,341,116,341.0261,116,340.9196,123.5219,341.0991,131.0438,341.1588,138.5656,341.0433,146.0875,341,153.6094,341.1641,153.7734,338.9751,155.5845,337.1643,157.7737,335.0201,159.6295,333.0657,161.6751,331,163.6094,331,163.5463,320.75,163.0233,310.5,163.1087,300.25,163.8796,290,162.9008,279.75,163.6787,269.5,163.631,259.25,163.1963,249,163.6094,249.0625,163.6094,248.9428,156.0875,248.9839,148.5656,248.8499,141.0438,249.2023,133.5219,249,126" style="stroke: #000000; stroke-width: 1.5;"/><path d="M331,126 L331.0312,126.0312 L332.8106,124.2106 L334.4768,122.2768 L336.2683,120.4683 L338.0326,118.6326 L340,117 " fill="#FEFECE" style="stroke: #000000; stroke-width: 1.5;"/><path d="M249,126 L249,125.4121 L259.25,125.9219 L269.5,125.3303 L279.75,125.4578 L290,126.2941 L300.25,126.3085 L310.5,126.4337 L320.75,126.6537 L331,126 " fill="#FEFECE" style="stroke: #000000; stroke-width: 1.5;"/><path d="M331,126 L330.999,126 L330.9286,133.5219 L330.8374,141.0438 L330.6797,148.5656 L331.2798,156.0875 L331,163.6094 " fill="#FEFECE" style="stroke: #000000; stroke-width: 1.5;"/><text fill="#000000" font-family="sans-serif" font-size="14" lengthAdjust="spacingAndGlyphs" textLength="52" x="264" y="150.5332">ssr libev</text><!--entity haproxy--><polygon fill="#FEFECE" filter="url(#f16y5oygurkm24)" points="250,234,250.1611,234.1611,252.1217,232.1217,253.8902,229.8902,256.1113,228.1113,258.167,226.167,260,224,260,224.39,270,224.1718,280,224.7309,290,224.0427,300,223.7812,310,224.0126,320,223.6898,330,224.708,340,224,340.1643,224,340.0461,231.5219,339.891,239.0438,340.1991,246.5656,340.0217,254.0875,340,261.6094,339.9983,261.6077,337.8835,263.4928,336.0856,265.695,334.1553,267.7646,332.0793,269.6886,330,271.6094,330,271.3636,320,270.9768,310,271.0119,300,271.747,290,272.0928,280,271.0337,270,271.4736,260,271.4171,250,271.6094,250.0545,271.6094,250.2459,264.0875,250.0447,256.5656,249.7697,249.0438,250.0799,241.5219,250,234" style="stroke: #000000; stroke-width: 1.5;"/><path d="M330,234 L329.8952,233.8952 L331.9661,232.3661 L333.4902,230.2902 L335.6124,228.8124 L337.2862,226.8862 L339,225 " fill="#FEFECE" style="stroke: #000000; stroke-width: 1.5;"/><path d="M250,234 L250,234.2062 L260,234.7553 L270,234.7533 L280,233.3614 L290,234.0105 L300,234.4082 L310,234.1425 L320,234.5605 L330,234 " fill="#FEFECE" style="stroke: #000000; stroke-width: 1.5;"/><path d="M330,234 L329.9596,234 L330.1823,241.5219 L330.1972,249.0438 L330.2425,256.5656 L329.7453,264.0875 L330,271.6094 " fill="#FEFECE" style="stroke: #000000; stroke-width: 1.5;"/><text fill="#000000" font-family="sans-serif" font-size="14" lengthAdjust="spacingAndGlyphs" textLength="50" x="265" y="258.5332">haproxy</text><!--entity server1--><polygon fill="#FEFECE" filter="url(#f16y5oygurkm24)" points="6,342,6.1483,342.1483,7.8719,339.8719,9.9762,337.9762,12.1114,336.1114,13.9413,333.9413,16,332,16,331.7144,25.6667,332.3655,35.3333,332.498,45,331.5326,54.6667,331.8032,64.3333,332.2611,74,332,74.2257,332,73.9025,339.5219,74.0799,347.0438,74.1171,354.5656,73.8673,362.0875,74,369.6094,74.146,369.7554,71.9118,371.5212,70.1556,373.765,67.8522,375.4616,66.1087,377.7181,64,379.6094,64,379.6925,54.3333,380.0215,44.6667,379.6426,35,379.9576,25.3333,379.9709,15.6667,379.1542,6,379.6094,5.8461,379.6094,6.0071,372.0875,5.9356,364.5656,5.8061,357.0438,5.9782,349.5219,6,342" style="stroke: #000000; stroke-width: 1.5;"/><path d="M64,342 L63.9667,341.9667 L65.8416,340.2416 L67.7863,338.5863 L69.4233,336.6233 L71.1619,334.7619 L73,333 " fill="#FEFECE" style="stroke: #000000; stroke-width: 1.5;"/><path d="M6,342 L6,342.8522 L15.6667,341.8483 L25.3333,342.0901 L35,341.3278 L44.6667,342.2588 L54.3333,342.4494 L64,342 " fill="#FEFECE" style="stroke: #000000; stroke-width: 1.5;"/><path d="M64,342 L63.8883,342 L64.0684,349.5219 L63.7237,357.0438 L64.0821,364.5656 L64.0895,372.0875 L64,379.6094 " fill="#FEFECE" style="stroke: #000000; stroke-width: 1.5;"/><text fill="#000000" font-family="sans-serif" font-size="14" lengthAdjust="spacingAndGlyphs" textLength="28" x="21" y="366.5332">cn-1</text><!--entity server2--><polygon fill="#FEFECE" filter="url(#f16y5oygurkm24)" points="109,342,108.9317,341.9317,111.0693,340.0693,113.1297,338.1297,114.9711,335.9711,116.8736,333.8736,119,332,119,331.5272,128.3333,332.6496,137.6667,332.5138,147,332.6072,156.3333,332.7384,165.6667,331.5906,175,332,174.8172,332,174.7884,339.5219,174.7596,347.0438,175.0385,354.5656,175.0109,362.0875,175,369.6094,175.0186,369.628,173.0248,371.6341,171.1243,373.7337,169.0135,375.6229,166.8468,377.4562,165,379.6094,165,380.2049,155.6667,379.1072,146.3333,379.879,137,379.1577,127.6667,379.2675,118.3333,379.605,109,379.6094,109.0135,379.6094,108.8325,372.0875,108.7508,364.5656,109.0623,357.0438,108.7725,349.5219,109,342" style="stroke: #000000; stroke-width: 1.5;"/><path d="M165,342 L164.8421,341.8421 L166.6878,340.0878 L168.3962,338.1962 L170.5613,336.7613 L172.3612,334.9612 L174,333 " fill="#FEFECE" style="stroke: #000000; stroke-width: 1.5;"/><path d="M109,342 L109,341.1178 L118.3333,341.5182 L127.6667,342.421 L137,341.8041 L146.3333,341.0303 L155.6667,341.7661 L165,342 " fill="#FEFECE" style="stroke: #000000; stroke-width: 1.5;"/><path d="M165,342 L165.1817,342 L164.7784,349.5219 L164.7034,357.0438 L164.8541,364.5656 L164.692,372.0875 L165,379.6094 " fill="#FEFECE" style="stroke: #000000; stroke-width: 1.5;"/><text fill="#000000" font-family="sans-serif" font-size="14" lengthAdjust="spacingAndGlyphs" textLength="26" x="124" y="366.5332">tw-1</text><!--entity server3--><polygon fill="#FEFECE" filter="url(#f16y5oygurkm24)" points="210,342,210.0935,342.0935,211.9606,339.9606,213.9982,337.9982,215.865,335.865,218.1094,334.1094,220,332,220,332.0045,229.6667,332.6032,239.3333,331.6359,249,332.4935,258.6667,331.4653,268.3333,332.0204,278,332,278.1108,332,277.8702,339.5219,278.0005,347.0438,278.1624,354.5656,278.2217,362.0875,278,369.6094,278.0114,369.6208,275.8377,371.447,274.0572,373.6666,272.044,375.6534,269.9345,377.5439,268,379.6094,268,379.7315,258.3333,379.947,248.6667,379.3192,239,379.8487,229.3333,379.4281,219.6667,378.8893,210,379.6094,210.0801,379.6094,209.8064,372.0875,209.7974,364.5656,209.7817,357.0438,210.2384,349.5219,210,342" style="stroke: #000000; stroke-width: 1.5;"/><path d="M268,342 L268.2159,342.2159 L269.8465,340.2465 L271.4478,338.2478 L273.1834,336.3834 L275.2963,334.8963 L277,333 " fill="#FEFECE" style="stroke: #000000; stroke-width: 1.5;"/><path d="M210,342 L210,342.2523 L219.6667,341.6355 L229.3333,342.4374 L239,341.8065 L248.6667,341.6415 L258.3333,342.5073 L268,342 " fill="#FEFECE" style="stroke: #000000; stroke-width: 1.5;"/><path d="M268,342 L267.829,342 L267.8256,349.5219 L268.125,357.0438 L267.9824,364.5656 L267.8383,372.0875 L268,379.6094 " fill="#FEFECE" style="stroke: #000000; stroke-width: 1.5;"/><text fill="#000000" font-family="sans-serif" font-size="14" lengthAdjust="spacingAndGlyphs" textLength="28" x="225" y="366.5332">us-1</text><!--entity server4--><polygon fill="#FEFECE" filter="url(#f16y5oygurkm24)" points="313,342,313.1403,342.1403,315.1572,340.1572,317.0032,338.0032,318.9159,335.9159,321.002,334.002,323,332,323,332.2802,332.3333,331.7995,341.6667,331.4791,351,331.8833,360.3333,332.2587,369.6667,332.0011,379,332,378.7614,332,379.1902,339.5219,379.207,347.0438,378.8554,354.5656,378.9509,362.0875,379,369.6094,378.9767,369.5861,377.0293,371.6386,375.0032,373.6126,373.0114,375.6208,370.9264,377.5358,369,379.6094,369,378.9281,359.6667,379.4761,350.3333,379.1682,341,378.879,331.6667,379.0476,322.3333,379.8971,313,379.6094,312.7798,379.6094,313.0644,372.0875,312.9551,364.5656,312.995,357.0438,312.7921,349.5219,313,342" style="stroke: #000000; stroke-width: 1.5;"/><path d="M369,342 L368.7917,341.7917 L370.6386,340.0386 L372.451,338.251 L374.36,336.56 L376.3077,334.9077 L378,333 " fill="#FEFECE" style="stroke: #000000; stroke-width: 1.5;"/><path d="M313,342 L313,341.0217 L322.3333,342.4517 L331.6667,341.5361 L341,342.0952 L350.3333,341.7832 L359.6667,341.2172 L369,342 " fill="#FEFECE" style="stroke: #000000; stroke-width: 1.5;"/><path d="M369,342 L368.7542,342 L369.2354,349.5219 L368.7038,357.0438 L369.226,364.5656 L368.7069,372.0875 L369,379.6094 " fill="#FEFECE" style="stroke: #000000; stroke-width: 1.5;"/><text fill="#000000" font-family="sans-serif" font-size="14" lengthAdjust="spacingAndGlyphs" textLength="26" x="328" y="366.5332">ru-1</text><!--entity serverdots--><polygon fill="#FEFECE" filter="url(#f16y5oygurkm24)" points="414,342,414.0508,342.0508,416.1334,340.1334,417.898,337.898,419.8613,335.8613,421.9313,333.9313,424,332,424,331.977,433.7143,332.4764,443.4286,332.1369,453.1429,331.5065,462.8571,332.5836,472.5714,331.379,482.2857,331.2887,492,332,492.0439,332,492.1228,339.5219,492.1101,347.0438,491.8286,354.5656,492.1209,362.0875,492,369.6094,491.9427,369.5521,490.0719,371.6812,488.0329,373.6423,485.9123,375.5217,484.1103,377.7197,482,379.6094,482,378.9319,472.2857,378.9697,462.5714,379.6996,452.8571,379.7312,443.1429,379.9252,433.4286,379.4988,423.7143,379.3855,414,379.6094,413.8444,379.6094,413.763,372.0875,414.1134,364.5656,414.0895,357.0438,413.8752,349.5219,414,342" style="stroke: #000000; stroke-width: 1.5;"/><path d="M482,342 L482.1013,342.1013 L483.626,340.026 L485.4273,338.2273 L487.3549,336.5549 L489.3779,334.9779 L491,333 " fill="#FEFECE" style="stroke: #000000; stroke-width: 1.5;"/><path d="M414,342 L414,341.5165 L423.7143,341.4784 L433.4286,341.9338 L443.1429,342.0307 L452.8571,342.7715 L462.5714,341.7932 L472.2857,341.4651 L482,342 " fill="#FEFECE" style="stroke: #000000; stroke-width: 1.5;"/><path d="M482,342 L482.2957,342 L481.7099,349.5219 L482.3108,357.0438 L482.0466,364.5656 L482.3332,372.0875 L482,379.6094 " fill="#FEFECE" style="stroke: #000000; stroke-width: 1.5;"/><text fill="#000000" font-family="sans-serif" font-size="14" lengthAdjust="spacingAndGlyphs" textLength="38" x="429" y="366.5332">……</text><!--entity servern--><polygon fill="#FEFECE" filter="url(#f16y5oygurkm24)" points="527,342,527.0323,342.0323,529.0478,340.0478,531.0501,338.0501,532.9027,335.9027,534.8401,333.8401,537,332,537,332.6818,547.8,331.5855,558.6,331.5052,569.4,331.8374,580.2,332.6037,591,332,590.8585,332,591.0961,339.5219,590.8975,347.0438,591.0071,354.5656,591.0141,362.0875,591,369.6094,591.004,369.6133,588.8677,371.477,586.8326,373.442,585.0182,375.6276,582.9844,377.5937,581,379.6094,581,379.8069,570.2,379.7717,559.4,379.6141,548.6,379.8622,537.8,378.8892,527,379.6094,527.0441,379.6094,527.177,372.0875,527.065,364.5656,526.8588,357.0438,526.8295,349.5219,527,342" style="stroke: #000000; stroke-width: 1.5;"/><path d="M581,342 L580.7957,341.7957 L582.6346,340.0346 L584.684,338.484 L586.5467,336.7467 L588.3253,334.9253 L590,333 " fill="#FEFECE" style="stroke: #000000; stroke-width: 1.5;"/><path d="M527,342 L527,341.9732 L537.8,341.263 L548.6,341.499 L559.4,341.7574 L570.2,342.0212 L581,342 " fill="#FEFECE" style="stroke: #000000; stroke-width: 1.5;"/><path d="M581,342 L580.7861,342 L580.8462,349.5219 L580.7577,357.0438 L580.8223,364.5656 L581.0812,372.0875 L581,379.6094 " fill="#FEFECE" style="stroke: #000000; stroke-width: 1.5;"/><text fill="#000000" font-family="sans-serif" font-size="14" lengthAdjust="spacingAndGlyphs" textLength="24" x="542" y="366.5332">jp-n</text><!--link applications to ssrlibev--><path d="M295,56 L295.9931,56 L294.3463,65.9463 L294.5072,75.8927 L295.6766,85.839 L294.1183,95.7853 L294.508,105.7317 L295,115.678 " fill="none" style="stroke: #A80036; stroke-width: 1.0;"/><!--link ssrlibev to haproxy--><path d="M295,164 L295.0229,164 L294.9156,173.9463 L295.2517,183.8927 L294.891,193.839 L294.7635,203.7853 L295.8896,213.7317 L295,223.678 " fill="none" style="stroke: #A80036; stroke-width: 1.0;"/><!--link haproxy to server1--><path d="M249.828,266.818 L249.9133,267.0314 L242.9599,269.7601 L235.9439,272.3324 L229.038,275.1799 L221.9682,277.6178 L215.1508,280.6866 L215.1811,280.7614 L207.1263,283.826 L199.1874,287.1766 L191.3001,290.6546 L183.1673,293.5266 L175.223,296.864 L175.4898,297.5112 L167.0494,301.0643 L158.5123,304.383 L149.4981,306.5442 L141.6071,311.4303 L132.8907,314.3138 L133.2659,315.2026 L124.2922,317.3292 L116.2476,321.6563 L108.0694,325.6672 L99.0815,327.7601 L91,332 L91.0237,332.054 L87.6724,333.5391 L84.3144,335.0091 L80.8077,336.14 L77.6623,338.0946 L74.2143,339.3593 " fill="none" style="stroke: #A80036; stroke-width: 1.0;"/><!--link haproxy to server2--><path d="M261.801,272 L261.7622,271.944 L253.8274,277.3218 L246.4248,283.4677 L237.9091,288.007 L230.0688,293.5213 L222.3234,299.1725 L214.5983,304.853 L206.8151,310.4495 L199.1229,316.1775 L190.9084,321.1514 L182.5212,325.8763 L175.134,332.0445 " fill="none" style="stroke: #A80036; stroke-width: 1.0;"/><polygon fill="#FFFFFF" points="227.5793,305.0719,226.4737,307.0793,225.9343,309.0301,223.5259,310.8114,220.5951,311.2328,218.9327,312.4408,215.5319,311.5868,213.589,311.3345,212.0074,309.9824,210.3834,308.6726,209.7969,306.8554,209.2037,303.5586,208.1114,301.2041,208.9372,297.7752,210.7023,296.0919,212.7843,294.4235,215.114,293.1935,217.7036,291.6252,219.8235,291.6332,221.6455,293.081,224.4601,294.1966,226.3454,295.1131,227.0281,297.1857,227.7352,299.7029,228.349,301.8075,228.2065,304.9155" style="stroke: #FFFFFF; stroke-width: 1.0;"/><path d="M208.6222,300.2412 A10,10 0 0 0 216.676 311.866" fill="#FFFFFF" style="stroke: #A80036; stroke-width: 1.5;"/><path d="M228.3008,303.8121 A10,10 0 0 0 220.247 292.1873" fill="#FFFFFF" style="stroke: #A80036; stroke-width: 1.5;"/><polygon fill="#FFFFFF" points="223.9014,303.7402,223.3157,305.1203,222.7949,306.1285,221.5114,307.5,220.228,307.3704,219.2788,307.9972,218.2301,307.8202,216.5215,307.8953,215.4595,307.5747,214.4763,306.7345,213.8376,305.4284,213.2959,304.4393,212.9048,302.9954,212.558,301.0522,212.8493,299.3992,213.9432,297.5396,215.1328,296.6504,216.289,296.1659,217.7218,295.8218,218.9446,296.1073,220.2208,296.6447,221.7999,296.6179,222.6675,298.2072,223.6468,299.6708,224.2469,300.8635,224.7686,301.8776,224.2917,303.6171" style="stroke: #A80036; stroke-width: 1.5;"/><!--link haproxy to server3--><path d="M283.934,272 L283.879,271.9736 L280.0511,280.6308 L275.7922,289.0807 L270.9816,297.2652 L267.133,305.9126 L263.7255,314.7721 L258.9903,322.9929 L255.221,331.6784 " fill="none" style="stroke: #A80036; stroke-width: 1.0;"/><polygon fill="#FFFFFF" points="279.3867,303.8897,278.6586,307.2895,276.0091,309.7612,274.3641,311.1159,270.8785,312.0561,267.9521,312.275,266.3265,310.6023,263.7883,309.2907,261.2267,307.3633,260.4309,304.2271,259.2255,301.1038,259.5517,298.5064,260.4434,296.5979,262.5113,294.914,264.2566,293.4962,266.2755,292.0906,268.5981,291.6549,270.4229,291.8825,272.6385,292.1272,274.8398,293.9859,276.5873,295.4388,278.6158,297.3554,279.4411,300.1369,279.9885,302.9232" style="stroke: #FFFFFF; stroke-width: 1.0;"/><path d="M260.1541,305.1157 A10,10 0 0 0 272.898 311.2471" fill="#FFFFFF" style="stroke: #A80036; stroke-width: 1.5;"/><path d="M279.0294,298.5033 A10,10 0 0 0 266.2855 292.3719" fill="#FFFFFF" style="stroke: #A80036; stroke-width: 1.5;"/><polygon fill="#FFFFFF" points="275.2688,303.6744,274.6575,304.8766,273.8815,306.0676,272.214,306.8141,271.0184,307.7147,269.9174,307.6685,268.1648,307.6882,266.6104,307.4007,265.6824,306.6798,265.0912,305.3168,264.3076,304.5254,263.5285,303.2566,263.8683,301.6524,264.2018,299.7047,264.8046,298.0872,266.2676,297.184,267.4696,296.399,269.0352,296.0122,270.7698,296.0867,272.3344,296.6849,273.74,297.5895,274.7603,298.35,275.0531,299.7836,275.8486,301.3437,275.5039,302.5128" style="stroke: #A80036; stroke-width: 1.5;"/><!--link haproxy to server4--><path d="M306.066,272 L306.8575,272.3808 L309.8626,280.3786 L313.7629,288.8071 L317.7005,297.2536 L321.5994,305.6814 L326.1197,314.4082 L329.8694,322.7643 L334.779,331.6784 " fill="none" style="stroke: #A80036; stroke-width: 1.0;"/><!--link haproxy to serverdots--><path d="M329.284,272 L329.2073,271.8857 L337.7861,278.0242 L345.1936,282.4167 L354.0335,288.9443 L361.4048,293.2829 L369.4682,298.6531 L377.7577,304.3603 L385.5333,309.3016 L394.043,315.3371 L402.7419,321.6544 L410.0559,325.9076 L418.511,331.8617 " fill="none" style="stroke: #A80036; stroke-width: 1.0;"/><!--link haproxy to servern--><path d="M340.256,265.414 L340.2467,265.3891 L347.5734,268.0248 L355.1006,271.1986 L362.311,273.5222 L369.8326,276.6811 L377.0931,279.1391 L376.9197,278.6857 L385.3832,281.7442 L394.391,286.2261 L403.0205,289.7185 L411.1572,291.9223 L419.8083,295.4712 L419.7613,295.3512 L424.3429,297.2978 L428.8243,298.9886 L433.4357,301.0113 L437.741,302.2524 L442.3644,304.3058 L442.31,304.1695 L446.8608,305.9602 L451.4183,307.7675 L456.0664,309.8016 L460.655,311.6869 L465.1833,313.4212 L465.1478,313.3344 L469.6572,315.1242 L474.3356,317.3274 L478.8951,319.2398 L483.3101,320.7986 L487.8626,322.6938 L487.9627,322.9319 L492.3441,324.6835 L496.6665,326.2949 L501.1841,328.3704 L505.528,330.0328 L510,332 L509.9875,331.9719 L513.3514,333.4117 L516.8538,335.1615 L520.3278,336.8479 L523.7207,338.3524 L526.99,339.5801 " fill="none" style="stroke: #A80036; stroke-width: 1.0;"/><!--
@startuml

skinparam nodeNameAlign center
skinparam handwritten true
skinparam titleBorderRoundCorner 15
skinparam titleBorderThickness 1
skinparam titleBorderColor black

Node applications
Node ssrlibev [
ssr libev
]
Node haproxy
Node server1 [
cn-1
]
Node server2 [
tw-1
]
Node server3 [
us-1
]
Node server4 [
ru-1
]
Node serverdots [
……
]
Node servern [
jp-n
]
applications - - ssrlibev
ssrlibev - - haproxy
haproxy - - server1
haproxy -(0)- server2
haproxy -(0)- server3
haproxy - - server4
haproxy - - serverdots
haproxy - - servern

@enduml

PlantUML version 1.2018.01(Mon Jan 29 02:08:22 CST 2018)
(GPL source distribution)
Java Runtime: Java(TM) SE Runtime Environment
JVM: Java HotSpot(TM) 64-Bit Server VM
Java Version: 1.8.0_161-b12
Operating System: Windows 10
OS Version: 10.0
Default Encoding: Cp1252
Language: en
Country: US
--></g></svg>