<svg xmlns="http://www.w3.org/2000/svg" xmlns:xlink="http://www.w3.org/1999/xlink" width="603" height="391" contentScriptType="application/ecmascript" contentStyleType="text/css" preserveAspectRatio="none" version="1.1" viewBox="0 0 603 391" zoomAndPan="magnify" style="width:603px;height:391px"><defs><filter id="f1vhs1rrt1yjxo" width="300%" height="300%" x="-1" y="-1"><feGaussianBlur result="blurOut" stdDeviation="2"/><feColorMatrix in="blurOut" result="blurOut2" type="matrix" values="0 0 0 0 0 0 0 0 0 0 0 0 0 0 0 0 0 0 .4 0"/><feOffset dx="4" dy="4" in="blurOut2" result="blurOut3"/><feBlend in="SourceGraphic" in2="blurOut3" mode="normal"/></filter></defs><g><polygon fill="#FEFECE" stroke="#000" stroke-width="1.5" points="237.5 18 237.405 17.905 239.438 15.938 241.44 13.94 243.606 12.106 245.593 10.093 247.5 8 247.5 7.301 257.046 8.713 266.591 7.808 276.136 8.183 285.682 7.493 295.227 8.695 304.773 7.493 314.318 8.112 323.864 7.867 333.409 8.007 342.954 8.502 352.5 8 352.286 8 352.492 15.522 352.666 23.044 352.379 30.566 352.358 38.087 352.5 45.609 352.53 45.64 350.324 47.433 348.594 49.703 346.565 51.675 344.349 53.459 342.5 55.609 342.5 54.97 332.954 56.019 323.409 56.024 313.864 55.565 304.318 55.809 294.773 56.303 285.227 56.114 275.682 55.577 266.136 54.872 256.591 56.096 247.046 55.876 237.5 55.609 237.281 55.609 237.604 48.087 237.477 40.566 237.464 33.044 237.363 25.522 237.5 18" filter="url(#f1vhs1rrt1yjxo)"/><path fill="#FEFECE" stroke="#000" stroke-width="1.5" d="M342.5,18 L342.5897,18.0897 L344.172,16.072 L345.9917,14.2917 L348.0353,12.7353 L349.9049,11.0049 L351.5,9"/><path fill="#FEFECE" stroke="#000" stroke-width="1.5" d="M237.5,18 L237.5,17.7003 L247.0455,17.1107 L256.5909,17.335 L266.1364,18.1036 L275.6818,17.1991 L285.2273,17.9106 L294.7727,17.1332 L304.3182,17.4595 L313.8636,17.4239 L323.4091,18.1063 L332.9545,18.6663 L342.5,18"/><path fill="#FEFECE" stroke="#000" stroke-width="1.5" d="M342.5,18 L342.3324,18 L342.7358,25.5219 L342.2766,33.0438 L342.4026,40.5656 L342.5418,48.0875 L342.5,55.6094"/><text x="252.5" y="42.533" fill="#000" font-family="sans-serif" font-size="14" lengthAdjust="spacingAndGlyphs" textLength="75">applications</text><polygon fill="#FEFECE" stroke="#000" stroke-width="1.5" points="249 126 248.962 125.962 250.837 123.837 252.968 121.968 255.021 120.021 256.98 117.98 259 116 259 115.582 269.25 116.252 279.5 115.341 289.75 116.087 300 115.859 310.25 116.399 320.5 116.663 330.75 115.847 341 116 341.189 116 340.94 123.522 340.931 131.044 340.913 138.566 341.214 146.088 341 153.609 341.044 153.653 338.864 155.473 337.173 157.782 334.851 159.461 333.09 161.7 331 163.609 331 164.264 320.75 163.96 310.5 163.428 300.25 164.062 290 163.98 279.75 163.755 269.5 163.219 259.25 163.673 249 163.609 249.188 163.609 249.231 156.088 249.172 148.566 248.814 141.044 248.819 133.522 249 126" filter="url(#f1vhs1rrt1yjxo)"/><path fill="#FEFECE" stroke="#000" stroke-width="1.5" d="M331,126 L330.8207,125.8207 L332.5998,123.9998 L334.633,122.433 L336.3307,120.5307 L338.2228,118.8228 L340,117"/><path fill="#FEFECE" stroke="#000" stroke-width="1.5" d="M249,126 L249,125.3078 L259.25,125.8722 L269.5,125.9276 L279.75,126.9202 L290,126.5833 L300.25,125.3416 L310.5,126.5125 L320.75,125.0189 L331,126"/><path fill="#FEFECE" stroke="#000" stroke-width="1.5" d="M331,126 L331.0556,126 L331.1867,133.5219 L331.3217,141.0438 L331.303,148.5656 L331.1073,156.0875 L331,163.6094"/><text x="264" y="150.533" fill="#000" font-family="sans-serif" font-size="14" lengthAdjust="spacingAndGlyphs" textLength="52">ssr libev</text><polygon fill="#FEFECE" stroke="#000" stroke-width="1.5" points="250 234 250.141 234.141 251.902 231.902 254.028 230.028 255.914 227.914 258.081 226.081 260 224 260 223.641 270 223.695 280 224.432 290 224.5 300 223.308 310 224.04 320 223.865 330 223.877 340 224 339.906 224 339.892 231.522 340.053 239.044 339.974 246.566 339.831 254.088 340 261.609 339.903 261.512 337.98 263.589 336.071 265.68 333.908 267.517 331.987 269.596 330 271.609 330 271.452 320 272.133 310 272.091 300 272.293 290 271.478 280 271.723 270 271.947 260 271.614 250 271.609 250.181 271.609 250.18 264.087 250.216 256.566 249.806 249.044 249.953 241.522 250 234" filter="url(#f1vhs1rrt1yjxo)"/><path fill="#FEFECE" stroke="#000" stroke-width="1.5" d="M330,234 L330.1199,234.1199 L331.8018,232.2018 L333.7659,230.5659 L335.4406,228.6406 L337.0688,226.6688 L339,225"/><path fill="#FEFECE" stroke="#000" stroke-width="1.5" d="M250,234 L250,234.6519 L260,233.5536 L270,234.8721 L280,233.0077 L290,234.2845 L300,233.0547 L310,234.728 L320,234.8656 L330,234"/><path fill="#FEFECE" stroke="#000" stroke-width="1.5" d="M330,234 L329.9946,234 L329.9079,241.5219 L329.8716,249.0438 L330.1112,256.5656 L329.8326,264.0875 L330,271.6094"/><text x="265" y="258.533" fill="#000" font-family="sans-serif" font-size="14" lengthAdjust="spacingAndGlyphs" textLength="50">haproxy</text><polygon fill="#FEFECE" stroke="#000" stroke-width="1.5" points="6 342 5.857 341.857 7.909 339.909 9.993 337.993 11.944 335.944 14.092 334.092 16 332 16 332.133 25.667 331.974 35.333 332.7 45 332.264 54.667 332.454 64.333 331.962 74 332 73.853 332 73.856 339.522 74.069 347.044 74.05 354.566 73.926 362.087 74 369.609 74.008 369.617 72.16 371.769 70.159 373.769 67.844 375.453 66.116 377.726 64 379.609 64 379.344 54.333 379.496 44.667 380.351 35 379.679 25.333 379.343 15.667 379.382 6 379.609 6.093 379.609 5.994 372.087 6.194 364.566 6.085 357.044 6.242 349.522 6 342" filter="url(#f1vhs1rrt1yjxo)"/><path fill="#FEFECE" stroke="#000" stroke-width="1.5" d="M64,342 L64.1484,342.1484 L66.0353,340.4353 L67.8045,338.6045 L69.3008,336.5008 L71.2108,334.8108 L73,333"/><path fill="#FEFECE" stroke="#000" stroke-width="1.5" d="M6,342 L6,341.1823 L15.6667,342.5433 L25.3333,341.1767 L35,342.7348 L44.6667,341.3731 L54.3333,341.3431 L64,342"/><path fill="#FEFECE" stroke="#000" stroke-width="1.5" d="M64,342 L64.1732,342 L63.9593,349.5219 L64.0449,357.0438 L64.028,364.5656 L64.1514,372.0875 L64,379.6094"/><text x="21" y="366.533" fill="#000" font-family="sans-serif" font-size="14" lengthAdjust="spacingAndGlyphs" textLength="28">cn-1</text><polygon fill="#FEFECE" stroke="#000" stroke-width="1.5" points="109 342 108.975 341.975 110.845 339.845 112.933 337.933 114.85 335.85 116.849 333.849 119 332 119 332.108 128.333 332.279 137.667 332.182 147 331.742 156.333 331.819 165.667 331.539 175 332 174.797 332 174.961 339.522 174.759 347.044 175.048 354.566 175.103 362.087 175 369.609 174.9 369.509 172.862 371.472 170.843 373.453 169.064 375.674 166.85 377.459 165 379.609 165 379.578 155.667 379.659 146.333 379.865 137 379.447 127.667 379.109 118.333 380.103 109 379.609 109.218 379.609 109.223 372.087 109.04 364.566 108.802 357.044 108.865 349.522 109 342" filter="url(#f1vhs1rrt1yjxo)"/><path fill="#FEFECE" stroke="#000" stroke-width="1.5" d="M165,342 L165.1436,342.1436 L167.0337,340.4337 L168.4519,338.2519 L170.6224,336.8224 L172.3282,334.9282 L174,333"/><path fill="#FEFECE" stroke="#000" stroke-width="1.5" d="M109,342 L109,342.869 L118.3333,342.31 L127.6667,342.9654 L137,341.1814 L146.3333,342.1956 L155.6667,341.7566 L165,342"/><path fill="#FEFECE" stroke="#000" stroke-width="1.5" d="M165,342 L164.9996,342 L165.0414,349.5219 L165.04,357.0438 L165.316,364.5656 L164.969,372.0875 L165,379.6094"/><text x="124" y="366.533" fill="#000" font-family="sans-serif" font-size="14" lengthAdjust="spacingAndGlyphs" textLength="26">tw-1</text><polygon fill="#FEFECE" stroke="#000" stroke-width="1.5" points="210 342 209.885 341.885 211.91 339.91 214.035 338.035 215.887 335.887 218.157 334.158 220 332 220 331.883 229.667 331.915 239.333 332.293 249 332.445 258.667 332.697 268.333 331.837 278 332 277.996 332 277.814 339.522 278.02 347.044 278.011 354.566 278.016 362.087 278 369.609 277.825 369.435 276.019 371.629 273.951 373.56 272.024 375.633 270.143 377.752 268 379.609 268 380.081 258.333 379.157 248.667 379.34 239 379.576 229.333 379.914 219.667 379.189 210 379.609 209.885 379.609 210.205 372.087 209.999 364.566 210.149 357.044 210.155 349.522 210 342" filter="url(#f1vhs1rrt1yjxo)"/><path fill="#FEFECE" stroke="#000" stroke-width="1.5" d="M268,342 L267.8648,341.8648 L269.7894,340.1894 L271.7843,338.5843 L273.3774,336.5774 L275.0059,334.6059 L277,333"/><path fill="#FEFECE" stroke="#000" stroke-width="1.5" d="M210,342 L210,342.9449 L219.6667,341.57 L229.3333,341.9865 L239,342.8613 L248.6667,341.4927 L258.3333,341.4541 L268,342"/><path fill="#FEFECE" stroke="#000" stroke-width="1.5" d="M268,342 L267.761,342 L267.6971,349.5219 L267.8397,357.0438 L268.2967,364.5656 L268.0039,372.0875 L268,379.6094"/><text x="225" y="366.533" fill="#000" font-family="sans-serif" font-size="14" lengthAdjust="spacingAndGlyphs" textLength="28">us-1</text><polygon fill="#FEFECE" stroke="#000" stroke-width="1.5" points="313 342 312.913 341.913 315.112 340.112 317.024 338.024 318.875 335.875 321.094 334.094 323 332 323 331.881 332.333 331.371 341.667 332.718 351 331.994 360.333 331.742 369.667 331.504 379 332 378.895 332 379.183 339.522 379.137 347.044 378.805 354.566 378.956 362.087 379 369.609 379.046 369.655 376.898 371.508 374.916 373.525 372.917 375.527 370.947 377.556 369 379.609 369 379.751 359.667 379.181 350.333 379.523 341 379.993 331.667 379.212 322.333 379.226 313 379.609 313.175 379.609 313.034 372.087 313.105 364.566 312.947 357.044 312.806 349.522 313 342" filter="url(#f1vhs1rrt1yjxo)"/><path fill="#FEFECE" stroke="#000" stroke-width="1.5" d="M369,342 L368.8335,341.8335 L370.7705,340.1705 L372.4961,338.2961 L374.6031,336.8031 L376.346,334.946 L378,333"/><path fill="#FEFECE" stroke="#000" stroke-width="1.5" d="M313,342 L313,341.3335 L322.3333,342.2094 L331.6667,341.9613 L341,342.4105 L350.3333,342.0144 L359.6667,341.6128 L369,342"/><path fill="#FEFECE" stroke="#000" stroke-width="1.5" d="M369,342 L369.0755,342 L369.1673,349.5219 L369.2535,357.0438 L368.8915,364.5656 L368.8024,372.0875 L369,379.6094"/><text x="328" y="366.533" fill="#000" font-family="sans-serif" font-size="14" lengthAdjust="spacingAndGlyphs" textLength="26">ru-1</text><polygon fill="#FEFECE" stroke="#000" stroke-width="1.5" points="414 342 413.959 341.959 416.133 340.133 417.902 337.902 419.948 335.948 422.068 334.068 424 332 424 332.661 433.667 332.422 443.333 331.873 453 332.622 462.667 332.131 472.333 332.378 482 332 482.186 332 481.897 339.522 482.243 347.044 481.983 354.566 481.768 362.087 482 369.609 482.145 369.754 480.077 371.687 477.919 373.528 475.934 375.543 473.911 377.521 472 379.609 472 380.095 462.333 378.872 452.667 379.382 443 379.1 433.333 380.242 423.667 379.718 414 379.609 414.197 379.609 413.802 372.087 413.847 364.566 413.931 357.044 413.979 349.522 414 342" filter="url(#f1vhs1rrt1yjxo)"/><path fill="#FEFECE" stroke="#000" stroke-width="1.5" d="M472,342 L472.1015,342.1015 L473.727,340.127 L475.5438,338.3438 L477.17,336.37 L479.0428,334.6428 L481,333"/><path fill="#FEFECE" stroke="#000" stroke-width="1.5" d="M414,342 L414,341.7503 L423.6667,342.3908 L433.3333,342.9572 L443,341.0929 L452.6667,341.0185 L462.3333,341.1446 L472,342"/><path fill="#FEFECE" stroke="#000" stroke-width="1.5" d="M472,342 L472.0307,342 L471.8052,349.5219 L471.6816,357.0438 L472.1941,364.5656 L471.7164,372.0875 L472,379.6094"/><text x="429" y="366.533" fill="#000" font-family="sans-serif" font-size="14" lengthAdjust="spacingAndGlyphs" textLength="28">……</text><polygon fill="#FEFECE" stroke="#000" stroke-width="1.5" points="517 342 516.962 341.962 518.968 339.968 521.144 338.144 523.117 336.117 524.965 333.965 527 332 527 331.882 537.8 332.157 548.6 332.269 559.4 331.401 570.2 332.595 581 332 581.13 332 581.021 339.522 581.104 347.044 580.784 354.566 580.931 362.087 581 369.609 581.01 369.619 579.01 371.619 576.869 373.478 574.868 375.478 572.985 377.594 571 379.609 571 379.805 560.2 379.241 549.4 379.38 538.6 379.369 527.8 380.137 517 379.609 517.064 379.609 517.201 372.087 517.169 364.566 516.793 357.044 516.775 349.522 517 342" filter="url(#f1vhs1rrt1yjxo)"/><path fill="#FEFECE" stroke="#000" stroke-width="1.5" d="M571,342 L570.8775,341.8775 L572.6914,340.0914 L574.7579,338.5579 L576.2877,336.4877 L578.0604,334.6604 L580,333"/><path fill="#FEFECE" stroke="#000" stroke-width="1.5" d="M517,342 L517,342.813 L527.8,342.5724 L538.6,342.7945 L549.4,342.355 L560.2,341.9334 L571,342"/><path fill="#FEFECE" stroke="#000" stroke-width="1.5" d="M571,342 L570.9275,342 L570.762,349.5219 L570.8331,357.0438 L571.1003,364.5656 L570.9146,372.0875 L571,379.6094"/><text x="532" y="366.533" fill="#000" font-family="sans-serif" font-size="14" lengthAdjust="spacingAndGlyphs" textLength="24">jp-n</text><path fill="none" stroke="#A80036" stroke-width="1" d="M295,56 L295.3465,56 L294.7808,65.9463 L294.7298,75.8927 L295.0324,85.839 L294.6003,95.7853 L294.1006,105.7317 L295,115.678"/><path fill="none" stroke="#A80036" stroke-width="1" d="M295,164 L295.8611,164 L294.4457,173.9463 L295.8989,183.8927 L294.1508,193.839 L294.0942,203.7853 L295.8166,213.7317 L295,223.678"/><path fill="none" stroke="#A80036" stroke-width="1" d="M249.828,266.818 L249.7327,266.5798 L242.8746,269.5468 L235.989,272.4452 L229.0608,275.2371 L222.1658,278.112 L215.1508,280.6866 L215.2453,280.9199 L207.2389,284.104 L199.1435,287.0684 L191.155,290.2964 L183.2388,293.7032 L175.223,296.864 L175.0807,296.5187 L167.1128,301.2182 L158.291,303.8461 L149.5379,306.6407 L141.4903,311.1468 L132.8907,314.3138 L133.0563,314.706 L124.3219,317.3994 L116.132,321.3826 L107.8737,325.2036 L99.3585,328.4163 L91,332 L91.021,332.0478 L87.6964,333.5941 L84.3594,335.1117 L80.8056,336.1351 L77.4872,337.6954 L74.2143,339.3593"/><path fill="none" stroke="#A80036" stroke-width="1" d="M261.801,272 L261.365,271.3707 L253.9789,277.5405 L246.142,283.0595 L238.3079,288.5827 L229.9273,293.317 L222.3343,299.1882 L214.2254,304.3147 L206.7048,310.2903 L198.4092,315.1473 L191.1881,321.5552 L183.0343,326.617 L175.134,332.0445"/><polygon fill="#FFF" stroke="#FFF" stroke-width="1" points="227.943 304.456 227.566 306.964 225.118 309.3 223.134 311.351 221.107 311.213 217.881 312.007 216.01 312.018 213.874 311.276 211.638 308.756 209.991 306.704 209.003 304.882 208.935 303.024 208.793 300.951 209.081 298.969 210.707 296.047 212.182 294.703 214.086 293.649 215.96 292.746 219.061 292.582 222.217 292.832 224.45 294.678 226.168 295.937 227.746 298.798 228.116 302.092"/><path fill="#FFF" stroke="#A80036" stroke-width="1.5" d="M208.6222,300.2412 A10,10 0 0 0 216.676 311.866"/><path fill="#FFF" stroke="#A80036" stroke-width="1.5" d="M228.3008,303.8121 A10,10 0 0 0 220.247 292.1873"/><polygon fill="#FFF" stroke="#A80036" stroke-width="1.5" points="224.261 303.714 223.986 305.204 222.918 305.781 221.961 307.096 220.315 307.363 218.874 307.918 216.955 307.679 215.658 307.337 214.271 306.243 213.322 305.21 212.933 304.016 212.47 302.759 212.436 301.357 213.135 300.004 213.801 298.493 214.92 297.517 216.468 296.683 217.608 296.395 219.241 295.825 220.517 296.72 221.983 297.405 223.321 298.546 223.937 299.655 224.113 300.8 224.085 302.469"/><path fill="none" stroke="#A80036" stroke-width="1" d="M283.934,272 L284.6082,272.3244 L280.3604,280.7796 L275.7498,289.0604 L270.8372,297.1958 L266.8903,305.7958 L262.6523,314.2558 L259.4059,323.1929 L255.221,331.6784"/><polygon fill="#FFF" stroke="#FFF" stroke-width="1" points="279.598 305.173 277.196 307.589 275.012 309.934 272.628 311.028 270.238 311.39 267.213 311.831 264.26 310.309 262.517 308.579 260.458 306.678 259.952 304.515 259.542 302.377 259.773 300.3 260.555 298.361 262.044 295.747 264.289 293.234 267.13 291.487 269.052 291.716 272.248 291.858 274.735 293.854 277.478 295.782 278.084 297.515 279.399 300.209 279.29 303.077"/><path fill="#FFF" stroke="#A80036" stroke-width="1.5" d="M260.1541,305.1157 A10,10 0 0 0 272.898 311.2471"/><path fill="#FFF" stroke="#A80036" stroke-width="1.5" d="M279.0294,298.5033 A10,10 0 0 0 266.2855 292.3719"/><polygon fill="#FFF" stroke="#A80036" stroke-width="1.5" points="275.37 303.879 274.611 305.066 273.352 306.316 272.253 306.834 270.782 307.831 269.021 307.49 267.761 307.174 266.332 306.784 265.092 305.658 264.707 304.666 264.108 303.492 263.778 301.69 263.497 300.109 264.401 298.706 265.304 297.552 266.432 296.744 267.796 296.135 268.848 295.988 270.283 295.589 271.755 296.438 273.204 297.457 274.543 297.974 274.764 299.503 275.683 300.768 275.174 302.521"/><path fill="none" stroke="#A80036" stroke-width="1" d="M306.066,272 L305.8827,271.9118 L310.1411,280.5126 L313.8716,288.8594 L317.959,297.378 L322.713,306.2172 L326.9057,314.7864 L330.3691,323.0047 L334.779,331.6784"/><path fill="none" stroke="#A80036" stroke-width="1" d="M328.199,272 L327.7773,271.3913 L335.5998,276.7867 L343.9836,282.9921 L352.3212,289.1309 L359.1794,293.1345 L367.6568,299.475 L375.0572,304.2611 L383.2312,310.1637 L391.4485,316.129 L399.3743,321.6734 L406.2714,325.733 L414.602,331.8617"/><path fill="none" stroke="#A80036" stroke-width="1" d="M340.081,266.441 L340.1482,266.6113 L347.0053,269.0453 L354.1205,272.1331 L361.0986,274.8736 L368.0396,277.5199 L375.0043,280.2266 L374.8931,279.95 L382.9625,283.244 L391.1363,286.7978 L399.1027,289.8358 L407.1716,293.1285 L415.2375,296.4139 L415.5309,297.1249 L423.6919,299.7562 L432.1972,303.2218 L440.7179,306.7249 L449.1176,309.9346 L457.8722,314.0044 L457.8378,313.9232 L462.0243,315.5469 L466.5245,317.9128 L470.573,319.2102 L475.0327,321.4801 L479.1812,323.014 L479.1701,322.9883 L483.4132,324.9693 L487.5466,326.6962 L491.6229,328.2908 L495.8891,330.3253 L500,332 L499.9867,331.9705 L503.4082,333.5683 L506.852,335.2155 L510.2061,336.6642 L513.6107,338.2247 L516.957,339.6559"/></g></svg>