<?xml version="1.0" encoding="UTF-8" standalone="no"?><svg xmlns="http://www.w3.org/2000/svg" xmlns:xlink="http://www.w3.org/1999/xlink" contentScriptType="application/ecmascript" contentStyleType="text/css" height="391px" preserveAspectRatio="none" style="width:603px;height:391px;" version="1.1" viewBox="0 0 603 391" width="603px" zoomAndPan="magnify"><defs><filter height="300%" id="f1vhs1rrt1yjxo" width="300%" x="-1" y="-1"><feGaussianBlur result="blurOut" stdDeviation="2.0"/><feColorMatrix in="blurOut" result="blurOut2" type="matrix" values="0 0 0 0 0 0 0 0 0 0 0 0 0 0 0 0 0 0 .4 0"/><feOffset dx="4.0" dy="4.0" in="blurOut2" result="blurOut3"/><feBlend in="SourceGraphic" in2="blurOut3" mode="normal"/></filter></defs><g><!--entity applications--><polygon fill="#FEFECE" filter="url(#f1vhs1rrt1yjxo)" points="237.5,18,237.4046,17.9046,239.438,15.938,241.4403,13.9403,243.6064,12.1064,245.5933,10.0933,247.5,8,247.5,7.3015,257.0455,8.7134,266.5909,7.8078,276.1364,8.1829,285.6818,7.4931,295.2273,8.695,304.7727,7.493,314.3182,8.1116,323.8636,7.8666,333.4091,8.0069,342.9545,8.5022,352.5,8,352.2861,8,352.4916,15.5219,352.6659,23.0438,352.379,30.5656,352.3584,38.0875,352.5,45.6094,352.5304,45.6398,350.3239,47.4332,348.5941,49.7035,346.5651,51.6745,344.3494,53.4587,342.5,55.6094,342.5,54.9696,332.9545,56.019,323.4091,56.0236,313.8636,55.5649,304.3182,55.8094,294.7727,56.3025,285.2273,56.1136,275.6818,55.577,266.1364,54.8719,256.5909,56.096,247.0455,55.8764,237.5,55.6094,237.2807,55.6094,237.6041,48.0875,237.4767,40.5656,237.4635,33.0438,237.3625,25.5219,237.5,18" style="stroke: #000000; stroke-width: 1.5;"/><path d="M342.5,18 L342.5897,18.0897 L344.172,16.072 L345.9917,14.2917 L348.0353,12.7353 L349.9049,11.0049 L351.5,9 " fill="#FEFECE" style="stroke: #000000; stroke-width: 1.5;"/><path d="M237.5,18 L237.5,17.7003 L247.0455,17.1107 L256.5909,17.335 L266.1364,18.1036 L275.6818,17.1991 L285.2273,17.9106 L294.7727,17.1332 L304.3182,17.4595 L313.8636,17.4239 L323.4091,18.1063 L332.9545,18.6663 L342.5,18 " fill="#FEFECE" style="stroke: #000000; stroke-width: 1.5;"/><path d="M342.5,18 L342.3324,18 L342.7358,25.5219 L342.2766,33.0438 L342.4026,40.5656 L342.5418,48.0875 L342.5,55.6094 " fill="#FEFECE" style="stroke: #000000; stroke-width: 1.5;"/><text fill="#000000" font-family="sans-serif" font-size="14" lengthAdjust="spacingAndGlyphs" textLength="75" x="252.5" y="42.5332">applications</text><!--entity ssrlibev--><polygon fill="#FEFECE" filter="url(#f1vhs1rrt1yjxo)" points="249,126,248.962,125.962,250.8367,123.8367,252.9684,121.9684,255.0208,120.0208,256.9802,117.9802,259,116,259,115.5823,269.25,116.2523,279.5,115.3411,289.75,116.0871,300,115.8587,310.25,116.3987,320.5,116.6629,330.75,115.8475,341,116,341.189,116,340.9395,123.5219,340.9306,131.0438,340.9135,138.5656,341.2144,146.0875,341,153.6094,341.0438,153.6532,338.8638,155.4731,337.1725,157.7819,334.8513,159.4607,333.0904,161.6998,331,163.6094,331,164.2641,320.75,163.9596,310.5,163.4282,300.25,164.0617,290,163.9804,279.75,163.7547,269.5,163.2189,259.25,163.6727,249,163.6094,249.1881,163.6094,249.2308,156.0875,249.1722,148.5656,248.8135,141.0438,248.8186,133.5219,249,126" style="stroke: #000000; stroke-width: 1.5;"/><path d="M331,126 L330.8207,125.8207 L332.5998,123.9998 L334.633,122.433 L336.3307,120.5307 L338.2228,118.8228 L340,117 " fill="#FEFECE" style="stroke: #000000; stroke-width: 1.5;"/><path d="M249,126 L249,125.3078 L259.25,125.8722 L269.5,125.9276 L279.75,126.9202 L290,126.5833 L300.25,125.3416 L310.5,126.5125 L320.75,125.0189 L331,126 " fill="#FEFECE" style="stroke: #000000; stroke-width: 1.5;"/><path d="M331,126 L331.0556,126 L331.1867,133.5219 L331.3217,141.0438 L331.303,148.5656 L331.1073,156.0875 L331,163.6094 " fill="#FEFECE" style="stroke: #000000; stroke-width: 1.5;"/><text fill="#000000" font-family="sans-serif" font-size="14" lengthAdjust="spacingAndGlyphs" textLength="52" x="264" y="150.5332">ssr libev</text><!--entity haproxy--><polygon fill="#FEFECE" filter="url(#f1vhs1rrt1yjxo)" points="250,234,250.1414,234.1414,251.9016,231.9016,254.0283,230.0283,255.9138,227.9138,258.0813,226.0813,260,224,260,223.641,270,223.6945,280,224.4324,290,224.4995,300,223.3075,310,224.0399,320,223.8648,330,223.8775,340,224,339.9063,224,339.8917,231.5219,340.0533,239.0438,339.9737,246.5656,339.8313,254.0875,340,261.6094,339.9029,261.5123,337.9796,263.589,336.0708,265.6802,333.9077,267.5171,331.9871,269.5965,330,271.6094,330,271.4516,320,272.1334,310,272.0914,300,272.2932,290,271.478,280,271.723,270,271.9466,260,271.6142,250,271.6094,250.1807,271.6094,250.1801,264.0875,250.2163,256.5656,249.806,249.0438,249.9526,241.5219,250,234" style="stroke: #000000; stroke-width: 1.5;"/><path d="M330,234 L330.1199,234.1199 L331.8018,232.2018 L333.7659,230.5659 L335.4406,228.6406 L337.0688,226.6688 L339,225 " fill="#FEFECE" style="stroke: #000000; stroke-width: 1.5;"/><path d="M250,234 L250,234.6519 L260,233.5536 L270,234.8721 L280,233.0077 L290,234.2845 L300,233.0547 L310,234.728 L320,234.8656 L330,234 " fill="#FEFECE" style="stroke: #000000; stroke-width: 1.5;"/><path d="M330,234 L329.9946,234 L329.9079,241.5219 L329.8716,249.0438 L330.1112,256.5656 L329.8326,264.0875 L330,271.6094 " fill="#FEFECE" style="stroke: #000000; stroke-width: 1.5;"/><text fill="#000000" font-family="sans-serif" font-size="14" lengthAdjust="spacingAndGlyphs" textLength="50" x="265" y="258.5332">haproxy</text><!--entity server1--><polygon fill="#FEFECE" filter="url(#f1vhs1rrt1yjxo)" points="6,342,5.8574,341.8574,7.9094,339.9094,9.9931,337.9931,11.9439,335.9439,14.092,334.092,16,332,16,332.1334,25.6667,331.9738,35.3333,332.7005,45,332.2637,54.6667,332.4537,64.3333,331.9623,74,332,73.853,332,73.8556,339.5219,74.0686,347.0438,74.0503,354.5656,73.9261,362.0875,74,369.6094,74.0079,369.6172,72.1602,371.7695,70.1593,373.7687,67.8438,375.4532,66.1162,377.7256,64,379.6094,64,379.3445,54.3333,379.496,44.6667,380.3507,35,379.6792,25.3333,379.3434,15.6667,379.3818,6,379.6094,6.0925,379.6094,5.9937,372.0875,6.1943,364.5656,6.0845,357.0438,6.2421,349.5219,6,342" style="stroke: #000000; stroke-width: 1.5;"/><path d="M64,342 L64.1484,342.1484 L66.0353,340.4353 L67.8045,338.6045 L69.3008,336.5008 L71.2108,334.8108 L73,333 " fill="#FEFECE" style="stroke: #000000; stroke-width: 1.5;"/><path d="M6,342 L6,341.1823 L15.6667,342.5433 L25.3333,341.1767 L35,342.7348 L44.6667,341.3731 L54.3333,341.3431 L64,342 " fill="#FEFECE" style="stroke: #000000; stroke-width: 1.5;"/><path d="M64,342 L64.1732,342 L63.9593,349.5219 L64.0449,357.0438 L64.028,364.5656 L64.1514,372.0875 L64,379.6094 " fill="#FEFECE" style="stroke: #000000; stroke-width: 1.5;"/><text fill="#000000" font-family="sans-serif" font-size="14" lengthAdjust="spacingAndGlyphs" textLength="28" x="21" y="366.5332">cn-1</text><!--entity server2--><polygon fill="#FEFECE" filter="url(#f1vhs1rrt1yjxo)" points="109,342,108.9746,341.9746,110.8451,339.8451,112.9328,337.9328,114.8502,335.8502,116.849,333.849,119,332,119,332.1085,128.3333,332.2795,137.6667,332.1815,147,331.7417,156.3333,331.8191,165.6667,331.5388,175,332,174.7973,332,174.9612,339.5219,174.7592,347.0438,175.0479,354.5656,175.1027,362.0875,175,369.6094,174.9,369.5094,172.8622,371.4716,170.8432,373.4526,169.0643,375.6736,166.8496,377.459,165,379.6094,165,379.5784,155.6667,379.6589,146.3333,379.8649,137,379.447,127.6667,379.1088,118.3333,380.1033,109,379.6094,109.218,379.6094,109.2226,372.0875,109.0399,364.5656,108.8021,357.0438,108.8653,349.5219,109,342" style="stroke: #000000; stroke-width: 1.5;"/><path d="M165,342 L165.1436,342.1436 L167.0337,340.4337 L168.4519,338.2519 L170.6224,336.8224 L172.3282,334.9282 L174,333 " fill="#FEFECE" style="stroke: #000000; stroke-width: 1.5;"/><path d="M109,342 L109,342.869 L118.3333,342.31 L127.6667,342.9654 L137,341.1814 L146.3333,342.1956 L155.6667,341.7566 L165,342 " fill="#FEFECE" style="stroke: #000000; stroke-width: 1.5;"/><path d="M165,342 L164.9996,342 L165.0414,349.5219 L165.04,357.0438 L165.316,364.5656 L164.969,372.0875 L165,379.6094 " fill="#FEFECE" style="stroke: #000000; stroke-width: 1.5;"/><text fill="#000000" font-family="sans-serif" font-size="14" lengthAdjust="spacingAndGlyphs" textLength="26" x="124" y="366.5332">tw-1</text><!--entity server3--><polygon fill="#FEFECE" filter="url(#f1vhs1rrt1yjxo)" points="210,342,209.8854,341.8854,211.9101,339.9101,214.0352,338.0352,215.8872,335.8872,218.1575,334.1575,220,332,220,331.8831,229.6667,331.915,239.3333,332.2927,249,332.4455,258.6667,332.6974,268.3333,331.837,278,332,277.9959,332,277.8144,339.5219,278.0199,347.0438,278.0111,354.5656,278.0163,362.0875,278,369.6094,277.8251,369.4345,276.0195,371.6289,273.9511,373.5605,272.0239,375.6332,270.1431,377.7525,268,379.6094,268,380.0809,258.3333,379.1569,248.6667,379.3399,239,379.5764,229.3333,379.9143,219.6667,379.189,210,379.6094,209.8854,379.6094,210.2053,372.0875,209.9988,364.5656,210.1489,357.0438,210.1554,349.5219,210,342" style="stroke: #000000; stroke-width: 1.5;"/><path d="M268,342 L267.8648,341.8648 L269.7894,340.1894 L271.7843,338.5843 L273.3774,336.5774 L275.0059,334.6059 L277,333 " fill="#FEFECE" style="stroke: #000000; stroke-width: 1.5;"/><path d="M210,342 L210,342.9449 L219.6667,341.57 L229.3333,341.9865 L239,342.8613 L248.6667,341.4927 L258.3333,341.4541 L268,342 " fill="#FEFECE" style="stroke: #000000; stroke-width: 1.5;"/><path d="M268,342 L267.761,342 L267.6971,349.5219 L267.8397,357.0438 L268.2967,364.5656 L268.0039,372.0875 L268,379.6094 " fill="#FEFECE" style="stroke: #000000; stroke-width: 1.5;"/><text fill="#000000" font-family="sans-serif" font-size="14" lengthAdjust="spacingAndGlyphs" textLength="28" x="225" y="366.5332">us-1</text><!--entity server4--><polygon fill="#FEFECE" filter="url(#f1vhs1rrt1yjxo)" points="313,342,312.9129,341.9129,315.1117,340.1117,317.0239,338.0239,318.875,335.875,321.094,334.094,323,332,323,331.8807,332.3333,331.3706,341.6667,332.7183,351,331.9942,360.3333,331.7423,369.6667,331.5043,379,332,378.8947,332,379.1826,339.5219,379.137,347.0438,378.8054,354.5656,378.9559,362.0875,379,369.6094,379.0461,369.6554,376.8984,371.5078,374.916,373.5253,372.9172,375.5266,370.9469,377.5563,369,379.6094,369,379.7514,359.6667,379.1813,350.3333,379.523,341,379.9925,331.6667,379.2123,322.3333,379.226,313,379.6094,313.1748,379.6094,313.034,372.0875,313.1051,364.5656,312.9469,357.0438,312.8059,349.5219,313,342" style="stroke: #000000; stroke-width: 1.5;"/><path d="M369,342 L368.8335,341.8335 L370.7705,340.1705 L372.4961,338.2961 L374.6031,336.8031 L376.346,334.946 L378,333 " fill="#FEFECE" style="stroke: #000000; stroke-width: 1.5;"/><path d="M313,342 L313,341.3335 L322.3333,342.2094 L331.6667,341.9613 L341,342.4105 L350.3333,342.0144 L359.6667,341.6128 L369,342 " fill="#FEFECE" style="stroke: #000000; stroke-width: 1.5;"/><path d="M369,342 L369.0755,342 L369.1673,349.5219 L369.2535,357.0438 L368.8915,364.5656 L368.8024,372.0875 L369,379.6094 " fill="#FEFECE" style="stroke: #000000; stroke-width: 1.5;"/><text fill="#000000" font-family="sans-serif" font-size="14" lengthAdjust="spacingAndGlyphs" textLength="26" x="328" y="366.5332">ru-1</text><!--entity serverdots--><polygon fill="#FEFECE" filter="url(#f1vhs1rrt1yjxo)" points="414,342,413.9589,341.9589,416.1331,340.1331,417.9017,337.9017,419.9482,335.9482,422.0681,334.0681,424,332,424,332.6607,433.6667,332.4219,443.3333,331.8731,453,332.6215,462.6667,332.131,472.3333,332.3782,482,332,482.1857,332,481.8972,339.5219,482.2435,347.0438,481.9828,354.5656,481.768,362.0875,482,369.6094,482.1446,369.7539,480.0775,371.6869,477.9186,373.528,475.9337,375.5431,473.9114,377.5208,472,379.6094,472,380.0954,462.3333,378.8716,452.6667,379.3822,443,379.0997,433.3333,380.2424,423.6667,379.7179,414,379.6094,414.1969,379.6094,413.8021,372.0875,413.847,364.5656,413.931,357.0438,413.9786,349.5219,414,342" style="stroke: #000000; stroke-width: 1.5;"/><path d="M472,342 L472.1015,342.1015 L473.727,340.127 L475.5438,338.3438 L477.17,336.37 L479.0428,334.6428 L481,333 " fill="#FEFECE" style="stroke: #000000; stroke-width: 1.5;"/><path d="M414,342 L414,341.7503 L423.6667,342.3908 L433.3333,342.9572 L443,341.0929 L452.6667,341.0185 L462.3333,341.1446 L472,342 " fill="#FEFECE" style="stroke: #000000; stroke-width: 1.5;"/><path d="M472,342 L472.0307,342 L471.8052,349.5219 L471.6816,357.0438 L472.1941,364.5656 L471.7164,372.0875 L472,379.6094 " fill="#FEFECE" style="stroke: #000000; stroke-width: 1.5;"/><text fill="#000000" font-family="sans-serif" font-size="14" lengthAdjust="spacingAndGlyphs" textLength="28" x="429" y="366.5332">……</text><!--entity servern--><polygon fill="#FEFECE" filter="url(#f1vhs1rrt1yjxo)" points="517,342,516.9622,341.9622,518.968,339.968,521.1437,338.1437,523.1172,336.1172,524.9654,333.9654,527,332,527,331.882,537.8,332.1567,548.6,332.269,559.4,331.4009,570.2,332.5951,581,332,581.13,332,581.0214,339.5219,581.1035,347.0438,580.7845,354.5656,580.9314,362.0875,581,369.6094,581.0097,369.6191,579.01,371.6194,576.8685,373.4779,574.8681,375.4775,572.985,377.5944,571,379.6094,571,379.8045,560.2,379.2406,549.4,379.3803,538.6,379.3692,527.8,380.1375,517,379.6094,517.0644,379.6094,517.2012,372.0875,517.1689,364.5656,516.7928,357.0438,516.7755,349.5219,517,342" style="stroke: #000000; stroke-width: 1.5;"/><path d="M571,342 L570.8775,341.8775 L572.6914,340.0914 L574.7579,338.5579 L576.2877,336.4877 L578.0604,334.6604 L580,333 " fill="#FEFECE" style="stroke: #000000; stroke-width: 1.5;"/><path d="M517,342 L517,342.813 L527.8,342.5724 L538.6,342.7945 L549.4,342.355 L560.2,341.9334 L571,342 " fill="#FEFECE" style="stroke: #000000; stroke-width: 1.5;"/><path d="M571,342 L570.9275,342 L570.762,349.5219 L570.8331,357.0438 L571.1003,364.5656 L570.9146,372.0875 L571,379.6094 " fill="#FEFECE" style="stroke: #000000; stroke-width: 1.5;"/><text fill="#000000" font-family="sans-serif" font-size="14" lengthAdjust="spacingAndGlyphs" textLength="24" x="532" y="366.5332">jp-n</text><!--link applications to ssrlibev--><path d="M295,56 L295.3465,56 L294.7808,65.9463 L294.7298,75.8927 L295.0324,85.839 L294.6003,95.7853 L294.1006,105.7317 L295,115.678 " fill="none" style="stroke: #A80036; stroke-width: 1.0;"/><!--link ssrlibev to haproxy--><path d="M295,164 L295.8611,164 L294.4457,173.9463 L295.8989,183.8927 L294.1508,193.839 L294.0942,203.7853 L295.8166,213.7317 L295,223.678 " fill="none" style="stroke: #A80036; stroke-width: 1.0;"/><!--link haproxy to server1--><path d="M249.828,266.818 L249.7327,266.5798 L242.8746,269.5468 L235.989,272.4452 L229.0608,275.2371 L222.1658,278.112 L215.1508,280.6866 L215.2453,280.9199 L207.2389,284.104 L199.1435,287.0684 L191.155,290.2964 L183.2388,293.7032 L175.223,296.864 L175.0807,296.5187 L167.1128,301.2182 L158.291,303.8461 L149.5379,306.6407 L141.4903,311.1468 L132.8907,314.3138 L133.0563,314.706 L124.3219,317.3994 L116.132,321.3826 L107.8737,325.2036 L99.3585,328.4163 L91,332 L91.021,332.0478 L87.6964,333.5941 L84.3594,335.1117 L80.8056,336.1351 L77.4872,337.6954 L74.2143,339.3593 " fill="none" style="stroke: #A80036; stroke-width: 1.0;"/><!--link haproxy to server2--><path d="M261.801,272 L261.365,271.3707 L253.9789,277.5405 L246.142,283.0595 L238.3079,288.5827 L229.9273,293.317 L222.3343,299.1882 L214.2254,304.3147 L206.7048,310.2903 L198.4092,315.1473 L191.1881,321.5552 L183.0343,326.617 L175.134,332.0445 " fill="none" style="stroke: #A80036; stroke-width: 1.0;"/><polygon fill="#FFFFFF" points="227.9434,304.4558,227.5665,306.9636,225.1178,309.2995,223.1339,311.351,221.1069,311.2127,217.8814,312.0072,216.0103,312.018,213.8741,311.276,211.6376,308.7559,209.991,306.7043,209.0028,304.882,208.9349,303.0235,208.7935,300.9506,209.0809,298.9692,210.7071,296.047,212.1819,294.703,214.0861,293.6495,215.9597,292.7464,219.061,292.5823,222.217,292.8323,224.4503,294.6778,226.1678,295.9367,227.7457,298.798,228.1164,302.0918" style="stroke: #FFFFFF; stroke-width: 1.0;"/><path d="M208.6222,300.2412 A10,10 0 0 0 216.676 311.866" fill="#FFFFFF" style="stroke: #A80036; stroke-width: 1.5;"/><path d="M228.3008,303.8121 A10,10 0 0 0 220.247 292.1873" fill="#FFFFFF" style="stroke: #A80036; stroke-width: 1.5;"/><polygon fill="#FFFFFF" points="224.2612,303.7143,223.9857,305.2043,222.9179,305.7813,221.9614,307.0964,220.3155,307.3628,218.8743,307.9175,216.9554,307.6793,215.6578,307.3366,214.2708,306.2432,213.3224,305.2096,212.9326,304.0158,212.4699,302.7591,212.4358,301.3569,213.1354,300.0044,213.8008,298.4928,214.9201,297.5172,216.4675,296.6829,217.6081,296.3947,219.2414,295.8252,220.5171,296.72,221.9827,297.4051,223.321,298.5465,223.9371,299.6549,224.1131,300.7995,224.0854,302.4692" style="stroke: #A80036; stroke-width: 1.5;"/><!--link haproxy to server3--><path d="M283.934,272 L284.6082,272.3244 L280.3604,280.7796 L275.7498,289.0604 L270.8372,297.1958 L266.8903,305.7958 L262.6523,314.2558 L259.4059,323.1929 L255.221,331.6784 " fill="none" style="stroke: #A80036; stroke-width: 1.0;"/><polygon fill="#FFFFFF" points="279.5977,305.1728,277.1964,307.5888,275.0122,309.9342,272.6282,311.0282,270.2385,311.3897,267.2133,311.8309,264.26,310.3088,262.5169,308.5793,260.4583,306.6776,259.9522,304.5147,259.5419,302.3774,259.7727,300.2997,260.5552,298.3611,262.044,295.7472,264.2895,293.2338,267.1295,291.4874,269.0524,291.7161,272.2478,291.8575,274.7347,293.8542,277.4779,295.7823,278.084,297.5148,279.3986,300.2088,279.2902,303.0765" style="stroke: #FFFFFF; stroke-width: 1.0;"/><path d="M260.1541,305.1157 A10,10 0 0 0 272.898 311.2471" fill="#FFFFFF" style="stroke: #A80036; stroke-width: 1.5;"/><path d="M279.0294,298.5033 A10,10 0 0 0 266.2855 292.3719" fill="#FFFFFF" style="stroke: #A80036; stroke-width: 1.5;"/><polygon fill="#FFFFFF" points="275.3698,303.8788,274.6113,305.0663,273.3522,306.3158,272.2529,306.8336,270.7824,307.8313,269.021,307.4897,267.7613,307.1736,266.3325,306.7842,265.0924,305.6576,264.7069,304.6662,264.1081,303.4921,263.7777,301.6904,263.4966,300.1093,264.4014,298.7062,265.3036,297.5522,266.4321,296.7441,267.7959,296.1348,268.8478,295.9879,270.2832,295.5885,271.7555,296.4385,273.2043,297.4575,274.5435,297.9735,274.764,299.5027,275.6825,300.7677,275.1742,302.5207" style="stroke: #A80036; stroke-width: 1.5;"/><!--link haproxy to server4--><path d="M306.066,272 L305.8827,271.9118 L310.1411,280.5126 L313.8716,288.8594 L317.959,297.378 L322.713,306.2172 L326.9057,314.7864 L330.3691,323.0047 L334.779,331.6784 " fill="none" style="stroke: #A80036; stroke-width: 1.0;"/><!--link haproxy to serverdots--><path d="M328.199,272 L327.7773,271.3913 L335.5998,276.7867 L343.9836,282.9921 L352.3212,289.1309 L359.1794,293.1345 L367.6568,299.475 L375.0572,304.2611 L383.2312,310.1637 L391.4485,316.129 L399.3743,321.6734 L406.2714,325.733 L414.602,331.8617 " fill="none" style="stroke: #A80036; stroke-width: 1.0;"/><!--link haproxy to servern--><path d="M340.081,266.441 L340.1482,266.6113 L347.0053,269.0453 L354.1205,272.1331 L361.0986,274.8736 L368.0396,277.5199 L375.0043,280.2266 L374.8931,279.95 L382.9625,283.244 L391.1363,286.7978 L399.1027,289.8358 L407.1716,293.1285 L415.2375,296.4139 L415.5309,297.1249 L423.6919,299.7562 L432.1972,303.2218 L440.7179,306.7249 L449.1176,309.9346 L457.8722,314.0044 L457.8378,313.9232 L462.0243,315.5469 L466.5245,317.9128 L470.573,319.2102 L475.0327,321.4801 L479.1812,323.014 L479.1701,322.9883 L483.4132,324.9693 L487.5466,326.6962 L491.6229,328.2908 L495.8891,330.3253 L500,332 L499.9867,331.9705 L503.4082,333.5683 L506.852,335.2155 L510.2061,336.6642 L513.6107,338.2247 L516.957,339.6559 " fill="none" style="stroke: #A80036; stroke-width: 1.0;"/><!--
@startuml

skinparam nodeNameAlign center
skinparam handwritten true
skinparam titleBorderRoundCorner 15
skinparam titleBorderThickness 1
skinparam titleBorderColor black

Node applications
Node ssrlibev [
ssr libev
]
Node haproxy
Node server1 [
cn-1
]
Node server2 [
tw-1
]
Node server3 [
us-1
]
Node server4 [
ru-1
]
Node serverdots [
……
]
Node servern [
jp-n
]
applications - - ssrlibev
ssrlibev - - haproxy
haproxy - - server1
haproxy -(0)- server2
haproxy -(0)- server3
haproxy - - server4
haproxy - - serverdots
haproxy - - servern

@enduml

PlantUML version 1.2018.01(Mon Jan 29 02:08:22 CST 2018)
(GPL source distribution)
Java Runtime: Java(TM) SE Runtime Environment
JVM: Java HotSpot(TM) 64-Bit Server VM
Java Version: 1.8.0_161-b12
Operating System: Windows 10
OS Version: 10.0
Default Encoding: Cp1252
Language: en
Country: US
--></g></svg>