<svg xmlns="http://www.w3.org/2000/svg" xmlns:xlink="http://www.w3.org/1999/xlink" width="1247" height="763" contentScriptType="application/ecmascript" contentStyleType="text/css" preserveAspectRatio="none" version="1.1" viewBox="0 0 1247 763" zoomAndPan="magnify" style="width:1247px;height:763px"><defs><filter id="f9u9e6xjpuzn" width="300%" height="300%" x="-1" y="-1"><feGaussianBlur result="blurOut" stdDeviation="2"/><feColorMatrix in="blurOut" result="blurOut2" type="matrix" values="0 0 0 0 0 0 0 0 0 0 0 0 0 0 0 0 0 0 .4 0"/><feOffset dx="4" dy="4" in="blurOut2" result="blurOut3"/><feBlend in="SourceGraphic" in2="blurOut3" mode="normal"/></filter></defs><g><polygon fill="none" stroke="#000" stroke-width="1" points="533 2 533 2.268 542.778 1.851 552.556 2.528 562.333 1.379 572.111 2.357 581.889 2.425 591.667 2.179 601.444 1.691 611.222 2.298 621 1.28 630.778 2.478 640.556 1.305 650.333 2.479 660.111 2.509 669.889 1.788 679.667 1.389 689.444 1.43 699.222 2.15 709 2 708.977 1.945 710.077 2.479 711.03 2.658 712.24 3.459 713.299 3.892 714.303 4.197 714.283 4.188 714.85 5.302 715.146 6.303 715.404 7.289 716.052 8.436 716.5 9.5 716.515 9.5 716.347 13.028 716.705 16.556 716.679 20.084 716.306 23.613 716.5 27.141 716.71 27.227 716.048 28.196 715.57 29.241 715.36 30.396 714.565 31.309 714.303 32.444 714.359 32.579 713.24 32.878 712.168 33.288 711.072 33.642 710.019 34.1 709 34.641 709 34.23 699.222 34.786 689.444 35.041 679.667 34.614 669.889 34.88 660.111 34.706 650.333 34.696 640.556 34.363 630.778 34.945 621 34.56 611.222 35.35 601.444 34.99 591.667 34.991 581.889 34.169 572.111 34.229 562.333 33.952 552.556 34.008 542.778 33.997 533 34.641 533.038 34.732 531.967 34.267 530.859 33.715 529.826 33.342 528.827 33.051 527.697 32.444 527.78 32.478 527.431 31.455 526.672 30.262 526.26 29.213 526.157 28.292 525.5 27.141 525.718 27.141 525.55 23.613 525.688 20.084 525.662 16.556 525.272 13.028 525.5 9.5 525.505 9.502 525.951 8.444 526.446 7.407 526.982 6.386 527.097 5.191 527.697 4.197 527.645 4.071 528.835 3.945 529.881 3.47 530.836 2.775 531.971 2.515 533 2"/><text x="533.5" y="25.686" fill="#000" font-family="sans-serif" font-size="18" lengthAdjust="spacingAndGlyphs" textLength="175">Network topo at home</text><polygon fill="#FEFECE" stroke="#000" stroke-width="1.5" points="435 713.641 435.09 713.73 437.173 711.813 438.882 709.523 440.872 707.513 443.075 705.716 445 703.641 445 703.391 455.4 704.147 465.8 704.028 476.2 702.943 486.6 704.314 497 703.641 496.76 703.641 497.06 711.163 497.157 718.684 497.011 726.206 497.16 733.728 497 741.25 497.033 741.283 495.056 743.306 493.022 745.272 491.101 747.351 488.978 749.227 487 751.25 487 751.342 476.6 750.74 466.2 751.7 455.8 751.499 445.4 751.716 435 751.25 435.066 751.25 435.026 743.728 435.123 736.206 434.788 728.684 435.221 721.163 435 713.641" filter="url(#f9u9e6xjpuzn)"/><path fill="#FEFECE" stroke="#000" stroke-width="1.5" d="M487,713.6406 L486.9683,713.6089 L488.906,711.9466 L490.5357,709.9763 L492.2433,708.0839 L494.1931,706.4337 L496,704.6406"/><path fill="#FEFECE" stroke="#000" stroke-width="1.5" d="M435,713.6406 L435,713.722 L445.4,713.3754 L455.8,714.2321 L466.2,713.7727 L476.6,714.2044 L487,713.6406"/><path fill="#FEFECE" stroke="#000" stroke-width="1.5" d="M487,713.6406 L487.1088,713.6406 L487.3039,721.1625 L486.7273,728.6844 L487.086,736.2063 L486.99,743.7281 L487,751.25"/><text x="450" y="738.174" fill="#000" font-family="sans-serif" font-size="14" font-weight="bold" lengthAdjust="spacingAndGlyphs" textLength="22">ISP</text><polygon fill="#FEFECE" stroke="#000" stroke-width="1.5" points="367 580.641 366.865 580.505 369.074 578.715 370.909 576.55 372.897 574.538 374.852 572.493 377 570.641 377 571.25 386.895 571.062 396.789 570.418 406.684 570.522 416.579 571.293 426.474 570.821 436.368 571.015 446.263 571.053 456.158 570.752 466.053 570.339 475.947 570.929 485.842 570.89 495.737 569.973 505.632 571.362 515.526 570.006 525.421 570.952 535.316 569.921 545.211 570.035 555.105 570.192 565 570.641 564.613 570.641 565.25 581.177 564.411 591.713 565.064 602.25 565.165 612.787 564.543 623.323 565 633.859 564.853 633.712 563.125 635.984 560.953 637.812 558.963 639.822 556.825 641.685 555 643.859 555 643.222 545.105 644.344 535.211 644.012 525.316 643.747 515.421 643.119 505.526 643.694 495.632 643.767 485.737 643.458 475.842 643.453 465.947 643.357 456.053 643.949 446.158 644.57 436.263 644.183 426.368 643.491 416.474 643.478 406.579 643.408 396.684 643.909 386.789 643.455 376.895 644.526 367 643.859 367.655 643.859 366.818 633.323 366.395 622.787 367.625 612.25 366.86 601.713 366.512 591.177 367 580.641" filter="url(#f9u9e6xjpuzn)"/><path fill="#FEFECE" stroke="#000" stroke-width="1.5" d="M555,580.6406 L555.2307,580.8713 L556.9584,578.9991 L558.6433,577.084 L560.4706,575.3113 L562.3187,573.5593 L564,571.6406"/><path fill="#FEFECE" stroke="#000" stroke-width="1.5" d="M367,580.6406 L367,580.9773 L376.8947,580.2 L386.7895,581.2399 L396.6842,580.2684 L406.5789,580.287 L416.4737,580.8438 L426.3684,580.143 L436.2632,580.9305 L446.1579,580.5503 L456.0526,579.7227 L465.9474,581.5188 L475.8421,581.2374 L485.7368,580.445 L495.6316,580.1241 L505.5263,579.8307 L515.4211,580.2805 L525.3158,580.8056 L535.2105,581.2547 L545.1053,580.3614 L555,580.6406"/><path fill="#FEFECE" stroke="#000" stroke-width="1.5" d="M555,580.6406 L555.993,580.6406 L555.4037,591.1771 L555.1997,601.7135 L555.728,612.25 L555.2042,622.7865 L555.8148,633.3229 L555,643.8594"/><text x="382" y="605.174" fill="#000" font-family="sans-serif" font-size="14" lengthAdjust="spacingAndGlyphs" textLength="87">Banana Pi R1</text><text x="473" y="605.174" fill="#000" font-family="sans-serif" font-size="14" font-weight="bold" lengthAdjust="spacingAndGlyphs" textLength="48">Router</text><path fill="none" stroke="#000" stroke-dasharray="1 2" stroke-width="1" d="M367,608.25 L367,608.93 L376.8947,607.9617 L386.7895,609.1413 L396.6842,608.2324 L406.5789,608.3525 L416.4737,609.1586 L426.3684,607.5306 L436.2632,609.1656 L446.1579,608.5289 L456.0526,608.755 L465.9474,608.4507 L475.8421,607.6255 L485.7368,607.3967 L495.6316,608.1172 L505.5263,608.8983 L515.4211,607.3889 L525.3158,607.8622 L535.2105,607.5876 L545.1053,608.3402 L555,608.25"/><path fill="none" stroke="#000" stroke-dasharray="1 2" stroke-width="1" d="M555,608.25 L554.92,608.17 L556.8612,606.1112 L558.9603,604.2103 L560.9165,602.1665 L562.941,600.191 L565,598.25"/><text x="388" y="626.783" fill="#000" font-family="sans-serif" font-size="14" lengthAdjust="spacingAndGlyphs" textLength="146">(Dial to ISP, break wall)</text><polygon fill="#FEFECE" stroke="#000" stroke-width="1.5" points="333 447.641 332.951 447.592 335.104 445.745 336.861 443.502 339.082 441.723 341.076 439.716 343 437.641 343 436.897 352.846 438.003 362.692 437.243 372.538 438.335 382.385 437.981 392.231 438.012 402.077 437.306 411.923 437.294 421.769 437.955 431.615 437.104 441.462 437.575 451.308 437.159 461.154 437.829 471 437.383 480.846 437.756 490.692 437.932 500.538 438.368 510.385 437.524 520.231 437.456 530.077 438.077 539.923 437.247 549.769 437.892 559.615 437.567 569.462 437.786 579.308 437.337 589.154 438.092 599 437.641 599.255 437.641 599.403 448.177 598.317 458.714 598.942 469.25 599.669 479.786 598.905 490.323 599 500.859 599.13 500.989 597.144 503.004 594.981 504.841 592.957 506.817 590.851 508.711 589 510.859 589 510.81 579.154 510.651 569.308 511.368 559.462 511.607 549.615 510.439 539.769 510.116 529.923 511.017 520.077 511.118 510.231 510.963 500.385 510.84 490.538 511.192 480.692 511.056 470.846 510.613 461 510.561 451.154 510.549 441.308 511.118 431.462 510.236 421.615 510.16 411.769 510.901 401.923 510.923 392.077 510.642 382.231 510.126 372.385 510.476 362.538 510.719 352.692 510.779 342.846 511.538 333 510.859 333.209 510.859 332.739 500.323 332.74 489.786 333.356 479.25 332.476 468.714 332.863 458.177 333 447.641" filter="url(#f9u9e6xjpuzn)"/><path fill="#FEFECE" stroke="#000" stroke-width="1.5" d="M589,447.6406 L588.8221,447.4627 L590.6239,445.6645 L592.7247,444.1654 L594.1949,442.0355 L596.2208,440.4615 L598,438.6406"/><path fill="#FEFECE" stroke="#000" stroke-width="1.5" d="M333,447.6406 L333,448.0875 L342.8462,446.7944 L352.6923,448.0389 L362.5385,447.4337 L372.3846,447.9053 L382.2308,448.3924 L392.0769,447.3369 L401.9231,446.9611 L411.7692,446.9696 L421.6154,448.4867 L431.4615,446.9171 L441.3077,447.4099 L451.1538,447.7423 L461,448.6149 L470.8462,446.7009 L480.6923,447.4 L490.5385,448.5254 L500.3846,446.7214 L510.2308,446.9044 L520.0769,447.4481 L529.9231,446.7035 L539.7692,448.3304 L549.6154,448.4204 L559.4615,447.0868 L569.3077,447.414 L579.1538,448.5292 L589,447.6406"/><path fill="#FEFECE" stroke="#000" stroke-width="1.5" d="M589,447.6406 L589.4351,447.6406 L589.1306,458.1771 L588.163,468.7135 L588.6665,479.25 L588.1766,489.7865 L589.2128,500.3229 L589,510.8594"/><text x="348" y="472.174" fill="#000" font-family="sans-serif" font-size="14" lengthAdjust="spacingAndGlyphs" textLength="96">TP-Link 1000M</text><text x="448" y="472.174" fill="#000" font-family="sans-serif" font-size="14" font-weight="bold" lengthAdjust="spacingAndGlyphs" textLength="61">Switcher</text><path fill="none" stroke="#000" stroke-dasharray="1 2" stroke-width="1" d="M333,475.25 L333,475.0413 L342.8462,475.8556 L352.6923,475.8641 L362.5385,474.6808 L372.3846,474.8338 L382.2308,474.5582 L392.0769,474.4063 L401.9231,474.718 L411.7692,474.2664 L421.6154,474.5211 L431.4615,474.4781 L441.3077,475.4343 L451.1538,475.181 L461,474.4321 L470.8462,474.9869 L480.6923,475.351 L490.5385,474.784 L500.3846,476.0638 L510.2308,474.3368 L520.0769,475.8925 L529.9231,475.9746 L539.7692,476.0798 L549.6154,474.8411 L559.4615,475.7457 L569.3077,476.1748 L579.1538,476.1428 L589,475.25"/><path fill="none" stroke="#000" stroke-dasharray="1 2" stroke-width="1" d="M589,475.25 L589.0329,475.2829 L590.8212,473.0712 L593.0128,471.2628 L595.1132,469.3632 L597.0959,467.3459 L599,465.25"/><text x="354" y="493.783" fill="#000" font-family="sans-serif" font-size="14" lengthAdjust="spacingAndGlyphs" textLength="214">extend Banana Pi&apos;s ethernet ports</text><polygon fill="#FEFECE" stroke="#000" stroke-width="1.5" points="277.5 305.641 277.526 305.667 279.534 303.675 281.458 301.598 283.635 299.776 285.619 297.76 287.5 295.641 287.5 296.26 297.313 295.476 307.125 295.168 316.938 295.545 326.75 295.88 336.563 295.655 346.375 295.377 356.188 295.913 366 296.043 375.813 295.014 385.625 295.323 395.438 294.972 405.25 294.971 415.063 295.359 424.875 296.243 434.688 295.326 444.5 295.641 445.247 295.641 444.476 306.177 445.007 316.714 444.717 327.25 444.138 337.786 444.519 348.323 444.5 358.859 444.462 358.822 442.669 361.028 440.665 363.024 438.663 365.023 436.42 366.779 434.5 368.859 434.5 368.706 424.688 368.976 414.875 369.446 405.063 369.366 395.25 368.57 385.438 368.801 375.625 368.961 365.813 369.108 356 369.206 346.188 368.941 336.375 368.529 326.563 369.482 316.75 369.37 306.938 368.51 297.125 368.227 287.313 369.298 277.5 368.859 277.61 368.859 277.341 358.323 277.367 347.786 277.53 337.25 277.058 326.714 276.886 316.177 277.5 305.641" filter="url(#f9u9e6xjpuzn)"/><path fill="#FEFECE" stroke="#000" stroke-width="1.5" d="M434.5,305.6406 L434.3346,305.4752 L436.2792,303.8198 L438.1817,302.1223 L440.1321,300.4727 L441.735,298.4757 L443.5,296.6406"/><path fill="#FEFECE" stroke="#000" stroke-width="1.5" d="M277.5,305.6406 L277.5,305.7159 L287.3125,305.2986 L297.125,305.184 L306.9375,305.4063 L316.75,306.4731 L326.5625,305.9921 L336.375,306.4348 L346.1875,306.1232 L356,305.8512 L365.8125,305.6066 L375.625,305.6789 L385.4375,306.3999 L395.25,304.8615 L405.0625,305.57 L414.875,305.2439 L424.6875,305.8669 L434.5,305.6406"/><path fill="#FEFECE" stroke="#000" stroke-width="1.5" d="M434.5,305.6406 L434.2712,305.6406 L434.4766,316.1771 L434.748,326.7135 L434.6429,337.25 L433.6048,347.7865 L433.5388,358.3229 L434.5,368.8594"/><text x="292.5" y="330.174" fill="#000" font-family="sans-serif" font-size="14" lengthAdjust="spacingAndGlyphs" textLength="103">Raspberry Pi 2B</text><path fill="none" stroke="#000" stroke-dasharray="1 2" stroke-width="1" d="M277.5,333.25 L277.5,334.0661 L287.3125,333.7706 L297.125,333.5141 L306.9375,332.6853 L316.75,333.9858 L326.5625,333.0556 L336.375,333.3867 L346.1875,333.8059 L356,332.7451 L365.8125,333.8394 L375.625,332.3905 L385.4375,332.7674 L395.25,333.4337 L405.0625,332.5792 L414.875,332.7883 L424.6875,332.7604 L434.5,333.25"/><path fill="none" stroke="#000" stroke-dasharray="1 2" stroke-width="1" d="M434.5,333.25 L434.642,333.392 L436.3849,331.1349 L438.6764,329.4264 L440.4343,327.1843 L442.3303,325.0803 L444.5,323.25"/><text x="298.5" y="351.783" fill="#000" font-family="sans-serif" font-size="14" lengthAdjust="spacingAndGlyphs" textLength="115">As HTPC/NAS etc.</text><polygon fill="#FEFECE" stroke="#000" stroke-width="1.5" points="480 296.641 480.014 296.655 481.969 294.61 483.969 292.609 485.826 290.467 488.051 288.692 490 286.641 490 286.288 500.235 285.944 510.471 286.106 520.706 286.905 530.941 285.975 541.177 285.916 551.412 285.894 561.647 287.073 571.882 286.652 582.118 286.547 592.353 287.177 602.588 286.375 612.823 286.877 623.059 285.906 633.294 286.894 643.529 286.6 653.765 286.397 664 286.641 663.827 286.641 663.281 296.744 663.812 306.848 663.278 316.951 664.142 327.055 663.787 337.158 663.281 347.262 664.128 357.365 664 367.469 663.877 367.346 661.981 369.45 659.947 371.416 657.904 373.372 656.024 375.493 654 377.469 654 377.234 643.765 377.097 633.529 377.53 623.294 377.324 613.059 377.184 602.823 376.914 592.588 376.727 582.353 376.923 572.118 378.033 561.882 376.738 551.647 377.197 541.412 377.297 531.177 378.014 520.941 376.729 510.706 377.628 500.471 377.019 490.235 377.331 480 377.469 479.551 377.469 479.646 367.365 479.618 357.262 479.262 347.158 480.536 337.055 479.504 326.951 480.558 316.848 479.757 306.744 480 296.641" filter="url(#f9u9e6xjpuzn)"/><path fill="#FEFECE" stroke="#000" stroke-width="1.5" d="M654,296.6406 L654.225,296.8656 L655.6448,294.6855 L657.4165,292.8571 L659.6257,291.4664 L660.965,289.2056 L663,287.6406"/><path fill="#FEFECE" stroke="#000" stroke-width="1.5" d="M480,296.6406 L480,296.0094 L490.2353,297.0439 L500.4706,296.3667 L510.7059,296.8229 L520.9412,297.3197 L531.1765,296.2113 L541.4118,295.8002 L551.6471,295.7245 L561.8824,296.5676 L572.1176,297.3921 L582.3529,296.1984 L592.5882,295.6549 L602.8235,296.1512 L613.0588,297.0298 L623.2941,296.0244 L633.5294,297.159 L643.7647,297.1997 L654,296.6406"/><path fill="#FEFECE" stroke="#000" stroke-width="1.5" d="M654,296.6406 L653.751,296.6406 L654.6286,306.7441 L653.5317,316.8477 L653.8193,326.9512 L653.8871,337.0547 L654.0436,347.1582 L654.7209,357.2617 L653.1354,367.3652 L654,377.4688"/><text x="495" y="321.174" fill="#000" font-family="sans-serif" font-size="14" lengthAdjust="spacingAndGlyphs" textLength="115">Netgear R6300 v2</text><text x="495" y="338.783" fill="#000" font-family="sans-serif" font-size="14" lengthAdjust="spacingAndGlyphs" textLength="47">provide</text><text x="546" y="338.783" fill="#000" font-family="sans-serif" font-size="14" font-weight="bold" lengthAdjust="spacingAndGlyphs" textLength="30">WIFI</text><text x="580" y="338.783" fill="#000" font-family="sans-serif" font-size="14" lengthAdjust="spacingAndGlyphs" textLength="59">capability</text><path fill="none" stroke="#000" stroke-dasharray="1 2" stroke-width="1" d="M480,341.8594 L480,342.543 L490.2353,342.5497 L500.4706,341.3828 L510.7059,341.9506 L520.9412,341.0848 L531.1765,342.4645 L541.4118,341.148 L551.6471,342.5502 L561.8824,342.1472 L572.1176,341.0071 L582.3529,341.6034 L592.5882,341.5659 L602.8235,341.1832 L613.0588,342.6841 L623.2941,341.6392 L633.5294,341.364 L643.7647,341.6562 L654,341.8594"/><path fill="none" stroke="#000" stroke-dasharray="1 2" stroke-width="1" d="M654,341.8594 L653.7719,341.6312 L655.8211,339.6805 L657.9492,337.8086 L660.0295,335.8889 L662.0593,333.9187 L664,331.8594"/><text x="501" y="360.393" fill="#000" font-family="sans-serif" font-size="14" lengthAdjust="spacingAndGlyphs" textLength="112">in the sitting room</text><polygon fill="#FEFECE" stroke="#000" stroke-width="1.5" points="6 163.641 5.833 163.474 8.128 161.769 10.153 159.794 12.135 157.776 14.109 155.75 16 153.641 16 154.045 25.765 153.686 35.529 154.335 45.294 153.5 55.059 153.15 64.823 153.557 74.588 153.942 84.353 154.092 94.118 154.163 103.882 154.36 113.647 153.418 123.412 153.186 133.177 153.513 142.941 153.398 152.706 154.025 162.471 154.228 172.235 153.67 182 153.641 181.351 153.641 182.096 164.177 181.659 174.714 181.4 185.25 181.268 195.786 181.56 206.323 182 216.859 182.157 217.016 179.931 218.791 178.161 221.02 175.877 222.736 173.856 224.715 172 226.859 172 226.777 162.235 226.952 152.471 226.781 142.706 227.202 132.941 226.605 123.177 227.085 113.412 227.351 103.647 226.736 93.882 226.982 84.118 226.354 74.353 226.971 64.588 227.091 54.824 227.51 45.059 226.945 35.294 226.158 25.529 227.468 15.765 226.41 6 226.859 6.201 226.859 5.3 216.323 6.47 205.786 5.926 195.25 5.403 184.714 6.187 174.177 6 163.641" filter="url(#f9u9e6xjpuzn)"/><path fill="#FEFECE" stroke="#000" stroke-width="1.5" d="M172,163.6406 L172.1912,163.8318 L173.5826,161.6232 L175.555,159.9956 L177.3013,158.1419 L179.2123,156.4529 L181,154.6406"/><path fill="#FEFECE" stroke="#000" stroke-width="1.5" d="M6,163.6406 L6,163.5151 L15.7647,163.7519 L25.5294,163.5077 L35.2941,163.6335 L45.0588,163.3504 L54.8235,164.4587 L64.5882,162.8881 L74.3529,163.3099 L84.1176,163.3869 L93.8824,164.4943 L103.6471,162.8809 L113.4118,163.8247 L123.1765,163.2359 L132.9412,162.913 L142.7059,164.3701 L152.4706,162.8537 L162.2353,163.8639 L172,163.6406"/><path fill="#FEFECE" stroke="#000" stroke-width="1.5" d="M172,163.6406 L172.0883,163.6406 L172.1477,174.1771 L172.3214,184.7135 L172.6434,195.25 L172.6705,205.7865 L172.376,216.3229 L172,226.8594"/><text x="21" y="188.174" fill="#000" font-family="sans-serif" font-size="14" lengthAdjust="spacingAndGlyphs" textLength="107">desktop machine</text><path fill="none" stroke="#000" stroke-dasharray="1 2" stroke-width="1" d="M6,191.25 L6,191.6437 L15.7647,190.4698 L25.5294,191.648 L35.2941,191.8575 L45.0588,190.9968 L54.8235,191.3525 L64.5882,191.502 L74.3529,191.8173 L84.1176,190.9449 L93.8824,190.6783 L103.6471,191.1913 L113.4118,190.3316 L123.1765,190.7246 L132.9412,191.7378 L142.7059,190.2647 L152.4706,190.2606 L162.2353,191.7649 L172,191.25"/><path fill="none" stroke="#000" stroke-dasharray="1 2" stroke-width="1" d="M172,191.25 L172.0131,191.2631 L174.0495,189.2995 L176.0075,187.2575 L177.7758,185.0258 L179.8857,183.1357 L182,181.25"/><text x="27" y="209.783" fill="#000" font-family="sans-serif" font-size="14" lengthAdjust="spacingAndGlyphs" textLength="124">Windows 7 installed</text><polygon fill="#FEFECE" stroke="#000" stroke-width="1.5" points="217.5 176.141 217.327 175.968 219.441 174.081 221.503 172.144 223.55 170.19 225.347 167.987 227.5 166.141 227.5 165.584 237.625 166.219 247.75 165.649 257.875 166.881 268 165.743 278.125 165.81 288.25 165.756 298.375 166.346 308.5 166.141 308.736 166.141 308.313 173.662 308.485 181.184 308.662 188.706 308.643 196.228 308.5 203.75 308.334 203.584 306.646 205.895 304.563 207.813 302.472 209.722 300.572 211.822 298.5 213.75 298.5 214.385 288.375 213.661 278.25 213.161 268.125 213.149 258 213.864 247.875 214.409 237.75 213.413 227.625 213.873 217.5 213.75 217.3 213.75 217.526 206.228 217.49 198.706 217.687 191.184 217.484 183.662 217.5 176.141" filter="url(#f9u9e6xjpuzn)"/><path fill="#FEFECE" stroke="#000" stroke-width="1.5" d="M298.5,176.1406 L298.2675,175.9081 L300.1223,174.1629 L301.9513,172.392 L303.724,170.5646 L305.9149,169.1555 L307.5,167.1406"/><path fill="#FEFECE" stroke="#000" stroke-width="1.5" d="M217.5,176.1406 L217.5,175.6161 L227.625,176.1526 L237.75,175.255 L247.875,176.7527 L258,177.0279 L268.125,175.5969 L278.25,176.3827 L288.375,176.5874 L298.5,176.1406"/><path fill="#FEFECE" stroke="#000" stroke-width="1.5" d="M298.5,176.1406 L298.3269,176.1406 L298.71,183.6625 L298.3472,191.1844 L298.3239,198.7063 L298.5868,206.2281 L298.5,213.75"/><text x="232.5" y="200.674" fill="#000" font-family="sans-serif" font-size="14" lengthAdjust="spacingAndGlyphs" textLength="51">MacMini</text><polygon fill="#FEFECE" stroke="#000" stroke-width="1.5" points="225 55.641 224.949 55.59 227.158 53.799 228.918 51.558 231.021 49.662 232.944 47.584 235 45.641 235 44.897 245.4 46.141 255.8 46.251 266.2 44.933 276.6 45.928 287 44.903 297.4 45.926 307.8 45.219 318.2 45.969 328.6 45.011 339 45.641 339.178 45.641 338.87 53.163 338.752 60.684 338.83 68.206 338.94 75.728 339 83.25 338.932 83.182 337.051 85.301 335.079 87.329 332.832 89.082 330.951 91.201 329 93.25 329 92.841 318.6 93.798 308.2 93.9 297.8 93.65 287.4 93.797 277 92.835 266.6 93.701 256.2 92.758 245.8 93.928 235.4 93.535 225 93.25 225.028 93.25 225.249 85.728 224.905 78.206 224.866 70.684 225.039 63.163 225 55.641" filter="url(#f9u9e6xjpuzn)"/><path fill="#FEFECE" stroke="#000" stroke-width="1.5" d="M329,55.6406 L329.1868,55.8275 L330.7509,53.7915 L332.4614,51.902 L334.2107,50.0513 L336.2731,48.5137 L338,46.6406"/><path fill="#FEFECE" stroke="#000" stroke-width="1.5" d="M225,55.6406 L225,55.5289 L235.4,55.9658 L245.8,56.3528 L256.2,56.2089 L266.6,56.1883 L277,54.9973 L287.4,55.2124 L297.8,54.9106 L308.2,54.9803 L318.6,56.2221 L329,55.6406"/><path fill="#FEFECE" stroke="#000" stroke-width="1.5" d="M329,55.6406 L328.8577,55.6406 L329.0439,63.1625 L328.7006,70.6844 L329.0567,78.2063 L328.8398,85.7281 L329,93.25"/><text x="240" y="80.174" fill="#000" font-family="sans-serif" font-size="14" lengthAdjust="spacingAndGlyphs" textLength="74">MacbookAir</text><polygon fill="#FEFECE" stroke="#000" stroke-width="1.5" points="557.5 163.641 557.59 163.73 559.399 161.54 561.484 159.625 563.456 157.596 565.616 155.756 567.5 153.641 567.5 153.24 577.7 153.607 587.9 152.949 598.1 153.679 608.3 152.967 618.5 153.274 628.7 153.316 638.9 153.063 649.1 153.037 659.3 153.524 669.5 153.236 679.7 153.243 689.9 153.045 700.1 153.44 710.3 154.347 720.5 153.641 720.253 153.641 719.781 164.177 719.779 174.714 719.875 185.25 720.103 195.786 720.934 206.323 720.5 216.859 720.438 216.797 718.543 218.902 716.588 220.948 714.427 222.786 712.588 224.947 710.5 226.859 710.5 227.194 700.3 226.35 690.1 227.095 679.9 227.495 669.7 226.221 659.5 227.056 649.3 226.239 639.1 226.314 628.9 226.341 618.7 226.817 608.5 227.093 598.3 226.254 588.1 227.234 577.9 226.678 567.7 227.572 557.5 226.859 558.226 226.859 557.325 216.323 557.561 205.786 557.216 195.25 557.303 184.714 557.093 174.177 557.5 163.641" filter="url(#f9u9e6xjpuzn)"/><path fill="#FEFECE" stroke="#000" stroke-width="1.5" d="M710.5,163.6406 L710.5796,163.7203 L712.3704,161.911 L713.9428,159.8834 L716.009,158.3496 L717.7874,156.528 L719.5,154.6406"/><path fill="#FEFECE" stroke="#000" stroke-width="1.5" d="M557.5,163.6406 L557.5,163.3131 L567.7,163.2422 L577.9,163.6628 L588.1,164.5021 L598.3,163.1174 L608.5,163.1118 L618.7,163.032 L628.9,163.3486 L639.1,164.5543 L649.3,162.6616 L659.5,163.9046 L669.7,163.0753 L679.9,163.4274 L690.1,164.2982 L700.3,163.5223 L710.5,163.6406"/><path fill="#FEFECE" stroke="#000" stroke-width="1.5" d="M710.5,163.6406 L710.271,163.6406 L711.4406,174.1771 L710.8075,184.7135 L709.7153,195.25 L710.0541,205.7865 L709.5476,216.3229 L710.5,226.8594"/><text x="572.5" y="188.174" fill="#000" font-family="sans-serif" font-size="14" lengthAdjust="spacingAndGlyphs" textLength="49">TP-Link</text><text x="625.5" y="188.174" fill="#000" font-family="sans-serif" font-size="14" font-weight="bold" lengthAdjust="spacingAndGlyphs" textLength="30">WIFI</text><text x="659.5" y="188.174" fill="#000" font-family="sans-serif" font-size="14" lengthAdjust="spacingAndGlyphs" textLength="36">Relay</text><path fill="none" stroke="#000" stroke-dasharray="1 2" stroke-width="1" d="M557.5,191.25 L557.5,191.511 L567.7,191.7644 L577.9,190.3118 L588.1,190.9023 L598.3,191.2266 L608.5,191.1145 L618.7,191.0175 L628.9,190.9468 L639.1,191.0094 L649.3,190.4159 L659.5,190.5899 L669.7,191.746 L679.9,192.0256 L690.1,191.4187 L700.3,190.7202 L710.5,191.25"/><path fill="none" stroke="#000" stroke-dasharray="1 2" stroke-width="1" d="M710.5,191.25 L710.5751,191.3251 L712.345,189.095 L714.7006,187.4506 L716.6912,185.4412 L718.5836,183.3336 L720.5,181.25"/><text x="578.5" y="209.783" fill="#000" font-family="sans-serif" font-size="14" lengthAdjust="spacingAndGlyphs" textLength="95">in the bedroom</text><polygon fill="#FEFECE" stroke="#000" stroke-width="1.5" points="374.5 55.641 374.475 55.616 376.415 53.556 378.669 51.809 380.66 49.801 382.34 47.48 384.5 45.641 384.5 46.05 394.389 45.597 404.278 45.74 414.167 46.276 424.056 45.339 433.944 45.137 443.833 45.379 453.722 45.821 463.611 45.395 473.5 45.641 473.315 45.641 473.397 53.163 473.256 60.684 473.507 68.206 473.356 75.728 473.5 83.25 473.606 83.356 471.407 85.157 469.574 87.324 467.505 89.255 465.409 91.159 463.5 93.25 463.5 93.548 453.611 93.836 443.722 93.476 433.833 93.934 423.944 93.868 414.056 92.938 404.167 93.333 394.278 92.942 384.389 93.902 374.5 93.25 374.691 93.25 374.374 85.728 374.533 78.206 374.265 70.684 374.279 63.163 374.5 55.641" filter="url(#f9u9e6xjpuzn)"/><path fill="#FEFECE" stroke="#000" stroke-width="1.5" d="M463.5,55.6406 L463.7317,55.8723 L465.4379,53.9785 L466.9311,51.8717 L468.7786,50.1192 L470.834,48.5746 L472.5,46.6406"/><path fill="#FEFECE" stroke="#000" stroke-width="1.5" d="M374.5,55.6406 L374.5,54.7889 L384.3889,55.8203 L394.2778,55.683 L404.1667,54.7885 L414.0556,55.1197 L423.9444,55.191 L433.8333,55.8997 L443.7222,54.7948 L453.6111,55.9063 L463.5,55.6406"/><path fill="#FEFECE" stroke="#000" stroke-width="1.5" d="M463.5,55.6406 L463.4575,55.6406 L463.4771,63.1625 L463.8053,70.6844 L463.3352,78.2063 L463.7067,85.7281 L463.5,93.25"/><text x="389.5" y="80.174" fill="#000" font-family="sans-serif" font-size="14" lengthAdjust="spacingAndGlyphs" textLength="59">iPhone6s</text><polygon fill="#FEFECE" stroke="#000" stroke-width="1.5" points="508.5 55.641 508.657 55.798 510.508 53.649 512.344 51.484 514.598 49.738 516.433 47.574 518.5 45.641 518.5 46.288 528.389 44.986 538.278 46.046 548.167 45.049 558.056 45.26 567.944 46.203 577.833 46.304 587.722 45.912 597.611 45.532 607.5 45.641 607.54 45.641 607.584 53.163 607.623 60.684 607.573 68.206 607.423 75.728 607.5 83.25 607.381 83.131 605.504 85.254 603.5 87.25 601.607 89.357 599.67 91.421 597.5 93.25 597.5 92.528 587.611 93.871 577.722 92.72 567.833 93.748 557.944 93.718 548.056 92.796 538.167 92.644 528.278 93.293 518.389 93.267 508.5 93.25 508.653 93.25 508.285 85.728 508.515 78.206 508.7 70.684 508.259 63.163 508.5 55.641" filter="url(#f9u9e6xjpuzn)"/><path fill="#FEFECE" stroke="#000" stroke-width="1.5" d="M597.5,55.6406 L597.5631,55.7037 L599.4765,54.0171 L601.3107,52.2513 L603.0226,50.3633 L604.9095,48.6501 L606.5,46.6406"/><path fill="#FEFECE" stroke="#000" stroke-width="1.5" d="M508.5,55.6406 L508.5,56.207 L518.3889,56.0296 L528.2778,55.3997 L538.1667,56.6311 L548.0556,55.9083 L557.9444,54.9764 L567.8333,54.9396 L577.7222,55.8918 L587.6111,55.2512 L597.5,55.6406"/><path fill="#FEFECE" stroke="#000" stroke-width="1.5" d="M597.5,55.6406 L597.4568,55.6406 L597.6945,63.1625 L597.6547,70.6844 L597.3599,78.2063 L597.5645,85.7281 L597.5,93.25"/><text x="523.5" y="80.174" fill="#000" font-family="sans-serif" font-size="14" lengthAdjust="spacingAndGlyphs" textLength="59">iPhone5s</text><polygon fill="#FEFECE" stroke="#000" stroke-width="1.5" points="642.5 55.641 642.402 55.542 644.591 53.732 646.408 51.549 648.635 49.776 650.377 47.518 652.5 45.641 652.5 45.508 662.875 46.245 673.25 45.114 683.625 44.978 694 45.898 704.375 45.825 714.75 46.195 725.125 45.446 735.5 45.641 735.459 45.641 735.664 53.163 735.404 60.684 735.541 68.206 735.549 75.728 735.5 83.25 735.347 83.097 733.595 85.345 731.403 87.153 729.515 89.265 727.437 91.187 725.5 93.25 725.5 93.753 715.125 93.177 704.75 92.608 694.375 93.16 684 92.852 673.625 92.757 663.25 92.699 652.875 93.448 642.5 93.25 642.405 93.25 642.441 85.728 642.358 78.206 642.74 70.684 642.403 63.163 642.5 55.641" filter="url(#f9u9e6xjpuzn)"/><path fill="#FEFECE" stroke="#000" stroke-width="1.5" d="M725.5,55.6406 L725.5038,55.6445 L727.2222,53.7628 L729.3303,52.271 L730.8963,50.2369 L732.557,48.2976 L734.5,46.6406"/><path fill="#FEFECE" stroke="#000" stroke-width="1.5" d="M642.5,55.6406 L642.5,55.1618 L652.875,54.9638 L663.25,56.0362 L673.625,54.8152 L684,56.0544 L694.375,55.7681 L704.75,55.052 L715.125,56.0257 L725.5,55.6406"/><path fill="#FEFECE" stroke="#000" stroke-width="1.5" d="M725.5,55.6406 L725.5003,55.6406 L725.33,63.1625 L725.7536,70.6844 L725.5134,78.2063 L725.3146,85.7281 L725.5,93.25"/><text x="657.5" y="80.174" fill="#000" font-family="sans-serif" font-size="14" lengthAdjust="spacingAndGlyphs" textLength="53">iPadMini</text><polygon fill="#FEFECE" stroke="#000" stroke-width="1.5" points="771 55.641 770.934 55.575 772.894 53.535 774.858 51.499 777.017 49.657 778.929 47.569 781 45.641 781 45.332 790.5 45.705 800 45.563 809.5 45.337 819 45.239 828.5 45.958 838 45.734 847.5 45.146 857 45.641 857.136 45.641 857.243 53.163 856.964 60.684 857.182 68.206 856.896 75.728 857 83.25 857.174 83.424 855.125 85.375 853.055 87.305 850.832 89.082 849.009 91.259 847 93.25 847 93.299 837.5 93.711 828 93.606 818.5 92.806 809 93.998 799.5 93.796 790 93.645 780.5 92.742 771 93.25 770.913 93.25 770.938 85.728 771.131 78.206 770.95 70.684 770.943 63.163 771 55.641" filter="url(#f9u9e6xjpuzn)"/><path fill="#FEFECE" stroke="#000" stroke-width="1.5" d="M847,55.6406 L847.0164,55.6571 L848.9529,53.9935 L850.4029,51.8435 L852.2612,50.1018 L854.3205,48.5612 L856,46.6406"/><path fill="#FEFECE" stroke="#000" stroke-width="1.5" d="M771,55.6406 L771,55.4844 L780.5,55.2115 L790,56.3276 L799.5,56.1885 L809,55.3455 L818.5,55.3959 L828,55.3529 L837.5,55.4319 L847,55.6406"/><path fill="#FEFECE" stroke="#000" stroke-width="1.5" d="M847,55.6406 L846.8019,55.6406 L846.8769,63.1625 L847.1571,70.6844 L846.993,78.2063 L847.2743,85.7281 L847,93.25"/><text x="786" y="80.174" fill="#000" font-family="sans-serif" font-size="14" lengthAdjust="spacingAndGlyphs" textLength="46">Nexus6</text><polygon fill="#FEFECE" stroke="#000" stroke-width="1.5" points="892 55.641 892.095 55.736 893.926 53.566 895.926 51.566 898.112 49.753 899.838 47.478 902 45.641 902 45.943 911.556 45.643 921.111 45.035 930.667 45.319 940.222 44.892 949.778 45.041 959.333 45.964 968.889 45.705 978.444 46.27 988 45.641 987.789 45.641 988.247 53.163 988.042 60.684 988.004 68.206 988.118 75.728 988 83.25 988.006 83.256 985.996 85.246 984.023 87.273 981.964 89.214 980.025 91.275 978 93.25 978 92.994 968.444 92.979 958.889 93.623 949.333 92.986 939.778 92.719 930.222 93.776 920.667 92.752 911.111 93.78 901.556 93.767 892 93.25 891.8 93.25 892.097 85.728 892.073 78.206 891.94 70.684 892.157 63.163 892 55.641" filter="url(#f9u9e6xjpuzn)"/><path fill="#FEFECE" stroke="#000" stroke-width="1.5" d="M978,55.6406 L977.9666,55.6072 L979.7776,53.8183 L981.8012,52.2418 L983.4208,50.2614 L985.1037,48.3443 L987,46.6406"/><path fill="#FEFECE" stroke="#000" stroke-width="1.5" d="M892,55.6406 L892,55.4045 L901.5556,55.5987 L911.1111,56.1301 L920.6667,55.1378 L930.2222,56.2565 L939.7778,55.7412 L949.3333,55.1813 L958.8889,54.7414 L968.4444,54.8132 L978,55.6406"/><path fill="#FEFECE" stroke="#000" stroke-width="1.5" d="M978,55.6406 L977.8905,55.6406 L978.2699,63.1625 L978.2218,70.6844 L977.8148,78.2063 L978.2442,85.7281 L978,93.25"/><text x="907" y="80.174" fill="#000" font-family="sans-serif" font-size="14" lengthAdjust="spacingAndGlyphs" textLength="56">Xiaomi5s</text><polygon fill="#FEFECE" stroke="#000" stroke-width="1.5" points="1023 55.641 1022.904 55.545 1025.055 53.696 1026.994 51.635 1028.933 49.574 1031.161 47.802 1033 45.641 1033 45.323 1043.105 45.685 1053.21 45.929 1063.316 46.277 1073.421 45.435 1083.526 46.297 1093.632 46.141 1103.737 45.235 1113.842 44.943 1123.947 46.376 1134.053 45.522 1144.158 45.585 1154.263 45.075 1164.368 45.428 1174.474 45.7 1184.579 46.018 1194.684 45.802 1204.79 46.011 1214.895 44.948 1225 45.641 1224.86 45.641 1224.84 53.163 1225.117 60.684 1225.012 68.206 1225.087 75.728 1225 83.25 1224.949 83.199 1223.156 85.406 1221.062 87.312 1219.049 89.299 1216.976 91.226 1215 93.25 1215 92.916 1204.895 93.986 1194.79 93.273 1184.684 92.921 1174.579 92.969 1164.474 93.822 1154.368 93.154 1144.263 93.61 1134.158 93.844 1124.053 93.083 1113.947 93.031 1103.842 93.991 1093.737 93.848 1083.632 93.345 1073.526 92.913 1063.421 93.984 1053.316 93.157 1043.21 93.72 1033.105 93.837 1023 93.25 1023.036 93.25 1022.821 85.728 1022.874 78.206 1023.065 70.684 1023.044 63.163 1023 55.641" filter="url(#f9u9e6xjpuzn)"/><path fill="#FEFECE" stroke="#000" stroke-width="1.5" d="M1215,55.6406 L1215.2089,55.8495 L1216.6815,53.7221 L1218.3769,51.8175 L1220.5291,50.3698 L1222.209,48.4497 L1224,46.6406"/><path fill="#FEFECE" stroke="#000" stroke-width="1.5" d="M1023,55.6406 L1023,54.9066 L1033.1053,55.4731 L1043.2105,56.1132 L1053.3158,56.3606 L1063.4211,56.5644 L1073.5263,55.3404 L1083.6316,56.417 L1093.7368,55.6904 L1103.8421,54.8005 L1113.9474,55.9036 L1124.0526,55.8097 L1134.1579,56.517 L1144.2632,54.8286 L1154.3684,56.0413 L1164.4737,55.0215 L1174.5789,55.8277 L1184.6842,55.6623 L1194.7895,54.7672 L1204.8947,55.0086 L1215,55.6406"/><path fill="#FEFECE" stroke="#000" stroke-width="1.5" d="M1215,55.6406 L1214.8463,55.6406 L1214.8456,63.1625 L1215.1342,70.6844 L1215.1801,78.2063 L1214.8721,85.7281 L1215,93.25"/><text x="1038" y="80.174" fill="#000" font-family="sans-serif" font-size="14" lengthAdjust="spacingAndGlyphs" textLength="162">Lenovo Thinkpad Tablet2</text><path fill="none" stroke="#A80036" stroke-width="1" d="M466,643.6946 L466.7384,643.6946 L466.6273,654.5747 L466.6303,665.4547 L466.3705,676.3348 L466.5395,687.2149 L466,698.0949"/><polygon fill="#A80036" stroke="#A80036" stroke-width="1" points="466 703.463 466.19 703.547 466.67 701.605 467.82 699.961 468.213 697.98 469.056 696.199 470 694.463 469.854 694.317 469.193 695.256 468.437 696.099 467.434 696.697 466.765 697.628 466 698.463 465.981 698.444 465.119 697.582 464.294 696.757 463.747 696.21 462.684 695.147 462 694.463 461.997 694.462 462.671 696.206 463.549 698.04 464.473 699.895 465.172 701.65 466 703.463"/><path fill="none" stroke="#A80036" stroke-width="1" d="M466,510.9366 L466.5577,510.9366 L465.5432,521.7676 L466.5458,532.5986 L466.2579,543.4296 L466.1544,554.2606 L466,565.0916"/><polygon fill="#A80036" stroke="#A80036" stroke-width="1" points="466 570.388 465.841 570.317 466.768 568.573 467.449 566.721 468.337 564.96 469.103 563.144 470 561.388 470.093 561.481 469.276 562.264 468.333 562.92 467.664 563.852 466.763 564.551 466 565.388 465.966 565.353 465.197 564.584 464.268 563.655 463.695 563.083 462.85 562.237 462 561.388 461.787 561.293 462.865 563.217 463.404 564.901 464.5 566.832 465.262 568.615 466 570.388"/><path fill="none" stroke="#A80036" stroke-width="1" d="M538.169,377.8226 L538.516,378.0854 L532.403,385.8505 L526.7433,393.9588 L520.0882,401.3134 L514.5481,409.5122 L508.4176,417.2641 L503.0978,425.6297 L496.418,432.9656"/><polygon fill="#A80036" stroke="#A80036" stroke-width="1" points="493.151 437.281 493.102 437.191 494.81 436.21 496.551 435.289 498.444 434.641 500.119 433.601 501.773 432.519 501.796 432.69 500.63 432.519 499.555 432.998 498.386 432.807 497.318 433.341 496.169 433.294 496.375 433.323 495.839 432.149 495.683 431.029 495.625 429.921 495.526 428.808 495.394 427.691 495.25 427.657 495.06 429.635 494.565 431.543 494.184 433.476 493.67 435.379 493.151 437.281"/><path fill="none" stroke="#A80036" stroke-width="1" d="M387.768,368.8306 L387.9715,368.9833 L394.1491,377.1535 L400.0779,385.1371 L406.2662,393.3155 L411.3974,400.701 L417.909,409.1217 L423.6802,416.9871 L430.8642,425.9122 L436.274,433.5066"/><polygon fill="#A80036" stroke="#A80036" stroke-width="1" points="439.281 437.516 439.048 437.462 438.845 435.596 438.16 433.62 437.823 431.724 437.382 429.804 437.081 427.916 437 427.904 436.947 429.039 436.626 430.136 436.493 431.26 436.572 432.414 436.281 433.516 436.256 433.338 435.168 433.402 434.008 432.962 432.912 432.973 431.813 432.957 430.681 432.716 430.649 432.659 432.29 433.477 434.139 434.668 435.908 435.716 437.668 436.747 439.281 437.516"/><path fill="none" stroke="#A80036" stroke-width="1" d="M621.92,226.8306 L622.5629,227.1383 L617.1907,235.8508 L613.6213,245.4261 L608.3504,254.1871 L604.3975,263.5789 L599.7744,272.65 L595.558,281.9156"/><polygon fill="#A80036" stroke="#A80036" stroke-width="1" points="593.372 286.483 593.458 286.584 595.009 285.367 596.234 283.767 598.015 282.82 599.352 281.353 600.865 280.091 600.936 280.293 599.867 280.663 598.797 281.028 597.632 281.127 596.665 281.788 595.531 281.973 595.491 281.959 595.305 280.959 594.654 279.795 594.189 278.697 593.857 277.645 593.649 276.638 593.885 276.644 593.777 278.612 593.536 280.576 593.437 282.543 593.309 284.51 593.372 286.483"/><path fill="none" stroke="#A80036" stroke-width="1" d="M182.003,221.3416 L182.0826,221.6121 L185.6021,222.4003 L189.2524,223.6332 L192.852,224.6936 L196.4937,225.897 L200,226.6406 L199.9389,226.4159 L204.1724,227.9249 L208.2137,228.7264 L212.4293,230.1695 L216.4823,231.0143 L220.6415,232.2501 L220.6086,232.1194 L224.4444,233.2503 L228.2585,234.2951 L232.0736,235.3437 L235.8361,236.184 L239.6009,237.0336 L239.676,237.3556 L243.1787,238.1701 L246.6478,238.8403 L250.0515,239.2295 L253.6571,240.4854 L257.1167,241.115 L257.0666,240.8817 L260.4235,242.0232 L263.6217,242.4263 L266.8651,243.0395 L270.1628,243.9055 L273.4275,244.6181 L273.4856,244.9106 L276.5518,245.5069 L279.6015,246.02 L282.6769,246.663 L285.6463,246.7717 L288.7718,247.6668 L288.7603,247.6049 L291.7383,248.4426 L294.5983,248.6463 L297.5735,249.4689 L300.4568,249.7976 L303.3882,250.3851 L303.4314,250.6301 L308.9964,251.4161 L314.5321,252.0356 L320.1861,253.3264 L325.7619,254.1736 L331.3915,255.3255 L331.424,255.5032 L336.9664,256.2591 L342.5712,257.3565 L348.2209,258.6994 L353.7961,259.6345 L359.3459,260.4303 L359.349,260.4461 L362.2898,261.1787 L365.1523,261.5221 L368.1136,262.3568 L370.9586,262.6127 L373.9011,263.3541 L373.8336,263.0453 L376.9771,264.1323 L379.9862,264.6049 L383.0279,265.2262 L386.0589,265.7987 L389.1598,266.6905 L389.1741,266.7505 L392.3233,267.1449 L395.6829,268.4191 L398.9047,269.1171 L402.1382,269.8638 L405.3604,270.5635 L405.2807,270.2579 L408.7716,271.2206 L412.378,272.6263 L415.8241,273.4175 L419.2463,274.1169 L422.7416,275.0969 L422.7538,275.1401 L426.495,276.1367 L430.2941,277.3381 L433.9927,278.1845 L437.7939,279.3935 L441.542,280.4147 L441.4656,280.1636 L445.6898,281.8444 L449.8106,283.1856 L453.7907,284.0644 L457.9128,285.4098 L462,286.6406 L461.9163,286.3874 L464.5994,287.4152 L467.2427,288.3226 L469.9675,289.4769 L472.5635,290.2409 L475.153,290.9856"/><polygon fill="#A80036" stroke="#A80036" stroke-width="1" points="479.962 292.667 479.792 292.486 478.389 291.171 477.014 289.886 475.714 288.68 474.195 287.242 472.786 285.921 472.741 285.899 473.204 286.905 473.679 287.916 474.045 288.875 474.59 289.92 475.242 291.017 475.264 291.062 474.251 291.566 473.173 291.934 472.151 292.42 471.099 292.843 470.146 293.473 470.166 293.716 472.099 293.185 474.065 293.059 476.028 292.892 478.014 293.015 479.962 292.667"/><path fill="none" stroke="#A80036" stroke-width="1" d="M308.831,213.7376 L308.9399,213.9669 L314.3616,216.5221 L319.7091,218.921 L325.2241,221.6725 L330.4914,223.9026 L336,226.6406 L336.1005,226.8592 L342.95,229.7805 L349.9911,233.1187 L356.9149,236.2018 L364.0077,239.6524 L370.9064,242.6808 L370.9838,242.8522 L378.0256,245.8752 L385.2972,249.4071 L392.3059,252.3569 L399.3629,255.4135 L406.5615,258.7838 L406.5559,258.7712 L413.5952,261.9243 L420.6943,265.2115 L427.6373,268.1485 L434.7481,271.4621 L441.7126,274.4474 L441.8235,274.6988 L448.3978,277.4061 L455.1468,280.5097 L461.6269,283.0033 L468.498,286.3837 L475.107,289.1696"/><polygon fill="#A80036" stroke="#A80036" stroke-width="1" points="479.753 291.207 479.823 291.27 478.477 289.797 477.118 288.312 475.727 286.798 474.615 285.539 473.118 283.928 473.301 283.999 473.691 285.045 473.958 286.043 474.369 287.097 474.901 288.198 475.174 289.198 475.133 289.091 474.038 289.397 473.154 290.247 472.1 290.657 470.968 290.868 469.904 291.254 469.903 291.084 471.873 291.007 473.845 291.441 475.812 291.004 477.783 291.172 479.753 291.207"/><path fill="none" stroke="#A80036" stroke-width="1" d="M307.736,93.7586 L308.1049,94.1693 L315.2247,100.479 L322.1835,106.6094 L330.3952,114.1346 L337.5642,120.4991 L345.0831,127.2531 L353.1148,134.5779 L360.5326,141.2194 L367.4127,147.2623 L375.1079,154.2124 L382.6336,160.974 L389.9118,167.46 L397.8325,174.6612 L405.8076,181.9231 L413.344,188.6966 L421.027,195.6333 L427.7967,201.5532 L436.018,209.0891 L442.6997,214.911 L450.2811,221.7347 L458.2835,229.0268 L465.3413,235.2675 L472.9048,242.0711 L480.5761,248.9947 L487.8119,255.4336 L495.441,262.3103 L503.1377,269.2622 L510.8812,276.2661 L518.273,282.8786"/><polygon fill="#A80036" stroke="#A80036" stroke-width="1" points="522.34 286.533 522.326 286.527 521.486 284.713 520.718 282.931 520.066 281.201 519.015 279.293 518.317 277.543 518.399 277.547 518.138 278.66 518.673 279.815 518.559 280.935 518.376 282.052 518.62 283.191 518.62 283.18 517.5 283.422 516.363 283.361 515.223 283.223 514.109 283.58 512.971 283.494 513.016 283.632 514.906 284.291 516.677 284.58 518.524 285.104 520.479 285.964 522.34 286.533"/><path fill="none" stroke="#A80036" stroke-width="1" d="M1091.74,93.7126 L1091.5966,93.5051 L1087.8075,96.3709 L1083.7915,98.9084 L1079.9019,101.6288 L1076.1508,104.5497 L1072.216,107.2045 L1072.2769,107.2949 L1067.5619,110.233 L1062.8857,113.2288 L1058.5376,116.7111 L1053.7224,119.5007 L1049.1996,122.7238 L1049.3177,122.9042 L1044.1718,126.3566 L1038.7406,129.3738 L1033.8203,133.1706 L1028.5448,136.4253 L1023.2844,139.703 L1023.218,139.5982 L1017.6452,143.2852 L1012.0195,146.8887 L1006.4652,150.6049 L1000.8553,154.2332 L995.0639,157.5749 L994.9188,157.339 L992.0154,159.2461 L989.2576,161.3901 L986.3338,163.2643 L983.1372,164.6946 L980.2746,166.6682 L980.2814,166.6794 L977.3149,168.6036 L974.1084,170.1282 L971.1398,172.0488 L968.2501,174.1006 L965.1317,175.7719 L965.0681,175.6636 L962.1906,177.8253 L959.0827,179.5939 L955.8049,181.073 L952.7392,182.9137 L949.7091,184.8151 L949.8378,185.0408 L946.5661,186.5669 L943.4904,188.4366 L940.457,190.3806 L937.2335,191.9912 L934.0812,193.7268 L934.0188,193.6139 L930.9421,195.4916 L927.9258,197.4787 L924.7572,199.1901 L921.5314,200.7981 L918.3222,202.4361 L918.3511,202.4903 L915.0089,203.842 L912.005,205.8279 L908.9407,207.7005 L905.6893,209.2224 L902.5062,210.8722 L902.5569,210.9713 L899.4019,212.5989 L896.2877,214.3061 L893.086,215.8426 L889.8659,217.3432 L886.7074,218.964 L886.7031,218.9552 L883.4899,220.3437 L880.4385,222.0634 L877.1744,223.3479 L874.1978,225.2206 L871,226.6406 L870.8758,226.3747 L868.5135,227.7609 L866.1694,229.186 L863.5939,230.1156 L861.0584,231.1311 L858.6455,232.4089 L858.7453,232.6309 L856.2484,233.8091 L853.6333,234.7244 L851.1205,235.8672 L848.4709,236.7058 L846.0576,238.0699 L846.1462,238.274 L843.3742,238.8852 L840.8294,240.0202 L838.4356,241.5026 L835.9414,242.7539 L833.2791,243.618 L833.3667,243.8265 L830.6994,244.7171 L828.1918,245.988 L825.6098,247.0818 L823.0513,248.2314 L820.3529,249.0479 L820.4309,249.2423 L815.2504,251.4495 L809.8317,253.0632 L804.6923,255.3729 L799.4213,257.3546 L794.2285,259.5312 L794.2426,259.5684 L789.0511,261.686 L783.8533,263.7868 L778.5287,265.5538 L773.2029,267.3175 L768.0271,269.4765 L767.9883,269.3689 L762.8822,271.4662 L757.6476,273.2075 L752.3643,274.8138 L747.2742,276.9554 L742.0915,278.8403 L742.0995,278.8635 L737.0962,280.7912 L731.9956,282.4371 L726.9979,284.3812 L721.8975,286.0278 L716.7643,287.5792 L716.7188,287.4418 L711.959,289.4045 L706.9126,290.5015 L702.0714,292.2184 L697.2503,293.9957 L692.3883,295.6498 L692.3793,295.6216 L687.7812,297.1509 L683.1175,298.4746 L678.6254,300.3365 L674.0045,301.7943 L669.306,303.0086"/><polygon fill="#A80036" stroke="#A80036" stroke-width="1" points="664.328 304.562 664.327 304.549 666.264 304.616 668.235 304.969 670.182 305.112 672.18 305.696 674.111 305.701 674.113 305.705 673.224 305.395 672.216 304.858 671.094 304.103 670.118 303.626 669.101 303.073 669.142 303.095 669.472 301.99 670.164 301.076 670.506 299.977 671.035 298.977 671.729 298.064 671.573 297.885 670.298 299.42 668.858 300.764 667.287 301.961 665.692 303.13 664.328 304.562"/><path fill="none" stroke="#A80036" stroke-width="1" d="M437.134,93.7586 L437.4522,93.9394 L441.2564,101.8911 L447.5059,111.2321 L452.3193,119.7571 L455.7368,127.4891 L460.7896,136.1502 L465.5754,144.6596 L471.5628,153.8516 L475.7453,162.0183 L481.2436,170.9325 L485.1223,178.9265 L490.8475,187.9696 L495.6131,196.4675 L500.9344,205.2811 L505.9162,213.9019 L510.0649,222.0493 L514.6683,230.455 L519.985,239.266 L525.3364,248.0968 L530.1744,256.6358 L534.9212,265.123 L538.9915,273.2259 L544.005,281.8646"/><polygon fill="#A80036" stroke="#A80036" stroke-width="1" points="546.656 286.533 546.561 286.523 546.377 284.564 546.289 282.614 546.26 280.67 545.693 278.673 545.688 276.731 545.549 276.693 545.245 277.783 545.094 278.915 544.958 280.051 544.49 281.096 544.186 282.185 544.197 282.227 543.049 281.718 542.064 281.8 540.909 281.266 539.761 280.759 538.732 280.684 538.622 280.535 540.25 281.763 541.782 282.861 543.588 284.33 545.079 285.374 546.656 286.533"/><path fill="none" stroke="#A80036" stroke-width="1" d="M551.617,93.6786 L551.3387,93.6105 L550.6917,96.3054 L550.2611,99.0532 L549.7308,101.7766 L549.1918,104.4979 L548.3225,107.1383 L548.4051,107.1564 L547.3411,110.0725 L546.9733,113.1406 L546.2167,116.1238 L545.935,119.2107 L545.0435,122.1645 L544.9947,122.1555 L544.157,125.2628 L543.9917,128.4936 L543.453,131.6558 L542.4852,134.7392 L542.147,137.9382 L542.4606,137.9811 L541.7828,141.0876 L541.1975,144.2068 L540.6933,147.337 L540.2064,150.4696 L540,153.6406 L539.9903,153.6396 L539.2951,157.7124 L538.9854,161.8254 L538.4885,165.9188 L537.9695,170.01 L537.8657,174.1443 L537.9034,174.1466 L537.5513,177.3493 L537.2176,180.553 L537.4896,183.7932 L536.8877,186.9808 L536.9021,190.2055 L537.0975,190.2126 L536.8477,193.405 L537.0044,196.6122 L537.4167,199.8287 L537.4931,203.033 L537.4875,206.2342 L537.3424,206.2189 L537.955,208.1388 L537.5646,209.9526 L538.3142,211.8869 L538.3473,213.7455 L538.4792,215.6146 L538.5636,215.6262 L539.0673,217.859 L538.8058,219.9862 L539.6198,222.2617 L539.5763,224.4189 L540,226.6406 L540.0088,226.6422 L540.252,229.3836 L540.9346,232.2039 L541.6508,235.0303 L541.9151,237.7755 L542.5055,240.5793 L542.193,240.5071 L543.1834,243.3979 L543.6904,246.1771 L544.5062,249.0275 L545.3458,251.8835 L545.7536,254.6398 L545.6513,254.6119 L546.2357,257.3344 L547.4667,260.233 L548.0197,262.9469 L549.0901,265.8018 L549.5224,268.4829 L549.7379,268.5488 L550.6251,271.2288 L551.0036,273.7529 L551.7814,276.3993 L552.6309,279.0677 L553.59,281.7696"/><polygon fill="#A80036" stroke="#A80036" stroke-width="1" points="555.152 286.553 555.326 286.571 555.225 284.58 555.384 282.616 555.867 280.686 555.766 278.695 556.162 276.756 555.959 276.653 555.797 277.839 555.116 278.763 554.433 279.685 554.063 280.766 553.601 281.799 553.559 281.717 552.547 281.199 551.495 280.601 550.514 280.145 549.616 279.851 548.557 279.238 548.588 279.266 549.777 280.612 551.177 282.148 552.341 283.471 553.918 285.166 555.152 286.553"/><path fill="none" stroke="#A80036" stroke-width="1" d="M707.248,93.7396 L706.9993,93.5712 L709.0093,96.3352 L710.8773,99.003 L712.7419,101.6686 L714.349,104.1596 L716.0232,106.6962 L716.0858,106.7336 L717.9692,109.7784 L719.5182,112.6233 L721.3704,115.6493 L723.0691,118.5836 L724.9517,121.6279 L724.7249,121.5135 L726.8375,125.0301 L728.0673,128.1012 L730.0322,131.5434 L731.3648,134.6663 L733.2523,138.0694 L733.1904,138.045 L734.3318,141.4488 L736.259,145.1624 L737.2325,148.5001 L738.6555,152.0149 L740.144,155.5555 L740.3412,155.6068 L741.0795,159.1673 L742.2569,162.8421 L742.8862,166.3742 L744.1929,170.0827 L744.8457,173.6209 L744.998,173.6354 L745.2154,177.259 L745.71,180.9091 L746.1284,184.5519 L746.2453,188.1659 L746.5763,191.8004 L746.5138,191.7933 L746.0302,195.35 L745.817,198.9373 L745.1656,202.475 L744.8389,206.0494 L744.5548,209.6287 L744.3015,209.5311 L743.4473,213.1095 L742.0985,216.4973 L740.4554,219.7717 L739.2849,223.2282 L738,226.6406 L738.0977,226.7009 L736.7462,228.6848 L735.3196,230.6223 L734.4932,232.9301 L733.0004,234.8268 L731.7032,236.8441 L731.6362,236.7939 L730.1307,238.6676 L728.7529,240.6372 L727.1972,242.4733 L726.127,244.6738 L724.4931,246.4512 L724.5394,246.4922 L723.0223,248.3709 L721.4414,250.193 L719.7803,251.9439 L718.0981,253.6761 L716.489,255.4732 L716.3345,255.3145 L714.9768,257.3927 L713.1269,258.9651 L711.2935,260.5546 L709.629,262.3176 L707.81,263.9219 L707.8179,263.9311 L705.8823,265.4047 L704.0831,267.0379 L702.2136,268.5889 L700.5269,270.3539 L698.5752,271.8087 L698.6606,271.9212 L696.5626,273.1727 L694.8113,274.8812 L692.9635,276.4625 L690.9491,277.8241 L688.9039,279.1452 L688.9034,279.1445 L686.8165,280.3731 L684.9535,281.9306 L682.7465,282.9827 L680.8596,284.5053 L678.9151,285.943 L678.9476,285.9958 L676.8775,287.1969 L674.8661,288.4932 L672.7513,289.6217 L670.8702,291.1298 L668.728,292.2136"/><polygon fill="#A80036" stroke="#A80036" stroke-width="1" points="664.337 294.74 664.342 294.789 666.278 294.363 668.237 294.155 670.236 294.336 672.156 293.755 674.133 293.72 674.174 293.871 673.022 293.355 671.887 292.905 670.919 293.071 669.747 292.481 668.671 292.247 668.621 292.233 669.065 291.181 669.041 290.003 669.722 289.015 669.706 287.839 670.144 286.785 670.13 286.775 669.124 288.479 667.661 289.849 666.768 291.637 665.365 293.051 664.337 294.74"/><path fill="none" stroke="#A80036" stroke-width="1" d="M812.685,93.8566 L812.8185,93.8711 L812.2924,96.5575 L812.0089,99.2702 L811.9711,102.0095 L811.6929,104.7228 L811.2173,107.4147 L811.5081,107.4573 L810.9278,110.5551 L810.559,113.6839 L809.5207,116.7146 L809.7125,119.9255 L808.9337,122.9942 L808.6875,122.9468 L808.4353,126.4295 L807.3651,129.7546 L806.7935,133.1758 L806.2729,136.6068 L805.6538,140.0188 L805.9605,140.0952 L804.7556,143.5958 L803.8481,147.1704 L803.0684,150.7768 L802.2111,154.3639 L801.1972,157.912 L801.2369,157.9247 L800.1057,161.5718 L798.8618,165.1829 L798.0158,168.9211 L796.8046,172.5427 L795.3839,176.0972 L795.4783,176.136 L793.7883,179.6259 L792.2628,183.1833 L791.1985,186.9301 L789.2038,190.2948 L788.0334,193.9981 L787.9175,193.9364 L786.4928,197.5513 L784.4368,200.8303 L782.3802,204.109 L780.6631,207.5683 L778.9656,211.038 L778.82,210.9357 L776.9525,214.2851 L774.5955,217.2904 L772.3664,220.3857 L770.3999,223.6654 L768,226.6406 L768.0651,226.6986 L765.8638,228.84 L763.7717,231.0787 L761.7016,233.3369 L759.6196,235.5845 L757.8208,238.084 L758.031,238.3032 L755.6947,240.329 L753.2664,242.2587 L751.2207,244.5877 L749.0408,246.7765 L746.6748,248.7712 L746.7757,248.8924 L744.3245,250.8072 L742.072,252.9607 L739.6671,254.931 L736.9663,256.5461 L734.7301,258.7191 L734.542,258.4627 L732.3705,260.7761 L729.548,262.202 L727.211,264.2899 L724.5573,265.9459 L722.1549,267.9445 L722.0233,267.7431 L719.6287,269.7729 L716.8771,271.2565 L714.2245,272.8914 L711.7894,274.8593 L709.1172,276.4643 L709.1118,276.4551 L706.3666,277.8871 L703.8135,279.6462 L701.0762,281.0916 L698.3265,282.516 L695.7853,284.2953 L695.8371,284.3927 L693.2232,285.9706 L690.2576,286.8875 L687.6625,288.5007 L685.1075,290.1895 L682.3272,291.4545 L682.2933,291.3846 L679.7388,292.9511 L676.9497,294.0335 L674.1629,295.1207 L671.5432,296.5525 L668.911,297.9586"/><polygon fill="#A80036" stroke="#A80036" stroke-width="1" points="664.134 300.139 664.134 300.148 666.102 299.975 668.075 300.248 670.041 299.852 672.012 299.989 673.982 300.041 673.964 299.991 672.987 299.82 671.785 299.041 670.826 298.916 669.747 298.47 668.683 298.063 668.806 298.109 669.145 297.028 669.644 296.007 670.071 294.958 670.104 293.763 670.661 292.763 670.53 292.647 669.268 294.161 668.216 295.86 666.617 297.075 665.352 298.586 664.134 300.139"/><path fill="none" stroke="#A80036" stroke-width="1" d="M925.66,93.9156 L925.5453,93.8397 L923.6723,96.5415 L922.1174,99.4541 L920.4246,102.2753 L918.3289,104.8296 L916.5856,107.6174 L916.3614,107.4611 L914.2654,110.6753 L912.4569,114.0899 L909.9908,117.0462 L908.0279,120.3531 L905.6208,123.3504 L905.6466,123.3692 L904.2693,124.9481 L903.3784,126.8806 L902.0653,128.5062 L900.5194,129.9624 L899.4845,131.7902 L899.2658,131.6261 L898.2424,133.5844 L896.7764,135.2106 L895.4028,136.9061 L894.0446,138.6131 L892.9417,140.5117 L893.1042,140.6378 L891.7812,142.4718 L890.3769,144.2428 L888.7795,145.864 L887.2835,147.5637 L886.0143,149.4396 L885.9138,149.3587 L884.7174,151.3809 L883.2485,153.1839 L881.7578,154.9693 L880.2044,156.7043 L878.7245,158.4984 L878.6073,158.4003 L876.9691,160.1292 L875.8789,162.3171 L874.0393,163.8774 L872.6782,165.8385 L871.0942,167.6128 L870.925,167.4649 L869.4378,169.3734 L867.8142,171.1628 L866.233,172.9892 L864.7181,174.8736 L863.1455,176.7075 L863.1337,176.6966 L861.6338,178.6332 L859.8637,180.3222 L858.1866,182.0964 L856.7652,184.1048 L854.9004,185.7071 L854.7358,185.5482 L853.1734,187.4506 L851.3113,189.0638 L849.9599,191.1697 L848.1434,192.8268 L846.381,194.5362 L846.3079,194.4615 L844.8066,196.4368 L842.7227,197.8167 L841.2045,199.7747 L839.2705,201.3077 L837.6092,203.1195 L837.6851,203.2022 L835.8717,204.8405 L834.1417,206.5696 L832.2513,208.124 L830.2353,209.5415 L828.6071,211.3815 L828.652,211.4341 L826.899,213.1116 L824.7801,214.3606 L823.1009,216.1244 L821.3966,217.8588 L819.3967,219.247 L819.5539,219.4469 L817.3506,220.5138 L815.5953,222.1502 L813.6466,223.5408 L811.68,224.9086 L810,226.6406 L810.1608,226.8673 L806.7604,228.984 L803.5764,231.4057 L800.1136,233.4344 L796.9616,235.9012 L793.6936,238.2045 L793.7287,238.2584 L792.107,239.4767 L790.458,240.6531 L788.6654,241.6095 L786.8275,242.4964 L785.2182,243.7337 L785.1788,243.6701 L783.5218,244.861 L781.7637,245.8887 L779.9555,246.8357 L778.2249,247.9078 L776.5652,249.0943 L776.6725,249.2763 L774.8187,250.1565 L773.1495,251.3499 L771.4253,252.45 L769.5748,253.3358 L767.7623,254.2862 L767.7363,254.24 L765.8706,255.1012 L764.1182,256.1638 L762.4144,257.3126 L760.6421,258.3398 L758.8374,259.3093 L758.8141,259.2661 L757.134,260.4667 L755.3113,261.4026 L753.3643,262.1075 L751.747,263.4247 L749.8182,264.1635 L749.7373,264.0065 L748.0777,265.2489 L746.057,265.7912 L744.4312,267.0993 L742.4614,267.7401 L740.7328,268.8488 L740.8388,269.0629 L738.7971,269.528 L737.0819,270.6528 L735.1642,271.3683 L733.5152,272.6267 L731.6087,273.3649 L731.6419,273.4348 L729.7802,274.2311 L727.8879,274.9633 L726.0792,275.871 L724.2009,276.6324 L722.4739,277.712 L722.5736,277.9334 L718.7026,279.0532 L715.0783,280.7211 L711.687,282.9066 L708.0127,284.4635 L704.2835,285.8982 L704.2246,285.7579 L700.6378,287.2431 L697.2162,289.1222 L693.6242,290.5949 L689.9278,291.819 L686.384,293.4066 L686.3173,293.2369 L682.9815,294.963 L679.4145,296.1003 L676.0224,297.6829 L672.4266,298.747 L668.998,300.2366"/><polygon fill="#A80036" stroke="#A80036" stroke-width="1" points="664.059 302.1 664.047 301.896 666.037 302.408 667.981 302.132 669.957 302.406 671.921 302.472 673.892 302.664 673.916 302.717 672.769 301.994 671.813 301.695 670.714 301.079 669.851 300.984 668.737 300.334 668.816 300.37 669.037 299.228 669.68 298.277 670.142 297.245 670.614 296.216 671.067 295.179 671.155 295.269 669.74 296.639 668.361 298.046 666.935 299.405 665.539 300.795 664.059 302.1"/><path fill="none" stroke="#A80036" stroke-width="1" d="M465.965,93.7696 L465.5531,93.0222 L474.3619,98.0835 L483.009,102.8512 L491.992,108.2285 L501.0085,113.6665 L508.9407,117.1371 L518.2442,123.0958 L526.4919,127.1389 L534.8636,131.407 L543.4375,136.042 L552.2539,141.1169 L561.0228,146.1056 L569.713,150.9516"/><polygon fill="#A80036" stroke="#A80036" stroke-width="1" points="574.279 153.469 574.364 153.533 573.088 151.898 571.76 150.224 570.56 148.646 569.696 147.324 568.329 145.62 568.266 145.602 568.835 146.762 568.846 147.761 569.488 148.943 569.741 150.012 569.9 151.054 569.94 151.191 568.779 151.249 567.668 151.479 566.624 151.942 565.514 152.177 564.466 152.626 564.466 152.627 566.423 152.729 568.402 153.086 570.345 153.026 572.305 153.163 574.279 153.469"/><path fill="none" stroke="#A80036" stroke-width="1" d="M573.81,93.7696 L574.0051,93.903 L578.7456,101.3719 L585.0434,109.9054 L590.3705,117.7753 L596.1726,125.97 L600.5893,133.2175 L606.144,141.2431 L611.788,149.3296"/><polygon fill="#A80036" stroke="#A80036" stroke-width="1" points="614.617 153.469 614.862 153.513 614.072 151.496 613.881 149.589 613.51 147.648 613.178 145.715 612.841 143.781 612.761 143.766 612.595 144.886 612.207 145.964 612.193 147.113 612.179 148.261 611.796 149.34 611.787 149.294 610.694 149.182 609.573 148.927 608.46 148.712 607.365 148.593 606.236 148.295 606.303 148.403 607.802 149.15 609.556 150.312 611.365 151.561 612.853 152.292 614.617 153.469"/><path fill="none" stroke="#A80036" stroke-width="1" d="M679.241,93.7696 L679.3376,93.8104 L675.128,102.7594 L671.7449,112.0571 L668.5102,121.4175 L663.801,130.1557 L659.9496,139.2559 L656.192,148.3956"/><polygon fill="#A80036" stroke="#A80036" stroke-width="1" points="654.051 153.469 653.999 153.413 655.554 152.192 656.909 150.757 658.235 149.292 659.785 148.065 661.236 146.732 661.171 146.573 660.12 146.993 659.149 147.608 658.145 148.142 656.969 148.254 655.995 148.862 655.928 148.835 655.474 147.775 655.119 146.756 654.765 145.737 654.45 144.734 653.865 143.621 653.849 143.621 653.749 145.588 654.111 147.564 654.194 149.534 654.245 151.504 654.051 153.469"/><path fill="none" stroke="#A80036" stroke-width="1" d="M779.843,93.7696 L779.5477,93.3335 L771.0262,98.7914 L763.5781,105.8343 L754.8378,110.9691 L746.4881,116.6806 L737.9598,122.1284 L729.6375,127.8803 L720.766,132.8213 L712.9717,139.353 L704.5336,144.9341 L696.079,150.4906"/><polygon fill="#A80036" stroke="#A80036" stroke-width="1" points="691.68 153.469 691.711 153.641 693.587 152.944 695.544 152.695 697.506 152.48 699.454 152.182 701.375 151.735 701.386 151.793 700.282 151.615 699.126 151.165 698.063 151.202 696.972 151.092 695.82 150.666 695.668 150.636 696.245 149.595 696.087 148.413 696.268 147.295 696.742 146.234 696.89 145.111 697.08 145.229 695.816 146.762 694.634 148.346 693.834 150.169 692.701 151.784 691.68 153.469"/><path fill="none" stroke="#A80036" stroke-width="1" d="M891.973,89.5486 L892.0997,89.8704 L883.0666,94.0643 L873.2803,96.3449 L864.5547,101.3199 L855.2448,104.8106 L845.6828,107.661 L836.8357,112.3275 L827.5316,115.8329 L818.2794,119.4702 L808.4636,121.676 L799.5775,126.243 L789.9526,128.9337 L780.7359,132.6612 L771.558,136.4874 L762.2251,139.9197 L753.3462,144.5052 L743.9867,147.8698 L734.7724,151.6035 L725.465,155.1006"/><polygon fill="#A80036" stroke="#A80036" stroke-width="1" points="720.604 157.014 720.612 157.207 722.563 156.894 724.531 156.984 726.502 157.143 728.486 157.602 730.444 157.439 730.349 157.221 729.498 157.199 728.31 156.402 727.29 155.99 726.351 155.765 725.257 155.182 725.385 155.238 725.556 154.079 726.114 153.088 726.61 152.07 727.12 151.058 727.514 149.995 727.414 149.897 726.247 151.513 724.589 152.644 723.486 154.322 721.884 155.509 720.604 157.014"/><path fill="none" stroke="#A80036" stroke-width="1" d="M339.358,89.6796 L339.4679,90.0106 L349.185,93.3682 L358.86,96.5989 L368.5074,99.7465 L378.2799,103.2707 L387.7334,105.8342 L397.1693,108.3447 L407.1263,112.4247 L416.5436,114.8792 L426.5631,119.1478 L436.142,122.089 L445.43,124.1537 L455.1884,127.6356 L465.3165,132.2314 L474.5544,134.145 L484.1407,137.1086 L493.9563,140.7628 L503.4315,143.3915 L513.3764,147.4354 L523.0387,150.6277 L532.847,154.2601 L542.199,156.5177 L552.05,160.2786"/><polygon fill="#A80036" stroke="#A80036" stroke-width="1" points="557.17 161.979 557.127 161.931 555.626 160.557 554.284 159.356 552.679 157.868 551.391 156.726 549.887 155.348 550.088 155.449 550.476 156.4 550.942 157.391 551.417 158.386 552.048 159.459 552.424 160.404 552.331 160.218 551.449 160.983 550.382 161.379 549.321 161.787 548.398 162.47 547.368 162.941 547.368 162.934 549.346 162.93 551.265 162.31 553.234 162.212 555.2 162.072 557.17 161.979"/><path fill="none" stroke="#A80036" stroke-width="1" d="M1029.62,93.6996 L1029.6417,93.7883 L1019.7149,95.6825 L1009.8202,97.7076 L1000.0417,100.2087 L990.4232,103.3644 L980.6621,105.9366 L970.7979,108.0865 L961.1565,111.1487 L951.3144,113.3894 L941.3947,115.3122 L931.6278,117.8609 L921.6834,119.6825 L912.0867,122.9276 L902.2603,125.2325 L892.4305,127.5233 L882.4091,129.0303 L872.7098,131.8553 L862.7602,133.6556 L853.3582,137.6975 L843.4674,139.7389 L833.3219,140.7378 L823.6379,143.6253 L813.9226,146.3851 L803.9873,148.2441 L794.467,151.802 L784.3186,152.7888 L774.5844,155.4711 L765.0468,158.9579 L755.1226,160.8626 L745.4024,163.6021 L735.4408,165.3536 L725.688,167.9596"/><polygon fill="#A80036" stroke="#A80036" stroke-width="1" points="720.632 169.196 720.615 169.103 722.532 169.329 724.525 169.983 726.408 170.026 728.413 170.743 730.324 170.944 730.245 170.814 729.433 170.482 728.446 169.862 727.499 169.308 726.385 168.479 725.489 168.008 725.536 168.037 726.015 167.004 726.69 166.091 727.249 165.107 727.728 164.074 728.425 163.173 728.506 163.278 726.853 164.361 725.209 165.455 723.691 166.711 722.307 168.142 720.632 169.196"/></g></svg>