<?xml version="1.0" encoding="UTF-8" standalone="no"?><svg xmlns="http://www.w3.org/2000/svg" xmlns:xlink="http://www.w3.org/1999/xlink" contentScriptType="application/ecmascript" contentStyleType="text/css" height="763px" preserveAspectRatio="none" style="width:1247px;height:763px;" version="1.1" viewBox="0 0 1247 763" width="1247px" zoomAndPan="magnify"><defs><filter height="300%" id="f9u9e6xjpuzn" width="300%" x="-1" y="-1"><feGaussianBlur result="blurOut" stdDeviation="2.0"/><feColorMatrix in="blurOut" result="blurOut2" type="matrix" values="0 0 0 0 0 0 0 0 0 0 0 0 0 0 0 0 0 0 .4 0"/><feOffset dx="4.0" dy="4.0" in="blurOut2" result="blurOut3"/><feBlend in="SourceGraphic" in2="blurOut3" mode="normal"/></filter></defs><g><polygon fill="none" points="533,2,533,2.2677,542.7778,1.8512,552.5556,2.5277,562.3333,1.3788,572.1111,2.3565,581.8889,2.4255,591.6667,2.1786,601.4444,1.691,611.2222,2.2976,621,1.2797,630.7778,2.478,640.5556,1.3049,650.3333,2.4792,660.1111,2.5093,669.8889,1.788,679.6667,1.389,689.4444,1.4297,699.2222,2.1498,709,2,708.9771,1.9446,710.0772,2.4792,711.0299,2.658,712.2405,3.4593,713.2986,3.8924,714.3033,4.1967,714.2826,4.1881,714.8502,5.3019,715.1459,6.3031,715.4037,7.2886,716.052,8.4358,716.5,9.5,716.5146,9.5,716.3468,13.0281,716.7052,16.5563,716.6792,20.0844,716.3063,23.6125,716.5,27.1406,716.7097,27.2275,716.0475,28.1958,715.5701,29.2407,715.3595,30.3961,714.5646,31.3095,714.3033,32.4439,714.3592,32.5789,713.2404,32.8779,712.1677,33.288,711.0719,33.6425,710.0188,34.1002,709,34.6406,709,34.2299,699.2222,34.7861,689.4444,35.0413,679.6667,34.6137,669.8889,34.8804,660.1111,34.706,650.3333,34.6956,640.5556,34.3632,630.7778,34.9448,621,34.5604,611.2222,35.3502,601.4444,34.9896,591.6667,34.9911,581.8889,34.1692,572.1111,34.2293,562.3333,33.9518,552.5556,34.0084,542.7778,33.9969,533,34.6406,533.038,34.7324,531.9668,34.2675,530.8592,33.7148,529.8259,33.3415,528.827,33.0515,527.6967,32.4439,527.7802,32.4785,527.4306,31.455,526.6722,30.2622,526.2599,29.2127,526.1574,28.2916,525.5,27.1406,525.7183,27.1406,525.5499,23.6125,525.6879,20.0844,525.6619,16.5563,525.2716,13.0281,525.5,9.5,525.5051,9.5021,525.9513,8.4443,526.4463,7.4067,526.9823,6.3861,527.0967,5.1908,527.6967,4.1967,527.6447,4.0712,528.835,3.9447,529.8809,3.4697,530.8356,2.7748,531.9706,2.5148,533,2" style="stroke: #000000; stroke-width: 1.0;"/><text fill="#000000" font-family="sans-serif" font-size="18" lengthAdjust="spacingAndGlyphs" textLength="175" x="533.5" y="25.6855">Network topo at home</text><!--entity ISP--><polygon fill="#FEFECE" filter="url(#f9u9e6xjpuzn)" points="435,713.6406,435.0898,713.7304,437.1725,711.8131,438.8822,709.5228,440.8721,707.5128,443.0755,705.7162,445,703.6406,445,703.3908,455.4,704.147,465.8,704.0281,476.2,702.9428,486.6,704.3139,497,703.6406,496.7599,703.6406,497.0604,711.1625,497.1574,718.6844,497.011,726.2063,497.1596,733.7281,497,741.25,497.0334,741.2834,495.0562,743.3062,493.0223,745.2723,491.1008,747.3508,488.9775,749.2275,487,751.25,487,751.3417,476.6,750.7397,466.2,751.6997,455.8,751.4989,445.4,751.7165,435,751.25,435.0661,751.25,435.0261,743.7281,435.1235,736.2063,434.7877,728.6844,435.2208,721.1625,435,713.6406" style="stroke: #000000; stroke-width: 1.5;"/><path d="M487,713.6406 L486.9683,713.6089 L488.906,711.9466 L490.5357,709.9763 L492.2433,708.0839 L494.1931,706.4337 L496,704.6406 " fill="#FEFECE" style="stroke: #000000; stroke-width: 1.5;"/><path d="M435,713.6406 L435,713.722 L445.4,713.3754 L455.8,714.2321 L466.2,713.7727 L476.6,714.2044 L487,713.6406 " fill="#FEFECE" style="stroke: #000000; stroke-width: 1.5;"/><path d="M487,713.6406 L487.1088,713.6406 L487.3039,721.1625 L486.7273,728.6844 L487.086,736.2063 L486.99,743.7281 L487,751.25 " fill="#FEFECE" style="stroke: #000000; stroke-width: 1.5;"/><text fill="#000000" font-family="sans-serif" font-size="14" font-weight="bold" lengthAdjust="spacingAndGlyphs" textLength="22" x="450" y="738.1738">ISP</text><!--entity BananaPi--><polygon fill="#FEFECE" filter="url(#f9u9e6xjpuzn)" points="367,580.6406,366.8646,580.5052,369.0739,578.7146,370.9095,576.5501,372.8971,574.5377,374.852,572.4927,377,570.6406,377,571.25,386.8947,571.0622,396.7895,570.4179,406.6842,570.522,416.5789,571.2925,426.4737,570.8205,436.3684,571.0151,446.2632,571.0526,456.1579,570.7518,466.0526,570.3393,475.9474,570.9289,485.8421,570.8898,495.7368,569.9733,505.6316,571.362,515.5263,570.006,525.4211,570.9524,535.3158,569.9207,545.2105,570.035,555.1053,570.1923,565,570.6406,564.6129,570.6406,565.2496,581.1771,564.4111,591.7135,565.0636,602.25,565.1655,612.7865,564.5431,623.3229,565,633.8594,564.8527,633.712,563.1246,635.984,560.9527,637.8121,558.9627,639.8221,556.8254,641.6848,555,643.8594,555,643.2225,545.1053,644.3442,535.2105,644.0116,525.3158,643.747,515.4211,643.1192,505.5263,643.6944,495.6316,643.7666,485.7368,643.4581,475.8421,643.4533,465.9474,643.3573,456.0526,643.9495,446.1579,644.5699,436.2632,644.183,426.3684,643.4907,416.4737,643.4779,406.5789,643.4078,396.6842,643.9085,386.7895,643.4551,376.8947,644.5259,367,643.8594,367.6553,643.8594,366.8183,633.3229,366.3946,622.7865,367.6252,612.25,366.8597,601.7135,366.5123,591.1771,367,580.6406" style="stroke: #000000; stroke-width: 1.5;"/><path d="M555,580.6406 L555.2307,580.8713 L556.9584,578.9991 L558.6433,577.084 L560.4706,575.3113 L562.3187,573.5593 L564,571.6406 " fill="#FEFECE" style="stroke: #000000; stroke-width: 1.5;"/><path d="M367,580.6406 L367,580.9773 L376.8947,580.2 L386.7895,581.2399 L396.6842,580.2684 L406.5789,580.287 L416.4737,580.8438 L426.3684,580.143 L436.2632,580.9305 L446.1579,580.5503 L456.0526,579.7227 L465.9474,581.5188 L475.8421,581.2374 L485.7368,580.445 L495.6316,580.1241 L505.5263,579.8307 L515.4211,580.2805 L525.3158,580.8056 L535.2105,581.2547 L545.1053,580.3614 L555,580.6406 " fill="#FEFECE" style="stroke: #000000; stroke-width: 1.5;"/><path d="M555,580.6406 L555.993,580.6406 L555.4037,591.1771 L555.1997,601.7135 L555.728,612.25 L555.2042,622.7865 L555.8148,633.3229 L555,643.8594 " fill="#FEFECE" style="stroke: #000000; stroke-width: 1.5;"/><text fill="#000000" font-family="sans-serif" font-size="14" lengthAdjust="spacingAndGlyphs" textLength="87" x="382" y="605.1738">Banana Pi R1</text><text fill="#000000" font-family="sans-serif" font-size="14" font-weight="bold" lengthAdjust="spacingAndGlyphs" textLength="48" x="473" y="605.1738">Router</text><path d="M367,608.25 L367,608.93 L376.8947,607.9617 L386.7895,609.1413 L396.6842,608.2324 L406.5789,608.3525 L416.4737,609.1586 L426.3684,607.5306 L436.2632,609.1656 L446.1579,608.5289 L456.0526,608.755 L465.9474,608.4507 L475.8421,607.6255 L485.7368,607.3967 L495.6316,608.1172 L505.5263,608.8983 L515.4211,607.3889 L525.3158,607.8622 L535.2105,607.5876 L545.1053,608.3402 L555,608.25 " fill="none" style="stroke: #000000; stroke-width: 1.0; stroke-dasharray: 1.0,2.0;"/><path d="M555,608.25 L554.92,608.17 L556.8612,606.1112 L558.9603,604.2103 L560.9165,602.1665 L562.941,600.191 L565,598.25 " fill="none" style="stroke: #000000; stroke-width: 1.0; stroke-dasharray: 1.0,2.0;"/><text fill="#000000" font-family="sans-serif" font-size="14" lengthAdjust="spacingAndGlyphs" textLength="146" x="388" y="626.7832">(Dial to ISP, break wall)</text><!--entity TPLinkSwitch--><polygon fill="#FEFECE" filter="url(#f9u9e6xjpuzn)" points="333,447.6406,332.9513,447.5919,335.1043,445.745,336.8615,443.5021,339.0821,441.7227,341.0757,439.7163,343,437.6406,343,436.8974,352.8462,438.0033,362.6923,437.2432,372.5385,438.335,382.3846,437.9809,392.2308,438.0115,402.0769,437.3062,411.9231,437.2942,421.7692,437.9548,431.6154,437.1041,441.4615,437.5748,451.3077,437.1595,461.1538,437.829,471,437.383,480.8462,437.7558,490.6923,437.9322,500.5385,438.3685,510.3846,437.5239,520.2308,437.4558,530.0769,438.0773,539.9231,437.2469,549.7692,437.8922,559.6154,437.5668,569.4615,437.7865,579.3077,437.3371,589.1538,438.0922,599,437.6406,599.2552,437.6406,599.4031,448.1771,598.3175,458.7135,598.9417,469.25,599.6694,479.7865,598.9047,490.3229,599,500.8594,599.1301,500.9894,597.1444,503.0038,594.9814,504.8407,592.9575,506.8169,590.8513,508.7107,589,510.8594,589,510.81,579.1538,510.6515,569.3077,511.3678,559.4615,511.6067,549.6154,510.4388,539.7692,510.116,529.9231,511.0168,520.0769,511.1178,510.2308,510.9627,500.3846,510.8402,490.5385,511.1917,480.6923,511.0556,470.8462,510.6133,461,510.5608,451.1538,510.5491,441.3077,511.1183,431.4615,510.2362,421.6154,510.1596,411.7692,510.9014,401.9231,510.9227,392.0769,510.6415,382.2308,510.1261,372.3846,510.4762,362.5385,510.7194,352.6923,510.7794,342.8462,511.5381,333,510.8594,333.2086,510.8594,332.7388,500.3229,332.7399,489.7865,333.3556,479.25,332.4757,468.7135,332.8631,458.1771,333,447.6406" style="stroke: #000000; stroke-width: 1.5;"/><path d="M589,447.6406 L588.8221,447.4627 L590.6239,445.6645 L592.7247,444.1654 L594.1949,442.0355 L596.2208,440.4615 L598,438.6406 " fill="#FEFECE" style="stroke: #000000; stroke-width: 1.5;"/><path d="M333,447.6406 L333,448.0875 L342.8462,446.7944 L352.6923,448.0389 L362.5385,447.4337 L372.3846,447.9053 L382.2308,448.3924 L392.0769,447.3369 L401.9231,446.9611 L411.7692,446.9696 L421.6154,448.4867 L431.4615,446.9171 L441.3077,447.4099 L451.1538,447.7423 L461,448.6149 L470.8462,446.7009 L480.6923,447.4 L490.5385,448.5254 L500.3846,446.7214 L510.2308,446.9044 L520.0769,447.4481 L529.9231,446.7035 L539.7692,448.3304 L549.6154,448.4204 L559.4615,447.0868 L569.3077,447.414 L579.1538,448.5292 L589,447.6406 " fill="#FEFECE" style="stroke: #000000; stroke-width: 1.5;"/><path d="M589,447.6406 L589.4351,447.6406 L589.1306,458.1771 L588.163,468.7135 L588.6665,479.25 L588.1766,489.7865 L589.2128,500.3229 L589,510.8594 " fill="#FEFECE" style="stroke: #000000; stroke-width: 1.5;"/><text fill="#000000" font-family="sans-serif" font-size="14" lengthAdjust="spacingAndGlyphs" textLength="96" x="348" y="472.1738">TP-Link 1000M</text><text fill="#000000" font-family="sans-serif" font-size="14" font-weight="bold" lengthAdjust="spacingAndGlyphs" textLength="61" x="448" y="472.1738">Switcher</text><path d="M333,475.25 L333,475.0413 L342.8462,475.8556 L352.6923,475.8641 L362.5385,474.6808 L372.3846,474.8338 L382.2308,474.5582 L392.0769,474.4063 L401.9231,474.718 L411.7692,474.2664 L421.6154,474.5211 L431.4615,474.4781 L441.3077,475.4343 L451.1538,475.181 L461,474.4321 L470.8462,474.9869 L480.6923,475.351 L490.5385,474.784 L500.3846,476.0638 L510.2308,474.3368 L520.0769,475.8925 L529.9231,475.9746 L539.7692,476.0798 L549.6154,474.8411 L559.4615,475.7457 L569.3077,476.1748 L579.1538,476.1428 L589,475.25 " fill="none" style="stroke: #000000; stroke-width: 1.0; stroke-dasharray: 1.0,2.0;"/><path d="M589,475.25 L589.0329,475.2829 L590.8212,473.0712 L593.0128,471.2628 L595.1132,469.3632 L597.0959,467.3459 L599,465.25 " fill="none" style="stroke: #000000; stroke-width: 1.0; stroke-dasharray: 1.0,2.0;"/><text fill="#000000" font-family="sans-serif" font-size="14" lengthAdjust="spacingAndGlyphs" textLength="214" x="354" y="493.7832">extend Banana Pi's ethernet ports</text><!--entity RaspberryPi2B--><polygon fill="#FEFECE" filter="url(#f9u9e6xjpuzn)" points="277.5,305.6406,277.526,305.6666,279.5342,303.6749,281.4578,301.5984,283.6352,299.7758,285.6191,297.7598,287.5,295.6406,287.5,296.2603,297.3125,295.4763,307.125,295.1681,316.9375,295.5447,326.75,295.8805,336.5625,295.6554,346.375,295.3766,356.1875,295.9125,366,296.0433,375.8125,295.014,385.625,295.3232,395.4375,294.9718,405.25,294.9714,415.0625,295.3594,424.875,296.2428,434.6875,295.3256,444.5,295.6406,445.2469,295.6406,444.4764,306.1771,445.0067,316.7135,444.7173,327.25,444.138,337.7865,444.5188,348.3229,444.5,358.8594,444.4625,358.8219,442.669,361.0284,440.6651,363.0245,438.6634,365.0228,436.4201,366.7795,434.5,368.8594,434.5,368.7062,424.6875,368.9763,414.875,369.4463,405.0625,369.3664,395.25,368.57,385.4375,368.8009,375.625,368.9612,365.8125,369.1079,356,369.2056,346.1875,368.9407,336.375,368.5287,326.5625,369.4818,316.75,369.3704,306.9375,368.5104,297.125,368.2271,287.3125,369.2981,277.5,368.8594,277.6098,368.8594,277.3411,358.3229,277.3668,347.7865,277.5297,337.25,277.0575,326.7135,276.8861,316.1771,277.5,305.6406" style="stroke: #000000; stroke-width: 1.5;"/><path d="M434.5,305.6406 L434.3346,305.4752 L436.2792,303.8198 L438.1817,302.1223 L440.1321,300.4727 L441.735,298.4757 L443.5,296.6406 " fill="#FEFECE" style="stroke: #000000; stroke-width: 1.5;"/><path d="M277.5,305.6406 L277.5,305.7159 L287.3125,305.2986 L297.125,305.184 L306.9375,305.4063 L316.75,306.4731 L326.5625,305.9921 L336.375,306.4348 L346.1875,306.1232 L356,305.8512 L365.8125,305.6066 L375.625,305.6789 L385.4375,306.3999 L395.25,304.8615 L405.0625,305.57 L414.875,305.2439 L424.6875,305.8669 L434.5,305.6406 " fill="#FEFECE" style="stroke: #000000; stroke-width: 1.5;"/><path d="M434.5,305.6406 L434.2712,305.6406 L434.4766,316.1771 L434.748,326.7135 L434.6429,337.25 L433.6048,347.7865 L433.5388,358.3229 L434.5,368.8594 " fill="#FEFECE" style="stroke: #000000; stroke-width: 1.5;"/><text fill="#000000" font-family="sans-serif" font-size="14" lengthAdjust="spacingAndGlyphs" textLength="103" x="292.5" y="330.1738">Raspberry Pi 2B</text><path d="M277.5,333.25 L277.5,334.0661 L287.3125,333.7706 L297.125,333.5141 L306.9375,332.6853 L316.75,333.9858 L326.5625,333.0556 L336.375,333.3867 L346.1875,333.8059 L356,332.7451 L365.8125,333.8394 L375.625,332.3905 L385.4375,332.7674 L395.25,333.4337 L405.0625,332.5792 L414.875,332.7883 L424.6875,332.7604 L434.5,333.25 " fill="none" style="stroke: #000000; stroke-width: 1.0; stroke-dasharray: 1.0,2.0;"/><path d="M434.5,333.25 L434.642,333.392 L436.3849,331.1349 L438.6764,329.4264 L440.4343,327.1843 L442.3303,325.0803 L444.5,323.25 " fill="none" style="stroke: #000000; stroke-width: 1.0; stroke-dasharray: 1.0,2.0;"/><text fill="#000000" font-family="sans-serif" font-size="14" lengthAdjust="spacingAndGlyphs" textLength="115" x="298.5" y="351.7832">As HTPC/NAS etc.</text><!--entity R6300v2--><polygon fill="#FEFECE" filter="url(#f9u9e6xjpuzn)" points="480,296.6406,480.0145,296.6551,481.969,294.6096,483.9687,292.6093,485.826,290.4667,488.051,288.6917,490,286.6406,490,286.2879,500.2353,285.9444,510.4706,286.1055,520.7059,286.9051,530.9412,285.9748,541.1765,285.9161,551.4118,285.8941,561.6471,287.0731,571.8824,286.6523,582.1176,286.5472,592.3529,287.1768,602.5882,286.3747,612.8235,286.8774,623.0588,285.9064,633.2941,286.8944,643.5294,286.6003,653.7647,286.3966,664,286.6406,663.8267,286.6406,663.2812,296.7441,663.8118,306.8477,663.278,316.9512,664.1423,327.0547,663.787,337.1582,663.2814,347.2617,664.128,357.3652,664,367.4688,663.8768,367.3456,661.9808,369.4496,659.9471,371.4159,657.9036,373.3723,656.0241,375.4928,654,377.4688,654,377.2342,643.7647,377.0969,633.5294,377.5301,623.2941,377.3244,613.0588,377.1844,602.8235,376.9142,592.5882,376.7269,582.3529,376.9227,572.1176,378.033,561.8824,376.7376,551.6471,377.1969,541.4118,377.2972,531.1765,378.014,520.9412,376.7287,510.7059,377.6281,500.4706,377.0194,490.2353,377.3307,480,377.4688,479.5512,377.4688,479.6463,367.3652,479.6185,357.2617,479.2619,347.1582,480.5363,337.0547,479.5043,326.9512,480.5582,316.8477,479.7566,306.7441,480,296.6406" style="stroke: #000000; stroke-width: 1.5;"/><path d="M654,296.6406 L654.225,296.8656 L655.6448,294.6855 L657.4165,292.8571 L659.6257,291.4664 L660.965,289.2056 L663,287.6406 " fill="#FEFECE" style="stroke: #000000; stroke-width: 1.5;"/><path d="M480,296.6406 L480,296.0094 L490.2353,297.0439 L500.4706,296.3667 L510.7059,296.8229 L520.9412,297.3197 L531.1765,296.2113 L541.4118,295.8002 L551.6471,295.7245 L561.8824,296.5676 L572.1176,297.3921 L582.3529,296.1984 L592.5882,295.6549 L602.8235,296.1512 L613.0588,297.0298 L623.2941,296.0244 L633.5294,297.159 L643.7647,297.1997 L654,296.6406 " fill="#FEFECE" style="stroke: #000000; stroke-width: 1.5;"/><path d="M654,296.6406 L653.751,296.6406 L654.6286,306.7441 L653.5317,316.8477 L653.8193,326.9512 L653.8871,337.0547 L654.0436,347.1582 L654.7209,357.2617 L653.1354,367.3652 L654,377.4688 " fill="#FEFECE" style="stroke: #000000; stroke-width: 1.5;"/><text fill="#000000" font-family="sans-serif" font-size="14" lengthAdjust="spacingAndGlyphs" textLength="115" x="495" y="321.1738">Netgear R6300 v2</text><text fill="#000000" font-family="sans-serif" font-size="14" lengthAdjust="spacingAndGlyphs" textLength="47" x="495" y="338.7832">provide</text><text fill="#000000" font-family="sans-serif" font-size="14" font-weight="bold" lengthAdjust="spacingAndGlyphs" textLength="30" x="546" y="338.7832">WIFI</text><text fill="#000000" font-family="sans-serif" font-size="14" lengthAdjust="spacingAndGlyphs" textLength="59" x="580" y="338.7832">capability</text><path d="M480,341.8594 L480,342.543 L490.2353,342.5497 L500.4706,341.3828 L510.7059,341.9506 L520.9412,341.0848 L531.1765,342.4645 L541.4118,341.148 L551.6471,342.5502 L561.8824,342.1472 L572.1176,341.0071 L582.3529,341.6034 L592.5882,341.5659 L602.8235,341.1832 L613.0588,342.6841 L623.2941,341.6392 L633.5294,341.364 L643.7647,341.6562 L654,341.8594 " fill="none" style="stroke: #000000; stroke-width: 1.0; stroke-dasharray: 1.0,2.0;"/><path d="M654,341.8594 L653.7719,341.6312 L655.8211,339.6805 L657.9492,337.8086 L660.0295,335.8889 L662.0593,333.9187 L664,331.8594 " fill="none" style="stroke: #000000; stroke-width: 1.0; stroke-dasharray: 1.0,2.0;"/><text fill="#000000" font-family="sans-serif" font-size="14" lengthAdjust="spacingAndGlyphs" textLength="112" x="501" y="360.3926">in the sitting room</text><!--entity WindowsDesktop--><polygon fill="#FEFECE" filter="url(#f9u9e6xjpuzn)" points="6,163.6406,5.8333,163.4739,8.1283,161.7689,10.1532,159.7938,12.1354,157.7761,14.1092,155.7499,16,153.6406,16,154.0447,25.7647,153.6864,35.5294,154.3352,45.2941,153.4999,55.0588,153.1502,64.8235,153.5567,74.5882,153.9423,84.3529,154.0924,94.1176,154.1634,103.8824,154.3598,113.6471,153.4178,123.4118,153.1856,133.1765,153.513,142.9412,153.3976,152.7059,154.0255,162.4706,154.228,172.2353,153.6702,182,153.6406,181.3508,153.6406,182.0964,164.1771,181.6585,174.7135,181.4002,185.25,181.2682,195.7865,181.5602,206.3229,182,216.8594,182.1567,217.0161,179.9312,218.7905,178.1608,221.0202,175.8768,222.7361,173.856,224.7154,172,226.8594,172,226.7772,162.2353,226.9515,152.4706,226.7806,142.7059,227.2017,132.9412,226.6046,123.1765,227.0847,113.4118,227.351,103.6471,226.7359,93.8824,226.9815,84.1176,226.3542,74.3529,226.9714,64.5882,227.0915,54.8235,227.5099,45.0588,226.9453,35.2941,226.1576,25.5294,227.4683,15.7647,226.4098,6,226.8594,6.2011,226.8594,5.3001,216.3229,6.4698,205.7865,5.9258,195.25,5.4031,184.7135,6.1869,174.1771,6,163.6406" style="stroke: #000000; stroke-width: 1.5;"/><path d="M172,163.6406 L172.1912,163.8318 L173.5826,161.6232 L175.555,159.9956 L177.3013,158.1419 L179.2123,156.4529 L181,154.6406 " fill="#FEFECE" style="stroke: #000000; stroke-width: 1.5;"/><path d="M6,163.6406 L6,163.5151 L15.7647,163.7519 L25.5294,163.5077 L35.2941,163.6335 L45.0588,163.3504 L54.8235,164.4587 L64.5882,162.8881 L74.3529,163.3099 L84.1176,163.3869 L93.8824,164.4943 L103.6471,162.8809 L113.4118,163.8247 L123.1765,163.2359 L132.9412,162.913 L142.7059,164.3701 L152.4706,162.8537 L162.2353,163.8639 L172,163.6406 " fill="#FEFECE" style="stroke: #000000; stroke-width: 1.5;"/><path d="M172,163.6406 L172.0883,163.6406 L172.1477,174.1771 L172.3214,184.7135 L172.6434,195.25 L172.6705,205.7865 L172.376,216.3229 L172,226.8594 " fill="#FEFECE" style="stroke: #000000; stroke-width: 1.5;"/><text fill="#000000" font-family="sans-serif" font-size="14" lengthAdjust="spacingAndGlyphs" textLength="107" x="21" y="188.1738">desktop machine</text><path d="M6,191.25 L6,191.6437 L15.7647,190.4698 L25.5294,191.648 L35.2941,191.8575 L45.0588,190.9968 L54.8235,191.3525 L64.5882,191.502 L74.3529,191.8173 L84.1176,190.9449 L93.8824,190.6783 L103.6471,191.1913 L113.4118,190.3316 L123.1765,190.7246 L132.9412,191.7378 L142.7059,190.2647 L152.4706,190.2606 L162.2353,191.7649 L172,191.25 " fill="none" style="stroke: #000000; stroke-width: 1.0; stroke-dasharray: 1.0,2.0;"/><path d="M172,191.25 L172.0131,191.2631 L174.0495,189.2995 L176.0075,187.2575 L177.7758,185.0258 L179.8857,183.1357 L182,181.25 " fill="none" style="stroke: #000000; stroke-width: 1.0; stroke-dasharray: 1.0,2.0;"/><text fill="#000000" font-family="sans-serif" font-size="14" lengthAdjust="spacingAndGlyphs" textLength="124" x="27" y="209.7832">Windows 7 installed</text><!--entity MacMini--><polygon fill="#FEFECE" filter="url(#f9u9e6xjpuzn)" points="217.5,176.1406,217.3269,175.9675,219.4406,174.0812,221.5031,172.1437,223.5497,170.1903,225.3467,167.9874,227.5,166.1406,227.5,165.5838,237.625,166.2185,247.75,165.6485,257.875,166.881,268,165.7427,278.125,165.8101,288.25,165.756,298.375,166.3461,308.5,166.1406,308.7356,166.1406,308.3129,173.6625,308.4847,181.1844,308.6617,188.7063,308.6433,196.2281,308.5,203.75,308.3343,203.5843,306.6455,205.8955,304.5633,207.8133,302.4723,209.7223,300.5716,211.8216,298.5,213.75,298.5,214.385,288.375,213.6609,278.25,213.1607,268.125,213.1487,258,213.8637,247.875,214.4087,237.75,213.4135,227.625,213.8728,217.5,213.75,217.3002,213.75,217.5264,206.2281,217.4903,198.7063,217.687,191.1844,217.4837,183.6625,217.5,176.1406" style="stroke: #000000; stroke-width: 1.5;"/><path d="M298.5,176.1406 L298.2675,175.9081 L300.1223,174.1629 L301.9513,172.392 L303.724,170.5646 L305.9149,169.1555 L307.5,167.1406 " fill="#FEFECE" style="stroke: #000000; stroke-width: 1.5;"/><path d="M217.5,176.1406 L217.5,175.6161 L227.625,176.1526 L237.75,175.255 L247.875,176.7527 L258,177.0279 L268.125,175.5969 L278.25,176.3827 L288.375,176.5874 L298.5,176.1406 " fill="#FEFECE" style="stroke: #000000; stroke-width: 1.5;"/><path d="M298.5,176.1406 L298.3269,176.1406 L298.71,183.6625 L298.3472,191.1844 L298.3239,198.7063 L298.5868,206.2281 L298.5,213.75 " fill="#FEFECE" style="stroke: #000000; stroke-width: 1.5;"/><text fill="#000000" font-family="sans-serif" font-size="14" lengthAdjust="spacingAndGlyphs" textLength="51" x="232.5" y="200.6738">MacMini</text><!--entity MacbookAir--><polygon fill="#FEFECE" filter="url(#f9u9e6xjpuzn)" points="225,55.6406,224.9489,55.5895,227.1584,53.7991,228.9176,51.5583,231.0212,49.6619,232.9438,47.5844,235,45.6406,235,44.8968,245.4,46.1409,255.8,46.2513,266.2,44.9327,276.6,45.9283,287,44.9025,297.4,45.9263,307.8,45.2186,318.2,45.9693,328.6,45.0111,339,45.6406,339.1785,45.6406,338.8697,53.1625,338.7518,60.6844,338.8297,68.2063,338.9404,75.7281,339,83.25,338.9321,83.1821,337.0514,85.3014,335.0785,87.3285,332.8315,89.0815,330.9506,91.2006,329,93.25,329,92.841,318.6,93.7979,308.2,93.9004,297.8,93.6502,287.4,93.7972,277,92.8353,266.6,93.7012,256.2,92.7579,245.8,93.928,235.4,93.5347,225,93.25,225.0277,93.25,225.2492,85.7281,224.9046,78.2063,224.8658,70.6844,225.0394,63.1625,225,55.6406" style="stroke: #000000; stroke-width: 1.5;"/><path d="M329,55.6406 L329.1868,55.8275 L330.7509,53.7915 L332.4614,51.902 L334.2107,50.0513 L336.2731,48.5137 L338,46.6406 " fill="#FEFECE" style="stroke: #000000; stroke-width: 1.5;"/><path d="M225,55.6406 L225,55.5289 L235.4,55.9658 L245.8,56.3528 L256.2,56.2089 L266.6,56.1883 L277,54.9973 L287.4,55.2124 L297.8,54.9106 L308.2,54.9803 L318.6,56.2221 L329,55.6406 " fill="#FEFECE" style="stroke: #000000; stroke-width: 1.5;"/><path d="M329,55.6406 L328.8577,55.6406 L329.0439,63.1625 L328.7006,70.6844 L329.0567,78.2063 L328.8398,85.7281 L329,93.25 " fill="#FEFECE" style="stroke: #000000; stroke-width: 1.5;"/><text fill="#000000" font-family="sans-serif" font-size="14" lengthAdjust="spacingAndGlyphs" textLength="74" x="240" y="80.1738">MacbookAir</text><!--entity TPLinkRelay--><polygon fill="#FEFECE" filter="url(#f9u9e6xjpuzn)" points="557.5,163.6406,557.5898,163.7304,559.3993,161.5399,561.484,159.6246,563.4557,157.5963,565.6156,155.7562,567.5,153.6406,567.5,153.2396,577.7,153.6072,587.9,152.9486,598.1,153.6791,608.3,152.967,618.5,153.2741,628.7,153.3156,638.9,153.0625,649.1,153.0369,659.3,153.5238,669.5,153.2361,679.7,153.2427,689.9,153.0454,700.1,153.4401,710.3,154.3471,720.5,153.6406,720.2527,153.6406,719.7807,164.1771,719.7787,174.7135,719.8753,185.25,720.1031,195.7865,720.9337,206.3229,720.5,216.8594,720.4376,216.7969,718.5425,218.9018,716.5885,220.9478,714.4265,222.7859,712.588,224.9474,710.5,226.8594,710.5,227.1937,700.3,226.3498,690.1,227.0949,679.9,227.4955,669.7,226.2215,659.5,227.0561,649.3,226.239,639.1,226.3139,628.9,226.3411,618.7,226.817,608.5,227.0928,598.3,226.2544,588.1,227.2341,577.9,226.6775,567.7,227.5725,557.5,226.8594,558.226,226.8594,557.325,216.3229,557.5611,205.7865,557.2161,195.25,557.3029,184.7135,557.0927,174.1771,557.5,163.6406" style="stroke: #000000; stroke-width: 1.5;"/><path d="M710.5,163.6406 L710.5796,163.7203 L712.3704,161.911 L713.9428,159.8834 L716.009,158.3496 L717.7874,156.528 L719.5,154.6406 " fill="#FEFECE" style="stroke: #000000; stroke-width: 1.5;"/><path d="M557.5,163.6406 L557.5,163.3131 L567.7,163.2422 L577.9,163.6628 L588.1,164.5021 L598.3,163.1174 L608.5,163.1118 L618.7,163.032 L628.9,163.3486 L639.1,164.5543 L649.3,162.6616 L659.5,163.9046 L669.7,163.0753 L679.9,163.4274 L690.1,164.2982 L700.3,163.5223 L710.5,163.6406 " fill="#FEFECE" style="stroke: #000000; stroke-width: 1.5;"/><path d="M710.5,163.6406 L710.271,163.6406 L711.4406,174.1771 L710.8075,184.7135 L709.7153,195.25 L710.0541,205.7865 L709.5476,216.3229 L710.5,226.8594 " fill="#FEFECE" style="stroke: #000000; stroke-width: 1.5;"/><text fill="#000000" font-family="sans-serif" font-size="14" lengthAdjust="spacingAndGlyphs" textLength="49" x="572.5" y="188.1738">TP-Link</text><text fill="#000000" font-family="sans-serif" font-size="14" font-weight="bold" lengthAdjust="spacingAndGlyphs" textLength="30" x="625.5" y="188.1738">WIFI</text><text fill="#000000" font-family="sans-serif" font-size="14" lengthAdjust="spacingAndGlyphs" textLength="36" x="659.5" y="188.1738">Relay</text><path d="M557.5,191.25 L557.5,191.511 L567.7,191.7644 L577.9,190.3118 L588.1,190.9023 L598.3,191.2266 L608.5,191.1145 L618.7,191.0175 L628.9,190.9468 L639.1,191.0094 L649.3,190.4159 L659.5,190.5899 L669.7,191.746 L679.9,192.0256 L690.1,191.4187 L700.3,190.7202 L710.5,191.25 " fill="none" style="stroke: #000000; stroke-width: 1.0; stroke-dasharray: 1.0,2.0;"/><path d="M710.5,191.25 L710.5751,191.3251 L712.345,189.095 L714.7006,187.4506 L716.6912,185.4412 L718.5836,183.3336 L720.5,181.25 " fill="none" style="stroke: #000000; stroke-width: 1.0; stroke-dasharray: 1.0,2.0;"/><text fill="#000000" font-family="sans-serif" font-size="14" lengthAdjust="spacingAndGlyphs" textLength="95" x="578.5" y="209.7832">in the bedroom</text><!--entity iPhone6s--><polygon fill="#FEFECE" filter="url(#f9u9e6xjpuzn)" points="374.5,55.6406,374.475,55.6156,376.4152,53.5559,378.6687,51.8093,380.6599,49.8006,382.3397,47.4803,384.5,45.6406,384.5,46.0503,394.3889,45.5966,404.2778,45.74,414.1667,46.2765,424.0556,45.3392,433.9444,45.1366,443.8333,45.3789,453.7222,45.821,463.6111,45.395,473.5,45.6406,473.3151,45.6406,473.3974,53.1625,473.2564,60.6844,473.5065,68.2063,473.3555,75.7281,473.5,83.25,473.6056,83.3556,471.4073,85.1573,469.574,87.324,467.5046,89.2546,465.4093,91.1593,463.5,93.25,463.5,93.5476,453.6111,93.8356,443.7222,93.4758,433.8333,93.9344,423.9444,93.8675,414.0556,92.9375,404.1667,93.3331,394.2778,92.9418,384.3889,93.9017,374.5,93.25,374.6912,93.25,374.3736,85.7281,374.533,78.2063,374.2653,70.6844,374.2793,63.1625,374.5,55.6406" style="stroke: #000000; stroke-width: 1.5;"/><path d="M463.5,55.6406 L463.7317,55.8723 L465.4379,53.9785 L466.9311,51.8717 L468.7786,50.1192 L470.834,48.5746 L472.5,46.6406 " fill="#FEFECE" style="stroke: #000000; stroke-width: 1.5;"/><path d="M374.5,55.6406 L374.5,54.7889 L384.3889,55.8203 L394.2778,55.683 L404.1667,54.7885 L414.0556,55.1197 L423.9444,55.191 L433.8333,55.8997 L443.7222,54.7948 L453.6111,55.9063 L463.5,55.6406 " fill="#FEFECE" style="stroke: #000000; stroke-width: 1.5;"/><path d="M463.5,55.6406 L463.4575,55.6406 L463.4771,63.1625 L463.8053,70.6844 L463.3352,78.2063 L463.7067,85.7281 L463.5,93.25 " fill="#FEFECE" style="stroke: #000000; stroke-width: 1.5;"/><text fill="#000000" font-family="sans-serif" font-size="14" lengthAdjust="spacingAndGlyphs" textLength="59" x="389.5" y="80.1738">iPhone6s</text><!--entity iPhone5s--><polygon fill="#FEFECE" filter="url(#f9u9e6xjpuzn)" points="508.5,55.6406,508.6569,55.7976,510.5081,53.6487,512.3438,51.4845,514.5976,49.7383,516.4335,47.5741,518.5,45.6406,518.5,46.2878,528.3889,44.9855,538.2778,46.0461,548.1667,45.049,558.0556,45.2595,567.9444,46.2032,577.8333,46.3037,587.7222,45.9121,597.6111,45.5319,607.5,45.6406,607.5401,45.6406,607.5844,53.1625,607.6227,60.6844,607.5735,68.2063,607.4233,75.7281,607.5,83.25,607.3806,83.1306,605.5039,85.2539,603.5,87.25,601.6066,89.3566,599.6705,91.4205,597.5,93.25,597.5,92.5281,587.6111,93.8712,577.7222,92.7198,567.8333,93.7481,557.9444,93.7183,548.0556,92.7956,538.1667,92.6441,528.2778,93.2931,518.3889,93.2667,508.5,93.25,508.6527,93.25,508.2854,85.7281,508.5155,78.2063,508.6997,70.6844,508.2587,63.1625,508.5,55.6406" style="stroke: #000000; stroke-width: 1.5;"/><path d="M597.5,55.6406 L597.5631,55.7037 L599.4765,54.0171 L601.3107,52.2513 L603.0226,50.3633 L604.9095,48.6501 L606.5,46.6406 " fill="#FEFECE" style="stroke: #000000; stroke-width: 1.5;"/><path d="M508.5,55.6406 L508.5,56.207 L518.3889,56.0296 L528.2778,55.3997 L538.1667,56.6311 L548.0556,55.9083 L557.9444,54.9764 L567.8333,54.9396 L577.7222,55.8918 L587.6111,55.2512 L597.5,55.6406 " fill="#FEFECE" style="stroke: #000000; stroke-width: 1.5;"/><path d="M597.5,55.6406 L597.4568,55.6406 L597.6945,63.1625 L597.6547,70.6844 L597.3599,78.2063 L597.5645,85.7281 L597.5,93.25 " fill="#FEFECE" style="stroke: #000000; stroke-width: 1.5;"/><text fill="#000000" font-family="sans-serif" font-size="14" lengthAdjust="spacingAndGlyphs" textLength="59" x="523.5" y="80.1738">iPhone5s</text><!--entity iPadMini--><polygon fill="#FEFECE" filter="url(#f9u9e6xjpuzn)" points="642.5,55.6406,642.4019,55.5425,644.591,53.7316,646.4082,51.5489,648.6355,49.7762,650.3773,47.5179,652.5,45.6406,652.5,45.508,662.875,46.2448,673.25,45.1141,683.625,44.9778,694,45.8983,704.375,45.8249,714.75,46.1954,725.125,45.4457,735.5,45.6406,735.4593,45.6406,735.6645,53.1625,735.4045,60.6844,735.5407,68.2063,735.5487,75.7281,735.5,83.25,735.3474,83.0974,733.5948,85.3448,731.4025,87.1525,729.5152,89.2652,727.4369,91.1869,725.5,93.25,725.5,93.753,715.125,93.1774,704.75,92.608,694.375,93.1599,684,92.8519,673.625,92.7574,663.25,92.6993,652.875,93.4484,642.5,93.25,642.4046,93.25,642.4407,85.7281,642.3577,78.2063,642.7402,70.6844,642.4033,63.1625,642.5,55.6406" style="stroke: #000000; stroke-width: 1.5;"/><path d="M725.5,55.6406 L725.5038,55.6445 L727.2222,53.7628 L729.3303,52.271 L730.8963,50.2369 L732.557,48.2976 L734.5,46.6406 " fill="#FEFECE" style="stroke: #000000; stroke-width: 1.5;"/><path d="M642.5,55.6406 L642.5,55.1618 L652.875,54.9638 L663.25,56.0362 L673.625,54.8152 L684,56.0544 L694.375,55.7681 L704.75,55.052 L715.125,56.0257 L725.5,55.6406 " fill="#FEFECE" style="stroke: #000000; stroke-width: 1.5;"/><path d="M725.5,55.6406 L725.5003,55.6406 L725.33,63.1625 L725.7536,70.6844 L725.5134,78.2063 L725.3146,85.7281 L725.5,93.25 " fill="#FEFECE" style="stroke: #000000; stroke-width: 1.5;"/><text fill="#000000" font-family="sans-serif" font-size="14" lengthAdjust="spacingAndGlyphs" textLength="53" x="657.5" y="80.1738">iPadMini</text><!--entity Nexus6--><polygon fill="#FEFECE" filter="url(#f9u9e6xjpuzn)" points="771,55.6406,770.9339,55.5745,772.8944,53.5351,774.8584,51.499,777.0167,49.6574,778.9289,47.5695,781,45.6406,781,45.3318,790.5,45.7045,800,45.5629,809.5,45.3371,819,45.2387,828.5,45.958,838,45.7345,847.5,45.1459,857,45.6406,857.1361,45.6406,857.2426,53.1625,856.9639,60.6844,857.1823,68.2063,856.8958,75.7281,857,83.25,857.1736,83.4236,855.1253,85.3753,853.0547,87.3047,850.8317,89.0817,849.0092,91.2592,847,93.25,847,93.2991,837.5,93.7108,828,93.6063,818.5,92.8063,809,93.9983,799.5,93.7961,790,93.6448,780.5,92.7423,771,93.25,770.913,93.25,770.9377,85.7281,771.1308,78.2063,770.9498,70.6844,770.9432,63.1625,771,55.6406" style="stroke: #000000; stroke-width: 1.5;"/><path d="M847,55.6406 L847.0164,55.6571 L848.9529,53.9935 L850.4029,51.8435 L852.2612,50.1018 L854.3205,48.5612 L856,46.6406 " fill="#FEFECE" style="stroke: #000000; stroke-width: 1.5;"/><path d="M771,55.6406 L771,55.4844 L780.5,55.2115 L790,56.3276 L799.5,56.1885 L809,55.3455 L818.5,55.3959 L828,55.3529 L837.5,55.4319 L847,55.6406 " fill="#FEFECE" style="stroke: #000000; stroke-width: 1.5;"/><path d="M847,55.6406 L846.8019,55.6406 L846.8769,63.1625 L847.1571,70.6844 L846.993,78.2063 L847.2743,85.7281 L847,93.25 " fill="#FEFECE" style="stroke: #000000; stroke-width: 1.5;"/><text fill="#000000" font-family="sans-serif" font-size="14" lengthAdjust="spacingAndGlyphs" textLength="46" x="786" y="80.1738">Nexus6</text><!--entity Xiaomi5s--><polygon fill="#FEFECE" filter="url(#f9u9e6xjpuzn)" points="892,55.6406,892.0951,55.7358,893.9258,53.5664,895.9257,51.5663,898.1122,49.7529,899.8378,47.4785,902,45.6406,902,45.9425,911.5556,45.6431,921.1111,45.0354,930.6667,45.3193,940.2222,44.8915,949.7778,45.0413,959.3333,45.9644,968.8889,45.7051,978.4444,46.2697,988,45.6406,987.7894,45.6406,988.2466,53.1625,988.0416,60.6844,988.0035,68.2063,988.1176,75.7281,988,83.25,988.0059,83.2559,985.9963,85.2463,984.0229,87.2729,981.9636,89.2136,980.0251,91.2751,978,93.25,978,92.9943,968.4444,92.9792,958.8889,93.6231,949.3333,92.9858,939.7778,92.719,930.2222,93.7762,920.6667,92.7518,911.1111,93.7803,901.5556,93.7668,892,93.25,891.7998,93.25,892.0975,85.7281,892.0731,78.2063,891.94,70.6844,892.1573,63.1625,892,55.6406" style="stroke: #000000; stroke-width: 1.5;"/><path d="M978,55.6406 L977.9666,55.6072 L979.7776,53.8183 L981.8012,52.2418 L983.4208,50.2614 L985.1037,48.3443 L987,46.6406 " fill="#FEFECE" style="stroke: #000000; stroke-width: 1.5;"/><path d="M892,55.6406 L892,55.4045 L901.5556,55.5987 L911.1111,56.1301 L920.6667,55.1378 L930.2222,56.2565 L939.7778,55.7412 L949.3333,55.1813 L958.8889,54.7414 L968.4444,54.8132 L978,55.6406 " fill="#FEFECE" style="stroke: #000000; stroke-width: 1.5;"/><path d="M978,55.6406 L977.8905,55.6406 L978.2699,63.1625 L978.2218,70.6844 L977.8148,78.2063 L978.2442,85.7281 L978,93.25 " fill="#FEFECE" style="stroke: #000000; stroke-width: 1.5;"/><text fill="#000000" font-family="sans-serif" font-size="14" lengthAdjust="spacingAndGlyphs" textLength="56" x="907" y="80.1738">Xiaomi5s</text><!--entity ThinkpadTablet2--><polygon fill="#FEFECE" filter="url(#f9u9e6xjpuzn)" points="1023,55.6406,1022.9042,55.5449,1025.0554,53.696,1026.994,51.6346,1028.9333,49.5739,1031.1612,47.8018,1033,45.6406,1033,45.3233,1043.1053,45.685,1053.2105,45.9288,1063.3158,46.2768,1073.4211,45.4346,1083.5263,46.2973,1093.6316,46.1408,1103.7368,45.2346,1113.8421,44.9427,1123.9474,46.3756,1134.0526,45.5223,1144.1579,45.5853,1154.2632,45.0754,1164.3684,45.4283,1174.4737,45.7,1184.5789,46.0177,1194.6842,45.8016,1204.7895,46.0111,1214.8947,44.9483,1225,45.6406,1224.8603,45.6406,1224.8395,53.1625,1225.1166,60.6844,1225.0115,68.2063,1225.0873,75.7281,1225,83.25,1224.9493,83.1993,1223.1557,85.4057,1221.0618,87.3118,1219.0486,89.2986,1216.9762,91.2262,1215,93.25,1215,92.9156,1204.8947,93.9856,1194.7895,93.2735,1184.6842,92.9211,1174.5789,92.9686,1164.4737,93.8222,1154.3684,93.1536,1144.2632,93.6101,1134.1579,93.8438,1124.0526,93.0833,1113.9474,93.0309,1103.8421,93.9907,1093.7368,93.848,1083.6316,93.345,1073.5263,92.9128,1063.4211,93.9838,1053.3158,93.1566,1043.2105,93.7196,1033.1053,93.8366,1023,93.25,1023.0358,93.25,1022.8209,85.7281,1022.8743,78.2063,1023.0654,70.6844,1023.0445,63.1625,1023,55.6406" style="stroke: #000000; stroke-width: 1.5;"/><path d="M1215,55.6406 L1215.2089,55.8495 L1216.6815,53.7221 L1218.3769,51.8175 L1220.5291,50.3698 L1222.209,48.4497 L1224,46.6406 " fill="#FEFECE" style="stroke: #000000; stroke-width: 1.5;"/><path d="M1023,55.6406 L1023,54.9066 L1033.1053,55.4731 L1043.2105,56.1132 L1053.3158,56.3606 L1063.4211,56.5644 L1073.5263,55.3404 L1083.6316,56.417 L1093.7368,55.6904 L1103.8421,54.8005 L1113.9474,55.9036 L1124.0526,55.8097 L1134.1579,56.517 L1144.2632,54.8286 L1154.3684,56.0413 L1164.4737,55.0215 L1174.5789,55.8277 L1184.6842,55.6623 L1194.7895,54.7672 L1204.8947,55.0086 L1215,55.6406 " fill="#FEFECE" style="stroke: #000000; stroke-width: 1.5;"/><path d="M1215,55.6406 L1214.8463,55.6406 L1214.8456,63.1625 L1215.1342,70.6844 L1215.1801,78.2063 L1214.8721,85.7281 L1215,93.25 " fill="#FEFECE" style="stroke: #000000; stroke-width: 1.5;"/><text fill="#000000" font-family="sans-serif" font-size="14" lengthAdjust="spacingAndGlyphs" textLength="162" x="1038" y="80.1738">Lenovo Thinkpad Tablet2</text><!--link BananaPi to ISP--><path d="M466,643.6946 L466.7384,643.6946 L466.6273,654.5747 L466.6303,665.4547 L466.3705,676.3348 L466.5395,687.2149 L466,698.0949 " fill="none" style="stroke: #A80036; stroke-width: 1.0;"/><polygon fill="#A80036" points="466,703.4628,466.1901,703.5473,466.6699,701.605,467.8198,699.9605,468.2134,697.9799,469.0561,696.1989,470,694.4628,469.8537,694.3165,469.193,695.2558,468.4366,696.0994,467.4343,696.6972,466.7653,697.6281,466,698.4628,465.9812,698.444,465.1188,697.5817,464.2938,696.7566,463.747,696.2098,462.6844,695.1472,462,694.4628,461.997,694.4615,462.6715,696.2057,463.5486,698.04,464.4728,699.8952,465.1723,701.6505,466,703.4628" style="stroke: #A80036; stroke-width: 1.0;"/><!--link TPLinkSwitch to BananaPi--><path d="M466,510.9366 L466.5577,510.9366 L465.5432,521.7676 L466.5458,532.5986 L466.2579,543.4296 L466.1544,554.2606 L466,565.0916 " fill="none" style="stroke: #A80036; stroke-width: 1.0;"/><polygon fill="#A80036" points="466,570.3876,465.841,570.317,466.7677,568.5733,467.4489,566.7205,468.337,564.9596,469.1028,563.1444,470,561.3876,470.093,561.4806,469.276,562.2637,468.3326,562.9202,467.6641,563.8518,466.7634,564.551,466,565.3876,465.9658,565.3534,465.1968,564.5844,464.2679,563.6555,463.6951,563.0827,462.8496,562.2372,462,561.3876,461.7869,561.2929,462.8654,563.2167,463.4044,564.9007,464.5001,566.8321,465.2622,568.6153,466,570.3876" style="stroke: #A80036; stroke-width: 1.0;"/><!--link R6300v2 to TPLinkSwitch--><path d="M538.169,377.8226 L538.516,378.0854 L532.403,385.8505 L526.7433,393.9588 L520.0882,401.3134 L514.5481,409.5122 L508.4176,417.2641 L503.0978,425.6297 L496.418,432.9656 " fill="none" style="stroke: #A80036; stroke-width: 1.0;"/><polygon fill="#A80036" points="493.151,437.2806,493.1017,437.1913,494.8099,436.2099,496.5515,435.289,498.444,434.6414,500.1194,433.6006,501.7726,432.5195,501.7962,432.6905,500.6304,432.519,499.5545,432.9985,498.3859,432.8066,497.3176,433.3406,496.169,433.2942,496.3746,433.3226,495.839,432.1493,495.6835,431.0285,495.6253,429.9212,495.526,428.8082,495.3943,427.6907,495.2497,427.6568,495.0604,429.6355,494.5651,431.5426,494.184,433.4764,493.6701,435.3791,493.151,437.2806" style="stroke: #A80036; stroke-width: 1.0;"/><!--link RaspberryPi2B to TPLinkSwitch--><path d="M387.768,368.8306 L387.9715,368.9833 L394.1491,377.1535 L400.0779,385.1371 L406.2662,393.3155 L411.3974,400.701 L417.909,409.1217 L423.6802,416.9871 L430.8642,425.9122 L436.274,433.5066 " fill="none" style="stroke: #A80036; stroke-width: 1.0;"/><polygon fill="#A80036" points="439.281,437.5156,439.0485,437.4623,438.8447,435.5965,438.1601,433.6204,437.8229,431.724,437.382,429.8038,437.081,427.9156,437.0005,427.9041,436.947,429.0393,436.6257,430.1363,436.4927,431.2602,436.572,432.4143,436.281,433.5156,436.2556,433.3376,435.1677,433.4023,434.0077,432.9625,432.912,432.9727,431.8127,432.9573,430.681,432.7156,430.6493,432.6589,432.29,433.4767,434.139,434.6678,435.9081,435.7159,437.6678,436.747,439.281,437.5156" style="stroke: #A80036; stroke-width: 1.0;"/><!--link TPLinkRelay to R6300v2--><path d="M621.92,226.8306 L622.5629,227.1383 L617.1907,235.8508 L613.6213,245.4261 L608.3504,254.1871 L604.3975,263.5789 L599.7744,272.65 L595.558,281.9156 " fill="none" style="stroke: #A80036; stroke-width: 1.0;"/><polygon fill="#A80036" points="593.372,286.4826,593.4584,286.584,595.0094,285.367,596.2337,283.767,598.0152,282.8204,599.3525,281.3529,600.8655,280.0914,600.9364,280.2926,599.8675,280.6632,598.7965,281.0282,597.6318,281.1272,596.6651,281.7878,595.5306,281.9726,595.4908,281.9586,595.3046,280.9586,594.6536,279.7947,594.1895,278.6967,593.8566,277.6451,593.6494,276.6377,593.8848,276.6443,593.7768,278.6118,593.5361,280.5756,593.4369,282.5433,593.3087,284.5103,593.372,286.4826" style="stroke: #A80036; stroke-width: 1.0;"/><!--link WindowsDesktop to R6300v2--><path d="M182.003,221.3416 L182.0826,221.6121 L185.6021,222.4003 L189.2524,223.6332 L192.852,224.6936 L196.4937,225.897 L200,226.6406 L199.9389,226.4159 L204.1724,227.9249 L208.2137,228.7264 L212.4293,230.1695 L216.4823,231.0143 L220.6415,232.2501 L220.6086,232.1194 L224.4444,233.2503 L228.2585,234.2951 L232.0736,235.3437 L235.8361,236.184 L239.6009,237.0336 L239.676,237.3556 L243.1787,238.1701 L246.6478,238.8403 L250.0515,239.2295 L253.6571,240.4854 L257.1167,241.115 L257.0666,240.8817 L260.4235,242.0232 L263.6217,242.4263 L266.8651,243.0395 L270.1628,243.9055 L273.4275,244.6181 L273.4856,244.9106 L276.5518,245.5069 L279.6015,246.02 L282.6769,246.663 L285.6463,246.7717 L288.7718,247.6668 L288.7603,247.6049 L291.7383,248.4426 L294.5983,248.6463 L297.5735,249.4689 L300.4568,249.7976 L303.3882,250.3851 L303.4314,250.6301 L308.9964,251.4161 L314.5321,252.0356 L320.1861,253.3264 L325.7619,254.1736 L331.3915,255.3255 L331.424,255.5032 L336.9664,256.2591 L342.5712,257.3565 L348.2209,258.6994 L353.7961,259.6345 L359.3459,260.4303 L359.349,260.4461 L362.2898,261.1787 L365.1523,261.5221 L368.1136,262.3568 L370.9586,262.6127 L373.9011,263.3541 L373.8336,263.0453 L376.9771,264.1323 L379.9862,264.6049 L383.0279,265.2262 L386.0589,265.7987 L389.1598,266.6905 L389.1741,266.7505 L392.3233,267.1449 L395.6829,268.4191 L398.9047,269.1171 L402.1382,269.8638 L405.3604,270.5635 L405.2807,270.2579 L408.7716,271.2206 L412.378,272.6263 L415.8241,273.4175 L419.2463,274.1169 L422.7416,275.0969 L422.7538,275.1401 L426.495,276.1367 L430.2941,277.3381 L433.9927,278.1845 L437.7939,279.3935 L441.542,280.4147 L441.4656,280.1636 L445.6898,281.8444 L449.8106,283.1856 L453.7907,284.0644 L457.9128,285.4098 L462,286.6406 L461.9163,286.3874 L464.5994,287.4152 L467.2427,288.3226 L469.9675,289.4769 L472.5635,290.2409 L475.153,290.9856 " fill="none" style="stroke: #A80036; stroke-width: 1.0;"/><polygon fill="#A80036" points="479.962,292.6666,479.7919,292.4857,478.3888,291.1706,477.0145,289.8862,475.7136,288.6798,474.1952,287.2422,472.7861,285.9207,472.7409,285.8989,473.204,286.9046,473.6787,287.9158,474.0454,288.875,474.59,289.9199,475.2421,291.0167,475.2641,291.0623,474.2508,291.5658,473.1725,291.9342,472.1508,292.4202,471.0988,292.8434,470.1462,293.4726,470.1662,293.7164,472.099,293.1853,474.065,293.0589,476.0277,292.8924,478.0142,293.0146,479.962,292.6666" style="stroke: #A80036; stroke-width: 1.0;"/><!--link MacMini to R6300v2--><path d="M308.831,213.7376 L308.9399,213.9669 L314.3616,216.5221 L319.7091,218.921 L325.2241,221.6725 L330.4914,223.9026 L336,226.6406 L336.1005,226.8592 L342.95,229.7805 L349.9911,233.1187 L356.9149,236.2018 L364.0077,239.6524 L370.9064,242.6808 L370.9838,242.8522 L378.0256,245.8752 L385.2972,249.4071 L392.3059,252.3569 L399.3629,255.4135 L406.5615,258.7838 L406.5559,258.7712 L413.5952,261.9243 L420.6943,265.2115 L427.6373,268.1485 L434.7481,271.4621 L441.7126,274.4474 L441.8235,274.6988 L448.3978,277.4061 L455.1468,280.5097 L461.6269,283.0033 L468.498,286.3837 L475.107,289.1696 " fill="none" style="stroke: #A80036; stroke-width: 1.0;"/><polygon fill="#A80036" points="479.753,291.2066,479.8228,291.2703,478.4769,289.7973,477.1177,288.3122,475.7268,286.7981,474.6155,285.539,473.1181,283.928,473.3006,283.9992,473.6908,285.045,473.9581,286.0428,474.3692,287.0968,474.9006,288.1977,475.1742,289.198,475.1327,289.0915,474.0375,289.3972,473.1545,290.2466,472.1001,290.6567,470.9682,290.8683,469.9043,291.2541,469.9034,291.0845,471.8729,291.0073,473.8447,291.4413,475.8124,291.0039,477.783,291.1724,479.753,291.2066" style="stroke: #A80036; stroke-width: 1.0;"/><!--link MacbookAir to R6300v2--><path d="M307.736,93.7586 L308.1049,94.1693 L315.2247,100.479 L322.1835,106.6094 L330.3952,114.1346 L337.5642,120.4991 L345.0831,127.2531 L353.1148,134.5779 L360.5326,141.2194 L367.4127,147.2623 L375.1079,154.2124 L382.6336,160.974 L389.9118,167.46 L397.8325,174.6612 L405.8076,181.9231 L413.344,188.6966 L421.027,195.6333 L427.7967,201.5532 L436.018,209.0891 L442.6997,214.911 L450.2811,221.7347 L458.2835,229.0268 L465.3413,235.2675 L472.9048,242.0711 L480.5761,248.9947 L487.8119,255.4336 L495.441,262.3103 L503.1377,269.2622 L510.8812,276.2661 L518.273,282.8786 " fill="none" style="stroke: #A80036; stroke-width: 1.0;"/><polygon fill="#A80036" points="522.34,286.5326,522.3264,286.5266,521.4864,284.7127,520.7181,282.9309,520.0655,281.2009,519.0147,279.2927,518.3174,277.5427,518.3987,277.547,518.1378,278.6596,518.6731,279.8148,518.5592,280.9352,518.3756,282.0518,518.6203,283.1914,518.6197,283.1801,517.4996,283.4223,516.3634,283.3614,515.223,283.2234,514.1091,283.5802,512.9715,283.4943,513.0163,283.6324,514.9064,284.2907,516.6768,284.5798,518.5235,285.1041,520.4791,285.9645,522.34,286.5326" style="stroke: #A80036; stroke-width: 1.0;"/><!--link ThinkpadTablet2 to R6300v2--><path d="M1091.74,93.7126 L1091.5966,93.5051 L1087.8075,96.3709 L1083.7915,98.9084 L1079.9019,101.6288 L1076.1508,104.5497 L1072.216,107.2045 L1072.2769,107.2949 L1067.5619,110.233 L1062.8857,113.2288 L1058.5376,116.7111 L1053.7224,119.5007 L1049.1996,122.7238 L1049.3177,122.9042 L1044.1718,126.3566 L1038.7406,129.3738 L1033.8203,133.1706 L1028.5448,136.4253 L1023.2844,139.703 L1023.218,139.5982 L1017.6452,143.2852 L1012.0195,146.8887 L1006.4652,150.6049 L1000.8553,154.2332 L995.0639,157.5749 L994.9188,157.339 L992.0154,159.2461 L989.2576,161.3901 L986.3338,163.2643 L983.1372,164.6946 L980.2746,166.6682 L980.2814,166.6794 L977.3149,168.6036 L974.1084,170.1282 L971.1398,172.0488 L968.2501,174.1006 L965.1317,175.7719 L965.0681,175.6636 L962.1906,177.8253 L959.0827,179.5939 L955.8049,181.073 L952.7392,182.9137 L949.7091,184.8151 L949.8378,185.0408 L946.5661,186.5669 L943.4904,188.4366 L940.457,190.3806 L937.2335,191.9912 L934.0812,193.7268 L934.0188,193.6139 L930.9421,195.4916 L927.9258,197.4787 L924.7572,199.1901 L921.5314,200.7981 L918.3222,202.4361 L918.3511,202.4903 L915.0089,203.842 L912.005,205.8279 L908.9407,207.7005 L905.6893,209.2224 L902.5062,210.8722 L902.5569,210.9713 L899.4019,212.5989 L896.2877,214.3061 L893.086,215.8426 L889.8659,217.3432 L886.7074,218.964 L886.7031,218.9552 L883.4899,220.3437 L880.4385,222.0634 L877.1744,223.3479 L874.1978,225.2206 L871,226.6406 L870.8758,226.3747 L868.5135,227.7609 L866.1694,229.186 L863.5939,230.1156 L861.0584,231.1311 L858.6455,232.4089 L858.7453,232.6309 L856.2484,233.8091 L853.6333,234.7244 L851.1205,235.8672 L848.4709,236.7058 L846.0576,238.0699 L846.1462,238.274 L843.3742,238.8852 L840.8294,240.0202 L838.4356,241.5026 L835.9414,242.7539 L833.2791,243.618 L833.3667,243.8265 L830.6994,244.7171 L828.1918,245.988 L825.6098,247.0818 L823.0513,248.2314 L820.3529,249.0479 L820.4309,249.2423 L815.2504,251.4495 L809.8317,253.0632 L804.6923,255.3729 L799.4213,257.3546 L794.2285,259.5312 L794.2426,259.5684 L789.0511,261.686 L783.8533,263.7868 L778.5287,265.5538 L773.2029,267.3175 L768.0271,269.4765 L767.9883,269.3689 L762.8822,271.4662 L757.6476,273.2075 L752.3643,274.8138 L747.2742,276.9554 L742.0915,278.8403 L742.0995,278.8635 L737.0962,280.7912 L731.9956,282.4371 L726.9979,284.3812 L721.8975,286.0278 L716.7643,287.5792 L716.7188,287.4418 L711.959,289.4045 L706.9126,290.5015 L702.0714,292.2184 L697.2503,293.9957 L692.3883,295.6498 L692.3793,295.6216 L687.7812,297.1509 L683.1175,298.4746 L678.6254,300.3365 L674.0045,301.7943 L669.306,303.0086 " fill="none" style="stroke: #A80036; stroke-width: 1.0;"/><polygon fill="#A80036" points="664.328,304.5616,664.3265,304.5491,666.2643,304.6159,668.2354,304.9688,670.1821,305.1124,672.1801,305.6959,674.1107,305.7014,674.1128,305.7054,673.2236,305.3946,672.2159,304.8579,671.094,304.1034,670.1176,303.6264,669.1014,303.0733,669.142,303.0946,669.4718,301.9901,670.1644,301.0758,670.5056,299.9772,671.0347,298.9772,671.7294,298.064,671.5726,297.8854,670.2985,299.4197,668.8576,300.7641,667.2874,301.9612,665.6922,303.1299,664.328,304.5616" style="stroke: #A80036; stroke-width: 1.0;"/><!--link iPhone6s to R6300v2--><path d="M437.134,93.7586 L437.4522,93.9394 L441.2564,101.8911 L447.5059,111.2321 L452.3193,119.7571 L455.7368,127.4891 L460.7896,136.1502 L465.5754,144.6596 L471.5628,153.8516 L475.7453,162.0183 L481.2436,170.9325 L485.1223,178.9265 L490.8475,187.9696 L495.6131,196.4675 L500.9344,205.2811 L505.9162,213.9019 L510.0649,222.0493 L514.6683,230.455 L519.985,239.266 L525.3364,248.0968 L530.1744,256.6358 L534.9212,265.123 L538.9915,273.2259 L544.005,281.8646 " fill="none" style="stroke: #A80036; stroke-width: 1.0;"/><polygon fill="#A80036" points="546.656,286.5326,546.5606,286.5232,546.3772,284.564,546.2887,282.6141,546.2601,280.6702,545.6931,278.6731,545.6877,276.7315,545.549,276.6933,545.2447,277.783,545.0941,278.915,544.9583,280.0511,544.49,281.0956,544.1859,282.1854,544.1975,282.2273,543.0491,281.7179,542.0638,281.8005,540.9085,281.2656,539.7608,280.7588,538.7321,280.6836,538.6221,280.5346,540.25,281.7629,541.7819,282.8611,543.5876,284.33,545.0792,285.3736,546.656,286.5326" style="stroke: #A80036; stroke-width: 1.0;"/><!--link iPhone5s to R6300v2--><path d="M551.617,93.6786 L551.3387,93.6105 L550.6917,96.3054 L550.2611,99.0532 L549.7308,101.7766 L549.1918,104.4979 L548.3225,107.1383 L548.4051,107.1564 L547.3411,110.0725 L546.9733,113.1406 L546.2167,116.1238 L545.935,119.2107 L545.0435,122.1645 L544.9947,122.1555 L544.157,125.2628 L543.9917,128.4936 L543.453,131.6558 L542.4852,134.7392 L542.147,137.9382 L542.4606,137.9811 L541.7828,141.0876 L541.1975,144.2068 L540.6933,147.337 L540.2064,150.4696 L540,153.6406 L539.9903,153.6396 L539.2951,157.7124 L538.9854,161.8254 L538.4885,165.9188 L537.9695,170.01 L537.8657,174.1443 L537.9034,174.1466 L537.5513,177.3493 L537.2176,180.553 L537.4896,183.7932 L536.8877,186.9808 L536.9021,190.2055 L537.0975,190.2126 L536.8477,193.405 L537.0044,196.6122 L537.4167,199.8287 L537.4931,203.033 L537.4875,206.2342 L537.3424,206.2189 L537.955,208.1388 L537.5646,209.9526 L538.3142,211.8869 L538.3473,213.7455 L538.4792,215.6146 L538.5636,215.6262 L539.0673,217.859 L538.8058,219.9862 L539.6198,222.2617 L539.5763,224.4189 L540,226.6406 L540.0088,226.6422 L540.252,229.3836 L540.9346,232.2039 L541.6508,235.0303 L541.9151,237.7755 L542.5055,240.5793 L542.193,240.5071 L543.1834,243.3979 L543.6904,246.1771 L544.5062,249.0275 L545.3458,251.8835 L545.7536,254.6398 L545.6513,254.6119 L546.2357,257.3344 L547.4667,260.233 L548.0197,262.9469 L549.0901,265.8018 L549.5224,268.4829 L549.7379,268.5488 L550.6251,271.2288 L551.0036,273.7529 L551.7814,276.3993 L552.6309,279.0677 L553.59,281.7696 " fill="none" style="stroke: #A80036; stroke-width: 1.0;"/><polygon fill="#A80036" points="555.152,286.5526,555.3261,286.5706,555.2252,284.58,555.3841,282.6161,555.8669,280.6857,555.7657,278.695,556.1618,276.7557,555.9594,276.6529,555.7966,277.8391,555.1165,278.7627,554.4333,279.6846,554.0634,280.7656,553.6005,281.7994,553.5587,281.7171,552.5471,281.1993,551.4949,280.6014,550.5143,280.1446,549.6164,279.8508,548.5567,279.2381,548.5878,279.2661,549.7774,280.6123,551.1771,282.148,552.3409,283.4709,553.9179,285.1663,555.152,286.5526" style="stroke: #A80036; stroke-width: 1.0;"/><!--link iPadMini to R6300v2--><path d="M707.248,93.7396 L706.9993,93.5712 L709.0093,96.3352 L710.8773,99.003 L712.7419,101.6686 L714.349,104.1596 L716.0232,106.6962 L716.0858,106.7336 L717.9692,109.7784 L719.5182,112.6233 L721.3704,115.6493 L723.0691,118.5836 L724.9517,121.6279 L724.7249,121.5135 L726.8375,125.0301 L728.0673,128.1012 L730.0322,131.5434 L731.3648,134.6663 L733.2523,138.0694 L733.1904,138.045 L734.3318,141.4488 L736.259,145.1624 L737.2325,148.5001 L738.6555,152.0149 L740.144,155.5555 L740.3412,155.6068 L741.0795,159.1673 L742.2569,162.8421 L742.8862,166.3742 L744.1929,170.0827 L744.8457,173.6209 L744.998,173.6354 L745.2154,177.259 L745.71,180.9091 L746.1284,184.5519 L746.2453,188.1659 L746.5763,191.8004 L746.5138,191.7933 L746.0302,195.35 L745.817,198.9373 L745.1656,202.475 L744.8389,206.0494 L744.5548,209.6287 L744.3015,209.5311 L743.4473,213.1095 L742.0985,216.4973 L740.4554,219.7717 L739.2849,223.2282 L738,226.6406 L738.0977,226.7009 L736.7462,228.6848 L735.3196,230.6223 L734.4932,232.9301 L733.0004,234.8268 L731.7032,236.8441 L731.6362,236.7939 L730.1307,238.6676 L728.7529,240.6372 L727.1972,242.4733 L726.127,244.6738 L724.4931,246.4512 L724.5394,246.4922 L723.0223,248.3709 L721.4414,250.193 L719.7803,251.9439 L718.0981,253.6761 L716.489,255.4732 L716.3345,255.3145 L714.9768,257.3927 L713.1269,258.9651 L711.2935,260.5546 L709.629,262.3176 L707.81,263.9219 L707.8179,263.9311 L705.8823,265.4047 L704.0831,267.0379 L702.2136,268.5889 L700.5269,270.3539 L698.5752,271.8087 L698.6606,271.9212 L696.5626,273.1727 L694.8113,274.8812 L692.9635,276.4625 L690.9491,277.8241 L688.9039,279.1452 L688.9034,279.1445 L686.8165,280.3731 L684.9535,281.9306 L682.7465,282.9827 L680.8596,284.5053 L678.9151,285.943 L678.9476,285.9958 L676.8775,287.1969 L674.8661,288.4932 L672.7513,289.6217 L670.8702,291.1298 L668.728,292.2136 " fill="none" style="stroke: #A80036; stroke-width: 1.0;"/><polygon fill="#A80036" points="664.337,294.7396,664.3422,294.7891,666.2782,294.3631,668.237,294.155,670.2362,294.3358,672.1562,293.7552,674.1329,293.7199,674.1738,293.8714,673.0216,293.3549,671.8874,292.9049,670.9193,293.0709,669.7471,292.4805,668.6713,292.2468,668.6212,292.2333,669.0653,291.1813,669.0411,290.0029,669.7218,289.0147,669.7055,287.8385,670.1444,286.7851,670.1301,286.7747,669.1238,288.4789,667.6606,289.8495,666.7684,291.637,665.3649,293.0512,664.337,294.7396" style="stroke: #A80036; stroke-width: 1.0;"/><!--link Nexus6 to R6300v2--><path d="M812.685,93.8566 L812.8185,93.8711 L812.2924,96.5575 L812.0089,99.2702 L811.9711,102.0095 L811.6929,104.7228 L811.2173,107.4147 L811.5081,107.4573 L810.9278,110.5551 L810.559,113.6839 L809.5207,116.7146 L809.7125,119.9255 L808.9337,122.9942 L808.6875,122.9468 L808.4353,126.4295 L807.3651,129.7546 L806.7935,133.1758 L806.2729,136.6068 L805.6538,140.0188 L805.9605,140.0952 L804.7556,143.5958 L803.8481,147.1704 L803.0684,150.7768 L802.2111,154.3639 L801.1972,157.912 L801.2369,157.9247 L800.1057,161.5718 L798.8618,165.1829 L798.0158,168.9211 L796.8046,172.5427 L795.3839,176.0972 L795.4783,176.136 L793.7883,179.6259 L792.2628,183.1833 L791.1985,186.9301 L789.2038,190.2948 L788.0334,193.9981 L787.9175,193.9364 L786.4928,197.5513 L784.4368,200.8303 L782.3802,204.109 L780.6631,207.5683 L778.9656,211.038 L778.82,210.9357 L776.9525,214.2851 L774.5955,217.2904 L772.3664,220.3857 L770.3999,223.6654 L768,226.6406 L768.0651,226.6986 L765.8638,228.84 L763.7717,231.0787 L761.7016,233.3369 L759.6196,235.5845 L757.8208,238.084 L758.031,238.3032 L755.6947,240.329 L753.2664,242.2587 L751.2207,244.5877 L749.0408,246.7765 L746.6748,248.7712 L746.7757,248.8924 L744.3245,250.8072 L742.072,252.9607 L739.6671,254.931 L736.9663,256.5461 L734.7301,258.7191 L734.542,258.4627 L732.3705,260.7761 L729.548,262.202 L727.211,264.2899 L724.5573,265.9459 L722.1549,267.9445 L722.0233,267.7431 L719.6287,269.7729 L716.8771,271.2565 L714.2245,272.8914 L711.7894,274.8593 L709.1172,276.4643 L709.1118,276.4551 L706.3666,277.8871 L703.8135,279.6462 L701.0762,281.0916 L698.3265,282.516 L695.7853,284.2953 L695.8371,284.3927 L693.2232,285.9706 L690.2576,286.8875 L687.6625,288.5007 L685.1075,290.1895 L682.3272,291.4545 L682.2933,291.3846 L679.7388,292.9511 L676.9497,294.0335 L674.1629,295.1207 L671.5432,296.5525 L668.911,297.9586 " fill="none" style="stroke: #A80036; stroke-width: 1.0;"/><polygon fill="#A80036" points="664.134,300.1386,664.1341,300.1483,666.1022,299.9747,668.0748,300.2478,670.0408,299.8523,672.012,299.9891,673.9824,300.0412,673.9636,299.9909,672.9875,299.8199,671.7847,299.0415,670.8255,298.9155,669.747,298.4702,668.6827,298.0628,668.8062,298.1089,669.1446,297.0276,669.6443,296.0065,670.0709,294.9581,670.1042,293.7629,670.6611,292.7632,670.5301,292.6473,669.2684,294.1611,668.2155,295.8596,666.6167,297.0751,665.3516,298.5858,664.134,300.1386" style="stroke: #A80036; stroke-width: 1.0;"/><!--link Xiaomi5s to R6300v2--><path d="M925.66,93.9156 L925.5453,93.8397 L923.6723,96.5415 L922.1174,99.4541 L920.4246,102.2753 L918.3289,104.8296 L916.5856,107.6174 L916.3614,107.4611 L914.2654,110.6753 L912.4569,114.0899 L909.9908,117.0462 L908.0279,120.3531 L905.6208,123.3504 L905.6466,123.3692 L904.2693,124.9481 L903.3784,126.8806 L902.0653,128.5062 L900.5194,129.9624 L899.4845,131.7902 L899.2658,131.6261 L898.2424,133.5844 L896.7764,135.2106 L895.4028,136.9061 L894.0446,138.6131 L892.9417,140.5117 L893.1042,140.6378 L891.7812,142.4718 L890.3769,144.2428 L888.7795,145.864 L887.2835,147.5637 L886.0143,149.4396 L885.9138,149.3587 L884.7174,151.3809 L883.2485,153.1839 L881.7578,154.9693 L880.2044,156.7043 L878.7245,158.4984 L878.6073,158.4003 L876.9691,160.1292 L875.8789,162.3171 L874.0393,163.8774 L872.6782,165.8385 L871.0942,167.6128 L870.925,167.4649 L869.4378,169.3734 L867.8142,171.1628 L866.233,172.9892 L864.7181,174.8736 L863.1455,176.7075 L863.1337,176.6966 L861.6338,178.6332 L859.8637,180.3222 L858.1866,182.0964 L856.7652,184.1048 L854.9004,185.7071 L854.7358,185.5482 L853.1734,187.4506 L851.3113,189.0638 L849.9599,191.1697 L848.1434,192.8268 L846.381,194.5362 L846.3079,194.4615 L844.8066,196.4368 L842.7227,197.8167 L841.2045,199.7747 L839.2705,201.3077 L837.6092,203.1195 L837.6851,203.2022 L835.8717,204.8405 L834.1417,206.5696 L832.2513,208.124 L830.2353,209.5415 L828.6071,211.3815 L828.652,211.4341 L826.899,213.1116 L824.7801,214.3606 L823.1009,216.1244 L821.3966,217.8588 L819.3967,219.247 L819.5539,219.4469 L817.3506,220.5138 L815.5953,222.1502 L813.6466,223.5408 L811.68,224.9086 L810,226.6406 L810.1608,226.8673 L806.7604,228.984 L803.5764,231.4057 L800.1136,233.4344 L796.9616,235.9012 L793.6936,238.2045 L793.7287,238.2584 L792.107,239.4767 L790.458,240.6531 L788.6654,241.6095 L786.8275,242.4964 L785.2182,243.7337 L785.1788,243.6701 L783.5218,244.861 L781.7637,245.8887 L779.9555,246.8357 L778.2249,247.9078 L776.5652,249.0943 L776.6725,249.2763 L774.8187,250.1565 L773.1495,251.3499 L771.4253,252.45 L769.5748,253.3358 L767.7623,254.2862 L767.7363,254.24 L765.8706,255.1012 L764.1182,256.1638 L762.4144,257.3126 L760.6421,258.3398 L758.8374,259.3093 L758.8141,259.2661 L757.134,260.4667 L755.3113,261.4026 L753.3643,262.1075 L751.747,263.4247 L749.8182,264.1635 L749.7373,264.0065 L748.0777,265.2489 L746.057,265.7912 L744.4312,267.0993 L742.4614,267.7401 L740.7328,268.8488 L740.8388,269.0629 L738.7971,269.528 L737.0819,270.6528 L735.1642,271.3683 L733.5152,272.6267 L731.6087,273.3649 L731.6419,273.4348 L729.7802,274.2311 L727.8879,274.9633 L726.0792,275.871 L724.2009,276.6324 L722.4739,277.712 L722.5736,277.9334 L718.7026,279.0532 L715.0783,280.7211 L711.687,282.9066 L708.0127,284.4635 L704.2835,285.8982 L704.2246,285.7579 L700.6378,287.2431 L697.2162,289.1222 L693.6242,290.5949 L689.9278,291.819 L686.384,293.4066 L686.3173,293.2369 L682.9815,294.963 L679.4145,296.1003 L676.0224,297.6829 L672.4266,298.747 L668.998,300.2366 " fill="none" style="stroke: #A80036; stroke-width: 1.0;"/><polygon fill="#A80036" points="664.059,302.0996,664.0473,301.8963,666.0368,302.4079,667.981,302.1324,669.9567,302.4056,671.9206,302.472,673.8917,302.6641,673.9157,302.7172,672.7685,301.9941,671.813,301.6951,670.7143,301.0791,669.8511,300.9843,668.7369,300.3342,668.8162,300.37,669.037,299.2282,669.68,298.2772,670.1423,297.2446,670.6141,296.2163,671.0669,295.1794,671.155,295.2686,669.74,296.6391,668.3607,298.0457,666.9348,299.4051,665.539,300.795,664.059,302.0996" style="stroke: #A80036; stroke-width: 1.0;"/><!--link iPhone6s to TPLinkRelay--><path d="M465.965,93.7696 L465.5531,93.0222 L474.3619,98.0835 L483.009,102.8512 L491.992,108.2285 L501.0085,113.6665 L508.9407,117.1371 L518.2442,123.0958 L526.4919,127.1389 L534.8636,131.407 L543.4375,136.042 L552.2539,141.1169 L561.0228,146.1056 L569.713,150.9516 " fill="none" style="stroke: #A80036; stroke-width: 1.0;"/><polygon fill="#A80036" points="574.279,153.4686,574.3641,153.5331,573.0879,151.8981,571.7597,150.2236,570.5598,148.6464,569.6958,147.3239,568.3291,145.6202,568.2664,145.602,568.8349,146.7624,568.8455,147.7614,569.4883,148.9433,569.7414,150.0124,569.9005,151.0544,569.9401,151.1912,568.7789,151.2487,567.6679,151.4791,566.6239,151.9418,565.5142,152.177,564.4663,152.6258,564.4664,152.6271,566.4232,152.7286,568.4019,153.0856,570.3448,153.0257,572.3047,153.1635,574.279,153.4686" style="stroke: #A80036; stroke-width: 1.0;"/><!--link iPhone5s to TPLinkRelay--><path d="M573.81,93.7696 L574.0051,93.903 L578.7456,101.3719 L585.0434,109.9054 L590.3705,117.7753 L596.1726,125.97 L600.5893,133.2175 L606.144,141.2431 L611.788,149.3296 " fill="none" style="stroke: #A80036; stroke-width: 1.0;"/><polygon fill="#A80036" points="614.617,153.4686,614.8617,153.5135,614.0717,151.4963,613.8806,149.5888,613.5097,147.6484,613.1781,145.7152,612.8415,143.7811,612.7606,143.7659,612.5949,144.886,612.2075,145.9643,612.1932,147.1128,612.179,148.2614,611.7959,149.3405,611.7872,149.2945,610.6936,149.1824,609.5731,148.9272,608.46,148.7119,607.3651,148.5928,606.2365,148.2949,606.3034,148.4032,607.802,149.1505,609.5564,150.312,611.3648,151.5611,612.8533,152.2919,614.617,153.4686" style="stroke: #A80036; stroke-width: 1.0;"/><!--link iPadMini to TPLinkRelay--><path d="M679.241,93.7696 L679.3376,93.8104 L675.128,102.7594 L671.7449,112.0571 L668.5102,121.4175 L663.801,130.1557 L659.9496,139.2559 L656.192,148.3956 " fill="none" style="stroke: #A80036; stroke-width: 1.0;"/><polygon fill="#A80036" points="654.051,153.4686,653.999,153.4132,655.5538,152.1916,656.909,150.7571,658.2353,149.2918,659.7854,148.0652,661.2356,146.732,661.1711,146.5733,660.1203,146.9929,659.1493,147.6085,658.145,148.1422,656.9691,148.2539,655.9951,148.862,655.9275,148.8346,655.4739,147.7753,655.1193,146.7562,654.7651,145.7373,654.4498,144.7342,653.865,143.6215,653.8494,143.6212,653.7492,145.5881,654.1111,147.5636,654.1938,149.5339,654.2453,151.5036,654.051,153.4686" style="stroke: #A80036; stroke-width: 1.0;"/><!--link Nexus6 to TPLinkRelay--><path d="M779.843,93.7696 L779.5477,93.3335 L771.0262,98.7914 L763.5781,105.8343 L754.8378,110.9691 L746.4881,116.6806 L737.9598,122.1284 L729.6375,127.8803 L720.766,132.8213 L712.9717,139.353 L704.5336,144.9341 L696.079,150.4906 " fill="none" style="stroke: #A80036; stroke-width: 1.0;"/><polygon fill="#A80036" points="691.68,153.4686,691.7108,153.6408,693.5873,152.9444,695.5437,152.6949,697.5063,152.4803,699.4541,152.1824,701.3751,151.7353,701.3862,151.7928,700.2823,151.6152,699.1258,151.1647,698.0632,151.202,696.9723,151.0923,695.8204,150.6655,695.6675,150.6361,696.2446,149.5951,696.0875,148.4126,696.2675,147.2951,696.742,146.2344,696.8902,145.1107,697.08,145.2291,695.8164,146.7625,694.6336,148.3464,693.8338,150.1689,692.7008,151.7838,691.68,153.4686" style="stroke: #A80036; stroke-width: 1.0;"/><!--link Xiaomi5s to TPLinkRelay--><path d="M891.973,89.5486 L892.0997,89.8704 L883.0666,94.0643 L873.2803,96.3449 L864.5547,101.3199 L855.2448,104.8106 L845.6828,107.661 L836.8357,112.3275 L827.5316,115.8329 L818.2794,119.4702 L808.4636,121.676 L799.5775,126.243 L789.9526,128.9337 L780.7359,132.6612 L771.558,136.4874 L762.2251,139.9197 L753.3462,144.5052 L743.9867,147.8698 L734.7724,151.6035 L725.465,155.1006 " fill="none" style="stroke: #A80036; stroke-width: 1.0;"/><polygon fill="#A80036" points="720.604,157.0136,720.6124,157.2071,722.5631,156.8939,724.5312,156.984,726.5023,157.143,728.4864,157.6019,730.4437,157.4393,730.3488,157.2212,729.4982,157.1993,728.3102,156.4018,727.2902,155.9904,726.3512,155.7652,725.2566,155.1823,725.3855,155.2384,725.5556,154.0786,726.1144,153.0879,726.6101,152.0698,727.1205,151.058,727.5136,149.9952,727.4141,149.8973,726.2473,151.5127,724.5891,152.6444,723.4858,154.3224,721.8836,155.5092,720.604,157.0136" style="stroke: #A80036; stroke-width: 1.0;"/><!--link MacbookAir to TPLinkRelay--><path d="M339.358,89.6796 L339.4679,90.0106 L349.185,93.3682 L358.86,96.5989 L368.5074,99.7465 L378.2799,103.2707 L387.7334,105.8342 L397.1693,108.3447 L407.1263,112.4247 L416.5436,114.8792 L426.5631,119.1478 L436.142,122.089 L445.43,124.1537 L455.1884,127.6356 L465.3165,132.2314 L474.5544,134.145 L484.1407,137.1086 L493.9563,140.7628 L503.4315,143.3915 L513.3764,147.4354 L523.0387,150.6277 L532.847,154.2601 L542.199,156.5177 L552.05,160.2786 " fill="none" style="stroke: #A80036; stroke-width: 1.0;"/><polygon fill="#A80036" points="557.17,161.9786,557.1271,161.9315,555.6265,160.5571,554.2839,159.3562,552.6794,157.8677,551.3906,156.7259,549.8872,155.3484,550.0876,155.4489,550.4762,156.4005,550.9418,157.3907,551.4171,158.3858,552.0478,159.4588,552.4243,160.4043,552.3308,160.218,551.4487,160.9827,550.3817,161.3789,549.3205,161.7868,548.3978,162.4704,547.3683,162.9415,547.3676,162.9341,549.3464,162.9298,551.2648,162.3097,553.2344,162.2118,555.1999,162.072,557.17,161.9786" style="stroke: #A80036; stroke-width: 1.0;"/><!--link ThinkpadTablet2 to TPLinkRelay--><path d="M1029.62,93.6996 L1029.6417,93.7883 L1019.7149,95.6825 L1009.8202,97.7076 L1000.0417,100.2087 L990.4232,103.3644 L980.6621,105.9366 L970.7979,108.0865 L961.1565,111.1487 L951.3144,113.3894 L941.3947,115.3122 L931.6278,117.8609 L921.6834,119.6825 L912.0867,122.9276 L902.2603,125.2325 L892.4305,127.5233 L882.4091,129.0303 L872.7098,131.8553 L862.7602,133.6556 L853.3582,137.6975 L843.4674,139.7389 L833.3219,140.7378 L823.6379,143.6253 L813.9226,146.3851 L803.9873,148.2441 L794.467,151.802 L784.3186,152.7888 L774.5844,155.4711 L765.0468,158.9579 L755.1226,160.8626 L745.4024,163.6021 L735.4408,165.3536 L725.688,167.9596 " fill="none" style="stroke: #A80036; stroke-width: 1.0;"/><polygon fill="#A80036" points="720.632,169.1956,720.6153,169.1033,722.5315,169.3295,724.5248,169.9829,726.4078,170.0256,728.4126,170.7428,730.3243,170.9444,730.245,170.8138,729.4329,170.4817,728.4458,169.8616,727.4992,169.3081,726.3852,168.479,725.489,168.0085,725.5358,168.0369,726.0151,167.0044,726.6901,166.0906,727.2493,165.1065,727.7284,164.0739,728.425,163.1732,728.5059,163.2779,726.8533,164.3608,725.2093,165.4547,723.6908,166.7111,722.3074,168.1423,720.632,169.1956" style="stroke: #A80036; stroke-width: 1.0;"/><!--
@startuml

skinparam nodeNameAlign center
skinparam handwritten true
skinparam titleBorderRoundCorner 15
skinparam titleBorderThickness 1
skinparam titleBorderColor black
title Network topo at home

Node ISP [
<b>ISP</b>
]
Node BananaPi [
Banana Pi R1 <b>Router</b>
....
(Dial to ISP, break wall)
]
Node TPLinkSwitch [
TP-Link 1000M <b>Switcher</b>
....
extend Banana Pi's ethernet ports
]
Node RaspberryPi2B [
Raspberry Pi 2B
....
As HTPC/NAS etc.
]
Node R6300v2 [
Netgear R6300 v2
provide <b>WIFI</b> capability
....
in the sitting room
]
Node WindowsDesktop [
desktop machine
....
Windows 7 installed
]
Node MacMini
Node MacbookAir
Node TPLinkRelay [
TP-Link <b>WIFI</b> Relay
....
in the bedroom
]
Node iPhone6s
Node iPhone5s
Node iPadMini
Node Nexus6
Node Xiaomi5s
Node ThinkpadTablet2 [
Lenovo Thinkpad Tablet2
]
BananaPi- ->ISP
TPLinkSwitch- ->BananaPi
R6300v2- ->TPLinkSwitch
RaspberryPi2B- ->TPLinkSwitch
TPLinkRelay- ->R6300v2
WindowsDesktop- ->R6300v2
MacMini- ->R6300v2
MacbookAir- ->R6300v2
ThinkpadTablet2- ->R6300v2
iPhone6s- ->R6300v2
iPhone5s- ->R6300v2
iPadMini- ->R6300v2
Nexus6- ->R6300v2
Xiaomi5s- ->R6300v2
iPhone6s- ->TPLinkRelay
iPhone5s- ->TPLinkRelay
iPadMini- ->TPLinkRelay
Nexus6- ->TPLinkRelay
Xiaomi5s- ->TPLinkRelay
MacbookAir- ->TPLinkRelay
ThinkpadTablet2- ->TPLinkRelay

@enduml

PlantUML version 1.2018.01(Mon Jan 29 02:08:22 CST 2018)
(GPL source distribution)
Java Runtime: Java(TM) SE Runtime Environment
JVM: Java HotSpot(TM) 64-Bit Server VM
Java Version: 1.8.0_161-b12
Operating System: Windows 10
OS Version: 10.0
Default Encoding: Cp1252
Language: en
Country: US
--></g></svg>