<?xml version="1.0" encoding="UTF-8" standalone="no"?><svg xmlns="http://www.w3.org/2000/svg" xmlns:xlink="http://www.w3.org/1999/xlink" contentScriptType="application/ecmascript" contentStyleType="text/css" height="472px" preserveAspectRatio="none" style="width:572px;height:472px;" version="1.1" viewBox="0 0 572 472" width="572px" zoomAndPan="magnify"><defs><filter height="300%" id="f10o0upt0evca6" width="300%" x="-1" y="-1"><feGaussianBlur result="blurOut" stdDeviation="2.0"/><feColorMatrix in="blurOut" result="blurOut2" type="matrix" values="0 0 0 0 0 0 0 0 0 0 0 0 0 0 0 0 0 0 .4 0"/><feOffset dx="4.0" dy="4.0" in="blurOut2" result="blurOut3"/><feBlend in="SourceGraphic" in2="blurOut3" mode="normal"/></filter></defs><g><!--cluster company--><path d="M62,31 C62,28 64,26 67,26 C70,26 72,28 72,31 C72,28 74,26 77,26 C80,26 82,28 82,31 C82,28 84,26 87,26 C90,26 92,28 92,31 C92,28 94,26 97,26 C100,26 102,28 102,31 C102,28 104,26 107,26 C110,26 112,28 112,31 C112,28 114,26 117,26 C120,26 122,28 122,31 C122,28 124,26 127,26 C130,26 132,28 132,31 C132,28 134,26 137,26 C140,26 142,28 142,31 C142,28 144,26 147,26 C150,26 152,28 152,31 C152,28 154,26 157,26 C160,26 162,28 162,31 C162,28 164,26 167,26 C170,26 172,28 172,31 C172,28 174,26 177,26 C180,26 182,28 182,31 C182,28 184,26 187,26 C190,26 192,28 192,31 C192,28 194,26 197,26 C200,26 202,28 202,31 C202,28 204,26 207,26 C210,26 212,28 212,31 C212,28 214,26 217,26 C220,26 222,28 222,31 C222,28 224,26 227,26 C230,26 232,28 232,31 C232,28 234,26 237,26 C240,26 242,28 242,31 C242,28 244,26 247,26 C250,26 252,28 252,31 C252,28 254,26 257,26 C260,26 262,28 262,31 C262,28 264,26 267,26 C270,26 272,28 272,31 C272,28 274,26 277,26 C280,26 282,28 282,31 C282,28 284,26 287,26 C290,26 292,28 292,31 C292,28 294,26 297,26 C300,26 302,28 302,31 C302,28 304,26 307,26 C310,26 312,28 312,31 C312,28 314,26 317,26 C320,26 322,28 322,31 C322,28 324,26 327,26 C330,26 332,28 332,31 C332,28 334,26 337,26 C340,26 342,28 342,31 C342,28 344,26 347,26 C350,26 352,28 352,31 C352,28 354,26 357,26 C360,26 362,28 362,31 C362,28 364,26 367,26 C370,26 372,28 372,31 C372,28 374,26 377,26 C380,26 382,28 382,31 C385,31 387,33 387,36 C387,39 385,41 382,41 C385,41 387,43 387,46 C387,49 385,51 382,51 C385,51 387,53 387,56 C387,59 385,61 382,61 C385,61 387,63 387,66 C387,69 385,71 382,71 C385,71 387,73 387,76 C387,79 385,81 382,81 C385,81 387,83 387,86 C387,89 385,91 382,91 C385,91 387,93 387,96 C387,99 385,101 382,101 C385,101 387,103 387,106 C387,109 385,111 382,111 C385,111 387,113 387,116 C387,119 385,121 382,121 C382,124 379,126 377,126 C374,126 372,124 372,121 C372,124 369,126 367,126 C364,126 362,124 362,121 C362,124 359,126 357,126 C354,126 352,124 352,121 C352,124 349,126 347,126 C344,126 342,124 342,121 C342,124 339,126 337,126 C334,126 332,124 332,121 C332,124 329,126 327,126 C324,126 322,124 322,121 C322,124 319,126 317,126 C314,126 312,124 312,121 C312,124 309,126 307,126 C304,126 302,124 302,121 C302,124 299,126 297,126 C294,126 292,124 292,121 C292,124 289,126 287,126 C284,126 282,124 282,121 C282,124 279,126 277,126 C274,126 272,124 272,121 C272,124 269,126 267,126 C264,126 262,124 262,121 C262,124 259,126 257,126 C254,126 252,124 252,121 C252,124 249,126 247,126 C244,126 242,124 242,121 C242,124 239,126 237,126 C234,126 232,124 232,121 C232,124 229,126 227,126 C224,126 222,124 222,121 C222,124 219,126 217,126 C214,126 212,124 212,121 C212,124 209,126 207,126 C204,126 202,124 202,121 C202,124 199,126 197,126 C194,126 192,124 192,121 C192,124 189,126 187,126 C184,126 182,124 182,121 C182,124 179,126 177,126 C174,126 172,124 172,121 C172,124 169,126 167,126 C164,126 162,124 162,121 C162,124 159,126 157,126 C154,126 152,124 152,121 C152,124 149,126 147,126 C144,126 142,124 142,121 C142,124 139,126 137,126 C134,126 132,124 132,121 C132,124 129,126 127,126 C124,126 122,124 122,121 C122,124 119,126 117,126 C114,126 112,124 112,121 C112,124 109,126 107,126 C104,126 102,124 102,121 C102,124 99,126 97,126 C94,126 92,124 92,121 C92,124 89,126 87,126 C84,126 82,124 82,121 C82,124 79,126 77,126 C74,126 72,124 72,121 C72,124 69,126 67,126 C64,126 62,124 62,121 C59,121 57,119 57,116 C57,113 59,111 62,111 C59,111 57,109 57,106 C57,103 59,101 62,101 C59,101 57,99 57,96 C57,93 59,91 62,91 C59,91 57,89 57,86 C57,83 59,81 62,81 C59,81 57,79 57,76 C57,73 59,71 62,71 C59,71 57,69 57,66 C57,63 59,61 62,61 C59,61 57,59 57,56 C57,53 59,51 62,51 C59,51 57,49 57,46 C57,43 59,41 62,41 C59,41 57,39 57,36 C57,33 59,31 62,31 " fill="#FFFFFF" filter="url(#f10o0upt0evca6)" style="stroke: #000000; stroke-width: 1.5;"/><text fill="#000000" font-family="sans-serif" font-size="14" font-weight="bold" lengthAdjust="spacingAndGlyphs" textLength="62" x="192.5" y="51.5332">company</text><!--cluster home--><path d="M25,155 C25,152 27,150 30,150 C33,150 35,152 35,155 C35,152 37,150 40,150 C43,150 45,152 45,155 C45,152 47,150 50,150 C53,150 55,152 55,155 C55,152 57,150 60,150 C63,150 65,152 65,155 C65,152 67,150 70,150 C73,150 75,152 75,155 C75,152 77,150 80,150 C83,150 85,152 85,155 C85,152 87,150 90,150 C93,150 95,152 95,155 C95,152 97,150 100,150 C103,150 105,152 105,155 C105,152 107,150 110,150 C113,150 115,152 115,155 C115,152 117,150 120,150 C123,150 125,152 125,155 C125,152 127,150 130,150 C133,150 135,152 135,155 C135,152 137,150 140,150 C143,150 145,152 145,155 C145,152 147,150 150,150 C153,150 155,152 155,155 C155,152 157,150 160,150 C163,150 165,152 165,155 C165,152 167,150 170,150 C173,150 175,152 175,155 C175,152 177,150 180,150 C183,150 185,152 185,155 C185,152 187,150 190,150 C193,150 195,152 195,155 C195,152 197,150 200,150 C203,150 205,152 205,155 C205,152 207,150 210,150 C213,150 215,152 215,155 C215,152 217,150 220,150 C223,150 225,152 225,155 C225,152 227,150 230,150 C233,150 235,152 235,155 C235,152 237,150 240,150 C243,150 245,152 245,155 C245,152 247,150 250,150 C253,150 255,152 255,155 C255,152 257,150 260,150 C263,150 265,152 265,155 C265,152 267,150 270,150 C273,150 275,152 275,155 C275,152 277,150 280,150 C283,150 285,152 285,155 C285,152 287,150 290,150 C293,150 295,152 295,155 C295,152 297,150 300,150 C303,150 305,152 305,155 C305,152 307,150 310,150 C313,150 315,152 315,155 C315,152 317,150 320,150 C323,150 325,152 325,155 C325,152 327,150 330,150 C333,150 335,152 335,155 C335,152 337,150 340,150 C343,150 345,152 345,155 C345,152 347,150 350,150 C353,150 355,152 355,155 C355,152 357,150 360,150 C363,150 365,152 365,155 C365,152 367,150 370,150 C373,150 375,152 375,155 C375,152 377,150 380,150 C383,150 385,152 385,155 C385,152 387,150 390,150 C393,150 395,152 395,155 C395,152 397,150 400,150 C403,150 405,152 405,155 C405,152 407,150 410,150 C413,150 415,152 415,155 C415,152 417,150 420,150 C423,150 425,152 425,155 C425,152 427,150 430,150 C433,150 435,152 435,155 C435,152 437,150 440,150 C443,150 445,152 445,155 C445,152 447,150 450,150 C453,150 455,152 455,155 C455,152 457,150 460,150 C463,150 465,152 465,155 C465,152 467,150 470,150 C473,150 475,152 475,155 C475,152 477,150 480,150 C483,150 485,152 485,155 C485,152 487,150 490,150 C493,150 495,152 495,155 C495,152 497,150 500,150 C503,150 505,152 505,155 C505,152 507,150 510,150 C513,150 515,152 515,155 C515,152 517,150 520,150 C523,150 525,152 525,155 C525,152 527,150 530,150 C533,150 535,152 535,155 C535,152 537,150 540,150 C543,150 545,152 545,155 C545,152 547,150 550,150 C553,150 555,152 555,155 C558,155 560,157 560,160 C560,163 558,165 555,165 C558,165 560,167 560,170 C560,173 558,175 555,175 C558,175 560,177 560,180 C560,183 558,185 555,185 C558,185 560,187 560,190 C560,193 558,195 555,195 C558,195 560,197 560,200 C560,203 558,205 555,205 C558,205 560,207 560,210 C560,213 558,215 555,215 C558,215 560,217 560,220 C560,223 558,225 555,225 C558,225 560,227 560,230 C560,233 558,235 555,235 C558,235 560,237 560,240 C560,243 558,245 555,245 C558,245 560,247 560,250 C560,253 558,255 555,255 C558,255 560,257 560,260 C560,263 558,265 555,265 C558,265 560,267 560,270 C560,273 558,275 555,275 C558,275 560,277 560,280 C560,283 558,285 555,285 C558,285 560,287 560,290 C560,293 558,295 555,295 C558,295 560,297 560,300 C560,303 558,305 555,305 C558,305 560,307 560,310 C560,313 558,315 555,315 C558,315 560,317 560,320 C560,323 558,325 555,325 C558,325 560,327 560,330 C560,333 558,335 555,335 C558,335 560,337 560,340 C560,343 558,345 555,345 C558,345 560,347 560,350 C560,353 558,355 555,355 C558,355 560,357 560,360 C560,363 558,365 555,365 C558,365 560,367 560,370 C560,373 558,375 555,375 C558,375 560,377 560,380 C560,383 558,385 555,385 C558,385 560,387 560,390 C560,393 558,395 555,395 C558,395 560,397 560,400 C560,403 558,405 555,405 C558,405 560,407 560,410 C560,413 558,415 555,415 C558,415 560,417 560,420 C560,423 558,425 555,425 C558,425 560,427 560,430 C560,433 558,435 555,435 C558,435 560,437 560,440 C560,443 558,445 555,445 C558,445 560,447 560,450 C560,453 558,455 555,455 C555,458 552,460 550,460 C547,460 545,458 545,455 C545,458 542,460 540,460 C537,460 535,458 535,455 C535,458 532,460 530,460 C527,460 525,458 525,455 C525,458 522,460 520,460 C517,460 515,458 515,455 C515,458 512,460 510,460 C507,460 505,458 505,455 C505,458 502,460 500,460 C497,460 495,458 495,455 C495,458 492,460 490,460 C487,460 485,458 485,455 C485,458 482,460 480,460 C477,460 475,458 475,455 C475,458 472,460 470,460 C467,460 465,458 465,455 C465,458 462,460 460,460 C457,460 455,458 455,455 C455,458 452,460 450,460 C447,460 445,458 445,455 C445,458 442,460 440,460 C437,460 435,458 435,455 C435,458 432,460 430,460 C427,460 425,458 425,455 C425,458 422,460 420,460 C417,460 415,458 415,455 C415,458 412,460 410,460 C407,460 405,458 405,455 C405,458 402,460 400,460 C397,460 395,458 395,455 C395,458 392,460 390,460 C387,460 385,458 385,455 C385,458 382,460 380,460 C377,460 375,458 375,455 C375,458 372,460 370,460 C367,460 365,458 365,455 C365,458 362,460 360,460 C357,460 355,458 355,455 C355,458 352,460 350,460 C347,460 345,458 345,455 C345,458 342,460 340,460 C337,460 335,458 335,455 C335,458 332,460 330,460 C327,460 325,458 325,455 C325,458 322,460 320,460 C317,460 315,458 315,455 C315,458 312,460 310,460 C307,460 305,458 305,455 C305,458 302,460 300,460 C297,460 295,458 295,455 C295,458 292,460 290,460 C287,460 285,458 285,455 C285,458 282,460 280,460 C277,460 275,458 275,455 C275,458 272,460 270,460 C267,460 265,458 265,455 C265,458 262,460 260,460 C257,460 255,458 255,455 C255,458 252,460 250,460 C247,460 245,458 245,455 C245,458 242,460 240,460 C237,460 235,458 235,455 C235,458 232,460 230,460 C227,460 225,458 225,455 C225,458 222,460 220,460 C217,460 215,458 215,455 C215,458 212,460 210,460 C207,460 205,458 205,455 C205,458 202,460 200,460 C197,460 195,458 195,455 C195,458 192,460 190,460 C187,460 185,458 185,455 C185,458 182,460 180,460 C177,460 175,458 175,455 C175,458 172,460 170,460 C167,460 165,458 165,455 C165,458 162,460 160,460 C157,460 155,458 155,455 C155,458 152,460 150,460 C147,460 145,458 145,455 C145,458 142,460 140,460 C137,460 135,458 135,455 C135,458 132,460 130,460 C127,460 125,458 125,455 C125,458 122,460 120,460 C117,460 115,458 115,455 C115,458 112,460 110,460 C107,460 105,458 105,455 C105,458 102,460 100,460 C97,460 95,458 95,455 C95,458 92,460 90,460 C87,460 85,458 85,455 C85,458 82,460 80,460 C77,460 75,458 75,455 C75,458 72,460 70,460 C67,460 65,458 65,455 C65,458 62,460 60,460 C57,460 55,458 55,455 C55,458 52,460 50,460 C47,460 45,458 45,455 C45,458 42,460 40,460 C37,460 35,458 35,455 C35,458 32,460 30,460 C27,460 25,458 25,455 C22,455 20,453 20,450 C20,447 22,445 25,445 C22,445 20,443 20,440 C20,437 22,435 25,435 C22,435 20,433 20,430 C20,427 22,425 25,425 C22,425 20,423 20,420 C20,417 22,415 25,415 C22,415 20,413 20,410 C20,407 22,405 25,405 C22,405 20,403 20,400 C20,397 22,395 25,395 C22,395 20,393 20,390 C20,387 22,385 25,385 C22,385 20,383 20,380 C20,377 22,375 25,375 C22,375 20,373 20,370 C20,367 22,365 25,365 C22,365 20,363 20,360 C20,357 22,355 25,355 C22,355 20,353 20,350 C20,347 22,345 25,345 C22,345 20,343 20,340 C20,337 22,335 25,335 C22,335 20,333 20,330 C20,327 22,325 25,325 C22,325 20,323 20,320 C20,317 22,315 25,315 C22,315 20,313 20,310 C20,307 22,305 25,305 C22,305 20,303 20,300 C20,297 22,295 25,295 C22,295 20,293 20,290 C20,287 22,285 25,285 C22,285 20,283 20,280 C20,277 22,275 25,275 C22,275 20,273 20,270 C20,267 22,265 25,265 C22,265 20,263 20,260 C20,257 22,255 25,255 C22,255 20,253 20,250 C20,247 22,245 25,245 C22,245 20,243 20,240 C20,237 22,235 25,235 C22,235 20,233 20,230 C20,227 22,225 25,225 C22,225 20,223 20,220 C20,217 22,215 25,215 C22,215 20,213 20,210 C20,207 22,205 25,205 C22,205 20,203 20,200 C20,197 22,195 25,195 C22,195 20,193 20,190 C20,187 22,185 25,185 C22,185 20,183 20,180 C20,177 22,175 25,175 C22,175 20,173 20,170 C20,167 22,165 25,165 C22,165 20,163 20,160 C20,157 22,155 25,155 " fill="#FFFFFF" filter="url(#f10o0upt0evca6)" style="stroke: #000000; stroke-width: 1.5;"/><text fill="#000000" font-family="sans-serif" font-size="14" font-weight="bold" lengthAdjust="spacingAndGlyphs" textLength="39" x="270" y="175.5332">home</text><!--entity windows--><polygon fill="#FEFECE" filter="url(#f10o0upt0evca6)" points="180,70,180.1029,70.1029,182.1179,68.1179,184.1052,66.1052,185.9325,63.9325,188.0905,62.0905,190,60,190,60.5883,200.1111,60.4906,210.2222,60.4704,220.3333,60.306,230.4444,59.4154,240.5556,59.4074,250.6667,60.0269,260.7778,60.2356,270.8889,60.4632,281,59.345,291.1111,60.0576,301.2222,60.0012,311.3333,60.484,321.4444,59.2561,331.5556,59.97,341.6667,60.0972,351.7778,60.4474,361.8889,60.2246,372,60,371.8544,60,372.102,67.5219,372.076,75.0438,372.1226,82.5656,372.2494,90.0875,372,97.6094,372.0864,97.6958,369.8766,99.486,368.1332,101.7425,366.0723,103.6817,364.0895,105.6989,362,107.6094,362,107.0636,351.8889,107.0582,341.7778,107.4673,331.6667,107.8624,321.5556,107.9005,311.4444,107.8568,301.3333,107.5892,291.2222,107.3971,281.1111,107.7209,271,107.7596,260.8889,107.3842,250.7778,107.1335,240.6667,107.4219,230.5556,107.04,220.4444,108.2127,210.3333,107.7844,200.2222,107.5356,190.1111,108.1626,180,107.6094,180.0709,107.6094,179.9641,100.0875,179.8274,92.5656,179.8177,85.0438,180.0246,77.5219,180,70" style="stroke: #000000; stroke-width: 1.5;"/><path d="M362,70 L361.9156,69.9156 L363.9886,68.3886 L365.6256,66.4256 L367.2113,64.4113 L369.3581,62.9581 L371,61 " fill="#FEFECE" style="stroke: #000000; stroke-width: 1.5;"/><path d="M180,70 L180,70.2325 L190.1111,69.5673 L200.2222,70.0832 L210.3333,70.2988 L220.4444,69.9896 L230.5556,70.6962 L240.6667,69.2577 L250.7778,69.4828 L260.8889,69.8753 L271,69.0105 L281.1111,69.5286 L291.2222,69.3305 L301.3333,69.7642 L311.4444,69.2844 L321.5556,69.978 L331.6667,70.8874 L341.7778,70.2713 L351.8889,70.6526 L362,70 " fill="#FEFECE" style="stroke: #000000; stroke-width: 1.5;"/><path d="M362,70 L362.3061,70 L362.2088,77.5219 L362.0301,85.0438 L361.8123,92.5656 L361.9801,100.0875 L362,107.6094 " fill="#FEFECE" style="stroke: #000000; stroke-width: 1.5;"/><text fill="#000000" font-family="sans-serif" font-size="14" lengthAdjust="spacingAndGlyphs" textLength="152" x="195" y="94.5332">Dell台式机装Windows10</text><!--entity imac--><polygon fill="#FEFECE" filter="url(#f10o0upt0evca6)" points="75.5,70,75.4105,69.9105,77.4039,67.9039,79.3625,65.8625,81.4044,63.9044,83.445,61.945,85.5,60,85.5,60.328,95.3333,59.8118,105.1667,59.9058,115,60.4684,124.8333,60.3323,134.6667,60.1362,144.5,60,144.4032,60,144.4272,67.5219,144.3672,75.0438,144.5529,82.5656,144.4813,90.0875,144.5,97.6094,144.6298,97.7392,142.5253,99.6346,140.5596,101.669,138.557,103.6663,136.6296,105.739,134.5,107.6094,134.5,108.0977,124.6667,107.935,114.8333,107.6208,105,106.9863,95.1667,107.6453,85.3333,107.2209,75.5,107.6094,75.4053,107.6094,75.3237,100.0875,75.3326,92.5656,75.7409,85.0438,75.4355,77.5219,75.5,70" style="stroke: #000000; stroke-width: 1.5;"/><path d="M134.5,70 L134.5899,70.0899 L136.2929,68.1929 L138.1184,66.4184 L140.0886,64.7886 L141.5507,62.6507 L143.5,61 " fill="#FEFECE" style="stroke: #000000; stroke-width: 1.5;"/><path d="M75.5,70 L75.5,70.3371 L85.3333,70.4448 L95.1667,69.7339 L105,69.2163 L114.8333,69.6464 L124.6667,69.4568 L134.5,70 " fill="#FEFECE" style="stroke: #000000; stroke-width: 1.5;"/><path d="M134.5,70 L134.4367,70 L134.1702,77.5219 L134.7228,85.0438 L134.7887,92.5656 L134.4658,100.0875 L134.5,107.6094 " fill="#FEFECE" style="stroke: #000000; stroke-width: 1.5;"/><text fill="#000000" font-family="sans-serif" font-size="14" lengthAdjust="spacingAndGlyphs" textLength="29" x="90.5" y="94.5332">iMac</text><!--entity router--><polygon fill="#FEFECE" filter="url(#f10o0upt0evca6)" points="98.5,194,98.3923,193.8923,100.591,192.091,102.5957,190.0957,104.3383,187.8383,106.6043,186.1043,108.5,184,108.5,183.4801,118.4333,184.4695,128.3667,183.6131,138.3,184.5841,148.2333,183.5974,158.1667,184.4288,168.1,184.3472,178.0333,183.9307,187.9667,183.7958,197.9,184.5024,207.8333,183.5563,217.7667,184.4659,227.7,183.8935,237.6333,184.6281,247.5667,183.535,257.5,184,257.2852,184,257.5375,191.5219,257.6089,199.0438,257.6859,206.5656,257.3194,214.0875,257.5,221.6094,257.6162,221.7256,255.4818,223.5912,253.5048,225.6142,251.4895,227.5989,249.5154,229.6248,247.5,231.6094,247.5,231.4967,237.5667,232.231,227.6333,232.0882,217.7,231.544,207.7667,231.8241,197.8333,232.0892,187.9,232.0287,177.9667,231.0466,168.0333,230.9493,158.1,231.5436,148.1667,232.2176,138.2333,231.9559,128.3,231.7623,118.3667,231.3116,108.4333,231.8914,98.5,231.6094,98.5893,231.6094,98.39,224.0875,98.6917,216.5656,98.5502,209.0438,98.2807,201.5219,98.5,194" style="stroke: #000000; stroke-width: 1.5;"/><path d="M247.5,194 L247.3031,193.8031 L249.4312,192.3312 L251.2621,190.5621 L253.1154,188.8154 L254.7463,186.8463 L256.5,185 " fill="#FEFECE" style="stroke: #000000; stroke-width: 1.5;"/><path d="M98.5,194 L98.5,193.1998 L108.4333,193.6034 L118.3667,194.1874 L128.3,194.1166 L138.2333,194.1725 L148.1667,194.1304 L158.1,194.4973 L168.0333,194.3926 L177.9667,194.8949 L187.9,194.4225 L197.8333,193.525 L207.7667,194.0107 L217.7,193.7879 L227.6333,194.5995 L237.5667,193.6257 L247.5,194 " fill="#FEFECE" style="stroke: #000000; stroke-width: 1.5;"/><path d="M247.5,194 L247.5795,194 L247.336,201.5219 L247.7117,209.0438 L247.1985,216.5656 L247.6058,224.0875 L247.5,231.6094 " fill="#FEFECE" style="stroke: #000000; stroke-width: 1.5;"/><text fill="#000000" font-family="sans-serif" font-size="14" lengthAdjust="spacingAndGlyphs" textLength="119" x="113.5" y="218.5332">Banana Pi X墙路由</text><!--entity HTPC--><polygon fill="#FEFECE" filter="url(#f10o0upt0evca6)" points="75,302,74.9249,301.9249,76.8298,299.8298,78.9552,297.9552,80.9896,295.9896,83.0801,294.0801,85,292,85,291.7127,95.1667,291.386,105.3333,292.3613,115.5,291.568,125.6667,291.9652,135.8333,291.5576,146,292.7255,156.1667,292.2282,166.3333,292.3371,176.5,291.3541,186.6667,292.6059,196.8333,292.1658,207,292,206.7612,292,206.7942,299.5219,206.7923,307.0438,206.8108,314.5656,206.9552,322.0875,207,329.6094,207.1727,329.7821,205.1357,331.7451,203.1238,333.7332,200.9618,335.5712,198.8793,337.4886,197,339.6094,197,339.3445,186.8333,339.2243,176.6667,338.9665,166.5,339.2843,156.3333,339.7775,146.1667,340.022,136,339.8658,125.8333,339.5022,115.6667,340.0453,105.5,339.6956,95.3333,339.6072,85.1667,340.1982,75,339.6094,75.1399,339.6094,74.9878,332.0875,74.9286,324.5656,75.0057,317.0438,75.1959,309.5219,75,302" style="stroke: #000000; stroke-width: 1.5;"/><path d="M197,302 L197.057,302.057 L198.9251,300.3251 L200.6944,298.4944 L202.4488,296.6488 L204.0186,294.6186 L206,293 " fill="#FEFECE" style="stroke: #000000; stroke-width: 1.5;"/><path d="M75,302 L75,301.4156 L85.1667,301.6412 L95.3333,301.2024 L105.5,301.9453 L115.6667,302.9172 L125.8333,302.0008 L136,302.5696 L146.1667,301.8051 L156.3333,302.6078 L166.5,302.5487 L176.6667,302.1317 L186.8333,301.8961 L197,302 " fill="#FEFECE" style="stroke: #000000; stroke-width: 1.5;"/><path d="M197,302 L196.8325,302 L196.9247,309.5219 L196.942,317.0438 L196.7003,324.5656 L197.0124,332.0875 L197,339.6094 " fill="#FEFECE" style="stroke: #000000; stroke-width: 1.5;"/><text fill="#000000" font-family="sans-serif" font-size="14" lengthAdjust="spacingAndGlyphs" textLength="92" x="90" y="326.5332">占美x86小主机</text><!--entity AP--><polygon fill="#FEFECE" filter="url(#f10o0upt0evca6)" points="242.5,302,242.4235,301.9235,244.3868,299.8868,246.5195,298.0195,248.628,296.128,250.401,293.901,252.5,292,252.5,291.7079,262.4167,291.7167,272.3333,291.729,282.25,292.0714,292.1667,292.0023,302.0833,291.8171,312,291.6404,321.9167,292.1069,331.8333,291.2955,341.75,291.8907,351.6667,292.1335,361.5833,292.6578,371.5,292,371.5671,292,371.3617,299.5219,371.5435,307.0438,371.4015,314.5656,371.5566,322.0875,371.5,329.6094,371.5311,329.6404,369.6417,331.751,367.4993,333.6087,365.6556,335.765,363.6669,337.7763,361.5,339.6094,361.5,339.1447,351.5833,339.8777,341.6667,339.8584,331.75,339.9577,321.8333,339.5005,311.9167,339.3497,302,339.1775,292.0833,340.1418,282.1667,340.028,272.25,339.8535,262.3333,339.5192,252.4167,339.289,242.5,339.6094,242.4613,339.6094,242.6966,332.0875,242.5843,324.5656,242.3064,317.0438,242.5115,309.5219,242.5,302" style="stroke: #000000; stroke-width: 1.5;"/><path d="M361.5,302 L361.6441,302.1441 L363.0864,299.9864 L365.1835,298.4835 L367.1135,296.8135 L368.7173,294.8173 L370.5,293 " fill="#FEFECE" style="stroke: #000000; stroke-width: 1.5;"/><path d="M242.5,302 L242.5,302.7995 L252.4167,301.5193 L262.3333,301.3051 L272.25,302.7483 L282.1667,302.6912 L292.0833,301.4203 L302,302.6387 L311.9167,301.3921 L321.8333,302.2604 L331.75,301.8246 L341.6667,302.7406 L351.5833,301.2442 L361.5,302 " fill="#FEFECE" style="stroke: #000000; stroke-width: 1.5;"/><path d="M361.5,302 L361.6581,302 L361.6022,309.5219 L361.3983,317.0438 L361.2588,324.5656 L361.7814,332.0875 L361.5,339.6094 " fill="#FEFECE" style="stroke: #000000; stroke-width: 1.5;"/><text fill="#000000" font-family="sans-serif" font-size="14" lengthAdjust="spacingAndGlyphs" textLength="89" x="257.5" y="326.5332">R6300v2 WIFI</text><!--entity Device1--><polygon fill="#FEFECE" filter="url(#f10o0upt0evca6)" points="38,410,38.1413,410.1413,40.0461,408.0461,42.1267,406.1267,44.1303,404.1303,46.0408,402.0408,48,400,48,399.9743,57.5556,399.573,67.1111,399.5346,76.6667,399.4293,86.2222,399.3916,95.7778,400.3183,105.3333,400.7318,114.8889,400.0872,124.4444,399.8104,134,400,134.2137,400,133.8227,407.5219,133.9279,415.0438,133.9124,422.5656,134.1251,430.0875,134,437.6094,133.9821,437.5915,131.8357,439.4451,129.9556,441.565,127.9356,443.5449,126.0174,445.6268,124,447.6094,124,446.8904,114.4444,446.8905,104.8889,447.3774,95.3333,447.7789,85.7778,447.5987,76.2222,447.0937,66.6667,447.5778,57.1111,447.4335,47.5556,447.6681,38,447.6094,38.1791,447.6094,37.9754,440.0875,37.8172,432.5656,38.1132,425.0438,37.9263,417.5219,38,410" style="stroke: #000000; stroke-width: 1.5;"/><path d="M124,410 L123.8569,409.8569 L125.9497,408.3497 L127.7588,406.5588 L129.2779,404.4779 L131.286,402.886 L133,401 " fill="#FEFECE" style="stroke: #000000; stroke-width: 1.5;"/><path d="M38,410 L38,409.787 L47.5556,410.662 L57.1111,410.8601 L66.6667,409.0134 L76.2222,409.2024 L85.7778,409.3 L95.3333,410.0445 L104.8889,409.7219 L114.4444,409.1098 L124,410 " fill="#FEFECE" style="stroke: #000000; stroke-width: 1.5;"/><path d="M124,410 L123.8232,410 L123.8091,417.5219 L124.1325,425.0438 L123.8202,432.5656 L124.0791,440.0875 L124,447.6094 " fill="#FEFECE" style="stroke: #000000; stroke-width: 1.5;"/><text fill="#000000" font-family="sans-serif" font-size="14" lengthAdjust="spacingAndGlyphs" textLength="56" x="53" y="434.5332">台式电脑</text><!--entity Device2--><polygon fill="#FEFECE" filter="url(#f10o0upt0evca6)" points="169,410,169.0017,410.0017,170.97,407.97,173.003,406.003,174.879,403.879,176.912,401.912,179,400,179,399.3007,189,399.2979,199,400.5724,209,400.4179,219,400.4521,229,400.2772,239,400.1248,249,400.6757,259,399.5701,269,399.2873,279,400,279.0674,400,278.8518,407.5219,279.1694,415.0438,278.9966,422.5656,279.0409,430.0875,279,437.6094,278.8847,437.4941,276.9543,439.5637,274.8876,441.497,273.131,443.7404,271.0349,445.6442,269,447.6094,269,447.7805,259,448.1725,249,447.7305,239,447.943,229,447.0314,219,447.557,209,447.2486,199,447.5215,189,447.3974,179,447.1975,169,447.6094,169.2076,447.6094,169.1963,440.0875,169.201,432.5656,169.125,425.0438,169.1969,417.5219,169,410" style="stroke: #000000; stroke-width: 1.5;"/><path d="M269,410 L268.8315,409.8315 L270.7757,408.1757 L272.6788,406.4788 L274.5189,404.7189 L275.9844,402.5844 L278,401 " fill="#FEFECE" style="stroke: #000000; stroke-width: 1.5;"/><path d="M169,410 L169,410.5332 L179,410.0398 L189,409.7063 L199,409.3952 L209,409.862 L219,409.8771 L229,409.4569 L239,409.6949 L249,410.3639 L259,409.8815 L269,410 " fill="#FEFECE" style="stroke: #000000; stroke-width: 1.5;"/><path d="M269,410 L269.2071,410 L268.8531,417.5219 L268.8205,425.0438 L268.9191,432.5656 L268.9264,440.0875 L269,447.6094 " fill="#FEFECE" style="stroke: #000000; stroke-width: 1.5;"/><text fill="#000000" font-family="sans-serif" font-size="14" lengthAdjust="spacingAndGlyphs" textLength="70" x="184" y="434.5332">笔记本电脑</text><!--entity Device3--><polygon fill="#FEFECE" filter="url(#f10o0upt0evca6)" points="314,410,314.0634,410.0634,316.03,408.03,318.0686,406.0686,320.05,404.05,321.8511,401.8511,324,400,324,399.9037,333.5556,399.6423,343.1111,399.6599,352.6667,399.6946,362.2222,400.5075,371.7778,400.2801,381.3333,400.3777,390.8889,399.921,400.4444,399.7258,410,400,409.9872,400,409.8618,407.5219,410.136,415.0438,410.0791,422.5656,410.0052,430.0875,410,437.6094,410.0316,437.641,407.88,439.4893,406.1714,441.7808,403.9248,443.5342,401.9215,445.5309,400,447.6094,400,447.3856,390.4444,448.0373,380.8889,447.2621,371.3333,447.6907,361.7778,447.3842,352.2222,448.105,342.6667,447.9208,333.1111,447.1847,323.5556,447.8526,314,447.6094,313.9633,447.6094,313.8229,440.0875,313.8856,432.5656,313.9594,425.0438,313.831,417.5219,314,410" style="stroke: #000000; stroke-width: 1.5;"/><path d="M400,410 L400.0791,410.0791 L401.8537,408.2537 L403.5891,406.3891 L405.2795,404.4795 L407.3596,402.9596 L409,401 " fill="#FEFECE" style="stroke: #000000; stroke-width: 1.5;"/><path d="M314,410 L314,410.8834 L323.5556,410.9967 L333.1111,410.3596 L342.6667,409.0841 L352.2222,410.9584 L361.7778,410.8787 L371.3333,410.8413 L380.8889,410.4367 L390.4444,410.4746 L400,410 " fill="#FEFECE" style="stroke: #000000; stroke-width: 1.5;"/><path d="M400,410 L399.8346,410 L399.799,417.5219 L400.1576,425.0438 L400.2219,432.5656 L399.9737,440.0875 L400,447.6094 " fill="#FEFECE" style="stroke: #000000; stroke-width: 1.5;"/><text fill="#000000" font-family="sans-serif" font-size="14" lengthAdjust="spacingAndGlyphs" textLength="56" x="329" y="434.5332">平板电脑</text><!--entity DeviceN--><polygon fill="#FEFECE" filter="url(#f10o0upt0evca6)" points="445,410,445.0263,410.0263,447.1232,408.1232,449.1598,406.1598,451.0313,404.0313,453.0938,402.0938,455,400,455,400.5265,464.5556,399.7022,474.1111,399.5531,483.6667,399.3363,493.2222,400.3408,502.7778,399.8146,512.3333,400.1367,521.8889,399.3705,531.4444,400.2368,541,400,541.0373,400,541.1696,407.5219,541.2049,415.0438,540.938,422.5656,540.8049,430.0875,541,437.6094,541.078,437.6873,539.1291,439.7385,537.1389,441.7482,534.934,443.5433,532.8349,445.4442,531,447.6094,531,447.6035,521.4444,447.0769,511.8889,448.0211,502.3333,447.0129,492.7778,447.7452,483.2222,447.7674,473.6667,448.1313,464.1111,448.0542,454.5556,447.7709,445,447.6094,444.9287,447.6094,445.1732,440.0875,444.9783,432.5656,445.1032,425.0438,445.0323,417.5219,445,410" style="stroke: #000000; stroke-width: 1.5;"/><path d="M531,410 L531.1224,410.1224 L532.8894,408.2894 L534.624,406.424 L536.4766,404.6766 L538.2326,402.8326 L540,401 " fill="#FEFECE" style="stroke: #000000; stroke-width: 1.5;"/><path d="M445,410 L445,410.9536 L454.5556,409.5686 L464.1111,410.931 L473.6667,409.3594 L483.2222,410.0459 L492.7778,410.0069 L502.3333,410.4399 L511.8889,410.3277 L521.4444,410.4397 L531,410 " fill="#FEFECE" style="stroke: #000000; stroke-width: 1.5;"/><path d="M531,410 L531.1463,410 L531.2887,417.5219 L531.2671,425.0438 L530.6728,432.5656 L531.1096,440.0875 L531,447.6094 " fill="#FEFECE" style="stroke: #000000; stroke-width: 1.5;"/><text fill="#000000" font-family="sans-serif" font-size="14" lengthAdjust="spacingAndGlyphs" textLength="56" x="460" y="434.5332">各类手机</text><!--link windows to router--><path d="M257.336,108.234 L257.4688,108.3407 L251.4052,116.5776 L245.0232,124.5588 L238.7569,132.633 L231.0664,139.5631 L224.7725,147.615 L219.0015,156.087 L212.4993,163.9716 L206.7901,172.4932 L199.739,179.937 " fill="none" style="stroke: #A80036; stroke-width: 1.0;"/><polygon fill="#A80036" points="196.594,183.852,196.6049,183.8731,198.3524,182.9642,200.2051,182.2593,201.7419,180.9414,203.6045,180.2558,205.3486,179.3401,205.3231,179.1063,204.2477,179.6807,203.12,179.776,201.9614,179.5885,200.8272,179.6236,199.7251,179.9538,199.8196,179.9641,199.828,178.8537,199.5902,177.7165,199.354,176.5794,199.3908,175.4721,199.1115,174.3303,199.0485,174.3137,198.4256,176.1864,198.1503,178.1511,197.7533,180.0836,197.3387,182.0114,196.594,183.852" style="stroke: #A80036; stroke-width: 1.0;"/><!--link imac to router--><path d="M122.95,108.234 L123.1537,108.3476 L128.4725,117.4443 L132.3815,125.7552 L138.5096,135.303 L142.4791,143.6476 L148.091,152.9077 L152.2123,161.3369 L157.9101,170.6449 L162.616,179.4 " fill="none" style="stroke: #A80036; stroke-width: 1.0;"/><polygon fill="#A80036" points="165.098,183.852,164.9148,183.8354,165.1215,181.9085,164.9485,179.9471,164.4656,177.9577,164.1678,175.9851,164.21,174.0433,164.3065,174.0707,163.9675,175.1505,163.5125,176.1974,163.0738,177.2489,162.7549,178.3344,162.6636,179.4847,162.6313,179.3709,161.5299,179.0155,160.5302,179.018,159.353,178.3956,158.2502,178.0356,157.2222,177.9383,157.2142,177.9276,158.7664,179.0798,160.3389,180.259,162.0214,181.5847,163.5169,182.6613,165.098,183.852" style="stroke: #A80036; stroke-width: 1.0;"/><!--link router to HTPC--><path d="M169.972,232 L169.4391,231.814 L166.4969,241.9452 L162.8613,251.8344 L158.899,261.6095 L155.3414,271.5259 L153.0047,281.8685 L149.141,291.678 " fill="none" style="stroke: #A80036; stroke-width: 1.0;"/><polygon fill="#FFFFFF" points="168.594,264.3774,167.6536,267.0194,166.4376,268.3381,164.3967,270.0705,162.5435,271.5202,159.1191,272.3181,156.2943,271.2217,154.4607,270.2023,151.7682,268.9689,150.8026,266.3499,149.8752,264.4234,149.0752,262.1567,149.6635,258.665,151.4068,257.0635,153.1305,254.5263,155.5974,252.2305,158.115,252.1019,159.9426,251.3506,163.0485,251.8147,164.6814,253.2673,167.3553,255.173,168.2589,257.5006,169.0568,259.3197,169.3163,262.2748" style="stroke: #FFFFFF; stroke-width: 1.0;"/><path d="M150.5603,266.1551 A10,10 0 0 0 163.9124 270.8157" fill="#FFFFFF" style="stroke: #A80036; stroke-width: 1.5;"/><path d="M168.573,257.4636 A10,10 0 0 0 155.2209 252.803" fill="#FFFFFF" style="stroke: #A80036; stroke-width: 1.5;"/><polygon fill="#FFFFFF" points="165.4711,263.3498,164.8224,265.3814,163.4357,266.5473,162.1038,267.5433,160.7948,267.5373,158.8958,267.8544,157.3701,267.7005,156.2828,266.4253,155.348,265.5571,154.1658,264.1704,154.0183,263.033,153.6277,261.8395,153.7529,260.4706,153.9267,258.9641,155.0526,257.6975,156.7209,256.7102,158.0415,256.2579,159.8303,255.5782,161.2394,255.7034,162.1289,256.5511,163.4997,256.8569,164.1009,257.8902,165.1797,259.3748,165.7786,261.2492,165.3004,262.9317" style="stroke: #A80036; stroke-width: 1.5;"/><!--link router to AP--><path d="M205.991,232 L205.4941,231.3953 L213.4625,237.9029 L222.4529,245.6544 L229.9447,251.5819 L238.544,258.8574 L246.961,265.9109 L254.765,272.2186 L262.4183,278.3427 L270.12,284.5259 L278.618,291.678 " fill="none" style="stroke: #A80036; stroke-width: 1.0;"/><polygon fill="#FFFFFF" points="252.2688,265.3148,249.9411,267.3526,248.4363,270.054,246.5314,270.3478,244.4583,271.9033,242.6699,272.166,239.9925,272.065,238.3053,270.7896,235.9534,269.0912,233.8433,267.1344,233.0449,263.9315,232.6821,260.9861,232.8216,257.7994,234.7579,255.6609,236.2372,254.5015,237.5017,252.7704,240.6945,252.3701,243.2113,251.5919,246.3194,252.8424,248.7505,254.765,250.4213,256.0158,251.3476,258.2972,252.2969,260.7438,251.6819,263.4005" style="stroke: #FFFFFF; stroke-width: 1.0;"/><path d="M243.2422,271.7618 A10,10 0 0 0 252.2206 260.8353" fill="#FFFFFF" style="stroke: #A80036; stroke-width: 1.5;"/><path d="M241.2941,251.8569 A10,10 0 0 0 232.3157 262.7834" fill="#FFFFFF" style="stroke: #A80036; stroke-width: 1.5;"/><polygon fill="#FFFFFF" points="248.1307,263.0305,247.5692,263.9958,247.4419,265.5228,245.9508,266.7313,244.3804,267.1196,242.7755,267.5142,241.7036,268.0431,239.6317,267.6083,238.7391,266.9516,237.954,266.1133,237.1674,264.2473,236.4757,262.5815,236.5147,261.3011,236.4667,259.7962,236.8248,258.7076,237.7821,258.0435,238.7309,257.4156,239.5091,256.3742,240.6351,255.6744,242.2972,255.4785,243.6285,255.8203,245.096,256.1262,246.0172,257.1305,247.3853,258.5062,247.7692,259.71,248.1026,261.2742,247.9263,262.5091" style="stroke: #A80036; stroke-width: 1.5;"/><!--link AP to Device1--><path d="M259.046,340 L259.2156,340.3537 L249.8079,343.6015 L241.0869,348.2811 L232.2548,352.7289 L223.2519,356.8208 L214.2138,360.8392 L205.8257,366.2129 L196.7968,370.2506 L187.6146,373.9684 L178.5249,377.8793 L169.6627,382.2645 L160.6612,386.3593 L152.3859,391.968 L142.7722,394.7864 L134.241,399.8617 " fill="none" style="stroke: #A80036; stroke-width: 1.0;"/><polygon fill="#FFFFFF" points="206.4711,372.5959,205.8302,374.7075,204.1812,375.7032,202.9711,377.097,201.4497,379.3042,198.4965,380.2425,195.9912,380.1912,192.9312,378.7706,191.2433,378.2974,188.469,376.6343,187.7713,373.6843,186.792,371.2669,186.7728,368.5095,187.0812,366.4326,188.0891,364.2387,189.633,362.3023,192.2878,360.5949,195.5612,360.2766,197.2831,359.8962,199.6955,359.8816,202.1728,362.1741,204.5536,363.4636,206.2086,366.1788,206.2034,369.0657,207.0654,371.1219" style="stroke: #FFFFFF; stroke-width: 1.0;"/><path d="M187.2369,366.6003 A10,10 0 0 0 193.3529 379.3516" fill="#FFFFFF" style="stroke: #A80036; stroke-width: 1.5;"/><path d="M206.1041,373.2356 A10,10 0 0 0 199.9881 360.4843" fill="#FFFFFF" style="stroke: #A80036; stroke-width: 1.5;"/><polygon fill="#FFFFFF" points="202.3904,371.7496,201.5214,372.9113,200.7427,374.0485,199.1304,375.075,197.3529,376.1627,196.0977,375.6696,194.3755,375.2509,192.72,374.4462,191.4528,373.5403,191.2359,371.8,190.3885,370.9073,190.8092,368.9911,191.1339,367.4778,192.0583,366.5512,193.3034,365.0315,194.6799,364.5492,195.9818,363.9491,197.9318,363.888,199.0602,364.7271,200.5539,365.1985,201.2421,366.5274,202.0477,367.479,202.7123,369.1287,202.4035,370.3452" style="stroke: #A80036; stroke-width: 1.5;"/><!--link AP to Device2--><path d="M288.99,340 L289.1087,340.0929 L283.3875,347.6467 L278.0637,355.5115 L271.2449,362.2058 L265.5909,369.8121 L259.3712,376.9755 L254.2327,384.9855 L248.3601,392.4206 L242.261,399.6784 " fill="none" style="stroke: #A80036; stroke-width: 1.0;"/><polygon fill="#FFFFFF" points="275.2997,372.9585,274.0728,375.6553,272.7014,376.8894,270.2569,378.0474,267.7253,379.9635,264.6062,379.1653,261.1857,379.2141,259.9827,377.3418,258.0191,375.4637,256.2063,373.3167,255.3561,370.5734,255.5466,367.6584,256.9074,364.9565,258.707,361.8265,261.4149,360.9187,263.6784,360.2577,265.7094,359.316,267.5466,359.4595,270.3942,360.8723,271.7755,362.3202,273.578,363.2519,274.4917,365.4253,274.9476,368.0333,275.9106,370.658" style="stroke: #FFFFFF; stroke-width: 1.0;"/><path d="M255.7224,371.0174 A10,10 0 0 0 266.8572 379.7361" fill="#FFFFFF" style="stroke: #A80036; stroke-width: 1.5;"/><path d="M275.5759,368.6013 A10,10 0 0 0 264.4411 359.8826" fill="#FFFFFF" style="stroke: #A80036; stroke-width: 1.5;"/><polygon fill="#FFFFFF" points="271.6026,371.5694,270.5308,373.1498,269.3508,374.3874,267.8194,375.2253,266.5266,375.45,264.5577,375.7988,263.2082,375.0957,262.0142,374.8932,261.0864,373.8152,260.6735,372.6231,260.166,371.4013,259.769,370.2329,259.8778,368.5232,260.1014,367.0446,261.457,365.8344,262.234,364.4838,264.3219,364.1612,265.8612,364.1403,267.6486,364.0001,269.4636,364.7778,270.6631,366.2687,271.6545,367.8938,271.9444,369.7023,271.8585,370.9854" style="stroke: #A80036; stroke-width: 1.5;"/><!--link AP to Device3--><path d="M318.934,340 L318.7733,339.9166 L323.6606,348.6827 L327.8596,357.0917 L331.3198,365.1173 L336.6588,374.1178 L341.1234,382.6646 L345.4076,391.1177 L349.899,399.6784 " fill="none" style="stroke: #A80036; stroke-width: 1.0;"/><polygon fill="#FFFFFF" points="343.5969,372.3681,342.9668,375.5058,341.4358,376.9617,339.727,377.7527,338.3499,379.1533,336.2743,379.6096,332.9653,379.559,330.3651,378.7944,327.7497,377.442,326.1871,374.3797,324.5381,372.1944,323.9632,369.0433,325.3312,366.3101,326.9478,364.1222,327.6911,361.9364,329.2836,360.6806,331.4332,360.5532,334.1745,359.2513,336.9298,359.6599,338.4476,361.2964,341.0638,362.4906,343.3132,364.5441,344.2482,366.4967,344.2011,369.2065,343.715,371.2291" style="stroke: #FFFFFF; stroke-width: 1.0;"/><path d="M331.3813,379.3425 A10,10 0 0 0 343.9343 372.8291" fill="#FFFFFF" style="stroke: #A80036; stroke-width: 1.5;"/><path d="M337.4209,360.2762 A10,10 0 0 0 324.868 366.7896" fill="#FFFFFF" style="stroke: #A80036; stroke-width: 1.5;"/><polygon fill="#FFFFFF" points="339.783,371.5136,339.4877,373.1251,338.4391,374.6348,337.2735,375.2866,335.5299,375.846,334.0935,375.5564,332.0952,375.3909,330.5463,374.6666,329.6643,373.9982,329.1718,372.4883,328.7668,370.6231,328.6245,369.3973,329.2079,367.557,329.7249,366.6061,329.945,365.3199,331.5685,364.1078,333.4268,363.9774,334.7425,364.112,336.0357,363.8877,337.4805,365.0718,338.6967,365.9824,339.7898,366.576,340.1254,368.3964,340.258,370.111" style="stroke: #A80036; stroke-width: 1.5;"/><!--link AP to DeviceN--><path d="M347.359,340 L347.3933,340.0602 L356.1606,345.0731 L364.7559,349.7844 L373.4174,354.6117 L382.4894,360.1593 L391.0367,364.7863 L399.8685,369.9124 L408.4542,374.6067 L417.4783,380.0703 L426.0932,384.816 L435.3314,390.6552 L443.9371,395.3846 L452.399,399.8617 " fill="none" style="stroke: #A80036; stroke-width: 1.0;"/><polygon fill="#FFFFFF" points="409.4336,372.8661,407.7439,375.6404,406.1581,378.0777,403.0507,379.2287,400.7568,379.3112,398.9973,380.0567,397.3501,379.1918,394.9394,378.4941,392.157,376.5297,391.082,373.319,390.4763,370.9661,389.827,368.8771,390.038,366.8107,391.4748,365.3125,392.3615,363.0547,394.1681,361.6353,396.4192,359.9605,398.8317,360.3296,400.6451,359.5398,403.3707,361.1195,406.3679,361.8104,408.42,364.5732,409.0493,367.415,410.3705,370.481" style="stroke: #FFFFFF; stroke-width: 1.0;"/><path d="M402.4988,379.5625 A10,10 0 0 0 409.5011 367.2756" fill="#FFFFFF" style="stroke: #A80036; stroke-width: 1.5;"/><path d="M397.2142,360.2734 A10,10 0 0 0 390.2119 372.5603" fill="#FFFFFF" style="stroke: #A80036; stroke-width: 1.5;"/><polygon fill="#FFFFFF" points="405.52,371.9528,405.1443,373.4686,403.2867,374.5314,401.7954,375.3712,400.4665,375.9284,399.164,376.159,397.7413,375.4759,396.0055,374.989,394.7956,373.6547,394.5527,372.104,393.7872,370.4844,394.0148,368.898,394.1284,367.1705,395.1111,366.0523,395.9583,365.0306,397.3515,364.2132,398.5927,363.8608,400.1857,364.1756,401.2759,364.0883,402.9888,364.5451,403.6014,365.6889,404.7839,366.649,405.767,367.9918,406.1099,369.5539,405.9298,371.0446" style="stroke: #A80036; stroke-width: 1.5;"/><!--
@startuml
skinparam handwritten true
cloud company {
    node windows [
        Dell台式机装Windows10
    ]
    node imac [
        iMac
    ]
}

cloud home {
    node router [
        Banana Pi X墙路由
    ]
    node HTPC [
        占美x86小主机
    ]
    node AP [
        R6300v2 WIFI
    ]
    node Device1 [
        台式电脑
    ]
    node Device2 [
        笔记本电脑
    ]
    node Device3 [
        平板电脑
    ]
    node DeviceN [
        各类手机
    ]
}

windows - -> router
imac - -> router
router -(0)- HTPC
router -(0)- AP
AP -(0)- Device1
AP -(0)- Device2
AP -(0)- Device3
AP -(0)- DeviceN
@enduml

PlantUML version 1.2018.03(Fri Apr 06 00:59:15 CST 2018)
(GPL source distribution)
Java Runtime: Java(TM) SE Runtime Environment
JVM: Java HotSpot(TM) 64-Bit Server VM
Java Version: 1.8.0_171-b11
Operating System: Windows 10
OS Version: 10.0
Default Encoding: Cp1252
Language: en
Country: US
--></g></svg>