<svg xmlns="http://www.w3.org/2000/svg" xmlns:xlink="http://www.w3.org/1999/xlink" width="572" height="472" contentScriptType="application/ecmascript" contentStyleType="text/css" preserveAspectRatio="none" version="1.1" viewBox="0 0 572 472" zoomAndPan="magnify" style="width:572px;height:472px"><defs><filter id="f10o0upt0evca6" width="300%" height="300%" x="-1" y="-1"><feGaussianBlur result="blurOut" stdDeviation="2"/><feColorMatrix in="blurOut" result="blurOut2" type="matrix" values="0 0 0 0 0 0 0 0 0 0 0 0 0 0 0 0 0 0 .4 0"/><feOffset dx="4" dy="4" in="blurOut2" result="blurOut3"/><feBlend in="SourceGraphic" in2="blurOut3" mode="normal"/></filter></defs><g><path fill="#FFF" stroke="#000" stroke-width="1.5" d="M62,31 C62,28 64,26 67,26 C70,26 72,28 72,31 C72,28 74,26 77,26 C80,26 82,28 82,31 C82,28 84,26 87,26 C90,26 92,28 92,31 C92,28 94,26 97,26 C100,26 102,28 102,31 C102,28 104,26 107,26 C110,26 112,28 112,31 C112,28 114,26 117,26 C120,26 122,28 122,31 C122,28 124,26 127,26 C130,26 132,28 132,31 C132,28 134,26 137,26 C140,26 142,28 142,31 C142,28 144,26 147,26 C150,26 152,28 152,31 C152,28 154,26 157,26 C160,26 162,28 162,31 C162,28 164,26 167,26 C170,26 172,28 172,31 C172,28 174,26 177,26 C180,26 182,28 182,31 C182,28 184,26 187,26 C190,26 192,28 192,31 C192,28 194,26 197,26 C200,26 202,28 202,31 C202,28 204,26 207,26 C210,26 212,28 212,31 C212,28 214,26 217,26 C220,26 222,28 222,31 C222,28 224,26 227,26 C230,26 232,28 232,31 C232,28 234,26 237,26 C240,26 242,28 242,31 C242,28 244,26 247,26 C250,26 252,28 252,31 C252,28 254,26 257,26 C260,26 262,28 262,31 C262,28 264,26 267,26 C270,26 272,28 272,31 C272,28 274,26 277,26 C280,26 282,28 282,31 C282,28 284,26 287,26 C290,26 292,28 292,31 C292,28 294,26 297,26 C300,26 302,28 302,31 C302,28 304,26 307,26 C310,26 312,28 312,31 C312,28 314,26 317,26 C320,26 322,28 322,31 C322,28 324,26 327,26 C330,26 332,28 332,31 C332,28 334,26 337,26 C340,26 342,28 342,31 C342,28 344,26 347,26 C350,26 352,28 352,31 C352,28 354,26 357,26 C360,26 362,28 362,31 C362,28 364,26 367,26 C370,26 372,28 372,31 C372,28 374,26 377,26 C380,26 382,28 382,31 C385,31 387,33 387,36 C387,39 385,41 382,41 C385,41 387,43 387,46 C387,49 385,51 382,51 C385,51 387,53 387,56 C387,59 385,61 382,61 C385,61 387,63 387,66 C387,69 385,71 382,71 C385,71 387,73 387,76 C387,79 385,81 382,81 C385,81 387,83 387,86 C387,89 385,91 382,91 C385,91 387,93 387,96 C387,99 385,101 382,101 C385,101 387,103 387,106 C387,109 385,111 382,111 C385,111 387,113 387,116 C387,119 385,121 382,121 C382,124 379,126 377,126 C374,126 372,124 372,121 C372,124 369,126 367,126 C364,126 362,124 362,121 C362,124 359,126 357,126 C354,126 352,124 352,121 C352,124 349,126 347,126 C344,126 342,124 342,121 C342,124 339,126 337,126 C334,126 332,124 332,121 C332,124 329,126 327,126 C324,126 322,124 322,121 C322,124 319,126 317,126 C314,126 312,124 312,121 C312,124 309,126 307,126 C304,126 302,124 302,121 C302,124 299,126 297,126 C294,126 292,124 292,121 C292,124 289,126 287,126 C284,126 282,124 282,121 C282,124 279,126 277,126 C274,126 272,124 272,121 C272,124 269,126 267,126 C264,126 262,124 262,121 C262,124 259,126 257,126 C254,126 252,124 252,121 C252,124 249,126 247,126 C244,126 242,124 242,121 C242,124 239,126 237,126 C234,126 232,124 232,121 C232,124 229,126 227,126 C224,126 222,124 222,121 C222,124 219,126 217,126 C214,126 212,124 212,121 C212,124 209,126 207,126 C204,126 202,124 202,121 C202,124 199,126 197,126 C194,126 192,124 192,121 C192,124 189,126 187,126 C184,126 182,124 182,121 C182,124 179,126 177,126 C174,126 172,124 172,121 C172,124 169,126 167,126 C164,126 162,124 162,121 C162,124 159,126 157,126 C154,126 152,124 152,121 C152,124 149,126 147,126 C144,126 142,124 142,121 C142,124 139,126 137,126 C134,126 132,124 132,121 C132,124 129,126 127,126 C124,126 122,124 122,121 C122,124 119,126 117,126 C114,126 112,124 112,121 C112,124 109,126 107,126 C104,126 102,124 102,121 C102,124 99,126 97,126 C94,126 92,124 92,121 C92,124 89,126 87,126 C84,126 82,124 82,121 C82,124 79,126 77,126 C74,126 72,124 72,121 C72,124 69,126 67,126 C64,126 62,124 62,121 C59,121 57,119 57,116 C57,113 59,111 62,111 C59,111 57,109 57,106 C57,103 59,101 62,101 C59,101 57,99 57,96 C57,93 59,91 62,91 C59,91 57,89 57,86 C57,83 59,81 62,81 C59,81 57,79 57,76 C57,73 59,71 62,71 C59,71 57,69 57,66 C57,63 59,61 62,61 C59,61 57,59 57,56 C57,53 59,51 62,51 C59,51 57,49 57,46 C57,43 59,41 62,41 C59,41 57,39 57,36 C57,33 59,31 62,31" filter="url(#f10o0upt0evca6)"/><text x="192.5" y="51.533" fill="#000" font-family="sans-serif" font-size="14" font-weight="bold" lengthAdjust="spacingAndGlyphs" textLength="62">company</text><path fill="#FFF" stroke="#000" stroke-width="1.5" d="M25,155 C25,152 27,150 30,150 C33,150 35,152 35,155 C35,152 37,150 40,150 C43,150 45,152 45,155 C45,152 47,150 50,150 C53,150 55,152 55,155 C55,152 57,150 60,150 C63,150 65,152 65,155 C65,152 67,150 70,150 C73,150 75,152 75,155 C75,152 77,150 80,150 C83,150 85,152 85,155 C85,152 87,150 90,150 C93,150 95,152 95,155 C95,152 97,150 100,150 C103,150 105,152 105,155 C105,152 107,150 110,150 C113,150 115,152 115,155 C115,152 117,150 120,150 C123,150 125,152 125,155 C125,152 127,150 130,150 C133,150 135,152 135,155 C135,152 137,150 140,150 C143,150 145,152 145,155 C145,152 147,150 150,150 C153,150 155,152 155,155 C155,152 157,150 160,150 C163,150 165,152 165,155 C165,152 167,150 170,150 C173,150 175,152 175,155 C175,152 177,150 180,150 C183,150 185,152 185,155 C185,152 187,150 190,150 C193,150 195,152 195,155 C195,152 197,150 200,150 C203,150 205,152 205,155 C205,152 207,150 210,150 C213,150 215,152 215,155 C215,152 217,150 220,150 C223,150 225,152 225,155 C225,152 227,150 230,150 C233,150 235,152 235,155 C235,152 237,150 240,150 C243,150 245,152 245,155 C245,152 247,150 250,150 C253,150 255,152 255,155 C255,152 257,150 260,150 C263,150 265,152 265,155 C265,152 267,150 270,150 C273,150 275,152 275,155 C275,152 277,150 280,150 C283,150 285,152 285,155 C285,152 287,150 290,150 C293,150 295,152 295,155 C295,152 297,150 300,150 C303,150 305,152 305,155 C305,152 307,150 310,150 C313,150 315,152 315,155 C315,152 317,150 320,150 C323,150 325,152 325,155 C325,152 327,150 330,150 C333,150 335,152 335,155 C335,152 337,150 340,150 C343,150 345,152 345,155 C345,152 347,150 350,150 C353,150 355,152 355,155 C355,152 357,150 360,150 C363,150 365,152 365,155 C365,152 367,150 370,150 C373,150 375,152 375,155 C375,152 377,150 380,150 C383,150 385,152 385,155 C385,152 387,150 390,150 C393,150 395,152 395,155 C395,152 397,150 400,150 C403,150 405,152 405,155 C405,152 407,150 410,150 C413,150 415,152 415,155 C415,152 417,150 420,150 C423,150 425,152 425,155 C425,152 427,150 430,150 C433,150 435,152 435,155 C435,152 437,150 440,150 C443,150 445,152 445,155 C445,152 447,150 450,150 C453,150 455,152 455,155 C455,152 457,150 460,150 C463,150 465,152 465,155 C465,152 467,150 470,150 C473,150 475,152 475,155 C475,152 477,150 480,150 C483,150 485,152 485,155 C485,152 487,150 490,150 C493,150 495,152 495,155 C495,152 497,150 500,150 C503,150 505,152 505,155 C505,152 507,150 510,150 C513,150 515,152 515,155 C515,152 517,150 520,150 C523,150 525,152 525,155 C525,152 527,150 530,150 C533,150 535,152 535,155 C535,152 537,150 540,150 C543,150 545,152 545,155 C545,152 547,150 550,150 C553,150 555,152 555,155 C558,155 560,157 560,160 C560,163 558,165 555,165 C558,165 560,167 560,170 C560,173 558,175 555,175 C558,175 560,177 560,180 C560,183 558,185 555,185 C558,185 560,187 560,190 C560,193 558,195 555,195 C558,195 560,197 560,200 C560,203 558,205 555,205 C558,205 560,207 560,210 C560,213 558,215 555,215 C558,215 560,217 560,220 C560,223 558,225 555,225 C558,225 560,227 560,230 C560,233 558,235 555,235 C558,235 560,237 560,240 C560,243 558,245 555,245 C558,245 560,247 560,250 C560,253 558,255 555,255 C558,255 560,257 560,260 C560,263 558,265 555,265 C558,265 560,267 560,270 C560,273 558,275 555,275 C558,275 560,277 560,280 C560,283 558,285 555,285 C558,285 560,287 560,290 C560,293 558,295 555,295 C558,295 560,297 560,300 C560,303 558,305 555,305 C558,305 560,307 560,310 C560,313 558,315 555,315 C558,315 560,317 560,320 C560,323 558,325 555,325 C558,325 560,327 560,330 C560,333 558,335 555,335 C558,335 560,337 560,340 C560,343 558,345 555,345 C558,345 560,347 560,350 C560,353 558,355 555,355 C558,355 560,357 560,360 C560,363 558,365 555,365 C558,365 560,367 560,370 C560,373 558,375 555,375 C558,375 560,377 560,380 C560,383 558,385 555,385 C558,385 560,387 560,390 C560,393 558,395 555,395 C558,395 560,397 560,400 C560,403 558,405 555,405 C558,405 560,407 560,410 C560,413 558,415 555,415 C558,415 560,417 560,420 C560,423 558,425 555,425 C558,425 560,427 560,430 C560,433 558,435 555,435 C558,435 560,437 560,440 C560,443 558,445 555,445 C558,445 560,447 560,450 C560,453 558,455 555,455 C555,458 552,460 550,460 C547,460 545,458 545,455 C545,458 542,460 540,460 C537,460 535,458 535,455 C535,458 532,460 530,460 C527,460 525,458 525,455 C525,458 522,460 520,460 C517,460 515,458 515,455 C515,458 512,460 510,460 C507,460 505,458 505,455 C505,458 502,460 500,460 C497,460 495,458 495,455 C495,458 492,460 490,460 C487,460 485,458 485,455 C485,458 482,460 480,460 C477,460 475,458 475,455 C475,458 472,460 470,460 C467,460 465,458 465,455 C465,458 462,460 460,460 C457,460 455,458 455,455 C455,458 452,460 450,460 C447,460 445,458 445,455 C445,458 442,460 440,460 C437,460 435,458 435,455 C435,458 432,460 430,460 C427,460 425,458 425,455 C425,458 422,460 420,460 C417,460 415,458 415,455 C415,458 412,460 410,460 C407,460 405,458 405,455 C405,458 402,460 400,460 C397,460 395,458 395,455 C395,458 392,460 390,460 C387,460 385,458 385,455 C385,458 382,460 380,460 C377,460 375,458 375,455 C375,458 372,460 370,460 C367,460 365,458 365,455 C365,458 362,460 360,460 C357,460 355,458 355,455 C355,458 352,460 350,460 C347,460 345,458 345,455 C345,458 342,460 340,460 C337,460 335,458 335,455 C335,458 332,460 330,460 C327,460 325,458 325,455 C325,458 322,460 320,460 C317,460 315,458 315,455 C315,458 312,460 310,460 C307,460 305,458 305,455 C305,458 302,460 300,460 C297,460 295,458 295,455 C295,458 292,460 290,460 C287,460 285,458 285,455 C285,458 282,460 280,460 C277,460 275,458 275,455 C275,458 272,460 270,460 C267,460 265,458 265,455 C265,458 262,460 260,460 C257,460 255,458 255,455 C255,458 252,460 250,460 C247,460 245,458 245,455 C245,458 242,460 240,460 C237,460 235,458 235,455 C235,458 232,460 230,460 C227,460 225,458 225,455 C225,458 222,460 220,460 C217,460 215,458 215,455 C215,458 212,460 210,460 C207,460 205,458 205,455 C205,458 202,460 200,460 C197,460 195,458 195,455 C195,458 192,460 190,460 C187,460 185,458 185,455 C185,458 182,460 180,460 C177,460 175,458 175,455 C175,458 172,460 170,460 C167,460 165,458 165,455 C165,458 162,460 160,460 C157,460 155,458 155,455 C155,458 152,460 150,460 C147,460 145,458 145,455 C145,458 142,460 140,460 C137,460 135,458 135,455 C135,458 132,460 130,460 C127,460 125,458 125,455 C125,458 122,460 120,460 C117,460 115,458 115,455 C115,458 112,460 110,460 C107,460 105,458 105,455 C105,458 102,460 100,460 C97,460 95,458 95,455 C95,458 92,460 90,460 C87,460 85,458 85,455 C85,458 82,460 80,460 C77,460 75,458 75,455 C75,458 72,460 70,460 C67,460 65,458 65,455 C65,458 62,460 60,460 C57,460 55,458 55,455 C55,458 52,460 50,460 C47,460 45,458 45,455 C45,458 42,460 40,460 C37,460 35,458 35,455 C35,458 32,460 30,460 C27,460 25,458 25,455 C22,455 20,453 20,450 C20,447 22,445 25,445 C22,445 20,443 20,440 C20,437 22,435 25,435 C22,435 20,433 20,430 C20,427 22,425 25,425 C22,425 20,423 20,420 C20,417 22,415 25,415 C22,415 20,413 20,410 C20,407 22,405 25,405 C22,405 20,403 20,400 C20,397 22,395 25,395 C22,395 20,393 20,390 C20,387 22,385 25,385 C22,385 20,383 20,380 C20,377 22,375 25,375 C22,375 20,373 20,370 C20,367 22,365 25,365 C22,365 20,363 20,360 C20,357 22,355 25,355 C22,355 20,353 20,350 C20,347 22,345 25,345 C22,345 20,343 20,340 C20,337 22,335 25,335 C22,335 20,333 20,330 C20,327 22,325 25,325 C22,325 20,323 20,320 C20,317 22,315 25,315 C22,315 20,313 20,310 C20,307 22,305 25,305 C22,305 20,303 20,300 C20,297 22,295 25,295 C22,295 20,293 20,290 C20,287 22,285 25,285 C22,285 20,283 20,280 C20,277 22,275 25,275 C22,275 20,273 20,270 C20,267 22,265 25,265 C22,265 20,263 20,260 C20,257 22,255 25,255 C22,255 20,253 20,250 C20,247 22,245 25,245 C22,245 20,243 20,240 C20,237 22,235 25,235 C22,235 20,233 20,230 C20,227 22,225 25,225 C22,225 20,223 20,220 C20,217 22,215 25,215 C22,215 20,213 20,210 C20,207 22,205 25,205 C22,205 20,203 20,200 C20,197 22,195 25,195 C22,195 20,193 20,190 C20,187 22,185 25,185 C22,185 20,183 20,180 C20,177 22,175 25,175 C22,175 20,173 20,170 C20,167 22,165 25,165 C22,165 20,163 20,160 C20,157 22,155 25,155" filter="url(#f10o0upt0evca6)"/><text x="270" y="175.533" fill="#000" font-family="sans-serif" font-size="14" font-weight="bold" lengthAdjust="spacingAndGlyphs" textLength="39">home</text><polygon fill="#FEFECE" stroke="#000" stroke-width="1.5" points="180 70 180.103 70.103 182.118 68.118 184.105 66.105 185.933 63.932 188.09 62.09 190 60 190 60.588 200.111 60.491 210.222 60.47 220.333 60.306 230.444 59.415 240.556 59.407 250.667 60.027 260.778 60.236 270.889 60.463 281 59.345 291.111 60.058 301.222 60.001 311.333 60.484 321.444 59.256 331.556 59.97 341.667 60.097 351.778 60.447 361.889 60.225 372 60 371.854 60 372.102 67.522 372.076 75.044 372.123 82.566 372.249 90.088 372 97.609 372.086 97.696 369.877 99.486 368.133 101.743 366.072 103.682 364.089 105.699 362 107.609 362 107.064 351.889 107.058 341.778 107.467 331.667 107.862 321.556 107.9 311.444 107.857 301.333 107.589 291.222 107.397 281.111 107.721 271 107.76 260.889 107.384 250.778 107.133 240.667 107.422 230.556 107.04 220.444 108.213 210.333 107.784 200.222 107.536 190.111 108.163 180 107.609 180.071 107.609 179.964 100.088 179.827 92.566 179.818 85.044 180.025 77.522 180 70" filter="url(#f10o0upt0evca6)"/><path fill="#FEFECE" stroke="#000" stroke-width="1.5" d="M362,70 L361.9156,69.9156 L363.9886,68.3886 L365.6256,66.4256 L367.2113,64.4113 L369.3581,62.9581 L371,61"/><path fill="#FEFECE" stroke="#000" stroke-width="1.5" d="M180,70 L180,70.2325 L190.1111,69.5673 L200.2222,70.0832 L210.3333,70.2988 L220.4444,69.9896 L230.5556,70.6962 L240.6667,69.2577 L250.7778,69.4828 L260.8889,69.8753 L271,69.0105 L281.1111,69.5286 L291.2222,69.3305 L301.3333,69.7642 L311.4444,69.2844 L321.5556,69.978 L331.6667,70.8874 L341.7778,70.2713 L351.8889,70.6526 L362,70"/><path fill="#FEFECE" stroke="#000" stroke-width="1.5" d="M362,70 L362.3061,70 L362.2088,77.5219 L362.0301,85.0438 L361.8123,92.5656 L361.9801,100.0875 L362,107.6094"/><text x="195" y="94.533" fill="#000" font-family="sans-serif" font-size="14" lengthAdjust="spacingAndGlyphs" textLength="152">Dell台式机装Windows10</text><polygon fill="#FEFECE" stroke="#000" stroke-width="1.5" points="75.5 70 75.41 69.91 77.404 67.904 79.362 65.862 81.404 63.904 83.445 61.945 85.5 60 85.5 60.328 95.333 59.812 105.167 59.906 115 60.468 124.833 60.332 134.667 60.136 144.5 60 144.403 60 144.427 67.522 144.367 75.044 144.553 82.566 144.481 90.088 144.5 97.609 144.63 97.739 142.525 99.635 140.56 101.669 138.557 103.666 136.63 105.739 134.5 107.609 134.5 108.098 124.667 107.935 114.833 107.621 105 106.986 95.167 107.645 85.333 107.221 75.5 107.609 75.405 107.609 75.324 100.088 75.333 92.566 75.741 85.044 75.436 77.522 75.5 70" filter="url(#f10o0upt0evca6)"/><path fill="#FEFECE" stroke="#000" stroke-width="1.5" d="M134.5,70 L134.5899,70.0899 L136.2929,68.1929 L138.1184,66.4184 L140.0886,64.7886 L141.5507,62.6507 L143.5,61"/><path fill="#FEFECE" stroke="#000" stroke-width="1.5" d="M75.5,70 L75.5,70.3371 L85.3333,70.4448 L95.1667,69.7339 L105,69.2163 L114.8333,69.6464 L124.6667,69.4568 L134.5,70"/><path fill="#FEFECE" stroke="#000" stroke-width="1.5" d="M134.5,70 L134.4367,70 L134.1702,77.5219 L134.7228,85.0438 L134.7887,92.5656 L134.4658,100.0875 L134.5,107.6094"/><text x="90.5" y="94.533" fill="#000" font-family="sans-serif" font-size="14" lengthAdjust="spacingAndGlyphs" textLength="29">iMac</text><polygon fill="#FEFECE" stroke="#000" stroke-width="1.5" points="98.5 194 98.392 193.892 100.591 192.091 102.596 190.096 104.338 187.838 106.604 186.104 108.5 184 108.5 183.48 118.433 184.47 128.367 183.613 138.3 184.584 148.233 183.597 158.167 184.429 168.1 184.347 178.033 183.931 187.967 183.796 197.9 184.502 207.833 183.556 217.767 184.466 227.7 183.893 237.633 184.628 247.567 183.535 257.5 184 257.285 184 257.538 191.522 257.609 199.044 257.686 206.566 257.319 214.088 257.5 221.609 257.616 221.726 255.482 223.591 253.505 225.614 251.489 227.599 249.515 229.625 247.5 231.609 247.5 231.497 237.567 232.231 227.633 232.088 217.7 231.544 207.767 231.824 197.833 232.089 187.9 232.029 177.967 231.047 168.033 230.949 158.1 231.544 148.167 232.218 138.233 231.956 128.3 231.762 118.367 231.312 108.433 231.891 98.5 231.609 98.589 231.609 98.39 224.088 98.692 216.566 98.55 209.044 98.281 201.522 98.5 194" filter="url(#f10o0upt0evca6)"/><path fill="#FEFECE" stroke="#000" stroke-width="1.5" d="M247.5,194 L247.3031,193.8031 L249.4312,192.3312 L251.2621,190.5621 L253.1154,188.8154 L254.7463,186.8463 L256.5,185"/><path fill="#FEFECE" stroke="#000" stroke-width="1.5" d="M98.5,194 L98.5,193.1998 L108.4333,193.6034 L118.3667,194.1874 L128.3,194.1166 L138.2333,194.1725 L148.1667,194.1304 L158.1,194.4973 L168.0333,194.3926 L177.9667,194.8949 L187.9,194.4225 L197.8333,193.525 L207.7667,194.0107 L217.7,193.7879 L227.6333,194.5995 L237.5667,193.6257 L247.5,194"/><path fill="#FEFECE" stroke="#000" stroke-width="1.5" d="M247.5,194 L247.5795,194 L247.336,201.5219 L247.7117,209.0438 L247.1985,216.5656 L247.6058,224.0875 L247.5,231.6094"/><text x="113.5" y="218.533" fill="#000" font-family="sans-serif" font-size="14" lengthAdjust="spacingAndGlyphs" textLength="119">Banana Pi X墙路由</text><polygon fill="#FEFECE" stroke="#000" stroke-width="1.5" points="75 302 74.925 301.925 76.83 299.83 78.955 297.955 80.99 295.99 83.08 294.08 85 292 85 291.713 95.167 291.386 105.333 292.361 115.5 291.568 125.667 291.965 135.833 291.558 146 292.726 156.167 292.228 166.333 292.337 176.5 291.354 186.667 292.606 196.833 292.166 207 292 206.761 292 206.794 299.522 206.792 307.044 206.811 314.566 206.955 322.087 207 329.609 207.173 329.782 205.136 331.745 203.124 333.733 200.962 335.571 198.879 337.489 197 339.609 197 339.344 186.833 339.224 176.667 338.966 166.5 339.284 156.333 339.777 146.167 340.022 136 339.866 125.833 339.502 115.667 340.045 105.5 339.696 95.333 339.607 85.167 340.198 75 339.609 75.14 339.609 74.988 332.087 74.929 324.566 75.006 317.044 75.196 309.522 75 302" filter="url(#f10o0upt0evca6)"/><path fill="#FEFECE" stroke="#000" stroke-width="1.5" d="M197,302 L197.057,302.057 L198.9251,300.3251 L200.6944,298.4944 L202.4488,296.6488 L204.0186,294.6186 L206,293"/><path fill="#FEFECE" stroke="#000" stroke-width="1.5" d="M75,302 L75,301.4156 L85.1667,301.6412 L95.3333,301.2024 L105.5,301.9453 L115.6667,302.9172 L125.8333,302.0008 L136,302.5696 L146.1667,301.8051 L156.3333,302.6078 L166.5,302.5487 L176.6667,302.1317 L186.8333,301.8961 L197,302"/><path fill="#FEFECE" stroke="#000" stroke-width="1.5" d="M197,302 L196.8325,302 L196.9247,309.5219 L196.942,317.0438 L196.7003,324.5656 L197.0124,332.0875 L197,339.6094"/><text x="90" y="326.533" fill="#000" font-family="sans-serif" font-size="14" lengthAdjust="spacingAndGlyphs" textLength="92">占美x86小主机</text><polygon fill="#FEFECE" stroke="#000" stroke-width="1.5" points="242.5 302 242.423 301.923 244.387 299.887 246.519 298.019 248.628 296.128 250.401 293.901 252.5 292 252.5 291.708 262.417 291.717 272.333 291.729 282.25 292.071 292.167 292.002 302.083 291.817 312 291.64 321.917 292.107 331.833 291.296 341.75 291.891 351.667 292.134 361.583 292.658 371.5 292 371.567 292 371.362 299.522 371.543 307.044 371.401 314.566 371.557 322.087 371.5 329.609 371.531 329.64 369.642 331.751 367.499 333.609 365.656 335.765 363.667 337.776 361.5 339.609 361.5 339.145 351.583 339.878 341.667 339.858 331.75 339.958 321.833 339.5 311.917 339.35 302 339.178 292.083 340.142 282.167 340.028 272.25 339.853 262.333 339.519 252.417 339.289 242.5 339.609 242.461 339.609 242.697 332.087 242.584 324.566 242.306 317.044 242.512 309.522 242.5 302" filter="url(#f10o0upt0evca6)"/><path fill="#FEFECE" stroke="#000" stroke-width="1.5" d="M361.5,302 L361.6441,302.1441 L363.0864,299.9864 L365.1835,298.4835 L367.1135,296.8135 L368.7173,294.8173 L370.5,293"/><path fill="#FEFECE" stroke="#000" stroke-width="1.5" d="M242.5,302 L242.5,302.7995 L252.4167,301.5193 L262.3333,301.3051 L272.25,302.7483 L282.1667,302.6912 L292.0833,301.4203 L302,302.6387 L311.9167,301.3921 L321.8333,302.2604 L331.75,301.8246 L341.6667,302.7406 L351.5833,301.2442 L361.5,302"/><path fill="#FEFECE" stroke="#000" stroke-width="1.5" d="M361.5,302 L361.6581,302 L361.6022,309.5219 L361.3983,317.0438 L361.2588,324.5656 L361.7814,332.0875 L361.5,339.6094"/><text x="257.5" y="326.533" fill="#000" font-family="sans-serif" font-size="14" lengthAdjust="spacingAndGlyphs" textLength="89">R6300v2 WIFI</text><polygon fill="#FEFECE" stroke="#000" stroke-width="1.5" points="38 410 38.141 410.141 40.046 408.046 42.127 406.127 44.13 404.13 46.041 402.041 48 400 48 399.974 57.556 399.573 67.111 399.535 76.667 399.429 86.222 399.392 95.778 400.318 105.333 400.732 114.889 400.087 124.444 399.81 134 400 134.214 400 133.823 407.522 133.928 415.044 133.912 422.566 134.125 430.087 134 437.609 133.982 437.591 131.836 439.445 129.956 441.565 127.936 443.545 126.017 445.627 124 447.609 124 446.89 114.444 446.89 104.889 447.377 95.333 447.779 85.778 447.599 76.222 447.094 66.667 447.578 57.111 447.433 47.556 447.668 38 447.609 38.179 447.609 37.975 440.087 37.817 432.566 38.113 425.044 37.926 417.522 38 410" filter="url(#f10o0upt0evca6)"/><path fill="#FEFECE" stroke="#000" stroke-width="1.5" d="M124,410 L123.8569,409.8569 L125.9497,408.3497 L127.7588,406.5588 L129.2779,404.4779 L131.286,402.886 L133,401"/><path fill="#FEFECE" stroke="#000" stroke-width="1.5" d="M38,410 L38,409.787 L47.5556,410.662 L57.1111,410.8601 L66.6667,409.0134 L76.2222,409.2024 L85.7778,409.3 L95.3333,410.0445 L104.8889,409.7219 L114.4444,409.1098 L124,410"/><path fill="#FEFECE" stroke="#000" stroke-width="1.5" d="M124,410 L123.8232,410 L123.8091,417.5219 L124.1325,425.0438 L123.8202,432.5656 L124.0791,440.0875 L124,447.6094"/><text x="53" y="434.533" fill="#000" font-family="sans-serif" font-size="14" lengthAdjust="spacingAndGlyphs" textLength="56">台式电脑</text><polygon fill="#FEFECE" stroke="#000" stroke-width="1.5" points="169 410 169.002 410.002 170.97 407.97 173.003 406.003 174.879 403.879 176.912 401.912 179 400 179 399.301 189 399.298 199 400.572 209 400.418 219 400.452 229 400.277 239 400.125 249 400.676 259 399.57 269 399.287 279 400 279.067 400 278.852 407.522 279.169 415.044 278.997 422.566 279.041 430.087 279 437.609 278.885 437.494 276.954 439.564 274.888 441.497 273.131 443.74 271.035 445.644 269 447.609 269 447.781 259 448.173 249 447.731 239 447.943 229 447.031 219 447.557 209 447.249 199 447.522 189 447.397 179 447.197 169 447.609 169.208 447.609 169.196 440.087 169.201 432.566 169.125 425.044 169.197 417.522 169 410" filter="url(#f10o0upt0evca6)"/><path fill="#FEFECE" stroke="#000" stroke-width="1.5" d="M269,410 L268.8315,409.8315 L270.7757,408.1757 L272.6788,406.4788 L274.5189,404.7189 L275.9844,402.5844 L278,401"/><path fill="#FEFECE" stroke="#000" stroke-width="1.5" d="M169,410 L169,410.5332 L179,410.0398 L189,409.7063 L199,409.3952 L209,409.862 L219,409.8771 L229,409.4569 L239,409.6949 L249,410.3639 L259,409.8815 L269,410"/><path fill="#FEFECE" stroke="#000" stroke-width="1.5" d="M269,410 L269.2071,410 L268.8531,417.5219 L268.8205,425.0438 L268.9191,432.5656 L268.9264,440.0875 L269,447.6094"/><text x="184" y="434.533" fill="#000" font-family="sans-serif" font-size="14" lengthAdjust="spacingAndGlyphs" textLength="70">笔记本电脑</text><polygon fill="#FEFECE" stroke="#000" stroke-width="1.5" points="314 410 314.063 410.063 316.03 408.03 318.069 406.069 320.05 404.05 321.851 401.851 324 400 324 399.904 333.556 399.642 343.111 399.66 352.667 399.695 362.222 400.507 371.778 400.28 381.333 400.378 390.889 399.921 400.444 399.726 410 400 409.987 400 409.862 407.522 410.136 415.044 410.079 422.566 410.005 430.087 410 437.609 410.032 437.641 407.88 439.489 406.171 441.781 403.925 443.534 401.921 445.531 400 447.609 400 447.386 390.444 448.037 380.889 447.262 371.333 447.691 361.778 447.384 352.222 448.105 342.667 447.921 333.111 447.185 323.556 447.853 314 447.609 313.963 447.609 313.823 440.087 313.886 432.566 313.959 425.044 313.831 417.522 314 410" filter="url(#f10o0upt0evca6)"/><path fill="#FEFECE" stroke="#000" stroke-width="1.5" d="M400,410 L400.0791,410.0791 L401.8537,408.2537 L403.5891,406.3891 L405.2795,404.4795 L407.3596,402.9596 L409,401"/><path fill="#FEFECE" stroke="#000" stroke-width="1.5" d="M314,410 L314,410.8834 L323.5556,410.9967 L333.1111,410.3596 L342.6667,409.0841 L352.2222,410.9584 L361.7778,410.8787 L371.3333,410.8413 L380.8889,410.4367 L390.4444,410.4746 L400,410"/><path fill="#FEFECE" stroke="#000" stroke-width="1.5" d="M400,410 L399.8346,410 L399.799,417.5219 L400.1576,425.0438 L400.2219,432.5656 L399.9737,440.0875 L400,447.6094"/><text x="329" y="434.533" fill="#000" font-family="sans-serif" font-size="14" lengthAdjust="spacingAndGlyphs" textLength="56">平板电脑</text><polygon fill="#FEFECE" stroke="#000" stroke-width="1.5" points="445 410 445.026 410.026 447.123 408.123 449.16 406.16 451.031 404.031 453.094 402.094 455 400 455 400.526 464.556 399.702 474.111 399.553 483.667 399.336 493.222 400.341 502.778 399.815 512.333 400.137 521.889 399.37 531.444 400.237 541 400 541.037 400 541.17 407.522 541.205 415.044 540.938 422.566 540.805 430.087 541 437.609 541.078 437.687 539.129 439.738 537.139 441.748 534.934 443.543 532.835 445.444 531 447.609 531 447.603 521.444 447.077 511.889 448.021 502.333 447.013 492.778 447.745 483.222 447.767 473.667 448.131 464.111 448.054 454.556 447.771 445 447.609 444.929 447.609 445.173 440.087 444.978 432.566 445.103 425.044 445.032 417.522 445 410" filter="url(#f10o0upt0evca6)"/><path fill="#FEFECE" stroke="#000" stroke-width="1.5" d="M531,410 L531.1224,410.1224 L532.8894,408.2894 L534.624,406.424 L536.4766,404.6766 L538.2326,402.8326 L540,401"/><path fill="#FEFECE" stroke="#000" stroke-width="1.5" d="M445,410 L445,410.9536 L454.5556,409.5686 L464.1111,410.931 L473.6667,409.3594 L483.2222,410.0459 L492.7778,410.0069 L502.3333,410.4399 L511.8889,410.3277 L521.4444,410.4397 L531,410"/><path fill="#FEFECE" stroke="#000" stroke-width="1.5" d="M531,410 L531.1463,410 L531.2887,417.5219 L531.2671,425.0438 L530.6728,432.5656 L531.1096,440.0875 L531,447.6094"/><text x="460" y="434.533" fill="#000" font-family="sans-serif" font-size="14" lengthAdjust="spacingAndGlyphs" textLength="56">各类手机</text><path fill="none" stroke="#A80036" stroke-width="1" d="M257.336,108.234 L257.4688,108.3407 L251.4052,116.5776 L245.0232,124.5588 L238.7569,132.633 L231.0664,139.5631 L224.7725,147.615 L219.0015,156.087 L212.4993,163.9716 L206.7901,172.4932 L199.739,179.937"/><polygon fill="#A80036" stroke="#A80036" stroke-width="1" points="196.594 183.852 196.605 183.873 198.352 182.964 200.205 182.259 201.742 180.941 203.605 180.256 205.349 179.34 205.323 179.106 204.248 179.681 203.12 179.776 201.961 179.589 200.827 179.624 199.725 179.954 199.82 179.964 199.828 178.854 199.59 177.716 199.354 176.579 199.391 175.472 199.112 174.33 199.048 174.314 198.426 176.186 198.15 178.151 197.753 180.084 197.339 182.011 196.594 183.852"/><path fill="none" stroke="#A80036" stroke-width="1" d="M122.95,108.234 L123.1537,108.3476 L128.4725,117.4443 L132.3815,125.7552 L138.5096,135.303 L142.4791,143.6476 L148.091,152.9077 L152.2123,161.3369 L157.9101,170.6449 L162.616,179.4"/><polygon fill="#A80036" stroke="#A80036" stroke-width="1" points="165.098 183.852 164.915 183.835 165.121 181.909 164.948 179.947 164.466 177.958 164.168 175.985 164.21 174.043 164.306 174.071 163.968 175.15 163.512 176.197 163.074 177.249 162.755 178.334 162.664 179.485 162.631 179.371 161.53 179.016 160.53 179.018 159.353 178.396 158.25 178.036 157.222 177.938 157.214 177.928 158.766 179.08 160.339 180.259 162.021 181.585 163.517 182.661 165.098 183.852"/><path fill="none" stroke="#A80036" stroke-width="1" d="M169.972,232 L169.4391,231.814 L166.4969,241.9452 L162.8613,251.8344 L158.899,261.6095 L155.3414,271.5259 L153.0047,281.8685 L149.141,291.678"/><polygon fill="#FFF" stroke="#FFF" stroke-width="1" points="168.594 264.377 167.654 267.019 166.438 268.338 164.397 270.07 162.543 271.52 159.119 272.318 156.294 271.222 154.461 270.202 151.768 268.969 150.803 266.35 149.875 264.423 149.075 262.157 149.663 258.665 151.407 257.063 153.131 254.526 155.597 252.231 158.115 252.102 159.943 251.351 163.048 251.815 164.681 253.267 167.355 255.173 168.259 257.501 169.057 259.32 169.316 262.275"/><path fill="#FFF" stroke="#A80036" stroke-width="1.5" d="M150.5603,266.1551 A10,10 0 0 0 163.9124 270.8157"/><path fill="#FFF" stroke="#A80036" stroke-width="1.5" d="M168.573,257.4636 A10,10 0 0 0 155.2209 252.803"/><polygon fill="#FFF" stroke="#A80036" stroke-width="1.5" points="165.471 263.35 164.822 265.381 163.436 266.547 162.104 267.543 160.795 267.537 158.896 267.854 157.37 267.7 156.283 266.425 155.348 265.557 154.166 264.17 154.018 263.033 153.628 261.839 153.753 260.471 153.927 258.964 155.053 257.697 156.721 256.71 158.042 256.258 159.83 255.578 161.239 255.703 162.129 256.551 163.5 256.857 164.101 257.89 165.18 259.375 165.779 261.249 165.3 262.932"/><path fill="none" stroke="#A80036" stroke-width="1" d="M205.991,232 L205.4941,231.3953 L213.4625,237.9029 L222.4529,245.6544 L229.9447,251.5819 L238.544,258.8574 L246.961,265.9109 L254.765,272.2186 L262.4183,278.3427 L270.12,284.5259 L278.618,291.678"/><polygon fill="#FFF" stroke="#FFF" stroke-width="1" points="252.269 265.315 249.941 267.353 248.436 270.054 246.531 270.348 244.458 271.903 242.67 272.166 239.993 272.065 238.305 270.79 235.953 269.091 233.843 267.134 233.045 263.932 232.682 260.986 232.822 257.799 234.758 255.661 236.237 254.501 237.502 252.77 240.695 252.37 243.211 251.592 246.319 252.842 248.75 254.765 250.421 256.016 251.348 258.297 252.297 260.744 251.682 263.401"/><path fill="#FFF" stroke="#A80036" stroke-width="1.5" d="M243.2422,271.7618 A10,10 0 0 0 252.2206 260.8353"/><path fill="#FFF" stroke="#A80036" stroke-width="1.5" d="M241.2941,251.8569 A10,10 0 0 0 232.3157 262.7834"/><polygon fill="#FFF" stroke="#A80036" stroke-width="1.5" points="248.131 263.031 247.569 263.996 247.442 265.523 245.951 266.731 244.38 267.12 242.775 267.514 241.704 268.043 239.632 267.608 238.739 266.952 237.954 266.113 237.167 264.247 236.476 262.582 236.515 261.301 236.467 259.796 236.825 258.708 237.782 258.043 238.731 257.416 239.509 256.374 240.635 255.674 242.297 255.478 243.629 255.82 245.096 256.126 246.017 257.13 247.385 258.506 247.769 259.71 248.103 261.274 247.926 262.509"/><path fill="none" stroke="#A80036" stroke-width="1" d="M259.046,340 L259.2156,340.3537 L249.8079,343.6015 L241.0869,348.2811 L232.2548,352.7289 L223.2519,356.8208 L214.2138,360.8392 L205.8257,366.2129 L196.7968,370.2506 L187.6146,373.9684 L178.5249,377.8793 L169.6627,382.2645 L160.6612,386.3593 L152.3859,391.968 L142.7722,394.7864 L134.241,399.8617"/><polygon fill="#FFF" stroke="#FFF" stroke-width="1" points="206.471 372.596 205.83 374.707 204.181 375.703 202.971 377.097 201.45 379.304 198.496 380.243 195.991 380.191 192.931 378.771 191.243 378.297 188.469 376.634 187.771 373.684 186.792 371.267 186.773 368.51 187.081 366.433 188.089 364.239 189.633 362.302 192.288 360.595 195.561 360.277 197.283 359.896 199.696 359.882 202.173 362.174 204.554 363.464 206.209 366.179 206.203 369.066 207.065 371.122"/><path fill="#FFF" stroke="#A80036" stroke-width="1.5" d="M187.2369,366.6003 A10,10 0 0 0 193.3529 379.3516"/><path fill="#FFF" stroke="#A80036" stroke-width="1.5" d="M206.1041,373.2356 A10,10 0 0 0 199.9881 360.4843"/><polygon fill="#FFF" stroke="#A80036" stroke-width="1.5" points="202.39 371.75 201.521 372.911 200.743 374.048 199.13 375.075 197.353 376.163 196.098 375.67 194.375 375.251 192.72 374.446 191.453 373.54 191.236 371.8 190.388 370.907 190.809 368.991 191.134 367.478 192.058 366.551 193.303 365.031 194.68 364.549 195.982 363.949 197.932 363.888 199.06 364.727 200.554 365.199 201.242 366.527 202.048 367.479 202.712 369.129 202.404 370.345"/><path fill="none" stroke="#A80036" stroke-width="1" d="M288.99,340 L289.1087,340.0929 L283.3875,347.6467 L278.0637,355.5115 L271.2449,362.2058 L265.5909,369.8121 L259.3712,376.9755 L254.2327,384.9855 L248.3601,392.4206 L242.261,399.6784"/><polygon fill="#FFF" stroke="#FFF" stroke-width="1" points="275.3 372.959 274.073 375.655 272.701 376.889 270.257 378.047 267.725 379.964 264.606 379.165 261.186 379.214 259.983 377.342 258.019 375.464 256.206 373.317 255.356 370.573 255.547 367.658 256.907 364.957 258.707 361.827 261.415 360.919 263.678 360.258 265.709 359.316 267.547 359.459 270.394 360.872 271.776 362.32 273.578 363.252 274.492 365.425 274.948 368.033 275.911 370.658"/><path fill="#FFF" stroke="#A80036" stroke-width="1.5" d="M255.7224,371.0174 A10,10 0 0 0 266.8572 379.7361"/><path fill="#FFF" stroke="#A80036" stroke-width="1.5" d="M275.5759,368.6013 A10,10 0 0 0 264.4411 359.8826"/><polygon fill="#FFF" stroke="#A80036" stroke-width="1.5" points="271.603 371.569 270.531 373.15 269.351 374.387 267.819 375.225 266.527 375.45 264.558 375.799 263.208 375.096 262.014 374.893 261.086 373.815 260.673 372.623 260.166 371.401 259.769 370.233 259.878 368.523 260.101 367.045 261.457 365.834 262.234 364.484 264.322 364.161 265.861 364.14 267.649 364 269.464 364.778 270.663 366.269 271.654 367.894 271.944 369.702 271.858 370.985"/><path fill="none" stroke="#A80036" stroke-width="1" d="M318.934,340 L318.7733,339.9166 L323.6606,348.6827 L327.8596,357.0917 L331.3198,365.1173 L336.6588,374.1178 L341.1234,382.6646 L345.4076,391.1177 L349.899,399.6784"/><polygon fill="#FFF" stroke="#FFF" stroke-width="1" points="343.597 372.368 342.967 375.506 341.436 376.962 339.727 377.753 338.35 379.153 336.274 379.61 332.965 379.559 330.365 378.794 327.75 377.442 326.187 374.38 324.538 372.194 323.963 369.043 325.331 366.31 326.948 364.122 327.691 361.936 329.284 360.681 331.433 360.553 334.175 359.251 336.93 359.66 338.448 361.296 341.064 362.491 343.313 364.544 344.248 366.497 344.201 369.207 343.715 371.229"/><path fill="#FFF" stroke="#A80036" stroke-width="1.5" d="M331.3813,379.3425 A10,10 0 0 0 343.9343 372.8291"/><path fill="#FFF" stroke="#A80036" stroke-width="1.5" d="M337.4209,360.2762 A10,10 0 0 0 324.868 366.7896"/><polygon fill="#FFF" stroke="#A80036" stroke-width="1.5" points="339.783 371.514 339.488 373.125 338.439 374.635 337.274 375.287 335.53 375.846 334.094 375.556 332.095 375.391 330.546 374.667 329.664 373.998 329.172 372.488 328.767 370.623 328.625 369.397 329.208 367.557 329.725 366.606 329.945 365.32 331.568 364.108 333.427 363.977 334.743 364.112 336.036 363.888 337.481 365.072 338.697 365.982 339.79 366.576 340.125 368.396 340.258 370.111"/><path fill="none" stroke="#A80036" stroke-width="1" d="M347.359,340 L347.3933,340.0602 L356.1606,345.0731 L364.7559,349.7844 L373.4174,354.6117 L382.4894,360.1593 L391.0367,364.7863 L399.8685,369.9124 L408.4542,374.6067 L417.4783,380.0703 L426.0932,384.816 L435.3314,390.6552 L443.9371,395.3846 L452.399,399.8617"/><polygon fill="#FFF" stroke="#FFF" stroke-width="1" points="409.434 372.866 407.744 375.64 406.158 378.078 403.051 379.229 400.757 379.311 398.997 380.057 397.35 379.192 394.939 378.494 392.157 376.53 391.082 373.319 390.476 370.966 389.827 368.877 390.038 366.811 391.475 365.313 392.361 363.055 394.168 361.635 396.419 359.961 398.832 360.33 400.645 359.54 403.371 361.12 406.368 361.81 408.42 364.573 409.049 367.415 410.37 370.481"/><path fill="#FFF" stroke="#A80036" stroke-width="1.5" d="M402.4988,379.5625 A10,10 0 0 0 409.5011 367.2756"/><path fill="#FFF" stroke="#A80036" stroke-width="1.5" d="M397.2142,360.2734 A10,10 0 0 0 390.2119 372.5603"/><polygon fill="#FFF" stroke="#A80036" stroke-width="1.5" points="405.52 371.953 405.144 373.469 403.287 374.531 401.795 375.371 400.466 375.928 399.164 376.159 397.741 375.476 396.005 374.989 394.796 373.655 394.553 372.104 393.787 370.484 394.015 368.898 394.128 367.171 395.111 366.052 395.958 365.031 397.351 364.213 398.593 363.861 400.186 364.176 401.276 364.088 402.989 364.545 403.601 365.689 404.784 366.649 405.767 367.992 406.11 369.554 405.93 371.045"/></g></svg>